<svg width="15" height="16" viewBox="0 0 15 16" fill="none" xmlns="http://www.w3.org/2000/svg">
<path d="M12.9 5.99484L3.70002 0.61284C3.3497 0.410581 2.95224 0.304289 2.54773 0.304689C2.14322 0.305088 1.74596 0.412166 1.39605 0.615117C1.04613 0.818068 0.755932 1.10971 0.554721 1.46063C0.353511 1.81155 0.248409 2.20933 0.250018 2.61384V13.3778C0.248409 13.7824 0.353511 14.1801 0.554721 14.531C0.755932 14.882 1.04613 15.1736 1.39605 15.3766C1.74596 15.5795 2.14322 15.6866 2.54773 15.687C2.95224 15.6874 3.3497 15.5811 3.70002 15.3788L12.9 9.99684C13.254 9.79624 13.5484 9.50533 13.7532 9.1538C13.9581 8.80227 14.066 8.4027 14.066 7.99584C14.066 7.58898 13.9581 7.18941 13.7532 6.83788C13.5484 6.48635 13.254 6.19544 12.9 5.99484Z" fill="white"/>
</svg>
