<svg width="30" height="26" viewBox="0 0 30 26" fill="none" xmlns="http://www.w3.org/2000/svg">
<path d="M26.8631 1.84055C26.925 1.83824 26.9654 1.84684 26.9892 1.89019C27.011 1.92991 27.016 1.99775 27.0077 2.11457C27.0001 2.22477 26.9809 2.38163 26.9578 2.53717C26.9346 2.69139 26.9068 2.84593 26.8816 2.95481C26.8509 3.08751 26.8174 3.16826 26.7592 3.22816C26.7006 3.28839 26.6417 3.30262 26.5553 3.30825C26.4786 3.31288 26.3743 3.31255 26.2747 3.30659C26.1847 3.3013 26.096 3.29137 26.0308 3.27714C25.9567 3.26092 25.911 3.23776 25.8882 3.19209C25.8644 3.14443 25.867 3.07725 25.8908 2.97367C25.9113 2.88399 25.9481 2.76618 25.9894 2.6477C26.0354 2.51665 26.0881 2.38262 26.1318 2.285C26.1794 2.17844 26.2204 2.10729 26.2704 2.05136C26.324 1.99113 26.3783 1.95804 26.4504 1.92991C26.51 1.90674 26.5851 1.88556 26.6583 1.86968C26.7334 1.85346 26.8082 1.84254 26.8638 1.84055H26.8631ZM26.8714 2.0176C26.8582 1.99345 26.8313 1.98881 26.789 1.99047C26.7387 1.99212 26.6689 2.00271 26.5977 2.01793C26.5292 2.0325 26.4604 2.05202 26.4081 2.07254C26.3664 2.08875 26.3383 2.10431 26.3184 2.12648C26.2949 2.15262 26.2707 2.1973 26.2376 2.2711C26.1969 2.36211 26.1473 2.48819 26.104 2.61262C26.0646 2.72547 26.0302 2.83534 26.012 2.91543C25.9947 2.99055 25.9918 3.03754 26.0067 3.067C26.0222 3.0981 26.0589 3.11498 26.1202 3.12855C26.1821 3.14212 26.2678 3.15171 26.3555 3.15701C26.4554 3.16297 26.5563 3.16363 26.6278 3.15933C26.6814 3.15602 26.7125 3.15238 26.7215 3.14344C26.7304 3.13418 26.742 3.09413 26.7605 3.01372C26.7847 2.91046 26.8112 2.76055 26.834 2.60964C26.8568 2.45675 26.8757 2.30386 26.883 2.19829C26.8896 2.10067 26.8869 2.04573 26.8717 2.01827L26.8714 2.0176Z" fill="#FEFEFE"/>
<path d="M27.8878 1.99641C27.8594 1.99873 27.8405 2.0027 27.8326 2.01163C27.8167 2.03017 27.7991 2.07385 27.7766 2.15294C27.7511 2.24329 27.7247 2.36706 27.7015 2.4948C27.6747 2.64306 27.6519 2.79562 27.6396 2.90814C27.6287 3.00742 27.6257 3.07327 27.6393 3.11695C27.6519 3.15865 27.6816 3.18314 27.7353 3.20234C27.7918 3.22252 27.8742 3.23642 27.9613 3.24337C28.0539 3.25065 28.1506 3.25065 28.226 3.24205C28.2873 3.2351 28.3286 3.22517 28.3488 3.20564C28.3624 3.19274 28.3733 3.15667 28.3842 3.08883C28.3984 2.99782 28.4037 2.87239 28.4018 2.74532C28.3994 2.60765 28.3885 2.46799 28.3716 2.3654C28.3554 2.26811 28.3342 2.20457 28.3058 2.16022C28.278 2.11687 28.2422 2.09073 28.1972 2.06789C28.1499 2.04407 28.093 2.02421 28.0371 2.0113C27.9831 1.99906 27.9305 1.99343 27.8878 1.99674V1.99641ZM27.7799 1.94214C27.8372 1.87562 27.8931 1.85212 27.9586 1.84716C28.0086 1.84319 28.0678 1.84915 28.1264 1.86238C28.1867 1.87595 28.2472 1.89713 28.2972 1.92228C28.3478 1.94776 28.3885 1.97821 28.4213 2.03017C28.4537 2.08113 28.4779 2.15195 28.4954 2.25785C28.513 2.36507 28.5242 2.50969 28.5265 2.65166C28.5288 2.78635 28.5232 2.91972 28.5077 3.01834C28.4875 3.14641 28.4468 3.23344 28.3789 3.29864C28.3177 3.35721 28.2472 3.38104 28.1572 3.3913C28.0768 3.40056 27.9752 3.4009 27.8792 3.39328C27.7885 3.386 27.7015 3.37111 27.6403 3.34927C27.5728 3.32511 27.535 3.29169 27.5172 3.23311C27.4996 3.17652 27.5026 3.09941 27.5152 2.98557C27.5278 2.86975 27.5513 2.71288 27.5787 2.56132C27.6029 2.42828 27.631 2.29822 27.6581 2.20159C27.6929 2.07948 27.7313 1.99873 27.7806 1.94181L27.7799 1.94214Z" fill="#FEFEFE"/>
<path d="M26.9348 2.10264C26.8914 2.1258 26.8481 2.1493 26.8163 2.19033C26.7971 2.21515 26.7769 2.2499 26.7551 2.29359C26.7303 2.34356 26.7048 2.4018 26.6783 2.467C26.6508 2.53451 26.6214 2.61095 26.5946 2.68376C26.5698 2.7516 26.5473 2.81712 26.5314 2.86875C26.5171 2.91508 26.5092 2.94685 26.5066 2.96935C26.5042 2.98855 26.5052 3.00112 26.5079 3.01204C26.5109 3.02363 26.5162 3.03422 26.5251 3.04282C26.5354 3.05242 26.5509 3.06069 26.5744 3.06698C26.625 3.08022 26.7117 3.08386 26.7984 3.0875L26.719 3.23774C26.63 3.2341 26.5403 3.23046 26.4831 3.21524C26.4526 3.20729 26.4311 3.19571 26.4159 3.18115C26.3993 3.1656 26.3901 3.14673 26.3848 3.12622C26.3788 3.10437 26.3768 3.08022 26.3815 3.04414C26.3854 3.01237 26.3954 2.97068 26.4132 2.91243C26.4291 2.86081 26.4529 2.79098 26.4804 2.71586C26.5076 2.64206 26.5383 2.5623 26.5678 2.48983C26.5976 2.41669 26.626 2.3515 26.6538 2.2959C26.6849 2.23369 26.7167 2.18008 26.7511 2.13573C26.8252 2.03976 26.8928 2.00369 26.9599 1.96795L26.9609 1.96729C26.9586 1.97854 26.9351 2.10231 26.9341 2.1033L26.9348 2.10264Z" fill="#FEFEFE"/>
<path d="M28.3496 2.15766L28.3333 2.16692C28.3224 2.18115 28.3089 2.21127 28.2893 2.27349C28.2675 2.34232 28.2437 2.43862 28.2212 2.53889C28.1934 2.66333 28.1682 2.79471 28.1527 2.88869C28.1388 2.97209 28.1328 3.02437 28.1318 3.05846C28.1311 3.08858 28.1341 3.1038 28.1388 3.11538C28.1434 3.12696 28.1494 3.13557 28.1583 3.14219C28.1682 3.14947 28.1828 3.15509 28.204 3.16039C28.2281 3.16668 28.2566 3.17197 28.287 3.1766L28.3913 3.1905L28.3069 3.34009L28.2016 3.32552C28.1666 3.32023 28.1358 3.3146 28.1133 3.30898C28.0878 3.30236 28.0686 3.29442 28.0534 3.28316C28.0372 3.27125 28.0262 3.25636 28.0186 3.2365C28.0107 3.21665 28.0057 3.19183 28.007 3.14649C28.0084 3.10545 28.0147 3.04688 28.0296 2.95819C28.0454 2.86222 28.0713 2.72753 28.1 2.59879C28.1235 2.49256 28.1494 2.3903 28.1725 2.31618C28.203 2.21921 28.2347 2.15832 28.2665 2.11596C28.3085 2.06003 28.341 2.04216 28.3731 2.02429L28.3499 2.15799L28.3496 2.15766Z" fill="#FEFEFE"/>
<path d="M19.1082 11.2113C19.1579 11.1795 19.2217 11.1352 19.2883 11.0888C19.4183 10.9985 19.5609 10.8992 19.7036 10.8261C19.8131 10.7698 19.9193 10.7311 20.0444 10.7083C20.1669 10.6858 20.3072 10.6785 20.4862 10.6851C20.6974 10.6927 20.9631 10.7192 21.2087 10.7437C21.3662 10.7596 21.5158 10.7745 21.6395 10.7831C21.7881 10.7933 21.8884 10.793 21.9619 10.786C22.03 10.7794 22.0744 10.7662 22.1138 10.75C22.1482 10.7357 22.1796 10.7179 22.2299 10.6563C22.2892 10.5842 22.3712 10.4578 22.5023 10.2291C22.6257 10.0136 22.7866 9.71911 22.9471 9.41796C23.1413 9.05394 23.3399 8.67237 23.4756 8.4053C23.5974 8.16505 23.6665 8.02109 23.7155 7.90129C23.7641 7.78149 23.7933 7.68685 23.8346 7.54455C23.877 7.3996 23.9329 7.20501 23.9852 7.0038C24.0368 6.80491 24.0848 6.60072 24.1116 6.43559C24.1378 6.27442 24.1437 6.15032 24.1331 6.03615C24.1225 5.92363 24.0947 5.81674 24.0537 5.69098C24.0094 5.5553 23.9505 5.40109 23.8916 5.24588C23.8363 5.10126 23.781 4.95565 23.735 4.8193C23.688 4.67899 23.6533 4.55456 23.6318 4.43906C23.6099 4.32092 23.6017 4.21138 23.6076 4.10416C23.6136 3.99495 23.6344 3.88706 23.6698 3.78514C23.7046 3.6842 23.7532 3.58922 23.8154 3.50384C23.878 3.41747 23.9541 3.34102 24.0468 3.26822C24.1364 3.19773 24.2423 3.13055 24.3678 3.06039C24.4565 3.01075 24.5445 2.96508 24.6348 2.91809C24.8145 2.82476 25.0022 2.72714 25.1465 2.62885C25.2533 2.55605 25.3381 2.48192 25.4109 2.39885C25.484 2.31546 25.5469 2.22081 25.6091 2.10829C25.6577 2.0206 25.7071 1.919 25.7583 1.81376C25.8411 1.64366 25.9291 1.4633 26.0353 1.29684C26.1217 1.16116 26.219 1.03805 26.3229 0.931491C26.4282 0.823938 26.5417 0.731938 26.6601 0.658471C26.7793 0.584673 26.9034 0.530069 27.0381 0.490356C27.1721 0.450975 27.3157 0.426817 27.4746 0.413249C27.6324 0.400012 27.8085 0.397364 27.9836 0.404976C28.1546 0.412587 28.3247 0.430457 28.476 0.457925C28.6223 0.484731 28.752 0.521133 28.8655 0.563493C28.9929 0.611147 29.1005 0.666744 29.1888 0.725651C29.2758 0.783564 29.3457 0.845118 29.4016 0.914283C29.4585 0.985103 29.5002 1.0632 29.5293 1.15289C29.5575 1.23827 29.574 1.33457 29.5843 1.43881C29.5942 1.53842 29.5985 1.64631 29.6015 1.75883L29.6038 1.85414C29.6088 2.04508 29.6137 2.24497 29.6366 2.41606C29.6495 2.51336 29.669 2.60337 29.6915 2.68809C29.714 2.77248 29.7401 2.85157 29.7666 2.92702L29.8096 3.04649C29.8503 3.15802 29.8881 3.26127 29.9096 3.35294C29.9251 3.4178 29.9328 3.47803 29.9357 3.54322C29.9387 3.60511 29.9371 3.67096 29.9337 3.75039C29.9304 3.82948 29.9258 3.92214 29.9129 4.04194C29.9 4.16207 29.8788 4.31 29.8431 4.49929C29.8047 4.70248 29.7488 4.95499 29.6746 5.24124C29.6121 5.4825 29.5363 5.74824 29.4469 6.02887C29.2845 6.53851 29.077 7.09448 28.8618 7.67162L28.7344 8.01381C28.6057 8.36063 28.4763 8.71473 28.3476 9.08107C28.2205 9.44345 28.0947 9.81641 27.973 10.2033C27.8525 10.5865 27.735 10.9859 27.6338 11.3414C27.5252 11.7219 27.4451 12.0145 27.3915 12.2094C27.2763 12.629 27.2763 12.6293 27.2174 12.7942C27.187 12.8785 27.1413 13.0053 27.092 13.132C27.0414 13.2624 26.9848 13.3968 26.9328 13.4964C26.8736 13.6096 26.8197 13.6817 26.6833 13.7479C26.5625 13.8068 26.3745 13.8588 26.043 13.9349C25.7269 14.0074 25.2682 14.1043 24.799 14.1996C24.3185 14.2973 23.8297 14.3919 23.4759 14.4554C23.1228 14.519 22.9001 14.5521 22.7091 14.556C22.5145 14.56 22.3573 14.5342 22.1366 14.4806C21.9198 14.4276 21.6432 14.3479 21.3404 14.2526C21.0369 14.1569 20.702 14.0434 20.3701 13.9233C20.0484 13.8068 19.7337 13.6857 19.4574 13.5738C19.1648 13.4554 18.9097 13.3445 18.7303 13.2585C18.5526 13.1731 18.4497 13.1118 18.3898 13.0632C18.3117 13.0003 18.2908 12.9497 18.2839 12.8997C18.2773 12.8541 18.2842 12.8183 18.2931 12.7707C18.2998 12.7352 18.3084 12.6916 18.3117 12.6323C18.3147 12.5771 18.314 12.5092 18.3133 12.4374C18.3123 12.3299 18.311 12.2127 18.3209 12.1111C18.3295 12.0208 18.3471 11.9433 18.3706 11.8748C18.3944 11.8053 18.4245 11.7461 18.4579 11.6928C18.4917 11.6392 18.5294 11.5909 18.5724 11.5472C18.6155 11.5035 18.6641 11.4641 18.7191 11.4294C18.7637 11.4009 18.8117 11.3764 18.8653 11.3486C18.9342 11.3132 19.0142 11.2719 19.1069 11.2126L19.1082 11.2113ZM19.3892 11.2338C19.3263 11.2775 19.2661 11.3192 19.2029 11.3599C19.1016 11.4244 19.0189 11.4674 18.9474 11.5042C18.8974 11.53 18.8527 11.5531 18.814 11.5773C18.771 11.6044 18.7329 11.6352 18.6992 11.6693C18.6651 11.7037 18.6353 11.7424 18.6082 11.7855C18.5811 11.8288 18.5569 11.8765 18.538 11.9311C18.5188 11.9867 18.5046 12.0509 18.4973 12.1267C18.4884 12.22 18.4897 12.3322 18.4904 12.4351C18.491 12.5119 18.492 12.584 18.4887 12.6409C18.4847 12.7131 18.4752 12.763 18.4675 12.8028C18.4616 12.8345 18.457 12.858 18.4593 12.8742C18.4606 12.8855 18.4682 12.8987 18.501 12.9252C18.5519 12.9662 18.6436 13.0205 18.8071 13.0989C18.9785 13.1813 19.23 13.2902 19.5245 13.4097C19.8029 13.5225 20.1159 13.643 20.4313 13.7572C20.7563 13.8747 21.0889 13.9872 21.3947 14.0838C21.6978 14.1794 21.9705 14.2582 22.1793 14.3092C22.3855 14.3595 22.5311 14.3836 22.7071 14.38C22.8865 14.3763 23.1019 14.3439 23.4461 14.2824C23.8002 14.2188 24.2877 14.1242 24.7655 14.0272C25.2259 13.9339 25.6819 13.8373 26.0046 13.7631C26.3219 13.6903 26.4996 13.6417 26.6069 13.5894C26.6989 13.5447 26.7363 13.4941 26.7776 13.415C26.8259 13.3223 26.8796 13.1939 26.9285 13.0685C26.9785 12.9398 27.0225 12.8167 27.052 12.7349C27.1115 12.5675 27.1119 12.5671 27.2224 12.1631C27.282 11.9463 27.371 11.6203 27.4646 11.2927C27.5652 10.9399 27.6827 10.5402 27.8052 10.1507C27.9266 9.76445 28.053 9.3895 28.1818 9.02283C28.3092 8.66045 28.4396 8.30371 28.5703 7.95193L28.6977 7.60974C28.9125 7.03425 29.119 6.47993 29.2802 5.97559C29.3682 5.69926 29.4433 5.4365 29.5052 5.1969C29.5777 4.9166 29.6326 4.66807 29.6707 4.46686C29.7054 4.28253 29.7259 4.13923 29.7385 4.02341C29.7511 3.90692 29.7557 3.81856 29.7587 3.74377C29.7617 3.66931 29.763 3.60809 29.7607 3.55216C29.7583 3.49921 29.7517 3.44957 29.7385 3.3943C29.7183 3.30925 29.6829 3.21229 29.6448 3.10738L29.6012 2.98626C29.5734 2.90651 29.5459 2.82311 29.5217 2.73376C29.4979 2.64407 29.4771 2.54678 29.4628 2.43956C29.439 2.25953 29.4337 2.05468 29.4287 1.85877L29.4264 1.76412C29.4234 1.65591 29.4195 1.55199 29.4099 1.45668C29.4009 1.36535 29.3864 1.28162 29.3622 1.20815C29.3394 1.13899 29.3076 1.07909 29.2646 1.02548C29.2206 0.970542 29.1637 0.920902 29.0918 0.873247C29.0134 0.82096 28.9178 0.77165 28.8043 0.729291C28.7004 0.690572 28.5806 0.657147 28.4445 0.631996C28.3009 0.605852 28.1394 0.588644 27.9763 0.581694C27.8108 0.574414 27.6424 0.577061 27.4895 0.589968C27.3409 0.602543 27.2088 0.624716 27.088 0.660126C26.9682 0.695205 26.858 0.743852 26.7528 0.809046C26.6469 0.874571 26.545 0.957635 26.4493 1.05493C26.3527 1.15355 26.2634 1.26706 26.1836 1.39182C26.0853 1.5457 25.9986 1.72375 25.9169 1.89153C25.8652 1.99776 25.8153 2.10035 25.7633 2.194C25.6955 2.31678 25.6256 2.42103 25.5429 2.51567C25.4598 2.61065 25.3642 2.69438 25.2454 2.77546C25.0909 2.88069 24.8989 2.98063 24.7159 3.07561C24.6209 3.12492 24.5276 3.17324 24.4531 3.21527C24.3367 3.28046 24.2384 3.34301 24.1556 3.40787C24.0759 3.47042 24.0107 3.53561 23.9581 3.60842C23.9058 3.68023 23.8647 3.75998 23.836 3.84338C23.8062 3.92942 23.7886 4.02142 23.7833 4.11475C23.778 4.20807 23.7857 4.30404 23.8048 4.40828C23.8247 4.51518 23.8571 4.63166 23.9018 4.76437C23.9442 4.89046 24.0004 5.03772 24.056 5.18432C24.1163 5.3435 24.1768 5.50169 24.2212 5.6377C24.2655 5.77372 24.296 5.89153 24.3079 6.02159C24.3198 6.15065 24.3135 6.28832 24.285 6.46438C24.2572 6.63679 24.2083 6.84627 24.1553 7.04914C24.103 7.25001 24.0464 7.44692 24.0034 7.59452C23.9594 7.74509 23.9289 7.84503 23.8786 7.9688C23.8283 8.09191 23.7575 8.23984 23.6328 8.48605C23.4991 8.74948 23.2998 9.13137 23.1023 9.50235C22.9365 9.8131 22.774 10.1109 22.6552 10.3184C22.5195 10.5547 22.4321 10.6888 22.3656 10.7698C22.2902 10.8615 22.2389 10.8903 22.1803 10.9144C22.1267 10.9366 22.0671 10.9542 21.9784 10.9628C21.8944 10.971 21.7845 10.9714 21.627 10.9608C21.5082 10.9525 21.3536 10.937 21.1905 10.9207C20.9476 10.8966 20.6841 10.8701 20.479 10.8628C20.3132 10.8569 20.1851 10.8632 20.0752 10.8833C19.9677 10.9032 19.8763 10.9363 19.7827 10.9846C19.6549 11.0501 19.5153 11.1471 19.3879 11.2355L19.3892 11.2338Z" fill="#FEFEFE"/>
<path d="M18.9316 11.354C19.0924 11.3153 19.2532 11.2765 19.8321 11.2286C20.0763 11.2084 20.4079 11.1859 20.7501 11.1644C21.1889 11.1369 21.636 11.1121 21.9351 11.0972C22.2032 11.0836 22.3561 11.078 22.4878 11.0909C22.6198 11.1041 22.7294 11.1359 22.9111 11.1978C23.0752 11.2537 23.2883 11.3302 23.5008 11.4083C23.7722 11.5079 24.0561 11.6148 24.2424 11.6866C24.4066 11.7498 24.4906 11.7839 24.526 11.8034C24.7256 11.9139 24.6332 11.9457 24.437 11.9794L24.397 11.9854C24.3328 11.9943 24.2295 12.0092 24.0978 12.0536C24.0154 12.0814 23.9211 12.1211 23.8254 12.1681C23.7344 12.2131 23.6424 12.2647 23.5597 12.319C23.478 12.3726 23.4051 12.4285 23.3337 12.4967C23.2615 12.5652 23.1894 12.6476 23.1093 12.7528C22.9832 12.9183 22.8353 13.1427 22.7125 13.329L22.598 13.5021C22.5272 13.6076 22.4732 13.6831 22.4286 13.7394C22.3789 13.8019 22.3399 13.8429 22.3015 13.8757C22.2618 13.9098 22.224 13.9343 22.1857 13.9525C22.1499 13.969 22.1138 13.9799 22.0741 13.9879C22.0357 13.9955 21.9931 14.0011 21.9067 13.9879C21.8239 13.9753 21.6998 13.9455 21.4983 13.884C21.3004 13.8237 21.029 13.7337 20.7405 13.6341C20.4393 13.5302 20.112 13.4127 19.8251 13.3062C19.5633 13.2089 19.3443 13.1235 19.1652 13.0507C18.9594 12.9663 18.8005 12.8965 18.6864 12.8419C18.5775 12.7896 18.5077 12.7505 18.458 12.7178C18.4077 12.685 18.3779 12.6592 18.3481 12.6334L18.456 12.4941C18.4848 12.5192 18.5143 12.5444 18.5619 12.5755C18.6102 12.6069 18.6784 12.6453 18.7856 12.6966C18.9005 12.7515 19.0587 12.821 19.2625 12.9041C19.4485 12.9795 19.6676 13.0652 19.9211 13.1592C20.1967 13.2618 20.524 13.3786 20.8351 13.4862C21.126 13.5865 21.397 13.6765 21.5913 13.7357C21.7928 13.7969 21.914 13.8264 21.9924 13.8383C22.0675 13.8499 22.1033 13.8456 22.135 13.839C22.1661 13.8327 22.1933 13.8247 22.2187 13.8128C22.2413 13.8022 22.2624 13.7887 22.2836 13.7701C22.3068 13.7499 22.3323 13.7235 22.366 13.6808C22.4044 13.6321 22.453 13.564 22.5189 13.466L22.6318 13.2959C22.7575 13.105 22.9087 12.8756 23.0428 12.6999C23.1354 12.5784 23.2195 12.4828 23.3042 12.4021C23.3896 12.3206 23.4746 12.2548 23.569 12.1932C23.6586 12.1347 23.7573 12.0791 23.8549 12.0307C23.9558 11.9808 24.0568 11.9387 24.1454 11.9086C24.1852 11.8954 24.2222 11.8845 24.2566 11.8755L24.1461 11.8325C23.9681 11.764 23.6864 11.6578 23.4051 11.5549C23.1831 11.4735 22.9686 11.396 22.8167 11.3444C22.639 11.2838 22.5321 11.2527 22.4047 11.2401C22.2767 11.2276 22.1261 11.2332 21.8617 11.2464C21.5592 11.2617 21.1111 11.2865 20.6776 11.3133C20.347 11.3338 20.0184 11.3566 19.7609 11.3778C19.1881 11.4251 19.0309 11.4632 18.8737 11.5009L18.9313 11.3533L18.9316 11.354Z" fill="#FEFEFE"/>
<path d="M24.4989 11.8308C24.5456 11.8216 24.5926 11.8123 24.6518 11.8054C24.7094 11.7987 24.7769 11.7948 24.8643 11.7961C24.947 11.7974 25.044 11.8037 25.1449 11.8126C25.2637 11.8232 25.3901 11.8375 25.5073 11.8523C25.5847 11.8623 25.6744 11.8752 25.7585 11.8871C25.8753 11.9036 25.9795 11.9185 26.0649 11.9268C26.1354 11.9334 26.1936 11.9354 26.2439 11.9321C26.2919 11.9288 26.3333 11.9205 26.3723 11.9063C26.4011 11.8957 26.4286 11.8811 26.4627 11.8388C26.5107 11.7795 26.5732 11.6743 26.6649 11.4853C26.7642 11.2812 26.8942 10.9846 27.0438 10.6203C27.1858 10.2741 27.3433 9.87137 27.5061 9.43289C27.6789 8.96826 27.8602 8.45696 28.0267 7.96586C28.1839 7.50189 28.3272 7.05744 28.4354 6.69044C28.5459 6.31582 28.6194 6.0236 28.6723 5.77044C28.7253 5.51694 28.7577 5.29985 28.7862 5.07647C28.8146 4.8521 28.8388 4.62144 28.8547 4.3868C28.8706 4.15151 28.8788 3.91158 28.8752 3.66934C28.8716 3.43074 28.8567 3.18882 28.8338 2.96809C28.8103 2.74041 28.7786 2.53589 28.7422 2.38201C28.7071 2.23176 28.6677 2.12983 28.6234 2.05438C28.5797 1.97959 28.53 1.93028 28.4748 1.88594C28.4188 1.84126 28.356 1.80056 28.2858 1.76515C28.2173 1.7304 28.1435 1.70161 28.0651 1.67877C27.985 1.65561 27.8976 1.6384 27.8083 1.62615C27.7192 1.61391 27.6276 1.60597 27.5376 1.60166C27.4489 1.59736 27.3608 1.59637 27.2735 1.59902C27.1868 1.60133 27.102 1.60729 27.0193 1.61656C26.9333 1.62615 26.8486 1.63906 26.7685 1.65627C26.6947 1.67182 26.6242 1.69135 26.5593 1.71451C26.4945 1.73768 26.4365 1.76415 26.3849 1.79691C26.3373 1.82703 26.2936 1.86376 26.2529 1.9091C26.1691 2.00309 26.0887 2.14771 25.9729 2.35619L25.9474 2.40186C25.821 2.62888 25.6559 2.92573 25.4772 3.32318C25.3848 3.52869 25.2882 3.76233 25.1912 4.02807C25.0943 4.29414 24.9963 4.59298 24.9017 4.92921C24.7921 5.31739 24.6862 5.7572 24.5846 6.17881C24.5105 6.48592 24.4387 6.78376 24.3669 7.05479C24.2835 7.36984 24.2034 7.63294 24.117 7.88445C24.0307 8.13596 23.937 8.37754 23.8258 8.6489C23.7136 8.92325 23.5849 9.22605 23.4578 9.5143C23.3327 9.79857 23.2083 10.0706 23.103 10.29C22.9962 10.5124 22.9078 10.6818 22.829 10.8241C22.7486 10.9694 22.6811 11.0819 22.6133 11.1944L22.5249 11.1739C22.5927 11.0611 22.6606 10.9482 22.7344 10.8145C22.8098 10.6782 22.8952 10.5144 22.9998 10.2963C23.1037 10.0799 23.2265 9.81081 23.3506 9.52952C23.478 9.24061 23.6057 8.94013 23.7156 8.67141C23.8242 8.40567 23.9162 8.16872 24.0015 7.92019C24.0869 7.67232 24.1653 7.41386 24.2468 7.10576C24.3146 6.84962 24.3877 6.54681 24.4629 6.23474C24.5648 5.81181 24.671 5.37067 24.7819 4.97719C24.8782 4.636 24.9778 4.33154 25.0771 4.05951C25.1763 3.78715 25.2756 3.54756 25.3706 3.33642C25.5556 2.92507 25.7237 2.6226 25.8524 2.39094L25.8779 2.34527C26.005 2.1166 26.0934 1.95775 26.2036 1.83398C26.2635 1.76647 26.3273 1.71286 26.3965 1.66917C26.4617 1.62781 26.5305 1.59604 26.6047 1.56956C26.6738 1.54474 26.7493 1.52423 26.828 1.50735C26.9114 1.48948 26.9991 1.47591 27.0875 1.46631C27.1735 1.45671 27.2602 1.45076 27.3479 1.44844C27.4346 1.44612 27.5247 1.44679 27.617 1.45142C27.708 1.45572 27.8016 1.46366 27.893 1.47624C27.9837 1.48882 28.0733 1.50669 28.1567 1.53051C28.2398 1.55434 28.3162 1.58446 28.3854 1.6192C28.4562 1.65494 28.5214 1.6973 28.581 1.74529C28.6396 1.79261 28.6925 1.84523 28.7395 1.92565C28.7865 2.00573 28.8282 2.11296 28.8646 2.26916C28.9017 2.42668 28.9341 2.63451 28.9579 2.86517C28.9811 3.08789 28.9963 3.33311 29 3.57535C29.0036 3.82223 28.9957 4.06514 28.9794 4.30275C28.9632 4.54135 28.9387 4.77433 28.9103 5.00036C28.8815 5.22705 28.8484 5.44778 28.7941 5.70756C28.7398 5.96735 28.6651 6.26452 28.5535 6.64311C28.445 7.01111 28.301 7.45853 28.1418 7.92747C27.9764 8.41526 27.794 8.9292 27.6186 9.40112C27.4522 9.84887 27.294 10.2539 27.1537 10.5964C27.0028 10.9651 26.8697 11.2673 26.7668 11.4787C26.6626 11.6932 26.5861 11.8196 26.5219 11.8987C26.4442 11.995 26.3862 12.0267 26.3273 12.0483C26.2784 12.0661 26.2284 12.0764 26.1715 12.0804C26.1169 12.084 26.0556 12.0817 25.9822 12.0751C25.8948 12.0668 25.7906 12.0519 25.6731 12.035C25.6006 12.0248 25.5222 12.0135 25.4226 12.0006C25.3041 11.9854 25.1783 11.9712 25.0625 11.9609C24.9583 11.9516 24.8623 11.9453 24.7862 11.944C24.7028 11.9427 24.6382 11.9463 24.5833 11.9526C24.5304 11.9589 24.4837 11.9682 24.4374 11.9774L24.4986 11.8292L24.4989 11.8308Z" fill="#FEFEFE"/>
<path d="M21.7513 13.7896C21.7387 13.6109 21.7261 13.4322 21.7414 13.2797C21.7493 13.2019 21.7645 13.1301 21.7857 13.0652C21.8095 12.9914 21.8416 12.9252 21.8797 12.8667C21.9191 12.8058 21.9647 12.7538 22.0184 12.7091C22.0673 12.6684 22.1229 12.635 22.1868 12.6079C22.2464 12.5824 22.3135 12.5619 22.389 12.546C22.4631 12.5301 22.5459 12.5185 22.6365 12.5106C22.7252 12.5026 22.8245 12.498 22.9288 12.4954C23.0274 12.4927 23.1366 12.4914 23.2458 12.4907L23.1697 12.6406C23.0654 12.6416 22.9605 12.6426 22.854 12.6453C22.7534 12.6476 22.6561 12.6522 22.5661 12.6602C22.478 12.6678 22.3986 12.679 22.3288 12.6939C22.2596 12.7085 22.1997 12.7267 22.1487 12.7482C22.1024 12.768 22.0637 12.7909 22.0319 12.817C22.0048 12.8392 21.982 12.8657 21.9618 12.8964C21.9386 12.9322 21.9184 12.9745 21.9022 13.0242C21.8853 13.0758 21.8731 13.1347 21.8665 13.2002C21.8519 13.3432 21.8645 13.5169 21.8767 13.6907L21.7516 13.7893L21.7513 13.7896Z" fill="#FEFEFE"/>
<path d="M18.9846 5.11282C18.9843 4.99005 18.9836 4.86727 18.9879 4.74218C18.9922 4.62006 19.0015 4.50258 19.0204 4.39437C19.0396 4.28516 19.069 4.18488 19.1057 4.09586C19.1468 3.99625 19.1981 3.90988 19.256 3.83972C19.3146 3.76824 19.3774 3.71595 19.4456 3.67624C19.5072 3.64017 19.5727 3.61469 19.6432 3.59483C19.715 3.57431 19.7931 3.55876 19.8755 3.55247C19.9476 3.54684 20.0228 3.54817 20.0982 3.55876C20.1793 3.57034 20.2617 3.59251 20.3487 3.63024C20.4344 3.6673 20.5254 3.71992 20.6247 3.79273C20.7283 3.86851 20.8398 3.96548 20.9477 4.07667C21.0463 4.17827 21.1436 4.29343 21.2313 4.41786C21.3151 4.53667 21.3892 4.66275 21.4527 4.78553C21.5285 4.9328 21.5901 5.07675 21.6354 5.20052C21.6774 5.31536 21.7062 5.4143 21.7251 5.50763C21.7439 5.60128 21.7535 5.68964 21.7565 5.78396C21.7595 5.87496 21.7569 5.97094 21.7499 6.06558C21.7423 6.16586 21.7297 6.26514 21.7132 6.35515C21.6966 6.44549 21.6764 6.52856 21.649 6.60501C21.6195 6.68774 21.5811 6.76352 21.5312 6.83302C21.4832 6.89921 21.4269 6.95646 21.3677 7.00444C21.3051 7.05508 21.2376 7.09644 21.1737 7.12656C21.1145 7.15436 21.0579 7.17322 21.0036 7.1848C20.9504 7.19605 20.8977 7.20069 20.8455 7.20069C20.7432 7.20069 20.6429 7.18315 20.5427 7.16561L20.6294 7.01669C20.7277 7.0339 20.8259 7.0511 20.9222 7.0511C20.9689 7.0511 21.0159 7.0468 21.0639 7.03687C21.1109 7.02695 21.1582 7.01139 21.2068 6.98823C21.2571 6.96473 21.3094 6.93263 21.3574 6.89391C21.3961 6.86247 21.4319 6.82673 21.46 6.78768C21.4905 6.74532 21.5149 6.69568 21.5355 6.63843C21.5583 6.57456 21.5758 6.50208 21.5904 6.42167C21.6059 6.33629 21.6179 6.24263 21.6251 6.14765C21.6321 6.05698 21.6344 5.96531 21.6314 5.87861C21.6285 5.79025 21.6195 5.70652 21.6013 5.6175C21.5831 5.52782 21.5553 5.43217 21.5143 5.32032C21.4696 5.19787 21.409 5.0559 21.3346 4.91162C21.2714 4.7895 21.1986 4.66507 21.1168 4.54924C21.0318 4.42845 20.9355 4.31494 20.8372 4.21335C20.7293 4.10215 20.6198 4.00651 20.5195 3.93338C20.4242 3.86355 20.3355 3.81225 20.2511 3.77585C20.168 3.73978 20.0896 3.7186 20.0132 3.70768C19.9414 3.69742 19.8712 3.69643 19.8043 3.70172C19.7289 3.70768 19.6564 3.72224 19.5899 3.7411C19.53 3.75831 19.4754 3.77883 19.4271 3.80729C19.3847 3.83211 19.347 3.86289 19.3139 3.90326C19.2778 3.94694 19.2441 4.00486 19.2153 4.07501C19.1848 4.14782 19.1603 4.23254 19.1438 4.32686C19.1259 4.42779 19.1173 4.53898 19.1134 4.65547C19.1094 4.76898 19.11 4.89507 19.1104 5.02115L18.9846 5.11315V5.11282Z" fill="#FEFEFE"/>
<path d="M19.2865 5.10394V5.10195L19.349 5.05794L19.2861 5.10195C19.2937 4.86103 19.3014 4.62011 19.3344 4.44207C19.3523 4.34511 19.3785 4.26469 19.4122 4.19718C19.4513 4.11875 19.4999 4.05719 19.5572 4.00788C19.6098 3.96222 19.6684 3.92978 19.7322 3.91092C19.7892 3.89404 19.852 3.88776 19.9205 3.89206C19.9874 3.89636 20.0605 3.91158 20.1419 3.94335C20.222 3.97446 20.3104 4.02245 20.409 4.09227C20.5056 4.16111 20.6119 4.25112 20.7125 4.34742C20.817 4.44737 20.916 4.55393 20.9931 4.65056C21.0656 4.74123 21.1208 4.82562 21.1595 4.89975C21.2042 4.98447 21.2281 5.05661 21.2333 5.11221C21.2413 5.1913 21.2165 5.25551 21.1612 5.31375C21.1185 5.35876 21.0656 5.38523 21 5.40509C20.8948 5.43719 20.7403 5.46002 20.586 5.48286L20.6489 5.33427L20.6519 5.33361C20.8021 5.31143 20.9527 5.28893 21.0517 5.25882C21.0887 5.24756 21.1132 5.23863 21.1195 5.23168C21.1255 5.22539 21.1099 5.23267 21.1083 5.21381C21.1033 5.16615 21.0821 5.10228 21.0417 5.02551C21.0047 4.95502 20.9514 4.87394 20.8796 4.78426C20.8021 4.68729 20.7048 4.58206 20.6032 4.48476C20.5033 4.38879 20.3984 4.3001 20.3044 4.23292C20.2094 4.16541 20.1237 4.11908 20.0466 4.08896C19.9705 4.05951 19.902 4.04528 19.8398 4.04098C19.7802 4.03701 19.7269 4.0423 19.6799 4.05587C19.6386 4.06811 19.6035 4.08698 19.575 4.11114C19.5519 4.13099 19.5314 4.1578 19.5135 4.19321C19.4903 4.23954 19.4718 4.29911 19.4576 4.37489C19.4264 4.54135 19.4192 4.77698 19.4116 5.0126L19.4112 5.01425L19.2861 5.10228L19.2865 5.10394Z" fill="#FEFEFE"/>
<path d="M20.9512 5.50634H20.9522C21.0197 5.50072 21.0872 5.49509 21.159 5.50369C21.1957 5.508 21.2334 5.51627 21.2692 5.52785C21.3036 5.5391 21.3367 5.55367 21.3652 5.57087C21.3953 5.58874 21.4211 5.60992 21.4423 5.6364C21.4638 5.6632 21.481 5.69597 21.4932 5.737C21.5051 5.77705 21.5128 5.82503 21.5157 5.88096C21.5187 5.93589 21.5177 5.99877 21.5134 6.06992C21.5088 6.14604 21.4995 6.23407 21.485 6.31812C21.4727 6.38994 21.4562 6.4591 21.4353 6.51668C21.4075 6.59247 21.3711 6.65071 21.3297 6.69737C21.289 6.74337 21.2467 6.77415 21.2043 6.79831C21.1679 6.81916 21.1309 6.83504 21.0948 6.84762C21.0614 6.8592 21.0273 6.86847 20.9948 6.87608C20.9644 6.88336 20.9346 6.88932 20.9055 6.89428L20.8228 6.90818L20.8876 6.75926L20.9687 6.74569C20.9952 6.74106 21.023 6.73543 21.0531 6.72848C21.0812 6.72186 21.111 6.71392 21.1418 6.70333C21.1699 6.69373 21.1984 6.68149 21.2255 6.66593C21.2464 6.65435 21.2655 6.64078 21.2808 6.62391C21.295 6.60769 21.3092 6.58386 21.3221 6.54812C21.3383 6.50411 21.3516 6.44719 21.3618 6.3863C21.3748 6.31051 21.3834 6.22745 21.388 6.15365C21.3923 6.0868 21.393 6.02856 21.3903 5.97859C21.3877 5.92961 21.381 5.88758 21.3708 5.85349C21.3609 5.82007 21.3466 5.79326 21.3288 5.77076C21.3106 5.74792 21.2884 5.72972 21.2626 5.7145C21.2368 5.69895 21.2066 5.68571 21.1755 5.67545C21.1431 5.66486 21.1084 5.65725 21.0749 5.65328C21.0094 5.64533 20.9449 5.65063 20.8807 5.65626H20.879L20.9508 5.50634H20.9512Z" fill="#FEFEFE"/>
<path d="M17.5026 6.72818C17.4156 6.53657 17.3282 6.34463 17.2879 6.21324C17.2634 6.13349 17.2551 6.06929 17.3061 5.98027C17.3521 5.90018 17.4381 5.82274 17.5973 5.7228C17.724 5.64304 17.9064 5.54145 18.096 5.44084C18.3234 5.32072 18.5606 5.20224 18.7258 5.1248C18.8816 5.052 18.9773 5.01394 19.065 4.99508C19.152 4.97654 19.2275 4.97754 19.3446 4.98283C19.4714 4.98813 19.6524 4.99872 19.8275 5.01262C19.9608 5.02321 20.0879 5.03545 20.1802 5.04902C20.2898 5.0649 20.353 5.08277 20.3924 5.10263C20.4351 5.12414 20.4513 5.1483 20.4648 5.17477L20.4761 5.19827C20.4936 5.235 20.5122 5.27472 20.5658 5.30152C20.6138 5.32535 20.6889 5.34123 20.7571 5.35513C20.7901 5.36208 20.8219 5.3687 20.8444 5.37433C20.8901 5.38591 20.9229 5.39915 20.9497 5.43853C20.9748 5.47526 20.9933 5.53483 21.0112 5.63941C21.0291 5.7463 21.047 5.9015 21.0582 6.05737C21.0685 6.19868 21.0744 6.34231 21.0714 6.45549C21.0678 6.59481 21.0493 6.69872 20.9748 6.79238C20.9043 6.88107 20.8004 6.93468 20.6306 6.96844C20.493 6.99623 20.303 7.01543 20.1107 7.02668C19.8827 7.04025 19.6491 7.0429 19.4942 7.03628C19.2 7.02337 19.1815 6.97572 19.1275 6.83805L19.1262 6.83408C19.0997 6.76657 19.0643 6.67788 19.0296 6.59779C18.9935 6.51439 18.9541 6.43133 18.9181 6.37011C18.8833 6.31153 18.8529 6.27612 18.8247 6.25395C18.7976 6.23244 18.7711 6.22284 18.745 6.21622L18.699 6.20596C18.6563 6.19736 18.6162 6.18942 18.5835 6.1636C18.5577 6.14342 18.5398 6.11463 18.5219 6.0865C18.51 6.06763 18.4981 6.04877 18.4842 6.03388C18.4693 6.01799 18.4518 6.00674 18.4177 5.99847C18.3803 5.98953 18.3234 5.98391 18.233 5.97961C18.053 5.97133 17.7373 5.96868 17.4199 5.96604C17.4093 5.9763 17.402 5.9849 17.3977 5.99284C17.3865 6.01237 17.3944 6.04678 17.4097 6.09576C17.4487 6.22251 17.5354 6.41313 17.6218 6.60342L17.5023 6.72685L17.5026 6.72818ZM18.0702 5.57587C17.9097 5.66092 17.7545 5.74663 17.6363 5.81811C17.9041 5.82043 18.1569 5.8234 18.3134 5.83068C18.4074 5.83499 18.4673 5.84127 18.508 5.8512C18.5527 5.86212 18.5762 5.87702 18.5961 5.8982C18.6116 5.91507 18.6252 5.93658 18.6387 5.95776C18.6546 5.98291 18.6708 6.00873 18.6904 6.02395C18.7149 6.04281 18.7503 6.05009 18.7877 6.05771L18.8366 6.0683C18.8671 6.07624 18.8982 6.08782 18.9316 6.11396C18.9641 6.13945 18.9985 6.17883 19.0355 6.2417L18.977 6.30624L19.0355 6.24204C19.0709 6.30227 19.1116 6.38798 19.1497 6.47567C19.1891 6.56635 19.2228 6.6514 19.2473 6.71395L19.2483 6.71726C19.2943 6.83441 19.3102 6.87511 19.574 6.8867C19.7255 6.89331 19.9565 6.89067 20.1832 6.8771C20.3728 6.86585 20.5588 6.84698 20.6915 6.82051C20.8183 6.79503 20.8855 6.76888 20.9129 6.73413C20.9364 6.70468 20.9434 6.64048 20.9457 6.54418C20.9487 6.43464 20.943 6.29465 20.9328 6.15665C20.9212 6.00078 20.904 5.84889 20.8868 5.74663C20.8709 5.65264 20.855 5.60002 20.8342 5.56991C20.815 5.54211 20.7895 5.53218 20.7531 5.52292C20.7253 5.51564 20.6975 5.51001 20.6684 5.50405C20.5966 5.48916 20.5171 5.47261 20.4655 5.4468C20.399 5.41338 20.3768 5.36638 20.3563 5.3227L20.3457 5.30053C20.3358 5.28133 20.3239 5.26379 20.2914 5.24758C20.2557 5.22971 20.1965 5.21316 20.0939 5.19794C20.0015 5.18437 19.8758 5.17213 19.7451 5.16187C19.5769 5.14863 19.3953 5.13837 19.2639 5.13274C19.1527 5.12778 19.0815 5.12679 19.0038 5.14333C18.9263 5.15988 18.838 5.19529 18.6914 5.26379C18.5262 5.3409 18.2916 5.45805 18.0692 5.57587H18.0702Z" fill="#FEFEFE"/>
<path d="M18.6025 6.01336L20.4134 5.23633L20.4822 5.39849L18.6717 6.17552L18.6025 6.01336Z" fill="#FEFEFE"/>
<path d="M18.9658 6.26153L20.8833 5.49939L20.9481 5.66287L19.0307 6.42501L18.9658 6.26153Z" fill="#FEFEFE"/>
<path d="M20.7648 6.94162L20.0537 7.86195L18.7736 7.93476L18.7637 7.75903L19.9633 7.69053L20.6255 6.83374L20.7648 6.94162Z" fill="#FEFEFE"/>
<path d="M6.42555 16.2719L11.3369 16.3702L11.3336 16.5463L6.42224 16.448L6.42555 16.2719ZM12.438 16.3921L12.6627 16.3967L12.6594 16.5728L12.4346 16.5681L12.438 16.3921ZM13.8587 16.4215L15.8264 16.1571L18.7055 13.458L21.8491 14.6646C20.6008 15.6647 19.3512 16.6631 18.1052 17.6658C14.3647 18.0378 10.6241 18.4227 6.88455 18.8059L5.84277 17.1205L5.99269 17.0281L6.97622 18.6196L18.0354 17.4957L21.4996 14.7185L18.7456 13.6615L15.9058 16.3239L13.8822 16.5956L13.8587 16.4209V16.4215Z" fill="#FEFEFE"/>
<path d="M15.912 16.1658L18.116 17.5061L18.0243 17.6566L15.8203 16.316L15.912 16.1658Z" fill="#FEFEFE"/>
<path d="M2.59277 20.725C6.65929 20.5185 11.2411 20.0843 15.252 20.0843L18.8959 19.6617L18.9535 18.739C19.7984 18.1708 20.6442 17.602 21.4914 17.0371L26.2148 16.0803L26.2493 16.2531L21.5606 17.2028L19.1239 18.837L19.0627 19.8205C17.9726 19.9466 16.2319 20.2617 15.2113 20.2617L2.60105 20.9017L2.59277 20.7256V20.725Z" fill="#FEFEFE"/>
<path d="M26.1908 16.0883C26.3943 15.9817 26.5981 15.8748 26.7441 15.7454C26.8129 15.6842 26.8698 15.6164 26.9294 15.5022C26.9923 15.3817 27.0575 15.211 27.1399 14.9485C27.2259 14.6759 27.3295 14.3079 27.4467 13.8571C27.5592 13.4243 27.6859 12.908 27.8233 12.3189C27.9675 11.7008 28.1224 11.0071 28.2578 10.3707C28.3835 9.78035 28.4927 9.23762 28.5619 8.84844C28.6334 8.44701 28.6615 8.21271 28.6678 8.06181C28.6741 7.91818 28.6602 7.851 28.6463 7.78448L28.819 7.74841C28.8349 7.82552 28.8511 7.90296 28.8439 8.06942C28.8369 8.2286 28.8081 8.47117 28.7356 8.87888C28.6661 9.26872 28.5566 9.81377 28.4302 10.4071C28.2942 11.0462 28.1393 11.7411 27.995 12.3587C27.8593 12.9398 27.7319 13.458 27.6168 13.9011C27.4983 14.3575 27.3937 14.7281 27.308 15.0008C27.222 15.2745 27.1528 15.4542 27.0856 15.5833C27.0148 15.7193 26.945 15.8017 26.8602 15.8768C26.6984 16.0201 26.485 16.132 26.2718 16.2438L26.1904 16.0876L26.1908 16.0883Z" fill="#FEFEFE"/>
<path d="M5.88504 17.0924C6.38442 16.3335 6.8838 15.5747 7.50198 14.8116C7.80214 14.4412 8.1301 14.0699 8.46467 13.7158C8.82009 13.3399 9.18544 12.9812 9.53458 12.6615C9.87379 12.3507 10.1971 12.078 10.5482 11.8203C10.9003 11.5615 11.2806 11.3166 11.733 11.0631C12.1503 10.8291 12.6301 10.5865 13.0915 10.3684C13.6246 10.1159 14.1339 9.89554 14.492 9.75721C14.8325 9.62583 15.0413 9.56758 15.1859 9.55865C15.3521 9.54839 15.4394 9.59737 15.5281 9.67712C15.5996 9.74132 15.6684 9.82307 15.7383 9.90646C15.8164 9.99978 15.8965 10.0954 15.9742 10.1583C16.0421 10.2129 16.1112 10.246 16.1804 10.2642C16.2522 10.2831 16.3263 10.2874 16.4005 10.2854C16.4762 10.2831 16.5537 10.2735 16.6258 10.2579C16.6943 10.243 16.7572 10.2225 16.8085 10.1974C16.8565 10.1742 16.8942 10.1467 16.923 10.1143C16.9511 10.0828 16.972 10.0448 16.9869 10.0004L17.0028 9.94419C17.0332 9.83068 17.0713 9.69169 17.2655 9.52258C17.3602 9.44018 17.4942 9.35016 17.6375 9.26478C17.8241 9.15326 18.0254 9.04934 18.1739 8.97852C18.2775 8.92921 18.3616 8.89347 18.4261 8.86601C18.5075 8.83159 18.5539 8.81206 18.5807 8.78824C18.5975 8.77334 18.6094 8.7515 18.6194 8.70914C18.6329 8.6509 18.6419 8.5632 18.6502 8.42752C18.6594 8.27727 18.668 8.07474 18.673 7.87784C18.6776 7.69781 18.6799 7.52076 18.6776 7.38905C18.6753 7.26428 18.6697 7.18585 18.6402 7.13853C18.6121 7.09385 18.5515 7.06275 18.437 7.02734C18.3143 6.98928 18.1365 6.9499 17.9439 6.91383C17.7222 6.87213 17.4786 6.83506 17.2735 6.80991C17.0842 6.78675 16.93 6.77384 16.7986 6.77781C16.6718 6.78178 16.5643 6.80164 16.4643 6.84334C16.3442 6.89331 16.2277 6.97803 16.1218 7.0548C16.0427 7.11205 15.9693 7.16567 15.8971 7.20273C15.7134 7.29738 15.5761 7.27157 15.4312 7.24443L15.4255 7.24344C15.3617 7.23119 15.2955 7.21928 15.2204 7.21134C15.1446 7.20339 15.0579 7.19909 14.951 7.20273C14.8428 7.20637 14.713 7.21795 14.5191 7.24873C14.3225 7.28017 14.0604 7.33146 13.6888 7.4142C13.2626 7.50918 12.6924 7.64552 12.0887 7.81364C11.6406 7.9384 11.1734 8.08136 10.7329 8.23789C10.2196 8.42057 9.74439 8.62144 9.293 8.8392C8.84094 9.05695 8.41106 9.29159 7.98846 9.54144C7.56618 9.79063 7.15119 10.0554 6.73554 10.3443C6.31889 10.6339 5.90357 10.9472 5.48262 11.2934C5.0726 11.6303 4.65661 11.9983 4.25817 12.3709C3.83126 12.7704 3.42389 13.1754 3.06548 13.5543C2.72098 13.9184 2.41818 14.2622 2.14549 14.5888C1.87412 14.9135 1.63486 15.2183 1.41379 15.5085C1.19339 15.7977 0.990197 16.0741 0.814471 16.3266C0.640069 16.5774 0.49512 16.8025 0.390545 16.9894C0.288286 17.1728 0.224085 17.3204 0.194963 17.4564C0.166834 17.5878 0.171467 17.7109 0.205553 17.8489C0.240301 17.9899 0.305164 18.1474 0.394847 18.3138C0.488832 18.4889 0.609954 18.6742 0.751594 18.8619C0.88132 19.0336 1.02825 19.2074 1.18115 19.3758C1.35886 19.5711 1.54385 19.758 1.71958 19.9262C1.88537 20.0843 2.04323 20.2263 2.19678 20.3597C2.34471 20.4881 2.49926 20.6175 2.6538 20.7465L2.54062 20.8819C2.39236 20.7581 2.24411 20.634 2.08162 20.493C1.92509 20.357 1.76491 20.2134 1.59812 20.0542C1.41776 19.8821 1.22946 19.6918 1.05043 19.4949C0.893895 19.3232 0.743651 19.1451 0.610285 18.9688C0.463681 18.7745 0.337595 18.5816 0.238977 18.3982C0.142675 18.2192 0.0721864 18.0478 0.034129 17.8919C-0.00624494 17.7274 -0.0115399 17.5795 0.0222154 17.4206C0.0553088 17.2664 0.125136 17.1036 0.23633 16.9047C0.345207 16.7098 0.493134 16.4801 0.669191 16.2266C0.844255 15.9748 1.04943 15.6962 1.27315 15.4023C1.49653 15.1091 1.73778 14.802 2.0098 14.4763C2.28018 14.1527 2.58464 13.8075 2.93774 13.4345C3.29945 13.052 3.70948 12.6443 4.13771 12.2435C4.54046 11.8669 4.95975 11.4959 5.37044 11.1584C5.79834 10.8069 6.2173 10.4909 6.63427 10.2003C7.05258 9.90944 7.47154 9.64238 7.89844 9.39054C8.32469 9.1387 8.75854 8.90175 9.21622 8.68167C9.67423 8.46094 10.1551 8.25742 10.6743 8.07276C11.1161 7.91556 11.5877 7.77161 12.0417 7.64486C12.6473 7.47608 13.2212 7.33908 13.6507 7.24344C14.026 7.16004 14.2914 7.10808 14.4916 7.07598C14.6942 7.04355 14.8305 7.03164 14.9453 7.02767C15.0618 7.0237 15.1562 7.02833 15.2386 7.03693C15.3213 7.04554 15.3908 7.05844 15.4583 7.07102L15.4639 7.07201C15.5781 7.09352 15.6866 7.11404 15.8164 7.04719C15.8749 7.01708 15.9441 6.96678 16.0182 6.91283C16.1317 6.83043 16.2568 6.73942 16.3965 6.68151C16.517 6.63154 16.6444 6.60771 16.793 6.60275C16.9372 6.59845 17.0994 6.61135 17.2946 6.63551C17.5008 6.66066 17.748 6.69839 17.9764 6.74141C18.1743 6.77847 18.3583 6.81951 18.489 6.85988C18.6472 6.90886 18.7362 6.95983 18.7898 7.0462C18.8418 7.12993 18.851 7.23152 18.854 7.38706C18.8563 7.52142 18.8543 7.70112 18.8494 7.8828C18.8441 8.08666 18.8355 8.2915 18.8265 8.43877C18.8176 8.5857 18.8077 8.68201 18.7915 8.75018C18.7716 8.83424 18.7425 8.88222 18.6975 8.92193C18.6511 8.96297 18.5942 8.98713 18.4953 9.02916C18.436 9.05464 18.3589 9.08707 18.2501 9.13903C18.1028 9.20918 17.9062 9.31045 17.7282 9.41701C17.5941 9.4971 17.4691 9.58082 17.3817 9.65694C17.2275 9.79097 17.1977 9.9015 17.1735 9.99151C17.1682 10.0114 17.1629 10.0302 17.154 10.0574C17.1318 10.1245 17.0991 10.1825 17.0541 10.2331C17.01 10.2824 16.9545 10.3234 16.8856 10.3572C16.8214 10.389 16.745 10.4141 16.6629 10.432C16.5821 10.4495 16.4941 10.4601 16.4051 10.4631C16.3157 10.4657 16.2254 10.4601 16.1354 10.4363C16.0427 10.4118 15.9514 10.3688 15.863 10.2973C15.7714 10.2225 15.686 10.1209 15.6029 10.0216C15.5364 9.9422 15.4709 9.8641 15.4106 9.81016C15.3554 9.76085 15.3011 9.73007 15.1962 9.73669C15.0698 9.7443 14.8775 9.79924 14.5555 9.92367C14.2024 10.06 13.6977 10.2788 13.1666 10.5299C12.7099 10.746 12.234 10.9866 11.819 11.2193C11.3726 11.4695 10.9983 11.7104 10.6525 11.9645C10.3053 12.2197 9.98664 12.4881 9.65339 12.7932C9.30921 13.1082 8.9475 13.4637 8.59307 13.8386C8.26082 14.1901 7.93551 14.5581 7.63866 14.9247C7.02478 15.6826 6.52838 16.4368 6.03198 17.1913L5.88504 17.0947V17.0924Z" fill="#FEFEFE"/>
<path d="M18.7522 7.1739L18.7387 7.18018C18.3975 7.33374 18.0576 7.48696 17.8385 7.59054L17.7958 7.61073C17.5903 7.70835 17.4672 7.76693 17.0943 7.83874C16.9563 7.86522 16.7742 7.895 16.5624 7.92975C16.2027 7.98832 15.7546 8.06179 15.2609 8.16372C14.8439 8.24976 14.3922 8.35698 13.9275 8.4887C13.5294 8.60188 13.124 8.73293 12.7249 8.88449C12.2944 9.04797 11.8711 9.23561 11.4571 9.44609C11.0415 9.65722 10.6348 9.89119 10.2399 10.1467C9.84481 10.4022 9.46093 10.6795 9.07936 10.9753C8.69779 11.2709 8.31788 11.5862 7.93102 11.9172C7.54548 12.2471 7.15233 12.5939 6.77739 12.9338C6.40641 13.2697 6.0533 13.6003 5.74322 13.9015C5.43611 14.2 5.17368 14.468 4.92879 14.7377C4.68423 15.0071 4.45853 15.2765 4.22489 15.5776C3.99125 15.8785 3.74735 16.215 3.51305 16.5479C3.27147 16.8911 3.0514 17.2134 2.86277 17.4918C2.67248 17.7721 2.51065 18.0126 2.37166 18.2297C2.23763 18.4386 2.1324 18.6149 2.05463 18.7678C1.97752 18.9194 1.92722 19.0491 1.89214 19.1636C1.85739 19.2771 1.83687 19.3791 1.81999 19.4747C1.78591 19.6667 1.76605 19.8318 1.74653 19.9963L1.7462 19.9989L1.5708 19.9787L1.57113 19.9757C1.59099 19.808 1.61084 19.6402 1.64592 19.4439C1.66346 19.3443 1.6853 19.2364 1.72369 19.1117C1.76175 18.9879 1.81569 18.8492 1.89743 18.6881C1.97851 18.5282 2.08673 18.3469 2.2234 18.1341C2.35478 17.9292 2.52058 17.683 2.71749 17.3928C2.91572 17.1003 3.14274 16.7673 3.3691 16.446C3.60274 16.1141 3.84763 15.7765 4.0859 15.4697C4.32384 15.163 4.55252 14.89 4.79873 14.6186C5.04461 14.3479 5.30969 14.0768 5.62077 13.7747C5.92788 13.4762 6.28264 13.1443 6.65891 12.8031C7.0322 12.4642 7.42668 12.1161 7.81652 11.7828C8.20404 11.4512 8.58627 11.1342 8.97181 10.8357C9.35702 10.5372 9.74487 10.2569 10.1443 9.99875C10.5451 9.73963 10.9571 9.50235 11.378 9.28856C11.7977 9.07544 12.2269 8.88516 12.6634 8.71936C13.0674 8.5658 13.4778 8.4331 13.8796 8.31893C14.3452 8.18655 14.8022 8.07834 15.2258 7.99097C15.7229 7.88838 16.1726 7.81491 16.5343 7.75568C16.7395 7.72225 16.9159 7.69346 17.0612 7.66533C17.4123 7.59782 17.5274 7.54289 17.7207 7.45122L17.7634 7.43103C17.9914 7.32315 18.3283 7.17125 18.6662 7.01935L18.6798 7.01306L18.7522 7.1739Z" fill="#FEFEFE"/>
<path d="M3.03107 14.4713C2.89406 14.6252 2.78088 14.7575 2.6859 14.872C2.58894 14.9892 2.5115 15.0858 2.44598 15.1686C2.37747 15.2549 2.32088 15.3268 2.27852 15.3843C2.23451 15.4449 2.19943 15.4982 2.17196 15.5508C2.14582 15.6001 2.12629 15.6491 2.11206 15.6964C2.09717 15.7467 2.08824 15.7957 2.08493 15.8423C2.08162 15.887 2.08327 15.9284 2.0889 15.9638C2.09386 15.9959 2.10214 16.0227 2.11306 16.0412C2.11935 16.0525 2.12663 16.0598 2.13556 16.0637C2.14946 16.07 2.16965 16.0723 2.19678 16.072C2.23286 16.0714 2.27687 16.0654 2.32353 16.0528C2.36324 16.0419 2.40494 16.0257 2.44465 16.0035C2.48767 15.9797 2.53037 15.9473 2.59457 15.8831C2.6634 15.8145 2.75573 15.711 2.89572 15.5478C2.99665 15.43 3.12836 15.2741 3.27563 15.0994C3.52251 14.8069 3.81439 14.461 4.10627 14.1251C4.33495 13.862 4.55734 13.6125 4.78039 13.3726C5.00542 13.1307 5.2341 12.895 5.47535 12.6601C5.71494 12.4264 5.96745 12.1935 6.22226 11.9698C6.47808 11.7451 6.73554 11.5309 6.98374 11.336C7.34909 11.0491 7.69922 10.8006 7.96298 10.6136L8.21019 10.4369C8.33627 10.3449 8.41239 10.284 8.45971 10.239C8.49777 10.2026 8.51266 10.1801 8.52126 10.1586C8.52954 10.138 8.53351 10.1175 8.53285 10.0996C8.53251 10.0867 8.52954 10.0758 8.52457 10.0685C8.52159 10.0642 8.51597 10.0609 8.50736 10.0586C8.49049 10.0543 8.46567 10.0543 8.43357 10.0589C8.39485 10.0649 8.34885 10.0778 8.28795 10.1036C8.22309 10.1308 8.14069 10.1734 8.03247 10.2376C7.92062 10.3038 7.7856 10.3905 7.62774 10.4974C7.46955 10.6047 7.28357 10.7354 7.07078 10.8886C6.8613 11.0395 6.62567 11.2132 6.37549 11.4042C6.12563 11.5945 5.86452 11.8 5.60607 12.0131C5.35191 12.2226 5.09808 12.441 4.85352 12.6594C4.59738 12.8884 4.34951 13.1188 4.1205 13.3402C3.91499 13.5387 3.72504 13.7297 3.55328 13.908C3.35571 14.1129 3.17999 14.3035 3.03074 14.471L3.03107 14.4713ZM2.54989 14.7595C2.64652 14.643 2.7607 14.509 2.89903 14.3538C3.04596 14.189 3.22268 13.9974 3.42653 13.7859C3.59961 13.6062 3.79122 13.4136 3.99839 13.2134C4.22706 12.9923 4.47626 12.7607 4.73604 12.5284C4.98292 12.3076 5.23873 12.0876 5.49388 11.8771C5.75763 11.6597 6.01973 11.4535 6.26826 11.2639C6.51613 11.0746 6.75408 10.8995 6.96786 10.7453C7.178 10.5937 7.36498 10.4624 7.52912 10.3515C7.69426 10.2396 7.83226 10.1509 7.94246 10.0858C8.05597 10.0186 8.14565 9.97257 8.21945 9.94146C8.29689 9.9087 8.35646 9.89215 8.40709 9.88454C8.46269 9.87594 8.51067 9.87759 8.55138 9.88818C8.60234 9.90142 8.64139 9.92823 8.66886 9.96694C8.69368 10.002 8.70725 10.046 8.70857 10.093C8.71023 10.1351 8.70195 10.1804 8.68441 10.2241C8.6672 10.2671 8.64139 10.3081 8.58116 10.3661C8.5292 10.4157 8.44746 10.4812 8.31311 10.5788C8.22905 10.6401 8.15227 10.6943 8.06457 10.7569C7.80314 10.9425 7.45599 11.1891 7.09229 11.4743C6.84376 11.6693 6.58894 11.8814 6.33776 12.1021C6.08625 12.3229 5.8364 12.5535 5.59779 12.7862C5.35985 13.0178 5.13316 13.2515 4.90912 13.4924C4.68342 13.735 4.46302 13.9822 4.23898 14.2403C3.95901 14.5626 3.6615 14.9147 3.40999 15.2132C3.26603 15.3837 3.13697 15.5369 3.02941 15.6623C2.88645 15.8291 2.79114 15.9357 2.71867 16.0081C2.64123 16.0853 2.58729 16.1256 2.53003 16.1574C2.47742 16.1865 2.42215 16.208 2.36953 16.2223C2.30798 16.2391 2.24874 16.2471 2.19943 16.2477C2.14681 16.2484 2.10247 16.2415 2.06375 16.2242C2.02006 16.2047 1.98664 16.1739 1.9605 16.1293C1.93899 16.0922 1.92343 16.0445 1.91483 15.9909C1.90689 15.9413 1.90457 15.886 1.90887 15.8294C1.91317 15.7709 1.92409 15.7093 1.94296 15.6461C1.96017 15.5875 1.98432 15.5276 2.01576 15.4681C2.04753 15.4075 2.08724 15.3473 2.13622 15.2801C2.18719 15.2106 2.24245 15.1408 2.30765 15.0584C2.37582 14.9723 2.45524 14.8727 2.54989 14.7589V14.7595Z" fill="#FEFEFE"/>
<path d="M4.52111 16.1634L4.42216 16.2779C4.14451 16.5992 4.03133 16.7296 3.95885 16.8401C3.9208 16.8977 3.89399 16.95 3.8748 16.999C3.85593 17.0476 3.84435 17.0933 3.83674 17.138C3.8288 17.184 3.82483 17.2283 3.82449 17.2687C3.82449 17.3091 3.8278 17.3475 3.83475 17.3812C3.84071 17.41 3.84931 17.4351 3.86288 17.4567C3.87579 17.4772 3.89432 17.4964 3.9208 17.5146C3.9519 17.5358 3.99327 17.5556 4.0396 17.5722C4.08726 17.589 4.13921 17.6023 4.19084 17.6092C4.24114 17.6162 4.29144 17.6175 4.34108 17.6102C4.3894 17.6033 4.43838 17.5877 4.48736 17.5606C4.53898 17.5324 4.5916 17.4914 4.65084 17.4295C4.71338 17.3643 4.7842 17.2753 4.86958 17.1539C4.95199 17.0364 5.04399 16.8944 5.15088 16.7296C5.27663 16.5353 5.42324 16.3096 5.59234 16.0628C5.76112 15.8169 5.95339 15.5485 6.15956 15.2755C6.34356 15.0319 6.5408 14.7814 6.74532 14.5358C6.96009 14.2777 7.1795 14.0295 7.40983 13.7849C7.64116 13.5394 7.88439 13.2968 8.14649 13.0513C8.42051 12.7945 8.71537 12.5334 9.02777 12.2772C9.3127 12.0436 9.61087 11.8149 9.91831 11.5985C10.2403 11.3718 10.5775 11.155 10.9114 10.9531C11.2444 10.7516 11.5703 10.5663 11.8731 10.4008C12.1763 10.235 12.4579 10.0874 12.7428 9.95042C13.0284 9.81308 13.3147 9.68732 13.6254 9.56554C13.9362 9.44376 14.2744 9.32462 14.5898 9.21839C14.9124 9.10984 15.1994 9.01851 15.4145 8.95033L15.439 8.94272C15.846 8.81366 15.9893 8.76799 16.0641 8.7071C16.0932 8.68327 16.1131 8.6558 16.126 8.628C16.1422 8.59292 16.1481 8.55652 16.1481 8.52475C16.1481 8.49894 16.1442 8.47776 16.1366 8.46221C16.1306 8.44996 16.1213 8.44036 16.1094 8.43341C16.0945 8.42514 16.0734 8.41985 16.0313 8.42117C15.9757 8.42316 15.8923 8.43672 15.7616 8.46783C15.6249 8.50026 15.4436 8.5499 15.2341 8.61245C15.024 8.675 14.7804 8.75144 14.5199 8.83715C14.2612 8.9222 13.9885 9.0152 13.6996 9.1244C13.4087 9.23394 13.0999 9.36036 12.7693 9.51127C12.4529 9.65555 12.1141 9.82367 11.7795 9.99939C11.4168 10.1897 11.0604 10.3882 10.7443 10.5742C10.4435 10.7513 10.1771 10.9184 9.91434 11.0958C9.65257 11.2725 9.39709 11.4582 9.11646 11.6729C8.83417 11.889 8.52343 12.1372 8.21566 12.3917C7.91054 12.6442 7.6127 12.8994 7.35192 13.1327C7.0875 13.3696 6.85585 13.5884 6.62916 13.8154C6.40412 14.0408 6.18372 14.2751 5.93982 14.5438C5.49373 15.0349 4.98045 15.6299 4.62535 16.0409L4.52012 16.1627L4.52111 16.1634ZM4.2888 16.1627L4.49298 15.9264C4.85204 15.5104 5.37194 14.9085 5.8101 14.4256C6.054 14.1569 6.27605 13.9213 6.50473 13.692C6.73208 13.4643 6.96605 13.2432 7.2351 13.0023C7.50415 12.7614 7.80331 12.5049 8.1038 12.2564C8.41025 12.0029 8.72298 11.7533 9.01023 11.5333C9.29516 11.3152 9.55362 11.1275 9.81672 10.9498C10.0782 10.7731 10.3479 10.6043 10.6563 10.4227C10.9747 10.2353 11.3334 10.0351 11.6984 9.84352C12.0333 9.66747 12.3748 9.49803 12.6972 9.35109C13.0331 9.19787 13.3455 9.07013 13.6387 8.9596C13.9335 8.84841 14.2079 8.75442 14.4667 8.6697C14.7238 8.58531 14.969 8.50821 15.1858 8.444C15.4029 8.37947 15.5872 8.32884 15.7222 8.29674C15.8629 8.26331 15.9575 8.24842 16.0264 8.24611C16.1084 8.24313 16.1577 8.25802 16.1988 8.28185C16.2418 8.307 16.2746 8.34175 16.2957 8.3851C16.3159 8.4258 16.3259 8.47279 16.3259 8.52574C16.3259 8.57969 16.3153 8.64223 16.2871 8.70279C16.2636 8.75343 16.2279 8.80274 16.1769 8.84476C16.0763 8.92717 15.9244 8.97548 15.4932 9.11216L15.4687 9.11977C15.246 9.19026 14.9512 9.28424 14.6467 9.3865C14.3353 9.49141 14.0004 9.60922 13.6906 9.73068C13.3809 9.85213 13.0986 9.9759 12.8196 10.1099C12.54 10.2443 12.2603 10.3906 11.9582 10.556C11.6554 10.7218 11.3307 10.9058 11.0034 11.1041C10.6771 11.3016 10.3439 11.5161 10.0209 11.7434C9.71413 11.9595 9.41959 12.1849 9.14062 12.4139C8.83252 12.6664 8.5403 12.9248 8.26828 13.18C8.00882 13.4232 7.7679 13.6635 7.53923 13.9061C7.30956 14.15 7.09247 14.3955 6.88166 14.6487C6.68343 14.887 6.48719 15.1358 6.30154 15.382C6.09569 15.6544 5.90508 15.9205 5.73895 16.1624C5.56819 16.4112 5.42357 16.634 5.29947 16.8259C5.1896 16.9957 5.09462 17.1416 5.01486 17.2558C4.92518 17.3835 4.84874 17.4792 4.77891 17.552C4.70577 17.6281 4.63958 17.679 4.5734 17.7155C4.50456 17.7532 4.43606 17.775 4.36756 17.7849C4.30038 17.7945 4.23386 17.7929 4.16767 17.784C4.10347 17.775 4.0396 17.7591 3.98202 17.7386C3.92179 17.7171 3.86619 17.69 3.82251 17.6602C3.77452 17.6274 3.73978 17.591 3.71396 17.55C3.68881 17.5096 3.67326 17.4656 3.663 17.4166C3.65373 17.3716 3.6491 17.3216 3.64943 17.2684C3.64976 17.2167 3.65439 17.1625 3.66366 17.1088C3.67326 17.0533 3.68782 16.9963 3.71132 16.9358C3.73448 16.8762 3.76691 16.813 3.81225 16.7442C3.88903 16.6267 4.00485 16.4927 4.28979 16.163L4.2888 16.1627Z" fill="#FEFEFE"/>
<path d="M19.4419 11.1759C19.2652 11.1709 19.0881 11.1656 18.9809 11.1372C18.8684 11.1071 18.8326 11.0627 18.7446 10.9522L18.7036 10.9012C18.644 10.8281 18.558 10.7271 18.468 10.6308C18.4008 10.5584 18.3316 10.4889 18.2711 10.4363C18.2065 10.38 18.1539 10.3452 18.1092 10.3264C18.0705 10.3102 18.0368 10.3062 18.0047 10.3095C17.9726 10.3128 17.9401 10.3234 17.9093 10.3376C17.87 10.3558 17.8329 10.381 17.8015 10.4068C17.773 10.43 17.7498 10.4528 17.7349 10.475C17.725 10.4892 17.7191 10.5018 17.7184 10.5117C17.7167 10.5362 17.7452 10.5799 17.7922 10.6514L17.7985 10.6613C17.8279 10.7063 17.864 10.7619 17.9007 10.8234C17.9358 10.8824 17.9689 10.9426 17.9908 10.9945C18.0348 11.0988 18.0331 11.1613 18.0305 11.2676L18.0298 11.2927C18.0285 11.345 18.0281 11.4099 18.0344 11.4708C18.0397 11.523 18.0503 11.5714 18.0695 11.5998C18.0976 11.6415 18.1688 11.6511 18.2178 11.6577L18.2442 11.6617C18.3098 11.672 18.3508 11.6895 18.371 11.7494C18.3846 11.7898 18.3763 11.8361 18.3475 11.9073C18.3306 11.9486 18.3012 12.0118 18.2697 12.0793C18.231 12.1631 18.1887 12.2541 18.1618 12.3232C18.1397 12.3802 18.1271 12.4235 18.1244 12.4599C18.1221 12.492 18.1281 12.5215 18.142 12.5546C18.1575 12.591 18.1827 12.6323 18.2108 12.672C18.2446 12.7194 18.282 12.7634 18.3131 12.7935C18.3614 12.8412 18.3925 12.8511 18.423 12.861L18.4352 12.8663L18.3955 12.9461L18.3687 13.0291C18.3187 13.0129 18.2684 12.9964 18.19 12.9196C18.1522 12.8825 18.1076 12.8302 18.0679 12.7746C18.0331 12.726 18.0013 12.6734 17.9805 12.6241C17.955 12.5642 17.9448 12.5096 17.9491 12.4483C17.953 12.3921 17.9696 12.3328 17.998 12.2597C18.0285 12.1816 18.0712 12.0896 18.1106 12.0059C18.1393 11.9447 18.1661 11.8877 18.1847 11.8417L18.189 11.8325C18.1082 11.8215 17.9944 11.8037 17.9239 11.6994C17.8862 11.6435 17.868 11.5674 17.8597 11.4896C17.8524 11.4201 17.8531 11.348 17.8544 11.2897L17.8551 11.2643C17.8571 11.1815 17.8584 11.1329 17.8289 11.0637C17.8111 11.0213 17.7819 10.9684 17.7498 10.9148C17.7194 10.8638 17.6823 10.8066 17.6512 10.7589L17.6449 10.749C17.5781 10.6467 17.5374 10.5845 17.543 10.5015C17.546 10.4581 17.5625 10.4164 17.59 10.377C17.6148 10.3403 17.6496 10.3052 17.6909 10.2715C17.7323 10.2377 17.7813 10.2046 17.8355 10.1795C17.8829 10.1573 17.9342 10.1411 17.9868 10.1354C18.0473 10.1291 18.1092 10.1361 18.1777 10.1649C18.2403 10.191 18.3084 10.2354 18.3879 10.3042C18.4524 10.3605 18.5262 10.4346 18.598 10.512C18.6897 10.6103 18.779 10.7152 18.8416 10.792L18.8833 10.8436C18.9458 10.9221 18.971 10.9535 19.0266 10.9684C19.1153 10.9919 19.2817 10.9969 19.4475 11.0015L19.4426 11.1775L19.4419 11.1759Z" fill="#FEFEFE"/>
<path d="M20.2868 10.6285L20.2805 10.7804L20.1263 10.7754L20.125 10.8036L19.9489 10.7953C19.9532 10.7082 19.9585 10.6205 19.9602 10.5332L19.9466 10.5266C19.9284 10.5176 19.9082 10.5074 19.8867 10.4941C19.8606 10.4772 19.8358 10.4571 19.8139 10.4326C19.7941 10.4104 19.7769 10.3839 19.764 10.3535C19.7507 10.322 19.7428 10.286 19.7408 10.2496C19.7388 10.2145 19.7421 10.1784 19.7514 10.1437C19.761 10.1079 19.7765 10.0738 19.798 10.0431C19.8186 10.013 19.845 9.98614 19.8761 9.96463C19.9059 9.94412 19.9393 9.92823 19.9744 9.91698C20.0102 9.9054 20.0486 9.89845 20.0866 9.8958C20.1253 9.89315 20.165 9.89448 20.2031 9.90142C20.2402 9.90804 20.2762 9.91963 20.3093 9.9365C20.3451 9.95504 20.3768 9.97986 20.403 10.01C20.4288 10.0394 20.4496 10.0742 20.4632 10.1129C20.4768 10.1513 20.4834 10.194 20.4821 10.2357C20.4808 10.277 20.4712 10.3184 20.4526 10.3548C20.4162 10.4256 20.354 10.4653 20.3136 10.4915L20.2991 10.5001L20.2948 10.5203C20.2908 10.5458 20.2878 10.5838 20.2855 10.6285H20.2868ZM20.128 10.4643C20.1349 10.4356 20.1445 10.415 20.1574 10.3968C20.1756 10.3714 20.1942 10.3594 20.219 10.3436L20.221 10.3419C20.2461 10.326 20.2835 10.3015 20.2971 10.2747C20.3034 10.2625 20.3067 10.2469 20.307 10.23C20.3077 10.2105 20.3044 10.1903 20.2977 10.1715C20.2918 10.1546 20.2825 10.139 20.2709 10.1258C20.2597 10.1126 20.2455 10.1013 20.2296 10.093C20.213 10.0844 20.1942 10.0785 20.174 10.0752C20.1498 10.0709 20.1247 10.0702 20.0999 10.0719C20.0747 10.0735 20.0509 10.0778 20.029 10.0848C20.0095 10.0911 19.992 10.0993 19.9777 10.1093C19.9642 10.1188 19.9526 10.1308 19.9433 10.1437C19.9337 10.1569 19.9268 10.1721 19.9225 10.1883C19.9182 10.2049 19.9165 10.2224 19.9175 10.2396C19.9185 10.2562 19.9218 10.2721 19.9274 10.2853C19.9321 10.2962 19.9387 10.3065 19.9466 10.3154C19.9562 10.3267 19.9685 10.3366 19.9807 10.3445C19.9946 10.3532 20.0105 10.3611 20.0247 10.368C20.0462 10.3786 20.0654 10.3882 20.0826 10.4018C20.1048 10.4193 20.119 10.4382 20.1273 10.4637L20.128 10.4643Z" fill="#FEFEFE"/>
<path d="M11.2825 20.4275L11.0443 20.7552L11.0555 21.0828L13.6418 21.4627C14.3917 22.0425 15.1399 22.6243 15.8888 23.2054L15.7141 24.7336L18.9294 25.2195L20.6427 22.9602C24.0467 21.8889 23.5959 21.9498 26.9314 21.5438C26.8281 19.9298 26.8262 19.5747 26.9039 17.9564L23.8461 16.7254L23.9116 16.5619L27.0859 17.84L26.9939 19.7587L27.118 21.6993L24.1089 22.066L20.7479 23.1127L19.0059 25.4104C17.8436 25.2347 16.6817 25.0583 15.5195 24.8836L15.7021 23.2842L13.5706 21.6311L10.8847 21.2367L10.8662 20.7005L11.1396 20.3246L11.2825 20.4282V20.4275Z" fill="#FEFEFE"/>
<path d="M10.9649 20.6399L13.4085 20.9334L13.4283 20.2563L13.6041 20.261L13.5792 21.132L10.9443 20.815L10.9649 20.6399Z" fill="#FEFEFE"/>
<path d="M16.0376 20.5224L15.8831 23.249L15.707 23.2394L15.8616 20.5128L16.0376 20.5224Z" fill="#FEFEFE"/>
<path d="M15.6851 24.2114L18.9454 24.6105L20.5257 22.7417L20.7573 22.9734L20.6322 23.0984L20.5362 23.0025L19.0186 24.7975L15.6636 24.3868L15.6851 24.2114Z" fill="#FEFEFE"/>
<path d="M19.0699 24.7061L19.055 25.3167L18.8789 25.3124L18.8941 24.7018L19.0699 24.7061Z" fill="#FEFEFE"/>
<path d="M15.7881 23.1564L20.5241 22.7841L20.538 22.9601L15.802 23.3324L15.7881 23.1564Z" fill="#FEFEFE"/>
<path d="M23.9465 22.002C23.9442 21.9696 23.9435 21.9385 23.9432 21.9094C23.9425 21.865 23.9415 21.8257 23.93 21.7638C23.9144 21.6506 23.9051 21.5321 23.8936 21.4179L26.8627 19.6405L26.953 19.7917L24.0802 21.5116L24.1037 21.7347C24.1173 21.8075 24.1183 21.8545 24.1193 21.9071C24.1196 21.9299 24.1202 21.9547 24.1226 21.9901L23.9465 22.0027V22.002Z" fill="#FEFEFE"/>
<path d="M23.9761 21.377L26.98 21.0037L27.0015 21.1791L23.9973 21.5523L23.9761 21.377Z" fill="#FEFEFE"/>
<path d="M15.5197 20.0783L15.979 20.4291C17.4847 20.4 19.0186 20.3414 20.5214 20.3414L23.8135 19.5647L26.9518 17.821L27.0372 17.9749L23.8761 19.7312C22.7638 19.9906 21.6522 20.2557 20.5406 20.5182C19.0123 20.5182 17.451 20.5747 15.9201 20.6065L15.4121 20.2183L15.519 20.0783H15.5197Z" fill="#FEFEFE"/>
<path d="M20.597 20.4301L20.5848 22.8155L20.6635 22.8069L20.6821 22.9823L20.4077 23.0121L20.4213 20.4294L20.597 20.4301Z" fill="#FEFEFE"/>
<path d="M23.9139 19.5933L23.9609 19.6522L24.0744 21.4594L23.8983 21.4703L23.7881 19.7184L23.7759 19.7028L23.7868 19.6942L23.7865 19.6906H23.7914L23.9139 19.5933Z" fill="#FEFEFE"/>
<path d="M8.92915 13.3382C10.3836 14.2791 11.8381 15.2203 12.6095 15.668C12.989 15.8884 13.1989 15.987 13.319 16.0251C13.3789 16.044 13.4024 16.0456 13.4143 16.0423C13.3915 15.9993 13.3322 15.9271 13.2131 15.8017C13.0787 15.6604 12.8719 15.4572 12.6366 15.2338C12.403 15.0121 12.1425 14.7715 11.8976 14.5531C11.6766 14.3559 11.4677 14.1755 11.2814 14.0186C11.0475 13.8217 10.8463 13.6589 10.6993 13.5441C10.5706 13.4431 10.4855 13.3806 10.4117 13.3329C10.3396 13.2866 10.2767 13.2532 10.1913 13.2105C10.1046 13.1671 9.99443 13.1142 9.87231 13.0559L9.4838 12.8723L9.55892 12.7128L9.94777 12.8964C10.0699 12.9543 10.1811 13.008 10.2698 13.0523C10.3598 13.0973 10.427 13.1327 10.5067 13.1843C10.5848 13.235 10.6735 13.3002 10.8075 13.4054C10.9538 13.5199 11.1563 13.6837 11.3943 13.8843C11.5839 14.0438 11.7944 14.2255 12.0144 14.422C12.2636 14.6444 12.5254 14.886 12.7574 15.1064C12.9947 15.3315 13.2035 15.537 13.3402 15.6803C13.4821 15.8295 13.5506 15.9179 13.5781 15.9768C13.6274 16.0837 13.591 16.128 13.5341 16.1743C13.4904 16.2097 13.4332 16.2465 13.265 16.1932C13.1347 16.1518 12.9133 16.0486 12.5204 15.8206C11.7471 15.3715 10.2896 14.4287 8.83252 13.4858L8.92849 13.3382H8.92915Z" fill="#FEFEFE"/>
<path d="M9.61328 13.8733C9.72679 13.7343 9.84096 13.5953 9.94786 13.4987C10.0031 13.4487 10.0564 13.4103 10.108 13.3802C10.1603 13.3498 10.209 13.3273 10.256 13.3091C10.301 13.2915 10.3466 13.2766 10.392 13.2634C10.4429 13.2485 10.4817 13.2386 10.5197 13.2286L10.5634 13.3997C10.5184 13.4113 10.474 13.4226 10.4413 13.4322C10.4026 13.4434 10.3625 13.4567 10.3205 13.4729C10.2801 13.4888 10.2394 13.5073 10.198 13.5314C10.1563 13.5563 10.1127 13.5877 10.0663 13.6294C9.97003 13.7164 9.86016 13.8508 9.75029 13.9848L9.61361 13.873L9.61328 13.8733Z" fill="#FEFEFE"/>
<path d="M11.8689 14.4763L11.8692 14.4746C11.8884 14.329 11.9076 14.1838 11.9361 14.1043C11.9576 14.0444 11.9871 14.0117 12.0235 13.9938C12.0618 13.9749 12.0939 13.9766 12.1287 13.9806L12.1605 13.9849C12.1823 13.9878 12.2055 13.9912 12.2233 13.9918C12.2267 13.9766 12.23 13.9531 12.2329 13.918C12.2389 13.8465 12.2415 13.7416 12.2382 13.639C12.2353 13.5573 12.2283 13.4756 12.2157 13.4127C12.2035 13.3518 12.1866 13.3131 12.1684 13.2876C12.1525 13.2654 12.1327 13.2512 12.1141 13.2399L12.0956 13.2274C12.0946 13.2274 12.0933 13.2343 12.082 13.2532C12.0572 13.2959 12.0291 13.369 12.0006 13.4431C11.9718 13.5179 11.9424 13.5947 11.9126 13.6519C11.8762 13.7214 11.8385 13.7655 11.7971 13.7946C11.7531 13.8257 11.7097 13.8386 11.6621 13.8469C11.6187 13.8541 11.5694 13.8578 11.528 13.8558C11.4791 13.8535 11.4347 13.8422 11.4069 13.8194C11.3457 13.7698 11.3573 13.7314 11.3814 13.6513C11.3894 13.6245 11.4003 13.5877 11.4092 13.5401C11.4212 13.4772 11.4308 13.3915 11.436 13.3065C11.4413 13.2231 11.443 13.1407 11.4387 13.0808C11.4354 13.0298 11.4284 12.9993 11.4188 12.9808C11.4129 12.9696 11.403 12.9619 11.391 12.9547C11.3718 12.9431 11.3484 12.9328 11.3252 12.9255C11.3076 12.9199 11.2908 12.9163 11.2775 12.9156C11.2716 12.9255 11.2646 12.9434 11.2557 12.9712L11.2305 13.0549C11.2034 13.1496 11.17 13.2648 11.121 13.3485C11.0892 13.4028 11.0518 13.4418 11.0148 13.4689C10.9615 13.508 10.9066 13.5239 10.8672 13.5262C10.804 13.5295 10.7633 13.5067 10.7398 13.4554C10.7249 13.4229 10.7235 13.3836 10.7322 13.3339C10.7355 13.3134 10.7411 13.2902 10.747 13.2641C10.7603 13.2058 10.7778 13.1291 10.7844 13.0357C10.7891 12.9692 10.7884 12.8931 10.7831 12.8213C10.7782 12.7521 10.7689 12.6886 10.7563 12.6436C10.7464 12.6082 10.7358 12.5873 10.7239 12.5754C10.7146 12.5662 10.7007 12.5602 10.6852 12.5549C10.666 12.5483 10.6461 12.5433 10.6306 12.5436C10.6243 12.5436 10.6183 12.5453 10.615 12.5489C10.6038 12.5609 10.5935 12.5857 10.5839 12.6174C10.5717 12.6578 10.5624 12.7048 10.5544 12.7518L10.5458 12.8024C10.5313 12.8908 10.5174 12.9745 10.4869 13.0424C10.4476 13.1311 10.389 13.1777 10.3311 13.2241L10.3251 13.229L10.2741 13.1532L10.2212 13.0867L10.2268 13.0821C10.2662 13.0506 10.3046 13.0185 10.3258 12.9706C10.3469 12.9232 10.3589 12.8504 10.3714 12.7736L10.38 12.7224C10.3893 12.6684 10.3999 12.6141 10.4141 12.5668C10.431 12.5112 10.4538 12.4626 10.4859 12.4285C10.526 12.3861 10.5743 12.3696 10.6246 12.3679C10.6656 12.3666 10.7057 12.3759 10.7411 12.3878C10.7798 12.401 10.8155 12.4179 10.8493 12.4523C10.8807 12.4847 10.9069 12.5294 10.9254 12.5969C10.9413 12.6542 10.9526 12.73 10.9582 12.8091C10.9641 12.8885 10.9648 12.9735 10.9595 13.0487C10.9519 13.1549 10.9327 13.2393 10.9178 13.3038L10.9132 13.3243C10.9317 13.3098 10.9509 13.2889 10.9681 13.2598C11.0048 13.1972 11.035 13.093 11.0598 13.007L11.0869 12.9169C11.1061 12.858 11.1263 12.8187 11.1511 12.7912C11.1865 12.7518 11.2246 12.7392 11.2726 12.7392C11.304 12.7392 11.3411 12.7465 11.3781 12.7581C11.4132 12.7693 11.4496 12.7856 11.4804 12.8041C11.5178 12.8266 11.5492 12.8527 11.5737 12.8994C11.5946 12.9391 11.6085 12.9921 11.6134 13.0698C11.6181 13.1373 11.6164 13.228 11.6108 13.3184C11.6048 13.4104 11.5942 13.5037 11.5813 13.5735C11.5727 13.6189 11.5635 13.6536 11.5555 13.6811C11.5797 13.6807 11.6065 13.6781 11.6313 13.6738C11.6555 13.6695 11.6766 13.6639 11.6938 13.6516C11.7137 13.6377 11.7336 13.6132 11.7554 13.5712C11.7815 13.5216 11.8087 13.4504 11.8352 13.3812C11.8666 13.2988 11.8977 13.2184 11.9285 13.1658C11.9708 13.093 12.0178 13.0616 12.0688 13.0536C12.1201 13.046 12.1618 13.0642 12.2041 13.09C12.2389 13.1105 12.276 13.1377 12.3104 13.1857C12.3425 13.2303 12.3706 13.2912 12.3881 13.3789C12.4024 13.4491 12.41 13.5411 12.4133 13.6334C12.4173 13.7459 12.4143 13.8585 12.408 13.9332C12.4014 14.0127 12.3895 14.0613 12.3719 14.0931C12.3412 14.149 12.3038 14.1629 12.2578 14.1675C12.2187 14.1715 12.176 14.1656 12.1363 14.1599L12.1075 14.156C12.1006 14.1553 12.1062 14.149 12.1006 14.1517C12.0969 14.1536 12.1042 14.1533 12.1002 14.1639C12.0781 14.2255 12.0602 14.3615 12.0423 14.4978L12.042 14.4995L11.8673 14.4766L11.8689 14.4763ZM11.5178 13.6834L11.5204 13.684C11.5098 13.6764 11.5036 13.6718 11.5178 13.6834Z" fill="#FEFEFE"/>
<path d="M13.505 18.0322C13.5136 17.8595 13.5219 17.6867 13.5328 17.5385C13.544 17.3833 13.5583 17.244 13.5781 17.1371C13.6155 16.9355 13.6721 16.8501 13.7221 16.7757L13.7373 16.7525C13.7598 16.7178 13.7796 16.683 13.7942 16.6519C13.8048 16.6287 13.8127 16.6086 13.8164 16.593C13.7988 16.5765 13.7628 16.552 13.7022 16.5129C13.6287 16.4653 13.5301 16.4037 13.4325 16.3435C13.3319 16.2813 13.223 16.2154 13.1353 16.1631C13.0635 16.1201 13.0142 16.0916 12.9831 16.0877C12.9702 16.086 12.9556 16.0969 12.9335 16.1261C12.8957 16.1757 12.851 16.2588 12.8074 16.3554C12.7584 16.4636 12.7117 16.5867 12.677 16.6982C12.6439 16.8048 12.621 16.9011 12.6052 16.9961C12.5893 17.0914 12.58 17.1874 12.5734 17.2919C12.5671 17.3935 12.5631 17.5001 12.5612 17.5984C12.5592 17.7132 12.5595 17.8204 12.5618 17.8989C12.5658 18.0382 12.5764 18.0829 12.587 18.1272L12.5893 18.1375V18.1471H12.5006L12.4149 18.1669C12.4026 18.115 12.3904 18.0627 12.3858 17.9032C12.3834 17.8228 12.3831 17.7129 12.3851 17.5951C12.3871 17.4895 12.391 17.3793 12.3973 17.2804C12.4043 17.1705 12.4142 17.0692 12.4314 16.9666C12.4486 16.8634 12.4731 16.7598 12.5085 16.6453C12.5456 16.5268 12.5949 16.3964 12.6462 16.2823C12.6948 16.1747 12.7465 16.0794 12.7931 16.0185C12.8597 15.9321 12.9219 15.9017 13.0039 15.9119C13.0678 15.9199 13.1327 15.9563 13.2247 16.0109C13.3038 16.0576 13.4136 16.1244 13.5245 16.1929C13.6311 16.2584 13.731 16.3213 13.7972 16.364C13.874 16.4133 13.919 16.4451 13.9468 16.4742C13.9934 16.5228 14.0001 16.5609 13.9914 16.6148C13.9862 16.6466 13.9726 16.6853 13.9534 16.726C13.9352 16.7654 13.911 16.8078 13.8846 16.8488L13.869 16.8726C13.8283 16.9332 13.7823 17.0024 13.7515 17.1685C13.7333 17.2668 13.7197 17.4002 13.7088 17.5504C13.6976 17.7076 13.6893 17.8741 13.681 18.0402L13.505 18.0319V18.0322Z" fill="#FEFEFE"/>
<path d="M11.2327 16.8604C11.2284 16.8015 11.228 16.7158 11.2307 16.6201C11.2333 16.5185 11.2396 16.409 11.2476 16.3104C11.2558 16.2114 11.2664 16.1191 11.279 16.0334C11.2919 15.948 11.3075 15.8689 11.3257 15.7951C11.3439 15.7216 11.3647 15.6545 11.3879 15.5932C11.4114 15.5307 11.4365 15.4748 11.462 15.4254C11.4868 15.3778 11.5136 15.3334 11.5391 15.2957C11.5676 15.253 11.5957 15.2186 11.6185 15.1968C11.7019 15.1167 11.7228 15.1289 11.9389 15.2593L11.9703 15.2782C12.1411 15.3814 12.431 15.5562 12.5835 15.6558C12.6719 15.7134 12.7166 15.7484 12.7381 15.7795C12.7894 15.8533 12.7649 15.8881 12.7212 15.9391L12.7047 15.9579C12.6736 15.9933 12.6282 16.045 12.5941 16.1065C12.574 16.1432 12.5567 16.1843 12.5425 16.2329C12.5276 16.2846 12.5154 16.3451 12.5061 16.4176C12.4939 16.5119 12.4863 16.633 12.48 16.7353C12.4767 16.7896 12.4733 16.8379 12.4694 16.8835C12.4618 16.9656 12.4508 17.0123 12.3939 17.0493C12.3506 17.0775 12.2943 17.0831 12.1937 17.0854C12.1077 17.0874 11.9799 17.0874 11.8525 17.0864C11.7301 17.0854 11.6086 17.0828 11.5246 17.0791C11.422 17.0748 11.3614 17.0675 11.3151 17.0378C11.2555 16.9994 11.2393 16.9481 11.233 16.8597L11.2327 16.8604ZM11.4064 16.6251C11.4041 16.7128 11.4044 16.7922 11.4084 16.8478C11.4104 16.8769 11.4084 16.8892 11.4097 16.8902C11.4216 16.8981 11.4604 16.9008 11.5315 16.9037C11.6166 16.9074 11.7357 16.91 11.8535 16.911C11.9789 16.912 12.1047 16.912 12.1901 16.91C12.2566 16.9087 12.2907 16.907 12.298 16.9024C12.3046 16.8981 12.292 16.8941 12.2943 16.8683L12.3042 16.7247C12.3105 16.6224 12.3185 16.5013 12.3317 16.3961C12.3423 16.3137 12.3562 16.2442 12.3737 16.1843C12.3923 16.1211 12.4141 16.0685 12.4396 16.0221C12.4793 15.95 12.5263 15.894 12.5617 15.854L12.4876 15.804C12.3453 15.711 12.0517 15.534 11.879 15.4297L11.8479 15.4109C11.7367 15.344 11.7546 15.3106 11.7403 15.3242C11.7268 15.3374 11.7072 15.3619 11.6851 15.395C11.6639 15.4261 11.641 15.4642 11.6185 15.5072C11.5947 15.5532 11.5725 15.6025 11.5527 15.6558C11.5322 15.7107 11.5133 15.7713 11.4968 15.8378C11.4802 15.9043 11.466 15.9784 11.4534 16.0602C11.4412 16.1416 11.4312 16.2299 11.4233 16.3256C11.415 16.4272 11.4087 16.5334 11.4064 16.6254V16.6251Z" fill="#FEFEFE"/>
</svg>
