<svg width="14" height="14" viewBox="0 0 14 14" fill="none" xmlns="http://www.w3.org/2000/svg">
<path fill-rule="evenodd" clip-rule="evenodd" d="M13.8136 0.186386C14.0621 0.434901 14.0621 0.837825 13.8136 1.08634L7.89995 7.00001L13.8136 12.9137C14.0621 13.1622 14.0621 13.5651 13.8136 13.8136C13.5651 14.0621 13.1621 14.0621 12.9136 13.8136L7 7.89997L1.08637 13.8136C0.83785 14.0621 0.434927 14.0621 0.186412 13.8136C-0.0621041 13.5651 -0.0621045 13.1622 0.186411 12.9137L6.10004 7.00001L0.186386 1.08634C-0.062129 0.837827 -0.0621287 0.434904 0.186387 0.186389C0.434903 -0.0621263 0.837826 -0.062126 1.08634 0.18639L7 6.10006L12.9137 0.186387C13.1622 -0.0621287 13.5651 -0.062129 13.8136 0.186386Z" fill="white"/>
</svg>
