<svg width="202" height="44" viewBox="0 0 202 44" fill="none" xmlns="http://www.w3.org/2000/svg">
<path fill-rule="evenodd" clip-rule="evenodd" d="M194.29 19.3838L197.108 20.5916C199.581 21.6557 200.76 24.5603 199.696 27.0335L194.433 39.3995C193.369 41.8727 190.465 43.0518 187.992 41.9877L179.824 38.508C177.351 37.4439 176.172 34.5393 177.236 32.0661L177.322 31.8361C177.552 31.7498 177.754 31.6348 177.955 31.491C178.156 31.3759 178.329 31.2322 178.501 31.1171C178.674 31.2609 178.875 31.4047 179.048 31.5197C179.882 32.0374 180.86 32.3537 181.924 32.3537H188.826C190.321 32.3537 191.701 31.7498 192.679 30.7433C193.657 29.7655 194.29 28.3851 194.29 26.8897V19.3838Z" fill="#FEFEFE"/>
<path fill-rule="evenodd" clip-rule="evenodd" d="M194.29 17.6006L197.741 19.0673C199.409 19.7862 200.617 21.0803 201.249 22.6333C201.882 24.1862 201.911 25.9692 201.192 27.6372L195.929 40.032C195.21 41.6999 193.916 42.9078 192.363 43.5405C190.81 44.1731 189.027 44.2019 187.359 43.4829L179.192 40.0032C177.524 39.2842 176.316 37.9901 175.683 36.4372C175.166 35.1718 175.051 33.7339 175.425 32.3248C176.086 32.296 176.747 32.1235 177.323 31.8359L177.236 32.0659C176.172 34.5391 177.351 37.4437 179.825 38.5078L187.992 41.9875C190.465 43.0516 193.37 41.8725 194.434 39.3993L199.696 27.0045C200.761 24.5313 199.581 21.6267 197.108 20.5627L194.29 19.3548V17.6006Z" fill="#151517"/>
<path fill-rule="evenodd" clip-rule="evenodd" d="M194.289 22.2021L195.929 22.8923C197.424 23.525 198.143 25.2793 197.51 26.7747L192.765 37.9616C192.133 39.4571 190.378 40.176 188.883 39.5433L181.003 36.1786C179.508 35.5459 178.789 33.7917 179.422 32.2963L179.623 31.8361C180.342 32.1812 181.118 32.3538 181.952 32.3538H188.854C190.35 32.3538 191.73 31.7499 192.708 30.7433C193.686 29.7655 194.318 28.3852 194.318 26.8897L194.289 22.2021Z" fill="#151517" stroke="#151517" stroke-width="0.163059" stroke-miterlimit="10"/>
<path fill-rule="evenodd" clip-rule="evenodd" d="M181.925 4.6013H188.827C190.926 4.6013 192.652 6.32679 192.652 8.42614V26.8601C192.652 28.9595 190.926 30.685 188.827 30.685H181.925C180.429 30.685 179.106 29.8222 178.503 28.5569C177.899 29.8222 176.605 30.685 175.109 30.685H168.293C166.971 30.685 165.82 29.9948 165.159 28.9882C164.555 29.9948 163.433 30.685 162.168 30.685H155.87C154.863 30.685 153.972 30.2536 153.339 29.5921C152.735 30.2536 151.844 30.685 150.866 30.685H144.855C143.015 30.685 141.52 29.1895 141.52 27.349V11.417C141.52 9.57647 143.015 8.08104 144.855 8.08104H150.866C151.412 8.08104 151.93 8.22483 152.39 8.4549V7.33333C152.39 5.40653 153.943 3.85359 155.87 3.85359H162.139C163.059 3.85359 163.922 4.22745 164.555 4.83137C164.842 3.04836 166.424 1.66797 168.293 1.66797H175.109C177.18 1.66797 178.876 3.3647 178.876 5.43529V6.15424C179.567 5.20522 180.688 4.6013 181.925 4.6013Z" fill="#FEFEFE"/>
<path fill-rule="evenodd" clip-rule="evenodd" d="M181.924 2.96253H188.826C190.321 2.96253 191.702 3.56645 192.679 4.57299C193.657 5.55076 194.29 6.93116 194.29 8.42658V26.8606C194.29 28.356 193.686 29.7364 192.679 30.7142C191.702 31.6919 190.321 32.3246 188.826 32.3246H181.924C180.889 32.3246 179.882 32.0083 179.048 31.4906C178.847 31.3756 178.674 31.2318 178.502 31.088C178.329 31.2318 178.157 31.3468 177.955 31.4619C177.121 31.9795 176.143 32.2959 175.079 32.2959H168.264C167.343 32.2959 166.481 32.0658 165.704 31.6632C165.503 31.5481 165.33 31.4331 165.129 31.3181C164.957 31.4331 164.784 31.5481 164.611 31.6344C163.864 32.0658 163.001 32.2959 162.11 32.2959H155.869C155.15 32.2959 154.489 32.1521 153.856 31.8645C153.683 31.7782 153.511 31.7207 153.367 31.6057C153.223 31.6919 153.051 31.7782 152.907 31.8357C152.274 32.1233 151.613 32.2671 150.894 32.2671H144.883C143.503 32.2671 142.266 31.7207 141.375 30.8004C140.483 29.9089 139.908 28.6723 139.908 27.2919V11.4174C139.908 10.037 140.455 8.80044 141.375 7.90893C142.266 7.01743 143.503 6.44227 144.883 6.44227H150.865C151.038 5.37822 151.555 4.4292 152.303 3.68148C153.223 2.76122 154.517 2.18606 155.927 2.18606H162.196C162.742 2.18606 163.289 2.27233 163.806 2.44488C164.094 2.01351 164.439 1.6109 164.842 1.2658C165.791 0.460569 166.998 -0.0283203 168.321 -0.0283203H175.137C176.632 -0.0283203 177.984 0.575601 178.962 1.55338C179.451 2.04227 179.853 2.61743 180.112 3.27887C180.659 3.10632 181.262 2.99129 181.924 2.96253ZM181.924 4.60174H188.826C190.925 4.60174 192.651 6.32723 192.651 8.42658V26.8606C192.651 28.9599 190.925 30.6854 188.826 30.6854H181.924C180.428 30.6854 179.106 29.8227 178.502 28.5573C177.898 29.8227 176.604 30.6854 175.108 30.6854H168.293C166.97 30.6854 165.819 29.9952 165.158 28.9887C164.554 29.9952 163.432 30.6854 162.167 30.6854H155.869C154.862 30.6854 153.971 30.254 153.338 29.5926C152.734 30.254 151.843 30.6854 150.865 30.6854H144.855C143.014 30.6854 141.519 29.19 141.519 27.3495V11.4174C141.519 9.57691 143.014 8.08148 144.855 8.08148H150.865C151.411 8.08148 151.929 8.22527 152.389 8.45534V7.33377C152.389 5.40697 153.942 3.85403 155.869 3.85403H162.138C163.059 3.85403 163.921 4.22789 164.554 4.83181C164.842 3.0488 166.423 1.66841 168.293 1.66841H175.108C177.179 1.66841 178.876 3.36514 178.876 5.43573V6.15469C179.566 5.20567 180.687 4.60174 181.924 4.60174Z" fill="#151517"/>
<path fill-rule="evenodd" clip-rule="evenodd" d="M145.372 9.97949H150.318C151.267 9.97949 152.044 10.756 152.044 11.705V26.6592C152.044 27.6082 151.267 28.3847 150.318 28.3847H145.372C144.423 28.3847 143.646 27.6082 143.646 26.6592V11.705C143.675 10.756 144.423 9.97949 145.372 9.97949Z" fill="#151517" stroke="#151517" stroke-width="0.163059" stroke-miterlimit="10"/>
<path fill-rule="evenodd" clip-rule="evenodd" d="M156.3 6.06836H162.081C163.173 6.06836 164.094 6.98862 164.094 8.13895V26.1703C164.094 27.3206 163.202 28.2409 162.081 28.2409H156.3C155.207 28.2409 154.287 27.3206 154.287 26.1703V8.13895C154.287 6.98862 155.207 6.06836 156.3 6.06836Z" fill="#151517" stroke="#151517" stroke-width="0.163059" stroke-miterlimit="10"/>
<path fill-rule="evenodd" clip-rule="evenodd" d="M168.264 3.70996H174.706C175.942 3.70996 176.92 4.74526 176.92 6.01061V26.0838C176.92 27.3492 175.913 28.3845 174.706 28.3845H168.264C167.027 28.3845 166.049 27.3492 166.049 26.0838V6.01061C166.021 4.7165 167.027 3.70996 168.264 3.70996Z" fill="#151517" stroke="#151517" stroke-width="0.163059" stroke-miterlimit="10"/>
<path fill-rule="evenodd" clip-rule="evenodd" d="M181.637 6.38477H188.079C189.315 6.38477 190.293 7.30503 190.293 8.4266V26.3429C190.293 27.4645 189.287 28.3848 188.079 28.3848H181.637C180.4 28.3848 179.422 27.4645 179.422 26.3429V8.4266C179.394 7.30503 180.4 6.38477 181.637 6.38477Z" fill="#151517" stroke="#151517" stroke-width="0.163059" stroke-miterlimit="10"/>
<path fill-rule="evenodd" clip-rule="evenodd" d="M28.1826 11.9355C34.9408 11.9355 40.4336 17.4284 40.4336 24.1865C40.4336 30.9447 34.9408 36.4375 28.1826 36.4375C21.4245 36.4375 15.9316 30.9447 15.9316 24.1865C15.9316 17.4284 21.3957 11.9355 28.1826 11.9355ZM28.1826 20.9081C29.9944 20.9081 31.4611 22.3748 31.4611 24.1865C31.4611 25.9983 29.9656 27.465 28.1826 27.465C26.3996 27.465 24.9042 25.9983 24.9042 24.1865C24.9042 22.3748 26.3709 20.9081 28.1826 20.9081Z" fill="#FEFEFE"/>
<path fill-rule="evenodd" clip-rule="evenodd" d="M55.8779 11.9355C62.6361 11.9355 68.1289 17.4284 68.1289 24.1865C68.1289 30.9447 62.6361 36.4375 55.8779 36.4375C55.274 36.4375 54.6989 36.38 54.0949 36.3225V26.9473C54.6126 27.2637 55.2165 27.465 55.8779 27.465C57.6897 27.465 59.1564 25.9983 59.1564 24.1865C59.1564 22.3748 57.6897 20.9081 55.8779 20.9081C54.0662 20.9081 52.5995 22.3748 52.5995 24.1865V36.0061V43.8571H43.627V24.1865C43.627 17.4284 49.091 11.9355 55.8779 11.9355Z" fill="#FEFEFE"/>
<path fill-rule="evenodd" clip-rule="evenodd" d="M71.0043 18.3486H79.2867C80.0631 18.3486 80.7246 18.9813 80.7246 19.7865V23.6114C80.7246 24.3878 80.0919 25.0493 79.2867 25.0493H71.0043C70.2278 25.0493 69.5664 24.4166 69.5664 23.6114V19.7578C69.5664 18.9813 70.2278 18.3486 71.0043 18.3486Z" fill="#FEFEFE"/>
<path fill-rule="evenodd" clip-rule="evenodd" d="M12.5098 36.4366C5.75163 36.4366 0 30.9726 0 24.1856V3.91113H8.97255V12.4523H12.5098V22.0288H8.97255V24.2144C8.97255 26.0262 10.698 27.4928 12.5098 27.4928V36.4366Z" fill="#FEFEFE"/>
<path fill-rule="evenodd" clip-rule="evenodd" d="M79.1719 3.94043L93.0621 38.1051L106.981 3.94043H96.0529L93.0621 11.3025L90.0712 3.94043H79.1719Z" fill="#E31E24"/>
<path fill-rule="evenodd" clip-rule="evenodd" d="M122.942 3.68164C128.693 3.68164 133.323 8.31171 133.323 14.0346C133.323 17.2555 131.857 20.1026 129.556 22.0294L134.675 36.3797H124.869L120.497 24.0999V17.313H120.929C122.252 17.313 123.316 16.249 123.316 14.9261C123.316 13.6032 122.252 12.5392 120.929 12.5392H119.002V17.2843V23.5823V36.3509H109.195V3.68164H113.653H119.002H122.942Z" fill="#E31E24"/>
</svg>
