<svg width="16" height="16" viewBox="0 0 16 16" fill="none" xmlns="http://www.w3.org/2000/svg">
<path d="M8 15.5C12.1428 15.5 15.5 12.1428 15.5 8C15.5 3.85719 12.1428 0.5 8 0.5C3.85719 0.5 0.5 3.85719 0.5 8C0.5 12.1428 3.85719 15.5 8 15.5ZM3.93125 7.83781L11.1622 5.04969C11.4978 4.92875 11.7912 5.13125 11.6825 5.63938L11.6834 5.63844L10.4525 11.4387C10.3616 11.8494 10.1169 11.9497 9.77469 11.7566L7.89969 10.3747L6.995 11.2456C6.89469 11.3459 6.81031 11.4303 6.61719 11.4303L6.75031 9.52156L10.2256 6.38188C10.3766 6.24875 10.1919 6.17375 9.99312 6.30594L5.69844 9.00969L3.84781 8.43219C3.44469 8.30563 3.43625 8.03094 3.93125 7.83781V7.83781Z" fill="white"/>
</svg>
