<svg width="16" height="16" viewBox="0 0 16 16" fill="none" xmlns="http://www.w3.org/2000/svg">
<path d="M11.4427 9.44355L11.437 9.49042C10.0627 8.80605 9.91922 8.71417 9.74109 8.98042C9.61828 9.16511 9.25921 9.58324 9.1514 9.70699C9.04171 9.82886 8.93296 9.83824 8.74734 9.75386C8.55984 9.66011 7.95796 9.46324 7.24546 8.82574C6.69046 8.32886 6.31828 7.71948 6.20765 7.53198C6.0239 7.21605 6.40734 7.17105 6.75609 6.51105C6.8189 6.3798 6.78703 6.27667 6.74015 6.18386C6.69328 6.09011 6.32015 5.17136 6.16359 4.8048C6.01359 4.44011 5.8589 4.48605 5.74359 4.48605C5.38359 4.45511 5.12015 4.4598 4.88859 4.70074C3.87984 5.8098 4.1339 6.95261 4.99734 8.16949C6.69328 10.3895 7.59703 10.7982 9.24984 11.3654C9.69609 11.507 10.103 11.4873 10.4245 11.4414C10.7836 11.3842 11.5289 10.9904 11.6845 10.5498C11.8439 10.1092 11.8439 9.74355 11.797 9.65917C11.753 9.5748 11.6302 9.52792 11.4427 9.44355V9.44355Z" fill="white"/>
<path d="M13.325 2.65567C8.51938 -1.98964 0.565625 1.37973 0.562813 7.9338C0.562813 9.24348 0.905938 10.5213 1.55938 11.6491L0.5 15.5004L4.45906 14.4682C9.39969 17.1363 15.4972 13.5935 15.5 7.93755C15.5 5.95286 14.7247 4.08442 13.3156 2.68098L13.325 2.65567ZM14.2512 7.91692C14.2475 12.6879 9.01063 15.6663 4.86875 13.2316L4.64375 13.0975L2.3 13.7069L2.92813 11.4288L2.77906 11.1944C0.200937 7.09192 3.1625 1.72942 8.045 1.72942C9.70344 1.72942 11.2606 2.3763 12.4334 3.54817C13.6053 4.70973 14.2512 6.26692 14.2512 7.91692V7.91692Z" fill="white"/>
</svg>
