<?xml version="1.0" standalone="no"?>
<!DOCTYPE svg PUBLIC "-//W3C//DTD SVG 20010904//EN"
 "http://www.w3.org/TR/2001/REC-SVG-20010904/DTD/svg10.dtd">
<svg version="1.0" xmlns="http://www.w3.org/2000/svg"
 width="992.000000pt" height="992.000000pt" viewBox="0 0 992.000000 992.000000"
 preserveAspectRatio="xMidYMid meet">
<metadata>
Created by potrace 1.14, written by Peter Selinger 2001-2017
</metadata>
<g transform="translate(0.000000,992.000000) scale(0.100000,-0.100000)"
fill="#000000" stroke="none">
<path d="M4452 8500 c-140 -19 -287 -81 -405 -171 -60 -45 -89 -75 -179 -183
l-24 -29 -70 18 c-61 16 -133 19 -604 22 -595 5 -700 -1 -835 -46 -255 -85
-458 -303 -525 -560 l-17 -66 -544 -6 c-607 -6 -588 -4 -746 -80 -210 -101
-360 -281 -425 -514 l-23 -80 -3 -1290 c-3 -1348 -1 -1455 39 -1576 68 -208
213 -377 404 -469 166 -80 162 -80 828 -80 647 0 650 0 801 69 62 28 69 29 90
16 43 -28 182 -73 261 -85 55 -8 258 -10 655 -8 658 4 633 1 819 95 l106 53
100 -50 c55 -27 136 -60 180 -72 79 -23 86 -23 760 -23 l680 0 88 28 c94 29
180 69 264 123 l52 33 65 -42 c74 -48 73 -41 30 -157 -37 -102 -40 -233 -6
-332 45 -131 141 -245 253 -300 30 -14 257 -113 504 -218 926 -396 863 -372
995 -371 179 1 365 113 443 267 14 27 131 299 260 604 129 305 301 710 382
900 80 190 153 372 160 405 40 165 -9 335 -133 466 -70 74 -123 105 -324 189
l-128 53 0 198 c0 120 4 199 10 199 20 0 490 -208 545 -241 260 -157 416 -493
364 -785 -16 -95 -33 -139 -194 -519 -84 -198 -273 -643 -420 -990 -147 -346
-286 -666 -308 -710 -58 -112 -199 -254 -312 -312 -157 -81 -310 -112 -459
-93 -118 15 -157 28 -511 180 -170 72 -479 204 -685 292 -208 89 -405 180
-442 204 -294 189 -426 572 -313 904 14 40 23 75 21 77 -2 2 -23 -5 -47 -15
-48 -21 -117 -38 -191 -48 l-47 -6 -13 -57 c-8 -33 -13 -119 -13 -211 0 -130
4 -169 23 -240 51 -187 144 -350 275 -478 119 -119 204 -173 400 -256 56 -24
332 -141 612 -261 281 -119 539 -230 575 -245 266 -115 520 -130 770 -45 93
32 223 101 299 159 86 66 199 193 253 283 49 81 909 2094 946 2213 53 171 56
399 8 565 -54 184 -165 368 -293 486 -110 100 -210 155 -537 295 l-311 132 -6
809 c-6 896 -2 843 -74 1000 -113 246 -312 415 -575 490 -60 17 -115 18 -750
18 -609 0 -692 -2 -750 -17 -36 -9 -72 -19 -81 -23 -11 -4 -21 6 -35 37 -97
216 -309 391 -559 460 -78 22 -93 22 -710 24 -346 1 -658 -2 -693 -6z m1381
-287 c155 -59 274 -167 342 -308 51 -106 65 -166 65 -279 l0 -84 63 62 c67 66
165 123 262 153 56 17 107 18 710 18 l650 0 78 -28 c192 -68 326 -202 394
-393 l28 -79 0 -1560 c0 -1278 -2 -1570 -14 -1615 -25 -104 -80 -199 -161
-281 -80 -81 -146 -123 -250 -161 l-65 -23 -660 0 c-653 0 -661 0 -730 22
-130 41 -264 142 -336 255 l-31 48 -38 -58 c-74 -112 -189 -201 -320 -245 -64
-21 -78 -22 -686 -25 -695 -3 -707 -2 -844 64 -55 27 -96 58 -154 116 -79 78
-79 78 -94 56 -37 -56 -136 -139 -211 -176 -123 -62 -145 -63 -786 -59 -492 3
-576 5 -616 19 -71 25 -140 62 -195 106 l-50 39 -50 -40 c-68 -55 -172 -103
-252 -117 -46 -7 -240 -10 -612 -8 l-545 3 -71 28 c-192 76 -317 238 -345 446
-6 49 -9 543 -7 1376 l3 1300 22 66 c57 167 192 300 358 352 69 22 80 22 630
22 602 0 574 2 697 -50 17 -7 18 2 18 106 0 141 18 229 65 318 65 124 189 228
324 273 64 22 81 22 606 26 333 2 569 -1 616 -7 98 -13 174 -42 255 -96 40
-27 66 -39 68 -32 56 195 166 337 321 412 133 66 112 64 835 62 649 -2 656 -2
713 -24z"/>
<path d="M4433 7946 c-138 -44 -245 -166 -272 -311 -15 -79 -15 -3269 -1
-3345 33 -173 167 -305 336 -330 89 -13 1038 -13 1127 0 160 23 290 142 333
304 20 76 20 3316 0 3392 -32 119 -116 222 -224 272 l-57 27 -600 2 c-476 2
-609 -1 -642 -11z m807 -1463 c227 -108 323 -365 217 -587 -75 -159 -248 -265
-414 -254 l-48 3 -3 167 -2 167 54 -6 c53 -5 57 -4 91 30 30 30 35 42 35 80 0
54 -26 91 -75 107 -44 15 -96 -1 -125 -37 -19 -25 -20 -40 -20 -392 0 -201 -4
-372 -8 -379 -7 -9 -46 -12 -163 -10 l-154 3 -3 380 c-3 329 -1 388 14 443 29
111 118 222 219 275 75 38 116 47 220 44 88 -2 108 -6 165 -34z"/>
<path d="M2549 7565 c-110 -35 -204 -131 -239 -245 -20 -64 -20 -90 -18 -1565
l3 -1500 27 -57 c37 -79 70 -120 131 -162 99 -67 104 -67 689 -64 l523 3 55
27 c88 43 135 90 177 176 l38 76 3 1495 c3 1648 6 1562 -59 1663 -38 59 -84
100 -152 136 l-52 27 -540 2 c-447 2 -548 0 -586 -12z m718 -1405 c106 -36
185 -110 237 -220 29 -60 31 -73 31 -170 0 -97 -2 -110 -32 -172 -41 -88 -113
-160 -201 -201 -62 -30 -75 -32 -173 -32 -101 0 -108 1 -181 38 -253 124 -311
448 -117 652 113 119 278 159 436 105z"/>
<path d="M3078 5864 c-29 -15 -58 -61 -58 -89 0 -34 32 -84 65 -99 43 -21 86
-12 121 25 50 52 29 145 -38 168 -40 14 -57 13 -90 -5z"/>
<path d="M6560 7526 c-121 -32 -230 -127 -269 -231 l-21 -56 2 -1502 3 -1502
27 -57 c35 -75 104 -142 186 -181 l67 -32 600 -3 c534 -3 606 -1 655 13 115
34 220 132 257 240 17 47 18 145 18 1540 l0 1490 -32 67 c-51 109 -139 182
-258 212 -50 14 -144 16 -625 15 -413 0 -577 -4 -610 -13z"/>
<path d="M847 6939 c-89 -21 -168 -85 -215 -174 l-27 -50 0 -1275 0 -1275 27
-50 c35 -66 89 -119 157 -153 l56 -27 465 0 465 0 56 26 c69 33 127 89 160
155 l24 49 3 1260 c3 1406 7 1309 -68 1404 -28 35 -59 59 -107 83 l-68 33
-445 2 c-245 1 -462 -3 -483 -8z m581 -1071 l3 -147 57 -3 57 -3 3 -172 2
-173 -60 0 -60 0 0 -56 c0 -48 4 -59 29 -85 16 -16 43 -32 60 -35 l31 -6 0
-159 0 -159 -34 0 c-50 0 -149 33 -205 69 -70 45 -128 112 -164 189 l-32 67
-3 413 -3 413 158 -3 158 -3 3 -147z"/>
</g>
</svg>
