<svg width="50" height="50" viewBox="0 0 50 50" fill="none" xmlns="http://www.w3.org/2000/svg"><g clip-path="url(#a)"><path d="M27.599 5.466 23.947 0h-5.682c-.205 0-.406.043-.59.124l-3.743 7.245-7.39 3.44a1.48 1.48 0 0 0-.14.625v33.983c0 .809.657 1.465 1.465 1.465h16.08L27.6 42.58V5.465Z" fill="#E4EBF2"/><path d="M17.673.125v9.22c0 .808-.656 1.465-1.465 1.465H6.539c.076-.16.18-.308.312-.433L17.248.408c.124-.12.269-.215.425-.283Z" fill="#CCD6E7"/><path d="M41.49 1.465v43.952c0 .809-.656 1.465-1.465 1.465h-16.08V0h16.08c.809 0 1.465.656 1.465 1.465Z" fill="#E4EBF2"/><path d="m25.694 15.621-1.748-2.875h-3.265a3.067 3.067 0 0 0-3.064 3.064v13.017a3.067 3.067 0 0 0 3.064 3.064h3.265l1.748-2.625V15.621Z" fill="#FF80AA"/><path d="M49.998 15.81v13.017a3.067 3.067 0 0 1-3.064 3.064H23.945V12.746h22.989a3.067 3.067 0 0 1 3.064 3.064Z" fill="#FF80AA"/><path d="m19.248 39.194-8.322 10.263a1.467 1.467 0 0 1-2.277 0L.327 39.193a1.465 1.465 0 0 1 1.138-2.386h2.832V26.652c0-.808.655-1.465 1.465-1.465h8.051c.81 0 1.465.657 1.465 1.465v10.155h2.832a1.465 1.465 0 0 1 1.138 2.386Z" fill="#E32966"/><path d="M43.384 21.242h-1.939v-1.879h2.19a.977.977 0 0 0 0-1.953H40.47a.977.977 0 0 0-.977.977v7.812a.977.977 0 1 0 1.953 0v-3.003h1.939a.977.977 0 0 0 0-1.954Zm-9.408-3.832c-2.342 0-2.534-.084-2.904.287a.977.977 0 0 0-.286.692v.006c0 8.32-.008 7.73.02 7.87.034.52.465.911.973.911h.004c.066 0 1.644-.006 2.274-.017 2.347-.041 4.05-2.087 4.05-4.866 0-2.92-1.66-4.883-4.131-4.883Zm.047 7.796c-.292.005-.807.01-1.271.012-.003-.925-.007-2.267-.007-2.933l-.004-2.921h1.235c1.606 0 2.178 1.513 2.178 2.93 0 1.43-.659 2.886-2.13 2.912Zm-9.735-6.39-.343-1.406c-.54 0-.976.44-.976.977v7.812c0 .54.437.977.976.977l.343-1.55v-6.81Z" fill="#E4EBF2"/><path d="M26.121 17.41h-2.176v9.766c.54 0 .977-.438.977-.977v-2.423l1.2-.003c1.776 0 3.224-1.427 3.224-3.182 0-1.754-1.448-3.18-3.225-3.18Zm0 4.41-1.19.003c-.005-1.28-.001-.78-.006-2.46h1.196c.689 0 1.272.563 1.272 1.228 0 .666-.583 1.228-1.272 1.228Z" fill="#E4EBF2"/></g><defs><clipPath id="a"><path fill="#fff" d="M0 0h50v50H0z"/></clipPath></defs></svg>