<svg width="50" height="50" viewBox="0 0 50 50" fill="none" xmlns="http://www.w3.org/2000/svg"><g clip-path="url(#a)" fill="#fff"><path d="M21.236 5.974c-.666.666.368 1.698 1.033 1.034a3.83 3.83 0 0 1 2.726-1.13 3.83 3.83 0 0 1 2.726 1.13c.143.142.33.214.517.214.633 0 .964-.8.516-1.248a5.283 5.283 0 0 0-3.76-1.558 5.281 5.281 0 0 0-3.758 1.558Zm-1.317-2.408a7.133 7.133 0 0 1 5.076-2.105c1.917 0 3.72.748 5.077 2.105.142.143.33.214.516.214.633 0 .964-.8.517-1.247A8.585 8.585 0 0 0 24.995 0a8.59 8.59 0 0 0-6.11 2.533c-.665.666.37 1.698 1.034 1.033ZM35.075 8.16h-20.16a4.374 4.374 0 0 0-4.368 4.368v3.351c0 .947 1.461.94 1.461 0v-3.35a2.91 2.91 0 0 1 2.908-2.908h20.159a2.911 2.911 0 0 1 2.907 2.907v23.024c0 7.16-5.826 12.987-12.987 12.987-7.16 0-12.987-5.826-12.987-12.987V19.97c0-.947-1.461-.94-1.461 0v15.58c0 7.969 6.481 14.45 14.448 14.45 7.967 0 14.448-6.482 14.448-14.448V12.528a4.374 4.374 0 0 0-4.368-4.369Z"/><path d="M29.058 14.184h-8.125a.73.73 0 0 0-.73.731v4.645h-4.646a.73.73 0 0 0-.73.73v8.125a.73.73 0 0 0 .73.731h4.646v4.645c0 .404.327.73.73.73h8.125a.73.73 0 0 0 .73-.73v-5.376c0-.947-1.461-.94-1.461 0v4.646h-6.663v-4.646a.73.73 0 0 0-.73-.73h-4.646v-6.663h4.645a.73.73 0 0 0 .73-.731v-4.645h6.664v4.645c0 .403.327.73.73.73h4.646v6.664h-1.109c-.947 0-.94 1.461 0 1.461h1.84a.73.73 0 0 0 .73-.73V20.29a.73.73 0 0 0-.73-.73h-4.646v-4.646a.73.73 0 0 0-.73-.73Z"/></g><defs><clipPath id="a"><path fill="#fff" d="M0 0h50v50H0z"/></clipPath></defs></svg>