<svg width="30" height="30" viewBox="0 0 30 30" fill="none" xmlns="http://www.w3.org/2000/svg"><path d="m18.455.27-.018 2.887 3.531.285 2.127-.355.027-2.795C21.71.49 21.078.412 18.455.27Zm-.191 2.968.019-3.154 3.732.203 2.281-.186-.03 3.136c-.763.127-1.53.25-2.292.383-1.235-.108-2.475-.201-3.71-.3v-.082Z" fill="#FEFEFE"/><path d="M18.364.09c2.428-.14 3.308-.102 5.849.018l-.008.176-3.375-.16-2.456.141-.01-.176Zm3.74.287-.047 3.155-.173-.002.047-3.155.173.002Z" fill="#FEFEFE"/><path d="m18.372.42 3.64.217L24.198.44l.015.175c-2.588.235-3.01.151-5.85-.018l.009-.176Z" fill="#FEFEFE"/><path d="m19.453.637.223.18-.107.138-.223-.18.107-.138Zm1.42.066.223.18-.107.138-.223-.18.107-.138Zm-2.305.851 3.052.178.097.478-.17.035-.07-.344-2.918-.171.01-.176Z" fill="#FEFEFE"/><path d="m18.63 2.03 3.07.2.06.478-.172.022-.042-.334-2.928-.19.011-.175Z" fill="#FEFEFE"/><path d="m18.774 2.484 2.928.218.08.484-.17.029-.058-.347-2.792-.208.012-.176Zm3.896-.485-.33.026.033.292-.172.02c-.02-.173-.043-.308-.043-.475l.498-.04.013.177Zm-.427.841-.074-.501.517-.03.01.177-.328.018.046.31-.171.027Z" fill="#FEFEFE"/><path d="M22.27 3.28v-.045l-.04-.41.498-.057.019.175-.328.037c.01.1.024.2.024.3h-.173Zm1.805-1.442-1.051.127.018.276-.174.01-.028-.441 1.215-.147.02.175Zm.02.907-.885.12.035.282-.171.022-.057-.455 1.055-.144.023.175Z" fill="#FEFEFE"/><path d="m24.068 2.267-1.012.144.05.307-.171.03-.08-.487 1.189-.168.024.174ZM.444 20.962l20.152 8.963 9.047-7.794-18.535-5.612L.444 20.962Zm20.133 9.147L0 20.957c3.699-1.543 7.398-3.09 11.1-4.625 6.301 1.902 12.6 3.815 18.9 5.723-3.125 2.691-6.248 5.385-9.374 8.076l-.05-.023Z" fill="#FEFEFE"/><path d="m20.393 29 8.393-6.964-17.529-5.328-9.935 4.102L20.392 29Zm8.63-6.933-8.561 7.104-.055-.069-.034.081L.87 20.807c3.459-1.43 6.917-2.863 10.379-4.286 5.967 1.811 11.934 3.627 17.9 5.44l-.126.106Z" fill="#FEFEFE"/><path d="m5.966 17.812.055-.057c4.087-4.234 8.166-8.46 10.319-10.675 1.099-1.13 1.73-1.773 2.127-2.16.396-.387.552-.513.701-.613.15-.101.293-.175.432-.226a1.737 1.737 0 0 1 .834-.084c.133.02.262.056.378.109a.97.97 0 0 1 .326.233c.097.106.188.247.278.444.134.291.266.702.692 2.03l.506 1.574c.856 2.65 2.35 7.226 3.851 11.819l.042.127-.131.044-.042-.127a4610.516 4610.516 0 0 1-3.852-11.82l-.506-1.573c-.425-1.324-.556-1.733-.685-2.015a1.536 1.536 0 0 0-.254-.406.835.835 0 0 0-.28-.202 1.311 1.311 0 0 0-.344-.098 1.605 1.605 0 0 0-.384-.01c-.127.012-.253.04-.382.087-.13.048-.263.117-.403.21-.142.096-.293.218-.681.598-.388.38-1.02 1.022-2.124 2.158-2.235 2.299-6.272 6.482-10.32 10.674l-.054.057-.1-.099h.001Z" fill="#FEFEFE"/><path d="m11.53 15.326.015-.02c2.262-3.156 4.522-6.31 5.804-8.054a44.457 44.457 0 0 1 1.317-1.732c.275-.334.422-.476.559-.586a1.97 1.97 0 0 1 .383-.246 1.68 1.68 0 0 1 .337-.12c.107-.027.21-.043.31-.041a.672.672 0 0 1 .3.072c.1.05.196.128.33.502.127.352.297.986.554 2.16.515 2.341 1.382 6.823 2.248 11.305l-.136.027c-.867-4.486-1.734-8.972-2.247-11.302-.256-1.164-.424-1.793-.549-2.141-.117-.326-.189-.387-.262-.425a.535.535 0 0 0-.24-.057 1.095 1.095 0 0 0-.276.037 1.613 1.613 0 0 0-.667.34c-.128.103-.27.24-.538.566-.272.331-.67.853-1.312 1.725-1.287 1.75-3.544 4.9-5.804 8.053l-.014.02-.112-.083Z" fill="#FEFEFE"/><path d="M13.829 15.446c1.845-3.327 3.69-6.654 4.73-8.36.522-.857.844-1.31 1.056-1.544.232-.257.352-.27.452-.251.107.02.187.074.269.416.072.306.155.867.276 1.912.24 2.079.637 6.1 1.034 10.122l-.138.013c-.396-4.014-.792-8.028-1.034-10.119-.12-1.04-.202-1.596-.273-1.894-.062-.263-.106-.3-.16-.311-.06-.012-.139.002-.324.208-.207.228-.523.674-1.04 1.522-1.04 1.708-2.884 5.031-4.728 8.355l-.12-.07v.001Z" fill="#FEFEFE"/><path d="m17.35 16.296 2.377-10.202.135.032-2.377 10.202-.135-.032Zm-1.417 4.344-2.247 1.53-.077-.116 2.246-1.53.078.116Z" fill="#FEFEFE"/><path d="m13.366 20.69 2.804 1.228-.069.162-2.804-1.228.069-.162Z" fill="#FEFEFE"/><path d="M4.748 21.583c1.782-.78 3.565-1.561 4.747-2.081l.214-.093c1.04-.458 1.582-.696 2.05-.866.234-.085.45-.152.644-.205.222-.06.421-.103.597-.132.165-.027.309-.042.438-.05a3.446 3.446 0 0 1 .653.028c.095.016.182.038.26.07.08.032.153.074.216.124.064.051.118.11.16.177a.51.51 0 0 1 .083.299c.003.14-.019.35-.082.694-.09.492-.262 1.255-.414 1.927l-.161.72c-.083.377-.137.643-.171.846-.034.2-.048.335-.05.454-.003.117.004.22.021.306a.626.626 0 0 0 .08.212c.03.048.069.086.17.1.123.014.325-.005.673-.078a19.29 19.29 0 0 0 1.61-.438c.58-.18 1.252-.407 1.989-.68a76.504 76.504 0 0 0 2.579-1.022c.914-.378 1.858-.78 2.803-1.182l.053.13c-.949.404-1.898.809-2.804 1.183a76.65 76.65 0 0 1-2.584 1.023c-.736.273-1.411.5-1.996.682-.682.212-1.237.36-1.622.441-.364.078-.58.097-.717.08-.158-.02-.222-.084-.272-.164a.775.775 0 0 1-.097-.26 1.525 1.525 0 0 1-.025-.337c.003-.127.018-.269.052-.474.034-.203.088-.47.172-.853l.162-.721c.152-.673.325-1.438.413-1.921.061-.333.083-.535.08-.666a.385.385 0 0 0-.06-.224.604.604 0 0 0-.13-.143.725.725 0 0 0-.182-.104 1.086 1.086 0 0 0-.231-.062 2.415 2.415 0 0 0-.285-.028 3.38 3.38 0 0 0-.762.05 5.91 5.91 0 0 0-.583.129 8.25 8.25 0 0 0-.634.201c-.46.167-1.001.405-2.042.862l-.213.094c-1.182.52-2.965 1.3-4.747 2.081l-.055-.13v.001Z" fill="#FEFEFE"/><path d="m5.138 21.905.008-.003c2.17-.963 4.34-1.925 5.645-2.47a25.88 25.88 0 0 1 1.409-.55 6.756 6.756 0 0 1 1.132-.297c.126-.02.231-.028.318-.027.09.002.161.016.218.038.06.024.106.057.143.098.042.044.076.096.07.239-.004.121-.038.32-.124.67-.096.39-.26.974-.421 1.555-.124.443-.247.884-.34 1.24-.107.405-.173.69-.21.906-.038.216-.05.365-.048.5 0 .134.015.255.045.36a.68.68 0 0 0 .135.262c.063.072.146.13.25.175.11.047.244.081.405.104.167.024.364.036.576.033.205-.002.425-.017.65-.046.227-.03.46-.073.828-.186.369-.113.871-.295 1.637-.6 1.534-.61 4.121-1.713 6.709-2.814l.053.13c-2.588 1.102-5.175 2.204-6.711 2.815-.77.307-1.276.49-1.648.604a4.78 4.78 0 0 1-.851.19 5.61 5.61 0 0 1-.665.048 4.03 4.03 0 0 1-.598-.035 1.719 1.719 0 0 1-.438-.113.812.812 0 0 1-.3-.212.81.81 0 0 1-.165-.316 1.527 1.527 0 0 1-.05-.398c-.002-.145.01-.302.049-.526.04-.224.106-.512.212-.919.092-.35.216-.794.341-1.24.162-.58.324-1.161.42-1.552.084-.34.117-.53.121-.64.003-.09-.012-.117-.032-.138a.248.248 0 0 0-.093-.063.5.5 0 0 0-.171-.028 1.722 1.722 0 0 0-.296.025 6.583 6.583 0 0 0-1.108.29c-.314.11-.75.277-1.4.549-1.304.543-3.473 1.505-5.643 2.467l-.007.004-.055-.13Z" fill="#FEFEFE"/><path d="m10.313 17.455.008.014c.177.292.354.584.527.88l.15.259c.049.084.095.168.139.249l-.122.067c-.041-.077-.088-.16-.136-.245a65.722 65.722 0 0 0-.676-1.136l-.009-.014.119-.073Zm1.025 1.832a.773.773 0 0 1 .048.226.736.736 0 0 1-.026.217c-.022.091-.06.195-.143.34-.08.141-.205.322-.402.57-.205.259-.482.583-.756.903-.259.302-.514.6-.693.824a3.761 3.761 0 0 0-.361.512.586.586 0 0 0-.084.247.245.245 0 0 0 .03.147c.025.041.07.076.137.105.074.031.173.054.38.038.218-.017.547-.075 1.072-.208.316-.08.704-.187 1.135-.311.433-.125.905-.265 1.389-.412l.039.136c-.49.148-.963.289-1.39.412-.431.124-.82.231-1.14.312-.533.135-.87.194-1.094.211-.235.018-.354-.01-.444-.048a.418.418 0 0 1-.202-.16.38.38 0 0 1-.051-.23.716.716 0 0 1 .1-.307c.07-.126.185-.294.377-.533.187-.234.439-.529.695-.828.275-.322.555-.649.753-.898a4.6 4.6 0 0 0 .39-.552c.074-.131.108-.224.129-.305a.602.602 0 0 0 .02-.176.643.643 0 0 0-.039-.185l.13-.047h.001Zm2.711 2.897 1.446-.447c1.357-.422 2.475-.77 3.176-.947.395-.1.662-.148.85-.162a.884.884 0 0 1 .401.041.32.32 0 0 1 .204.197c.034.091.04.218.02.405-.013.129-.04.289-.079.489-.04.2-.094.439-.165.725l-.134-.034c.07-.288.124-.524.163-.72a5.41 5.41 0 0 0 .077-.474c.018-.166.014-.272-.011-.342-.021-.058-.063-.09-.124-.114a.76.76 0 0 0-.342-.032c-.181.013-.44.06-.827.157-.701.178-1.816.524-3.169.945l-1.445.448-.04-.135Zm5.698.906-.043.164a272.46 272.46 0 0 1-1.099 3.938l-.003.011-.133-.038.003-.012c.412-1.452.824-2.903 1.098-3.935l.043-.164.134.036Z" fill="#FEFEFE"/><path d="M11.24 17.153c.147.239.294.478.432.708.138.23.266.448.374.643l-.121.07a21.49 21.49 0 0 0-.371-.64c-.136-.226-.284-.467-.431-.707l.118-.074Zm1.023 1.773c.092.199.143.354.165.49a.945.945 0 0 1-.015.378c-.03.127-.08.258-.175.414-.093.153-.23.33-.433.55-.217.236-.507.52-.785.792-.239.234-.468.46-.633.636-.174.185-.271.313-.318.405-.037.072-.04.113-.024.142.014.025.05.043.22.021.207-.026.574-.114 1.231-.313.228-.069.495-.152.789-.246l.935-.3.041.134c-.345.112-.664.215-.935.301-.29.092-.556.176-.79.246-.667.201-1.04.291-1.255.318-.251.032-.319-.021-.358-.093-.037-.07-.04-.153.023-.275.053-.104.158-.242.34-.438.165-.177.397-.404.638-.64.278-.271.568-.555.78-.785.195-.214.327-.384.415-.53.087-.14.132-.258.158-.37a.808.808 0 0 0 .014-.325 1.767 1.767 0 0 0-.154-.452l.125-.06Zm1.92 2.653.34-.111c.842-.276 1.674-.549 2.33-.756a27.235 27.235 0 0 1 1.7-.492c.4-.096.667-.136.906-.15a3.17 3.17 0 0 1 .64.023c.189.027.352.07.496.122.145.053.27.114.372.184a.819.819 0 0 1 .243.253c.054.091.084.19.075.392-.01.188-.055.472-.152.938l-.136-.029c.096-.459.14-.736.15-.916.007-.166-.015-.244-.056-.313a.68.68 0 0 0-.202-.208 1.472 1.472 0 0 0-.34-.168 2.322 2.322 0 0 0-.468-.115 3.012 3.012 0 0 0-.613-.022 4.89 4.89 0 0 0-.882.146 26.87 26.87 0 0 0-1.691.49c-.658.207-1.489.48-2.328.754l-.34.112-.043-.134Zm6.826.978c-.265 1.189-.722 3.082-1.178 4.975l-.003.01-.134-.035.002-.008c.457-1.895.914-3.789 1.178-4.973l.135.032Zm-5.296-3.124c.202 0 .386.049.52.128.146.085.236.207.236.345 0 .138-.09.26-.236.345a1.05 1.05 0 0 1-.52.127c-.202 0-.386-.049-.52-.128-.146-.085-.236-.206-.236-.344 0-.138.09-.26.236-.345.134-.079.318-.128.52-.128Zm.452.25a.916.916 0 0 0-.452-.108.91.91 0 0 0-.451.108c-.103.06-.167.139-.167.222 0 .084.064.163.167.223a.91.91 0 0 0 .45.108.91.91 0 0 0 .452-.108c.103-.06.166-.139.166-.223 0-.084-.063-.162-.166-.222Zm1.215-.76c.113 0 .217.027.293.07.088.05.143.124.143.209 0 .085-.055.158-.143.209a.604.604 0 0 1-.293.07.604.604 0 0 1-.293-.07c-.088-.05-.143-.124-.143-.209 0-.085.055-.159.143-.209a.605.605 0 0 1 .293-.07Zm.226.194a.466.466 0 0 0-.226-.052c-.09 0-.17.02-.226.052-.044.024-.071.055-.071.085 0 .03.027.06.071.085a.466.466 0 0 0 .226.052c.09 0 .17-.02.226-.051.044-.025.071-.056.071-.086 0-.03-.027-.06-.071-.085Z" fill="#FEFEFE"/><path d="M12.556 21.303a.622.622 0 0 0-.256.05c-.049.022-.078.048-.078.07 0 .024.03.05.078.072.064.03.155.05.256.05a.618.618 0 0 0 .257-.05c.048-.022.078-.048.078-.07 0-.024-.03-.05-.078-.072a.619.619 0 0 0-.257-.05Zm-.315-.078a.756.756 0 0 1 .315-.063c.122 0 .233.024.315.063.097.046.158.116.158.199 0 .082-.06.153-.158.199a.75.75 0 0 1-.315.063.756.756 0 0 1-.315-.063c-.098-.046-.159-.116-.159-.2 0-.082.061-.152.16-.198Zm-2.675-.469a.434.434 0 0 0-.212.049c-.04.024-.066.053-.066.08 0 .029.025.057.066.081a.44.44 0 0 0 .212.05.435.435 0 0 0 .213-.05c.04-.024.066-.053.066-.08 0-.029-.025-.057-.066-.081a.433.433 0 0 0-.213-.05Zm-.28-.073a.573.573 0 0 1 .28-.069c.109 0 .208.027.28.069.085.048.138.12.138.203 0 .082-.052.154-.137.203a.574.574 0 0 1-.28.068.572.572 0 0 1-.281-.068c-.085-.049-.137-.12-.137-.203 0-.083.052-.154.137-.203Zm-2.113-1.751a.775.775 0 0 0-.33.066c-.067.033-.109.073-.109.111 0 .04.042.08.11.112.082.04.199.066.33.066.13 0 .246-.025.329-.066.067-.032.11-.073.11-.111 0-.04-.043-.08-.11-.112a.775.775 0 0 0-.33-.066Zm-.39-.061a.914.914 0 0 1 .39-.08c.15 0 .289.03.39.08.116.056.188.14.188.239 0 .097-.072.182-.189.238a.913.913 0 0 1-.389.08.91.91 0 0 1-.39-.08c-.116-.056-.188-.14-.188-.238 0-.098.072-.183.189-.24Zm1.702 2.739c.173 0 .33.03.445.075.135.054.219.135.219.233 0 .097-.084.179-.219.233a1.244 1.244 0 0 1-.445.073c-.173 0-.33-.028-.445-.073-.135-.054-.219-.136-.219-.233 0-.098.084-.18.219-.233.115-.046.272-.074.445-.074Zm.395.207c-.1-.04-.24-.065-.395-.065-.155 0-.295.025-.395.065-.08.031-.13.068-.13.1 0 .034.05.07.13.102.1.04.24.064.395.064.155 0 .295-.024.395-.064.08-.032.13-.068.13-.101s-.05-.07-.13-.101Zm-4.61-1.491c.26 0 .497.045.67.119.19.081.309.2.309.339 0 .138-.119.258-.31.339a1.77 1.77 0 0 1-.67.119 1.77 1.77 0 0 1-.67-.12c-.19-.08-.309-.2-.309-.338 0-.139.118-.258.31-.34.172-.073.41-.118.67-.118Zm.617.25a1.633 1.633 0 0 0-.617-.109c-.242 0-.46.041-.617.108-.138.06-.224.133-.224.209 0 .075.086.15.224.208.157.067.375.108.617.108s.46-.04.617-.108c.138-.059.223-.133.223-.208 0-.076-.085-.15-.223-.209Zm7.27 3.718a.86.86 0 0 1 .474.132c.131.087.213.21.213.35 0 .138-.082.262-.213.349a.864.864 0 0 1-.474.132.864.864 0 0 1-.475-.132c-.13-.087-.212-.21-.212-.35 0-.139.08-.262.212-.35a.864.864 0 0 1 .475-.131Zm.398.25a.726.726 0 0 0-.398-.109.727.727 0 0 0-.399.109c-.092.061-.149.143-.149.231 0 .088.057.17.15.232.1.067.241.108.398.108a.726.726 0 0 0 .398-.108c.093-.061.15-.144.15-.232 0-.088-.057-.17-.15-.231Zm3.919-2.149c.173 0 .33.032.445.085.133.06.214.15.214.255 0 .105-.081.194-.214.255a1.1 1.1 0 0 1-.445.085c-.172 0-.33-.033-.445-.085-.132-.06-.214-.15-.214-.255 0-.105.082-.195.214-.255.115-.053.273-.085.445-.085Zm.389.214a.966.966 0 0 0-.389-.073.972.972 0 0 0-.389.073c-.08.037-.131.081-.131.126 0 .044.05.089.131.126a.966.966 0 0 0 .39.072.98.98 0 0 0 .388-.072c.081-.037.131-.082.131-.126s-.05-.09-.131-.126Zm6.18.059c-.191 0-.363.03-.487.08-.103.041-.167.09-.167.138 0 .048.064.097.167.138.124.05.296.08.487.08.192 0 .364-.03.487-.08.104-.041.168-.09.168-.138 0-.047-.064-.097-.168-.138a1.365 1.365 0 0 0-.487-.08Zm-.537-.052a1.5 1.5 0 0 1 .537-.09c.209 0 .4.035.538.09.158.063.256.158.256.27 0 .111-.098.206-.256.27a1.5 1.5 0 0 1-.538.089c-.208 0-.398-.034-.537-.09-.158-.063-.256-.158-.256-.27 0-.11.098-.206.256-.269Zm2.088-.269a1.3 1.3 0 0 0-.33.037l-.093.025.093.025c.083.022.2.036.33.036s.247-.013.33-.036l.093-.025-.093-.025a1.346 1.346 0 0 0-.33-.037Zm-.366-.1a1.45 1.45 0 0 1 .366-.041c.141 0 .27.015.365.041.122.032.197.09.197.162 0 .073-.075.13-.197.162a1.463 1.463 0 0 1-.365.04c-.142 0-.271-.015-.366-.04-.12-.033-.196-.09-.196-.162 0-.073.075-.13.196-.162Zm-.257 2.745c-.14 0-.266.022-.356.056-.07.027-.113.056-.113.081s.044.054.113.081c.09.035.216.056.356.056.14 0 .267-.021.357-.056.07-.027.112-.056.112-.08 0-.026-.043-.055-.112-.082a1.03 1.03 0 0 0-.357-.056Zm-.405-.076c.105-.04.248-.065.405-.065.157 0 .3.025.405.065.126.049.203.123.203.213s-.077.165-.203.213c-.104.04-.248.065-.405.065-.157 0-.3-.025-.405-.065-.125-.048-.203-.123-.203-.213s.078-.165.203-.213Zm-11.061-7.631a.82.82 0 0 1 .36.076c.107.055.174.136.174.23s-.067.176-.175.23a.808.808 0 0 1-.359.077.813.813 0 0 1-.359-.076c-.108-.055-.174-.137-.174-.23 0-.095.066-.176.174-.23a.815.815 0 0 1 .36-.077Zm.298.203a.673.673 0 0 0-.298-.062.674.674 0 0 0-.297.062c-.06.03-.098.068-.098.104 0 .036.038.073.098.104a.69.69 0 0 0 .297.061.676.676 0 0 0 .297-.061c.06-.03.098-.068.098-.104 0-.036-.037-.073-.098-.104Zm2.418.476c.098 0 .189.02.255.05.083.038.135.097.135.168 0 .07-.052.13-.135.167a.628.628 0 0 1-.255.05.633.633 0 0 1-.254-.05c-.084-.038-.136-.097-.136-.168 0-.07.052-.13.136-.168a.629.629 0 0 1 .254-.049Zm.199.178a.492.492 0 0 0-.199-.037.492.492 0 0 0-.198.037c-.032.015-.052.03-.052.04 0 .01.02.024.052.039.05.022.12.036.198.036.08 0 .15-.014.199-.036.032-.015.052-.03.052-.04 0-.01-.02-.024-.052-.039Zm5.947 1.778a.49.49 0 0 1 .264.072c.078.05.126.123.126.206 0 .083-.048.156-.126.206a.491.491 0 0 1-.264.073.49.49 0 0 1-.263-.073c-.078-.05-.127-.123-.127-.206 0-.083.049-.156.127-.206a.49.49 0 0 1 .263-.072Zm.19.19a.354.354 0 0 0-.19-.049.354.354 0 0 0-.189.05c-.038.024-.061.056-.061.087 0 .032.023.063.061.088.047.03.114.05.19.05a.353.353 0 0 0 .189-.05c.038-.025.061-.056.061-.088 0-.031-.023-.062-.061-.087Zm-11.252 3.749c.134 0 .257.017.347.044.115.036.186.094.186.168 0 .074-.071.133-.186.168-.09.028-.213.045-.347.045-.135 0-.259-.017-.349-.045-.114-.035-.185-.093-.185-.168 0-.074.07-.133.185-.168.09-.027.214-.044.348-.044Zm.308.18a1.1 1.1 0 0 0-.308-.039c-.122 0-.231.015-.309.039a.323.323 0 0 0-.086.032c0 .005.033.017.086.033a1.1 1.1 0 0 0 .309.038c.122 0 .23-.014.308-.038a.3.3 0 0 0 .086-.033.301.301 0 0 0-.086-.032Zm-3.957-2.183c.138 0 .265.036.358.094.103.064.166.156.166.26 0 .105-.063.197-.166.261a.687.687 0 0 1-.358.093.686.686 0 0 1-.358-.093c-.103-.064-.167-.156-.167-.26 0-.105.064-.197.167-.261a.686.686 0 0 1 .358-.094Zm.285.214a.547.547 0 0 0-.285-.072.552.552 0 0 0-.286.072c-.062.039-.1.089-.1.14 0 .052.039.102.1.14a.547.547 0 0 0 .286.073.55.55 0 0 0 .285-.072c.062-.039.1-.089.1-.14 0-.052-.038-.102-.1-.14Zm14.812 3.82a.83.83 0 0 1 .372.08c.111.058.18.143.18.24 0 .099-.069.184-.18.241a.828.828 0 0 1-.372.08.83.83 0 0 1-.373-.08c-.11-.057-.18-.142-.18-.24s.07-.183.18-.24a.828.828 0 0 1 .373-.081Zm.31.207a.69.69 0 0 0-.31-.066.694.694 0 0 0-.31.066c-.064.033-.104.074-.104.114 0 .04.04.08.104.114a.69.69 0 0 0 .31.065.694.694 0 0 0 .31-.065c.063-.033.103-.074.103-.114 0-.04-.04-.08-.103-.114ZM6.005 21.35l-.163-.157c.294-.136.6-.265.888-.412l.178.22-.87.382-.033-.032Zm1.763-.738-.09-.184.417-.221.182.185-.394.238-.08.055-.035-.073Zm1.582-.599-.068-.167.739-.342h.053l.205.17-.902.406-.027-.067Zm4.844-.797-.021.101.11.002v-.09l-.089-.014Zm-.174.156.065-.316.337.052v.355l-.419-.008.018-.083Zm.14.985-.165.467-.409-.057.186-.532.42.036-.031.086Zm-.257.312.097-.273-.133-.012-.093.267.13.018Zm-.193 1.439-.06.268.096.002.051-.265-.088-.005Zm-.214.321.104-.47.363.024-.103.538-.382-.008.018-.084Zm-.109.586v-.134l.376.038v.511l-.45.007.074-.422Zm.138.022-.045.257.144-.003v-.244l-.1-.01Zm-.588.966.307-.114.321.512-.433.173v-.097l-.277-.444.082-.03Zm.25.057-.122.045.172.276.12-.049-.17-.272Zm2.129.251.043.07.596-.176-.037-.051-.602.157Zm-.052.183-.166-.27.875-.23.213.29-.85.25-.058-.018-.014-.022Zm1.53-.628.07.068.54-.246-.046-.058-.564.236Zm.008.202-.258-.25.857-.358.224.282-.789.359-.034-.032Zm5.483-2.375v-.002h.067l-.021-.048.585-.266.27.187-.727.308h-.053l-.104-.124c-.005-.01-.01-.019-.014-.03-.003-.01-.003-.015-.003-.025Z" fill="#FEFEFE"/></svg>