<svg width="12" height="5" viewBox="0 0 12 5" fill="none" xmlns="http://www.w3.org/2000/svg"><path fill="#E5E5E5" d="M0 0h12v5H0z"/><g clip-path="url(#a)"><path fill="#151517" d="M-377-136h1440v810H-377z"/><g filter="url(#b)"><circle cx="169.5" cy="169.5" r="169.5" transform="matrix(1 0 0 -1 326 475)" fill="#7F00FF"/></g><path d="M-377-16h1440v37H-377v-37Z" fill="#000"/><path d="M-263-16H99v395h-362V-16Z" fill="#000"/><path d="M11 .5 7.148 3.581c-.5.4-.75.601-1.04.633a1 1 0 0 1-.216 0c-.29-.032-.54-.232-1.04-.633L1 .5" stroke="#fff" stroke-linecap="round"/></g><g clip-path="url(#c)"><path fill="#151517" d="M-377-136h1440v810H-377z"/><g filter="url(#d)"><circle cx="169.5" cy="169.5" r="169.5" transform="matrix(1 0 0 -1 326 475)" fill="#7F00FF"/></g><path d="M-377-16h1440v37H-377v-37Z" fill="#000"/><path d="M-263-16H99v395h-362V-16Z" fill="#000"/><path d="M11 .5 7.148 3.581c-.5.4-.75.601-1.04.633a1 1 0 0 1-.216 0c-.29-.032-.54-.232-1.04-.633L1 .5" stroke="#fff" stroke-linecap="round"/></g><defs><clipPath id="a"><path fill="#fff" transform="translate(-377 -136)" d="M0 0h1440v810H0z"/></clipPath><clipPath id="c"><path fill="#fff" transform="translate(-377 -136)" d="M0 0h1440v810H0z"/></clipPath><filter id="b" x="-74" y="-264" width="1139" height="1139" filterUnits="userSpaceOnUse" color-interpolation-filters="sRGB"><feFlood flood-opacity="0" result="BackgroundImageFix"/><feBlend in="SourceGraphic" in2="BackgroundImageFix" result="shape"/><feGaussianBlur stdDeviation="200" result="effect1_foregroundBlur_0_1"/></filter><filter id="d" x="-74" y="-264" width="1139" height="1139" filterUnits="userSpaceOnUse" color-interpolation-filters="sRGB"><feFlood flood-opacity="0" result="BackgroundImageFix"/><feBlend in="SourceGraphic" in2="BackgroundImageFix" result="shape"/><feGaussianBlur stdDeviation="200" result="effect1_foregroundBlur_0_1"/></filter></defs></svg>