<svg width="30" height="26" viewBox="0 0 30 26" fill="none" xmlns="http://www.w3.org/2000/svg"><path d="M10.793 1.005c.155.013.314.05.474.113.156.062.312.147.466.256.153.108.301.239.446.394.145.153.285.331.423.536.138.205.274.438.399.688a7.101 7.101 0 0 1 .564 1.558 8.648 8.648 0 0 1 .22 1.691 9.993 9.993 0 0 1-.111 1.8 7.81 7.81 0 0 1-.18.855 5.317 5.317 0 0 1-.306.855 4.74 4.74 0 0 1-.484.823 6.22 6.22 0 0 1-.678.775 5.918 5.918 0 0 1-.78.646 3.83 3.83 0 0 1-.727.392 3.819 3.819 0 0 1-1.22.271 2.428 2.428 0 0 1-.535-.038 2.745 2.745 0 0 1-.527-.155 3.83 3.83 0 0 1-.524-.263 3.372 3.372 0 0 1-.523-.377 3.046 3.046 0 0 1-.498-.566 4.265 4.265 0 0 1-.438-.84 5.03 5.03 0 0 1-.27-.963 6.082 6.082 0 0 1-.087-1.037 8.5 8.5 0 0 1 .295-2.215c.097-.346.223-.69.389-1.038.15-.316.33-.637.523-.946a15.034 15.034 0 0 1 1.308-1.776 7.55 7.55 0 0 1 .53-.552c.168-.158.33-.292.486-.405.158-.113.31-.205.46-.279a2.1 2.1 0 0 1 .447-.166c.15-.035.302-.049.458-.036Zm.41.278a1.483 1.483 0 0 0-.424-.102 1.33 1.33 0 0 0-.403.032 1.904 1.904 0 0 0-.41.153c-.14.07-.285.157-.435.264-.15.108-.306.237-.469.39a7.45 7.45 0 0 0-.517.54 14.915 14.915 0 0 0-1.29 1.754c-.19.303-.368.618-.514.926-.16.34-.284.674-.379 1.01a8.402 8.402 0 0 0-.288 2.167c0 .343.026.682.084 1.008.058.33.149.643.261.928.12.307.265.58.42.806.148.217.306.39.468.534a3.668 3.668 0 0 0 .996.608c.165.067.33.116.493.146.163.03.327.042.497.035a3.652 3.652 0 0 0 1.16-.259c.219-.088.45-.208.694-.373.248-.17.51-.386.756-.627a6.09 6.09 0 0 0 .659-.753c.19-.261.343-.524.466-.792s.218-.543.296-.828c.073-.272.131-.553.175-.834a9.771 9.771 0 0 0 .109-1.77 8.526 8.526 0 0 0-.216-1.656 6.869 6.869 0 0 0-.55-1.52 6.084 6.084 0 0 0-.387-.668 4.061 4.061 0 0 0-.404-.514 2.778 2.778 0 0 0-.42-.37c-.14-.1-.284-.178-.428-.235Z" fill="#FEFEFE"/><path d="M6.955 11.42c.107-.05.215-.1.333-.15a5.052 5.052 0 0 1 .796-.262c.153-.037.317-.071.493-.103a15.007 15.007 0 0 1 1.676-.191 8.899 8.899 0 0 1 .944-.004c.14.009.27.022.392.041.243.038.462.097.681.157l-.046.17a5.832 5.832 0 0 0-.662-.152 4.205 4.205 0 0 0-.374-.04 6.741 6.741 0 0 0-.43-.011 12.702 12.702 0 0 0-1.61.12c-.187.025-.369.053-.54.084a8.086 8.086 0 0 0-.482.1 5.134 5.134 0 0 0-.77.255c-.11.046-.219.096-.328.147l-.073-.16v-.001Zm4.688.26h-.003c-.366.079-.732.156-1.16.214a9.967 9.967 0 0 1-1.386.088 10.569 10.569 0 0 1-1.266-.104 7.19 7.19 0 0 1-.707-.134l-.003-.001.041-.172h.001c.187.044.374.087.693.133a10.58 10.58 0 0 0 1.243.102 9.268 9.268 0 0 0 1.361-.087c.417-.056.781-.133 1.146-.211h.003l.037.172Zm6.451-.608c.131.238.281.452.448.64.171.194.36.362.562.504.2.14.413.254.629.349.214.094.43.168.633.226.202.057.39.099.594.122.204.023.424.029.686.013.287-.017.626-.058.981-.135a5.51 5.51 0 0 0 .898-.269 5.085 5.085 0 0 0 1.74-1.171 5.29 5.29 0 0 0 .63-.787c.199-.298.365-.607.495-.908a5 5 0 0 0 .288-.869c.07-.295.114-.602.141-.937a9.45 9.45 0 0 0-.088-2.228 7.227 7.227 0 0 0-.754-2.251 8.445 8.445 0 0 0-.665-1.054 6.763 6.763 0 0 0-.76-.873 3.591 3.591 0 0 0-.69-.521 2.675 2.675 0 0 0-.597-.252 1.787 1.787 0 0 0-.952-.033 2.084 2.084 0 0 0-.478.174c-.174.087-.366.21-.59.384a8.64 8.64 0 0 0-.79.707 10.72 10.72 0 0 0-1.476 1.854c-.225.356-.428.72-.6 1.079-.171.353-.313.7-.43 1.054a7.837 7.837 0 0 0-.274 1.094 9.155 9.155 0 0 0-.13 1.185 7.87 7.87 0 0 0 .027 1.127c.036.354.1.678.189.974.088.294.2.56.333.802Zm.316.757a3.71 3.71 0 0 1-.47-.672 4.285 4.285 0 0 1-.349-.837 5.409 5.409 0 0 1-.195-1.007 8.038 8.038 0 0 1-.027-1.152c.018-.406.063-.817.132-1.208a8.076 8.076 0 0 1 .718-2.194c.176-.364.382-.734.611-1.096a10.88 10.88 0 0 1 1.5-1.884c.287-.287.565-.534.806-.722.233-.18.435-.31.619-.402.186-.093.354-.15.518-.188a1.955 1.955 0 0 1 1.04.034c.193.056.406.138.635.269.228.129.47.305.726.547.256.242.525.552.779.896.248.335.483.704.68 1.075a7.383 7.383 0 0 1 .772 2.305 9.626 9.626 0 0 1 .09 2.27 6.52 6.52 0 0 1-.145.964 5.223 5.223 0 0 1-.299.898 6.024 6.024 0 0 1-1.159 1.749 5.27 5.27 0 0 1-1.802 1.211 5.814 5.814 0 0 1-.926.278 6.76 6.76 0 0 1-1.009.138 4.14 4.14 0 0 1-.715-.013 3.777 3.777 0 0 1-.623-.128 5.15 5.15 0 0 1-.656-.234 3.803 3.803 0 0 1-.658-.367 3.398 3.398 0 0 1-.593-.53Z" fill="#FEFEFE"/><path d="M18.29 11.521c.188-.109.377-.218.578-.323.204-.106.424-.21.675-.308.257-.1.547-.196.862-.28.297-.08.62-.151.96-.209.333-.056.685-.1 1.041-.133.386-.036.776-.058 1.152-.07a23.19 23.19 0 0 1 1.821.021c.424.021.59.042.753.062h.002l-.02.175h-.003a8.64 8.64 0 0 0-.74-.06 24.645 24.645 0 0 0-1.808-.021c-.373.01-.76.033-1.14.068-.35.032-.698.075-1.03.132-.333.057-.649.126-.942.205a8.055 8.055 0 0 0-.843.274 6.818 6.818 0 0 0-.659.3c-.203.106-.387.213-.572.32l-.088-.153Zm.196.154.005.001c.833.178 1.665.357 2.42.435.378.039.738.053 1.08.05.343-.002.67-.021.979-.05.307-.029.6-.066.889-.11.29-.042.566-.09.843-.136l.028.174c-.28.047-.562.095-.846.137-.286.043-.582.081-.899.11a10.286 10.286 0 0 1-2.093 0c-.767-.08-1.602-.259-2.437-.438h-.005l.036-.173ZM3.958 13.01l23.165 1.847 2.136-1.625.107.14-2.19 1.666-23.232-1.852.014-.176Z" fill="#FEFEFE"/><path d="m27.238 14.946.016.58-.176.003-.016-.58.176-.003ZM4.09 16.19l.088 2.866 22.764 3.252.194-3.692L4.089 16.19Zm-.086 2.945-.097-3.141c7.804.82 15.61 1.639 23.414 2.465-.073 1.35-.143 2.7-.213 4.05l-23.102-3.3-.002-.074Z" fill="#FEFEFE"/><path d="m27.163 18.478 2.203-2.457c-.062 1.276-.125 2.553-.185 3.83-1.22 1.914-2.432 3.834-3.648 5.75l-.023-.992 1.44-2.248.15.095-1.413 2.204.008.355 3.312-5.22.16-3.288-1.873 2.088-.131-.117Z" fill="#FEFEFE"/><path d="M25.604 25.396c-7.84-.872-17.052-2.92-24.985-4.276l-.02-.87 25.014 4.298-.03.173-24.802-4.26.011.51 24.693 4.235.138.015-.02.175Z" fill="#FEFEFE"/><path d="m.661 20.273 3.402-1.223.06.166L.72 20.438l-.06-.165Zm4.141-6.686.149.383-.174.264.17.254-.208.385.215.246-.187.448.147.364 22.043 2.294 1.64-1.866-.106-.415.162-.378-.13-.322.127-.535-.085-.468.173-.031.093.506-.123.515.136.336-.167.39.114.448c-.588.667-1.175 1.336-1.762 2.005-7.412-.779-14.825-1.551-22.239-2.314l-.213-.53.173-.414-.224-.255.216-.4-.175-.262.187-.286-.116-.299.164-.063Z" fill="#FEFEFE"/><path d="m28.646 16.013-1.619 1.607-.214.146-22.15-2.112.017-.175 22.086 2.106.149-.102 1.607-1.594.124.125Z" fill="#FEFEFE"/><path d="m4.86 15.048 21.775 2.037.29-.008 1.765-1.576.118.132-1.813 1.619c-5.803.165-15.928-1.446-22.15-2.028l.016-.176Z" fill="#FEFEFE"/><path d="m4.64 14.797 22.029 1.912.244-.007 1.642-1.529.12.13-1.69 1.573c-5.983.164-15.984-1.35-22.36-1.903l.015-.176Z" fill="#FEFEFE"/><path d="m4.852 14.405 21.547 1.928.503-.015 1.778-1.67.121.128-1.827 1.716c-6.182.17-15.64-1.33-22.137-1.912l.015-.175Z" fill="#FEFEFE"/><path d="m4.86 13.873 21.556 1.943.47-.014 1.705-1.64.122.127-1.754 1.687c-6.137.165-15.652-1.346-22.114-1.928l.015-.175Z" fill="#FEFEFE"/><path d="m4.679 14.147 21.893 1.966.324-.009 1.307-1.206.12.13-1.356 1.25c-5.99.165-15.93-1.384-22.303-1.957l.015-.175ZM25.148 25.93a.832.832 0 0 1-.533-.186.609.609 0 0 1-.222-.558.577.577 0 0 1 .022-.088l.024-.072 1.115.19.086-.05.16-.267.067.163a.561.561 0 0 1 .043.216.609.609 0 0 1-.229.466.833.833 0 0 1-.533.186Zm-.42-.321a.654.654 0 0 0 .42.144.654.654 0 0 0 .42-.144.443.443 0 0 0 .164-.293l-.144.085-1.023-.175a.434.434 0 0 0 .163.383Zm-12.716-2.046a.833.833 0 0 1-.534-.186.609.609 0 0 1-.229-.466c.007-.032.006-.112.008-.142l1.516.26-.043.101a.675.675 0 0 1-.284.317.853.853 0 0 1-.434.116Zm-.42-.321a.654.654 0 0 0 .42.144.677.677 0 0 0 .344-.091.538.538 0 0 0 .152-.133l-1.076-.184a.448.448 0 0 0 .16.264Zm-9.91-1.466a.832.832 0 0 1-.533-.186.609.609 0 0 1-.23-.467c.006-.025.003-.094.004-.123l1.517.26-.049.104a.684.684 0 0 1-.284.302.854.854 0 0 1-.425.11Zm-.42-.321a.65.65 0 0 0 .42.144.675.675 0 0 0 .337-.086.555.555 0 0 0 .147-.121l-1.06-.182a.452.452 0 0 0 .157.244ZM6.528 11.07c.138.217.315.455.5.682.2.246.411.48.593.658.17.169.315.287.47.375.155.086.326.143.55.187.227.044.507.075.828.094.338.02.72.027 1.138.022a26.526 26.526 0 0 0 2.49-.151 7.19 7.19 0 0 0 .891-.15 2.56 2.56 0 0 0 .616-.23 1.84 1.84 0 0 0 .456-.348c.137-.143.264-.314.395-.52.142-.225.288-.49.415-.784.107-.249.201-.518.269-.8.074-.311.118-.64.14-.977.021-.337.02-.68.007-1.014a8.4 8.4 0 0 0-.097-1.001 7.1 7.1 0 0 0-.26-1.066 10.653 10.653 0 0 0-.466-1.174 10.7 10.7 0 0 0-.593-1.11 6.68 6.68 0 0 0-1.203-1.448 8.226 8.226 0 0 0-.609-.523 4.214 4.214 0 0 0-.61-.396 3.246 3.246 0 0 0-.606-.239 3.9 3.9 0 0 0-1.058-.146 1.97 1.97 0 0 0-.4.043c-.12.026-.23.064-.334.11a4.184 4.184 0 0 0-1.008.696 9.276 9.276 0 0 0-.42.421 13.44 13.44 0 0 0-.907 1.085 9.309 9.309 0 0 0-.429.632c-.148.238-.296.5-.433.77-.127.25-.245.508-.346.764-.104.265-.19.529-.261.791a9.594 9.594 0 0 0-.315 2.266c-.003.23.005.452.023.667.019.214.048.418.087.613.04.194.09.383.166.578.077.195.178.398.321.623Zm.363.793a7.636 7.636 0 0 1-.512-.699 3.773 3.773 0 0 1-.336-.653 3.588 3.588 0 0 1-.175-.607 5.625 5.625 0 0 1-.09-.633 7.205 7.205 0 0 1-.024-.683A9.953 9.953 0 0 1 5.9 7.07a8.58 8.58 0 0 1 .176-.794c.072-.266.16-.536.268-.809.102-.26.223-.525.352-.78.14-.276.291-.542.441-.784a9.5 9.5 0 0 1 .437-.643 13.792 13.792 0 0 1 .92-1.1c.15-.16.296-.306.43-.43a4.61 4.61 0 0 1 .724-.548 3.01 3.01 0 0 1 .331-.179c.115-.052.235-.094.368-.122a2.22 2.22 0 0 1 .436-.047 4.083 4.083 0 0 1 1.107.153c.209.059.425.14.64.252.214.111.426.252.636.413.208.159.415.34.622.534a6.868 6.868 0 0 1 1.232 1.483c.207.333.416.725.604 1.13.184.398.35.81.474 1.194.125.386.209.744.265 1.091.056.346.085.68.1 1.022.013.342.014.69-.008 1.033a6 6 0 0 1-.144 1.005 5.02 5.02 0 0 1-.279.83 5.845 5.845 0 0 1-.427.81c-.136.214-.27.394-.418.547-.149.153-.31.279-.498.381-.187.102-.4.181-.658.245a7.429 7.429 0 0 1-.913.155c-.356.042-.774.077-1.207.103-.434.026-.884.043-1.302.049-.423.005-.81-.002-1.15-.022a6.577 6.577 0 0 1-.851-.097 1.957 1.957 0 0 1-.602-.207 2.366 2.366 0 0 1-.509-.402 8.723 8.723 0 0 1-.606-.673h.001ZM17.535 5.86c-.06.205-.12.443-.174.702a12.187 12.187 0 0 0-.262 2.47c.002.27.015.528.05.788.036.258.093.519.181.796a7.033 7.033 0 0 0 .81 1.673c.119.178.24.338.365.482a3.201 3.201 0 0 0 .544.495 2.93 2.93 0 0 0 .793.377c.222.07.455.118.692.157.237.038.478.067.76.085.285.019.609.027 1.008.026a40.041 40.041 0 0 0 2.694-.104c.39-.03.697-.065.946-.107a3.12 3.12 0 0 0 .599-.154 1.466 1.466 0 0 0 .509-.326c.049-.047.1-.1.152-.16a5.19 5.19 0 0 0 .169-.203c.177-.222.39-.514.59-.827.167-.259.327-.532.452-.791.139-.286.237-.557.307-.841a5.45 5.45 0 0 0 .136-.93 9.695 9.695 0 0 0-.14-2.452 9.54 9.54 0 0 0-.934-2.676 10.54 10.54 0 0 0-.702-1.14 12.7 12.7 0 0 0-.887-1.12 9.035 9.035 0 0 0-.804-.81 4.609 4.609 0 0 0-.762-.551 3.346 3.346 0 0 0-.725-.303 3.647 3.647 0 0 0-.65-.123 2.99 2.99 0 0 0-.535-.007 2.424 2.424 0 0 0-.46.083c-.15.041-.298.097-.451.17a3.71 3.71 0 0 0-.487.285 6.92 6.92 0 0 0-.551.422 10.444 10.444 0 0 0-1.169 1.159c-.192.222-.383.464-.573.728a17.403 17.403 0 0 0-1.01 1.605 6.457 6.457 0 0 0-.291.582 4.645 4.645 0 0 0-.191.54Zm-.347.666a9.33 9.33 0 0 1 .178-.715c.06-.205.12-.38.197-.56.078-.182.172-.368.299-.597a17.604 17.604 0 0 1 1.022-1.624 10.786 10.786 0 0 1 1.771-1.918c.197-.166.388-.313.565-.433.18-.123.348-.22.51-.298.164-.079.322-.138.48-.182.16-.045.322-.075.495-.09a3.793 3.793 0 0 1 1.247.136c.243.07.5.173.763.32.26.147.523.339.791.573.267.233.54.509.82.825.3.337.608.72.9 1.135.256.364.5.754.714 1.16a9.734 9.734 0 0 1 1.094 5.223 5.668 5.668 0 0 1-.14.96 4.356 4.356 0 0 1-.32.875c-.13.267-.292.546-.462.81-.205.318-.42.615-.601.842a5.61 5.61 0 0 1-.175.21c-.057.063-.11.12-.163.17a1.648 1.648 0 0 1-.568.363 3.18 3.18 0 0 1-.631.163c-.257.044-.57.079-.963.109a40.897 40.897 0 0 1-2.708.105c-.406.001-.733-.008-1.018-.026a7.985 7.985 0 0 1-.778-.088 5.367 5.367 0 0 1-.716-.162 3.106 3.106 0 0 1-.67-.29 2.729 2.729 0 0 1-.337-.236 3.4 3.4 0 0 1-.41-.399 4.8 4.8 0 0 1-.38-.5 7.246 7.246 0 0 1-.83-1.718 4.82 4.82 0 0 1-.188-.825 6.151 6.151 0 0 1-.052-.81c-.001-.274.01-.558.03-.842a12.71 12.71 0 0 1 .235-1.665h-.001Z" fill="#FEFEFE"/><path d="m4.037 13.173-.01.299 23.11 1.964 2.088-1.83v-.222l-1.97-.12-.082.083a1.655 1.655 0 0 1-.568.363c-.171.067-.373.12-.632.164a10.99 10.99 0 0 1-.963.108 41.152 41.152 0 0 1-2.708.105c-.406.001-.733-.007-1.017-.026a7.985 7.985 0 0 1-.779-.087 5.371 5.371 0 0 1-.716-.162 3.103 3.103 0 0 1-.67-.291 2.7 2.7 0 0 1-.337-.235 3.221 3.221 0 0 1-.299-.278 4.044 4.044 0 0 1-.257-.298l-3.236-.198a1.902 1.902 0 0 1-.301.2c-.188.102-.401.18-.659.245a7.429 7.429 0 0 1-.912.154c-.356.042-.774.078-1.208.104-.433.026-.884.043-1.302.048a16.59 16.59 0 0 1-1.15-.021 6.577 6.577 0 0 1-.85-.098 1.98 1.98 0 0 1-.593-.2 2.194 2.194 0 0 1-.465-.357l-3.514.586Zm-.19.377.019-.527c1.248-.209 2.496-.418 3.744-.624l.032.03c.165.162.306.276.46.36.152.084.32.14.54.183.227.044.507.075.829.094.337.02.72.027 1.137.022.41-.005.858-.022 1.293-.049a21.97 21.97 0 0 0 1.197-.102c.353-.042.645-.09.891-.15a2.56 2.56 0 0 0 .616-.23 1.91 1.91 0 0 0 .3-.202l.027-.023 3.385.207.025.032c.087.114.177.22.27.316a3.085 3.085 0 0 0 .437.38 2.926 2.926 0 0 0 .793.377c.222.069.455.118.692.156.237.039.478.067.76.086.285.018.609.027 1.008.025a40.03 40.03 0 0 0 2.694-.104c.39-.03.697-.065.946-.107a3.11 3.11 0 0 0 .6-.154 1.464 1.464 0 0 0 .507-.325l.052-.052.081-.086 2.22.136v.468c-.737.643-1.472 1.287-2.207 1.932-7.782-.671-15.567-1.327-23.35-1.985l.002-.084Zm5.78-2.697a22.511 22.511 0 0 1-.097-.803 8.258 8.258 0 0 1-.046-.808 5.872 5.872 0 0 1 .246-1.697c.09-.316.209-.654.343-.975.127-.305.269-.595.414-.835.15-.25.305-.448.47-.607.165-.16.342-.283.535-.38a2.55 2.55 0 0 1 .609-.214 1.96 1.96 0 0 1 .595-.04c.186.017.347.07.495.14.146.068.279.151.412.234l-.094.15c-.128-.08-.255-.161-.392-.224a1.34 1.34 0 0 0-.439-.125 1.788 1.788 0 0 0-.54.037 2.335 2.335 0 0 0-.567.2c-.178.089-.34.2-.492.348a2.78 2.78 0 0 0-.442.572 6.4 6.4 0 0 0-.402.812 8.75 8.75 0 0 0-.336.956 6.327 6.327 0 0 0-.185.854 5.606 5.606 0 0 0-.054.794c0 .262.018.526.044.79.026.267.062.533.097.799l-.175.022Zm12.753-.484v-.001a10.943 10.943 0 0 1-.223-1.474 10.34 10.34 0 0 1-.025-1.091 7.62 7.62 0 0 1 .09-.99 5.71 5.71 0 0 1 .248-.99c.11-.313.243-.594.392-.827.149-.235.314-.424.493-.575.18-.151.373-.265.578-.35a2.477 2.477 0 0 1 1.31-.151c.444.067.882.251 1.32.435h.001l-.067.164-.002-.001c-.427-.18-.854-.36-1.278-.424a2.358 2.358 0 0 0-.625-.012 2.23 2.23 0 0 0-.592.152 1.993 1.993 0 0 0-.531.322c-.166.14-.32.315-.459.534-.142.224-.27.492-.374.79a5.558 5.558 0 0 0-.241.961 7.62 7.62 0 0 0-.088.967c-.012.38 0 .75.025 1.073.045.593.133 1.022.22 1.45v.001l-.173.037h.001Zm-10.366 7.452a.523.523 0 0 0-.237.11.624.624 0 0 0-.172.226.775.775 0 0 0-.063.259 1.183 1.183 0 0 0 .105.573.666.666 0 0 0 .121.183.328.328 0 0 0 .143.09.33.33 0 0 0 .17 0 .73.73 0 0 0 .223-.1.944.944 0 0 0 .204-.177.78.78 0 0 0 .132-.219.86.86 0 0 0 .056-.261.86.86 0 0 0-.032-.3.526.526 0 0 0-.121-.214.59.59 0 0 0-.243-.147.603.603 0 0 0-.287-.023Zm-.349-.026a.696.696 0 0 1 .318-.148.779.779 0 0 1 .37.03.77.77 0 0 1 .316.193c.078.081.13.18.163.285a1.092 1.092 0 0 1-.028.677.95.95 0 0 1-.162.27 1.11 1.11 0 0 1-.243.21.915.915 0 0 1-.278.123.5.5 0 0 1-.259-.003.501.501 0 0 1-.22-.136.844.844 0 0 1-.154-.232 1.354 1.354 0 0 1-.121-.66.947.947 0 0 1 .077-.319.805.805 0 0 1 .221-.289Zm6.696.54c.139.038.277.076.404.118.13.042.247.09.342.147a.72.72 0 0 1 .207.184c.059.08.09.163.102.24a.399.399 0 0 1-.02.213.57.57 0 0 1-.135.193 2.458 2.458 0 0 1-.205.175 1.564 1.564 0 0 0-.165.142l-.015.018c.01.024.05.063.11.122l.267.257.343.325-.121.128-.343-.326a35.075 35.075 0 0 1-.27-.258.669.669 0 0 1-.147-.176c-.035-.077-.02-.135.044-.207.042-.049.113-.104.187-.164.067-.053.138-.108.19-.161a.401.401 0 0 0 .095-.133.225.225 0 0 0 .011-.122.366.366 0 0 0-.07-.16.542.542 0 0 0-.157-.14 1.556 1.556 0 0 0-.306-.13 7.282 7.282 0 0 0-.394-.115l.046-.17Zm-4.591-.563c.2.033.4.065.55.143a.621.621 0 0 1 .335.556.49.49 0 0 1-.047.198.604.604 0 0 1-.12.167.7.7 0 0 1-.308.182l-.067.023c-.006.01.01-.007.017.005.019.035.056.086.107.153.104.139.264.34.423.543l.006.008-.139.109-.005-.008a45.492 45.492 0 0 1-.426-.545 1.43 1.43 0 0 1-.121-.178c-.039-.072-.044-.13-.01-.182.033-.05.088-.07.158-.094a.526.526 0 0 0 .326-.257.32.32 0 0 0 .03-.129.458.458 0 0 0-.24-.395c-.125-.065-.311-.095-.497-.125l.027-.174Zm2.782.324.472 1.602.406-1.562.17.044-.566 2.178-.65-2.212.168-.05Z" fill="#FEFEFE"/><path d="m18.156 20.21.094-1.795.176.01-.094 1.795-.176-.01Zm-4.656-.526.168-1.833.175.016-.168 1.833-.176-.016Zm-3.46-.404c0-.603.048-1.231.075-1.836l.175.008-.074 1.716v.112h-.177Z" fill="#FEFEFE"/><path d="m9.61 17.229 1.198.093-.014.176-1.196-.093.013-.176Z" fill="#FEFEFE"/></svg>