<svg width="30" height="26" viewBox="0 0 30 26" fill="none" xmlns="http://www.w3.org/2000/svg"><path d="M26.863 1.84c.062-.002.102.007.126.05.022.04.027.108.019.225a6.23 6.23 0 0 1-.05.422 5.91 5.91 0 0 1-.076.418c-.031.133-.065.213-.123.273-.058.06-.117.075-.204.08a2.503 2.503 0 0 1-.524-.03c-.074-.017-.12-.04-.143-.086-.024-.048-.021-.115.003-.218.02-.09.057-.208.098-.326.046-.131.1-.265.143-.363a.875.875 0 0 1 .138-.234.432.432 0 0 1 .18-.121 1.448 1.448 0 0 1 .414-.09Zm.008.178c-.013-.025-.04-.03-.082-.028-.05.002-.12.013-.191.028a1.27 1.27 0 0 0-.19.055.224.224 0 0 0-.09.053.591.591 0 0 0-.08.145 4.578 4.578 0 0 0-.226.644c-.017.076-.02.123-.005.152.015.031.052.048.113.062a2.454 2.454 0 0 0 .508.03c.053-.003.084-.007.093-.016a.418.418 0 0 0 .04-.13 5.82 5.82 0 0 0 .073-.403 5.51 5.51 0 0 0 .049-.412c.007-.097.004-.152-.011-.18Zm1.017-.022c-.029.003-.048.007-.055.016a.44.44 0 0 0-.056.14 5.95 5.95 0 0 0-.137.756.576.576 0 0 0 0 .209c.012.042.042.066.095.085a1.371 1.371 0 0 0 .491.04c.061-.007.103-.017.123-.036.013-.013.024-.05.035-.117a2.8 2.8 0 0 0-.013-.723.548.548 0 0 0-.065-.206.258.258 0 0 0-.109-.092.733.733 0 0 0-.16-.057.522.522 0 0 0-.15-.014Zm-.108-.054a.244.244 0 0 1 .179-.095.58.58 0 0 1 .167.015c.06.014.121.035.171.06a.29.29 0 0 1 .124.108.606.606 0 0 1 .074.228 2.884 2.884 0 0 1 .013.76.465.465 0 0 1-.13.28.356.356 0 0 1-.22.093c-.081.01-.183.01-.279.002a.997.997 0 0 1-.239-.044c-.067-.024-.105-.057-.123-.116a.652.652 0 0 1-.002-.247c.013-.116.036-.273.064-.425.024-.133.052-.263.08-.36a.667.667 0 0 1 .122-.26l-.001.001Z" fill="#FEFEFE"/><path d="M26.935 2.103a.345.345 0 0 0-.119.087.644.644 0 0 0-.06.104c-.026.05-.051.108-.078.173a7.023 7.023 0 0 0-.147.402.612.612 0 0 0-.024.1.112.112 0 0 0 0 .043.064.064 0 0 0 .018.03c.01.01.026.019.05.025.05.013.137.017.223.02l-.079.15a1.246 1.246 0 0 1-.236-.022.148.148 0 0 1-.067-.034.11.11 0 0 1-.031-.055.199.199 0 0 1-.004-.082.816.816 0 0 1 .032-.132 7.458 7.458 0 0 1 .155-.423c.03-.072.058-.138.086-.193a.968.968 0 0 1 .097-.16.562.562 0 0 1 .209-.168l-.026.135Zm1.415.055-.017.009a.392.392 0 0 0-.044.106 3.484 3.484 0 0 0-.068.266 6.782 6.782 0 0 0-.068.35 1.37 1.37 0 0 0-.021.17c0 .03.002.045.007.056a.05.05 0 0 0 .02.027.13.13 0 0 0 .045.018.839.839 0 0 0 .083.017l.104.014-.084.15-.105-.015a1.014 1.014 0 0 1-.089-.017.17.17 0 0 1-.06-.026.1.1 0 0 1-.034-.046.215.215 0 0 1-.012-.09c.001-.042.008-.1.023-.189a6.15 6.15 0 0 1 .142-.642.655.655 0 0 1 .095-.2c.041-.056.074-.074.106-.092l-.023.134Z" fill="#FEFEFE"/><path d="M19.108 11.211c.05-.031.114-.076.18-.122.13-.09.273-.19.416-.263.11-.056.215-.095.34-.118.123-.022.263-.03.442-.023.211.008.477.034.723.059.157.016.307.03.43.04.15.01.25.009.323.002a.504.504 0 0 0 .152-.036.27.27 0 0 0 .116-.094c.06-.072.141-.198.272-.427.124-.215.285-.51.445-.811.194-.364.393-.746.529-1.013.121-.24.19-.384.24-.504.048-.12.077-.214.119-.356.042-.145.098-.34.15-.541.052-.2.1-.403.127-.568.026-.162.032-.286.021-.4a1.57 1.57 0 0 0-.08-.345 9.758 9.758 0 0 0-.161-.445c-.056-.145-.111-.29-.157-.427a2.85 2.85 0 0 1-.103-.38 1.399 1.399 0 0 1-.024-.335 1.17 1.17 0 0 1 .062-.319 1.068 1.068 0 0 1 .377-.517c.09-.07.195-.137.32-.208.09-.05.177-.095.268-.142.18-.093.367-.19.511-.29a1.365 1.365 0 0 0 .463-.52c.049-.087.098-.189.15-.294.082-.17.17-.35.276-.517.087-.136.184-.259.288-.366.105-.107.219-.2.337-.273a1.53 1.53 0 0 1 .378-.168 2.27 2.27 0 0 1 .437-.077 4.09 4.09 0 0 1 1.001.045 2.3 2.3 0 0 1 .39.105c.127.048.235.104.323.163a.762.762 0 0 1 .34.427c.029.085.045.182.055.286.01.1.015.207.018.32l.002.095c.005.191.01.391.033.562.012.097.032.187.055.272.022.084.048.164.075.239l.043.12c.04.111.078.214.1.306a.984.984 0 0 1 .026.19 4.217 4.217 0 0 1-.023.499c-.013.12-.034.268-.07.457a11.41 11.41 0 0 1-.168.742c-.063.242-.139.507-.228.788-.162.51-.37 1.065-.585 1.643l-.128.342c-.128.347-.258.7-.386 1.067a36.213 36.213 0 0 0-.714 2.26c-.109.38-.189.674-.242.868-.116.42-.116.42-.175.585-.03.085-.076.211-.125.338-.05.13-.107.265-.16.364a.491.491 0 0 1-.249.252c-.12.059-.308.11-.64.187a63.197 63.197 0 0 1-2.567.52c-.353.064-.576.097-.767.101a2.076 2.076 0 0 1-.572-.075 13.362 13.362 0 0 1-.797-.228 25.023 25.023 0 0 1-1.883-.68 13.51 13.51 0 0 1-.727-.315 1.828 1.828 0 0 1-.34-.195c-.078-.063-.1-.113-.106-.163a.34.34 0 0 1 .01-.13c.006-.035.014-.078.018-.138.003-.055.002-.123.001-.195 0-.107-.002-.224.008-.326a1.02 1.02 0 0 1 .05-.236.869.869 0 0 1 .348-.446c.045-.028.093-.053.146-.08a2.78 2.78 0 0 0 .242-.136l.001-.002Zm.281.023a3.003 3.003 0 0 1-.442.27 1.91 1.91 0 0 0-.133.073.642.642 0 0 0-.206.209.71.71 0 0 0-.11.34c-.01.094-.008.206-.008.31.001.076.002.148-.001.205a1.106 1.106 0 0 1-.021.162c-.006.031-.011.055-.009.071.002.011.01.025.042.051.05.041.143.095.306.174.172.082.423.191.718.31a26.326 26.326 0 0 0 1.87.675c.303.095.576.174.784.225.207.05.352.075.528.071.18-.004.395-.036.74-.098a64.392 64.392 0 0 0 2.558-.519c.317-.073.495-.121.602-.174a.34.34 0 0 0 .17-.174c.049-.093.103-.221.151-.346.05-.13.095-.252.124-.334.06-.167.06-.168.17-.572.06-.217.149-.543.243-.87a35.649 35.649 0 0 1 .717-2.27 64.4 64.4 0 0 1 .388-1.071l.128-.342c.215-.576.421-1.13.582-1.634.088-.277.163-.54.225-.78.073-.28.128-.528.166-.73.034-.183.055-.327.067-.443a3.938 3.938 0 0 0 .023-.47.818.818 0 0 0-.023-.159 2.76 2.76 0 0 0-.093-.287l-.044-.12a3.697 3.697 0 0 1-.08-.253 2.351 2.351 0 0 1-.058-.294 5.73 5.73 0 0 1-.034-.581l-.003-.095a4.336 4.336 0 0 0-.016-.307 1.168 1.168 0 0 0-.048-.249.573.573 0 0 0-.097-.183.742.742 0 0 0-.173-.152 1.4 1.4 0 0 0-.288-.144 2.151 2.151 0 0 0-.36-.097A3.876 3.876 0 0 0 27.49.59a2.1 2.1 0 0 0-.401.07c-.12.035-.23.084-.335.149a1.64 1.64 0 0 0-.304.246 2.094 2.094 0 0 0-.265.337c-.099.154-.185.332-.267.5-.052.106-.102.208-.154.302a1.536 1.536 0 0 1-.518.581 5.377 5.377 0 0 1-.53.3c-.094.05-.187.098-.262.14a2.323 2.323 0 0 0-.297.193.894.894 0 0 0-.32.436 1.01 1.01 0 0 0-.053.27c-.005.094.003.19.022.294.02.107.052.224.097.356.042.126.098.274.154.42.06.16.12.318.165.454.044.136.075.254.087.384.012.129.006.266-.023.442a6.632 6.632 0 0 1-.13.585c-.052.201-.109.398-.152.546-.044.15-.074.25-.124.374-.05.123-.122.27-.246.517-.134.263-.333.645-.53 1.016-.167.311-.329.609-.448.816-.136.237-.223.37-.29.452a.424.424 0 0 1-.185.144.667.667 0 0 1-.202.049 2.188 2.188 0 0 1-.351-.002c-.119-.008-.273-.024-.436-.04-.243-.024-.507-.05-.712-.058-.166-.006-.294 0-.404.02-.107.02-.199.053-.292.102a3.65 3.65 0 0 0-.395.25l.001-.001Z" fill="#FEFEFE"/><path d="M18.932 11.354c.16-.039.321-.077.9-.125.244-.02.576-.043.918-.065.439-.027.886-.052 1.185-.067a4.02 4.02 0 0 1 .553-.006 1.8 1.8 0 0 1 .423.107 53.63 53.63 0 0 1 1.331.489c.165.063.249.097.284.116.2.11.107.143-.089.176l-.04.006a1.553 1.553 0 0 0-.3.069 2.556 2.556 0 0 0-.538.265 1.6 1.6 0 0 0-.225.178 2.11 2.11 0 0 0-.225.256c-.126.165-.274.39-.397.576l-.114.173c-.07.106-.125.181-.17.237a.954.954 0 0 1-.127.137.517.517 0 0 1-.115.077.494.494 0 0 1-.112.035.433.433 0 0 1-.167 0 3.103 3.103 0 0 1-.409-.104c-.198-.06-.469-.15-.758-.25a43.348 43.348 0 0 1-.915-.328 23.1 23.1 0 0 1-.66-.255 9.555 9.555 0 0 1-.479-.21 1.978 1.978 0 0 1-.228-.123.953.953 0 0 1-.11-.085l.108-.139a.88.88 0 0 0 .106.082c.048.03.116.07.224.12.114.056.273.125.476.208a37.416 37.416 0 0 0 2.329.832c.202.06.323.09.401.102a.36.36 0 0 0 .292-.068.64.64 0 0 0 .082-.09c.038-.048.087-.116.153-.214l.113-.17c.125-.191.277-.42.41-.596.093-.122.177-.217.262-.298.086-.081.17-.147.265-.209a2.833 2.833 0 0 1 .576-.284c.04-.014.077-.025.112-.034l-.11-.043a51.292 51.292 0 0 0-1.33-.488 1.748 1.748 0 0 0-.412-.104 3.936 3.936 0 0 0-.543.006c-.303.016-.75.04-1.184.067-.331.02-.66.044-.917.065-.573.047-.73.085-.887.123l.057-.148v.001Z" fill="#FEFEFE"/><path d="M24.499 11.83c.047-.008.094-.018.153-.025.057-.006.125-.01.212-.009a7.066 7.066 0 0 1 .643.057l.252.034c.116.017.22.031.306.04.07.006.129.008.179.005a.46.46 0 0 0 .128-.026.19.19 0 0 0 .09-.067c.049-.06.111-.165.203-.354.1-.204.23-.5.379-.865.142-.346.3-.749.462-1.187.173-.465.354-.976.52-1.467.158-.464.301-.909.41-1.276.11-.374.183-.666.236-.92a11.426 11.426 0 0 0 .183-1.384 8.096 8.096 0 0 0-.02-1.419 4.824 4.824 0 0 0-.093-.585 1.167 1.167 0 0 0-.119-.328.589.589 0 0 0-.148-.168 1.087 1.087 0 0 0-.19-.12 1.276 1.276 0 0 0-.22-.087 1.829 1.829 0 0 0-.257-.053 3.088 3.088 0 0 0-.535-.027 2.999 2.999 0 0 0-.505.057 1.618 1.618 0 0 0-.209.059.869.869 0 0 0-.174.082.625.625 0 0 0-.132.112c-.084.094-.164.239-.28.447l-.026.046c-.126.227-.291.524-.47.921-.092.206-.189.44-.286.705-.097.266-.195.565-.29.901-.109.388-.215.828-.316 1.25-.075.307-.146.605-.218.876a11.778 11.778 0 0 1-.541 1.594 35.628 35.628 0 0 1-.723 1.641 10.2 10.2 0 0 1-.49.904l-.088-.02c.068-.113.136-.226.21-.36.075-.136.16-.3.265-.518a35.33 35.33 0 0 0 .716-1.625 11.402 11.402 0 0 0 .531-1.566c.068-.255.14-.558.216-.87.102-.423.208-.864.319-1.258.096-.341.196-.645.295-.917.1-.273.199-.512.294-.724.185-.41.353-.713.481-.945l.026-.046c.127-.228.215-.387.326-.511a.892.892 0 0 1 .192-.165 1.03 1.03 0 0 1 .209-.1c.069-.024.144-.045.223-.062a3.079 3.079 0 0 1 .789-.056c.091.005.185.013.276.025.09.013.18.03.264.055a1.202 1.202 0 0 1 .424.214c.059.048.111.1.159.18.047.08.088.188.125.344.037.158.07.366.093.596a8.182 8.182 0 0 1 .021 1.438c-.016.238-.04.471-.069.697a8.639 8.639 0 0 1-.116.708c-.054.26-.129.557-.24.935-.109.368-.253.816-.412 1.284a55.326 55.326 0 0 1-.523 1.474c-.167.448-.325.853-.465 1.195-.151.37-.284.671-.387.883-.104.214-.18.34-.245.42a.416.416 0 0 1-.195.15.56.56 0 0 1-.155.031 1.231 1.231 0 0 1-.19-.005 6.917 6.917 0 0 1-.309-.04l-.25-.034a9.564 9.564 0 0 0-.36-.04 4.05 4.05 0 0 0-.277-.017 1.547 1.547 0 0 0-.203.009 1.78 1.78 0 0 0-.146.024l.062-.148v.002Zm-2.748 1.96c-.012-.18-.025-.358-.01-.51.008-.078.024-.15.045-.215a.829.829 0 0 1 .094-.198.69.69 0 0 1 .307-.26c.06-.025.127-.045.202-.061a2.03 2.03 0 0 1 .248-.035c.088-.008.188-.013.292-.016.098-.002.208-.004.317-.004l-.076.15c-.105 0-.21.002-.316.004-.1.003-.198.007-.288.015a1.95 1.95 0 0 0-.237.034.993.993 0 0 0-.18.054.48.48 0 0 0-.117.069.348.348 0 0 0-.07.08.543.543 0 0 0-.06.127.837.837 0 0 0-.036.176c-.014.143-.002.317.01.49l-.124.1Zm-2.766-8.677c0-.123-.001-.246.003-.37a2.57 2.57 0 0 1 .032-.349c.02-.109.049-.21.086-.298a.96.96 0 0 1 .15-.256.693.693 0 0 1 .19-.164.832.832 0 0 1 .197-.081c.072-.02.15-.036.232-.043a.965.965 0 0 1 .473.078c.086.037.177.09.277.163a2.86 2.86 0 0 1 .828.993c.076.147.137.29.182.415.042.114.071.213.09.307.019.093.028.182.031.276a2.67 2.67 0 0 1-.043.571c-.016.09-.037.174-.064.25a.912.912 0 0 1-.118.228.908.908 0 0 1-.357.294.784.784 0 0 1-.328.074c-.103 0-.203-.018-.303-.035l.086-.15c.099.018.197.035.293.035a.695.695 0 0 0 .285-.063.748.748 0 0 0 .15-.094.565.565 0 0 0 .103-.106.601.601 0 0 0 .075-.15c.023-.063.04-.136.055-.216a2.694 2.694 0 0 0 .041-.543 1.525 1.525 0 0 0-.03-.261 2.036 2.036 0 0 0-.087-.298 3.604 3.604 0 0 0-.18-.408 2.833 2.833 0 0 0-.815-.978 1.384 1.384 0 0 0-.268-.158.917.917 0 0 0-.447-.074 1.11 1.11 0 0 0-.214.04.698.698 0 0 0-.163.065.414.414 0 0 0-.113.096.67.67 0 0 0-.099.172c-.03.073-.055.158-.071.252-.018.1-.027.212-.03.328-.005.114-.004.24-.004.366l-.125.092Z" fill="#FEFEFE"/><path d="M19.287 5.104v-.002l.062-.044-.063.044a4.86 4.86 0 0 1 .048-.66.918.918 0 0 1 .078-.245.595.595 0 0 1 .145-.19.467.467 0 0 1 .175-.096.54.54 0 0 1 .189-.019c.066.004.14.02.22.051.081.031.17.08.268.15a3.185 3.185 0 0 1 .584.558c.073.09.128.175.167.249a.602.602 0 0 1 .073.212.242.242 0 0 1-.072.202.35.35 0 0 1-.161.091c-.105.032-.26.055-.414.078l.063-.149h.003c.15-.023.3-.045.4-.075a.219.219 0 0 0 .067-.027c.006-.007-.01 0-.01-.018a.554.554 0 0 0-.067-.188 1.54 1.54 0 0 0-.162-.242 3.166 3.166 0 0 0-.576-.551 1.21 1.21 0 0 0-.257-.144.704.704 0 0 0-.207-.048.464.464 0 0 0-.16.015.287.287 0 0 0-.105.055.261.261 0 0 0-.061.082.694.694 0 0 0-.056.182c-.032.166-.039.402-.046.638v.001l-.126.088v.002Zm1.664.402h.001c.068-.005.135-.01.207-.002a.583.583 0 0 1 .206.067.28.28 0 0 1 .128.166.62.62 0 0 1 .023.144 2.328 2.328 0 0 1-.03.437 1.184 1.184 0 0 1-.05.199.555.555 0 0 1-.106.18.48.48 0 0 1-.126.101.65.65 0 0 1-.11.05 1.01 1.01 0 0 1-.189.046l-.082.014.065-.149.08-.013a1.59 1.59 0 0 0 .174-.043.48.48 0 0 0 .084-.037.213.213 0 0 0 .055-.042.234.234 0 0 0 .041-.076c.016-.044.03-.1.04-.162a2.25 2.25 0 0 0 .028-.407.543.543 0 0 0-.02-.126.241.241 0 0 0-.041-.082.237.237 0 0 0-.066-.056.53.53 0 0 0-.188-.061.927.927 0 0 0-.194.002h-.002l.072-.15Z" fill="#FEFEFE"/><path d="M17.503 6.728c-.087-.191-.175-.383-.215-.515-.025-.08-.033-.144.018-.233.046-.08.132-.157.291-.257.127-.08.31-.182.499-.282.227-.12.465-.239.63-.316.156-.073.251-.111.339-.13.087-.018.162-.017.28-.012.126.005.307.016.483.03.133.01.26.022.352.036a.71.71 0 0 1 .212.054.147.147 0 0 1 .073.072l.011.023c.018.037.036.077.09.104.048.023.123.04.191.053l.087.02c.046.01.079.024.106.064a.528.528 0 0 1 .061.2c.018.107.036.263.047.418.01.142.016.285.013.398-.003.14-.022.244-.096.337-.07.09-.175.143-.344.176a4.031 4.031 0 0 1-.52.059 6.603 6.603 0 0 1-.617.01c-.294-.014-.313-.061-.366-.199l-.002-.004a7.662 7.662 0 0 0-.096-.236 2.21 2.21 0 0 0-.112-.228.411.411 0 0 0-.093-.116.2.2 0 0 0-.08-.038l-.046-.01c-.043-.009-.083-.017-.116-.042-.025-.02-.043-.05-.061-.077a.355.355 0 0 0-.038-.053.121.121 0 0 0-.066-.036 1.1 1.1 0 0 0-.185-.018c-.18-.009-.496-.011-.813-.014a.119.119 0 0 0-.022.027c-.011.02-.004.054.012.103.039.127.125.317.212.507l-.12.124v.001Zm.567-1.152c-.16.085-.316.17-.434.242.268.002.52.005.677.013.094.004.154.01.195.02a.162.162 0 0 1 .088.047c.016.017.03.039.043.06.016.025.032.05.051.066a.24.24 0 0 0 .098.034l.049.01c.03.008.061.02.095.046a.444.444 0 0 1 .104.128l-.059.064.058-.064c.036.06.077.146.115.234.04.09.073.175.097.238l.001.003c.046.117.062.158.326.17.151.006.382.004.61-.01.189-.011.375-.03.508-.056.126-.026.194-.052.22-.087.024-.03.031-.094.034-.19a4.873 4.873 0 0 0-.059-.798.47.47 0 0 0-.053-.176c-.019-.028-.044-.038-.08-.047l-.086-.019a.926.926 0 0 1-.203-.057.226.226 0 0 1-.109-.124l-.01-.022a.108.108 0 0 0-.055-.053.695.695 0 0 0-.197-.05 5.632 5.632 0 0 0-.349-.036c-.168-.013-.35-.024-.481-.03a.984.984 0 0 0-.26.011 1.532 1.532 0 0 0-.313.12c-.165.078-.4.195-.622.313h.001Z" fill="#FEFEFE"/><path d="m18.602 6.013 1.811-.777.07.162-1.811.778-.07-.163Zm.364.249 1.917-.763.065.164-1.917.762-.065-.163Zm1.799.68-.711.92-1.28.073-.01-.176 1.2-.068.662-.857.139.108Zm-14.339 9.33 4.91.098-.002.176-4.912-.098.004-.176Zm6.012.12.225.005-.004.176-.224-.005.003-.176Zm1.42.03 1.968-.265 2.88-2.699 3.143 1.207c-1.248 1-2.498 1.998-3.744 3-3.74.373-7.48.758-11.22 1.14l-1.042-1.684.15-.093.983 1.592 11.06-1.124 3.464-2.777-2.754-1.057-2.84 2.662-2.024.272-.023-.175Z" fill="#FEFEFE"/><path d="m15.912 16.166 2.204 1.34-.092.15-2.204-1.34.092-.15ZM2.593 20.725c4.066-.207 8.648-.64 12.659-.64l3.644-.423.057-.923c.845-.568 1.691-1.137 2.538-1.702l4.724-.957.034.173-4.688.95-2.437 1.634-.061.983c-1.09.127-2.831.442-3.852.442l-12.61.64-.008-.176v-.001Z" fill="#FEFEFE"/><path d="M26.19 16.088c.204-.106.408-.213.554-.343a.791.791 0 0 0 .185-.243c.063-.12.129-.291.21-.554.087-.272.19-.64.308-1.09a93.954 93.954 0 0 0 .811-3.487c.126-.59.235-1.133.304-1.523.071-.401.1-.635.106-.786a.953.953 0 0 0-.022-.278l.173-.036c.016.078.032.155.025.321a6.58 6.58 0 0 1-.108.81c-.07.39-.18.935-.306 1.528-.136.64-.29 1.334-.435 1.952-.136.58-.263 1.099-.378 1.542a23.83 23.83 0 0 1-.309 1.1 3.706 3.706 0 0 1-.222.582.95.95 0 0 1-.226.294c-.162.143-.375.255-.588.367l-.082-.156ZM5.885 17.092c.5-.758.999-1.517 1.617-2.28a21.11 21.11 0 0 1 2.033-2.15 11.95 11.95 0 0 1 1.013-.842 11.26 11.26 0 0 1 1.185-.757c.417-.234.897-.477 1.358-.695a22.243 22.243 0 0 1 1.401-.61c.34-.132.55-.19.694-.2a.414.414 0 0 1 .342.12c.072.063.14.145.21.228.078.094.159.19.236.252a.548.548 0 0 0 .206.106.779.779 0 0 0 .22.021c.076-.002.154-.011.226-.027a.819.819 0 0 0 .182-.06.322.322 0 0 0 .178-.197l.017-.057a.742.742 0 0 1 .262-.421 2.71 2.71 0 0 1 .372-.258 6.4 6.4 0 0 1 .789-.399.605.605 0 0 0 .155-.078c.017-.015.028-.037.038-.079.014-.058.023-.146.031-.281a16.394 16.394 0 0 0 .028-1.039c-.003-.125-.008-.203-.038-.25-.028-.045-.088-.076-.203-.112a4.798 4.798 0 0 0-.493-.113 11.105 11.105 0 0 0-.67-.104 3.236 3.236 0 0 0-.475-.032.923.923 0 0 0-.335.065c-.12.05-.236.135-.342.212-.08.057-.153.11-.225.148-.184.094-.32.069-.466.041h-.005a1.914 1.914 0 0 0-.474-.04 3.433 3.433 0 0 0-.433.045c-.197.031-.459.082-.83.165a32.27 32.27 0 0 0-1.6.4c-.448.124-.916.267-1.356.424a14.45 14.45 0 0 0-1.44.601c-.452.218-.882.453-1.305.702a19.37 19.37 0 0 0-2.506 1.752 27.97 27.97 0 0 0-2.417 2.26 23.497 23.497 0 0 0-1.651 1.956c-.22.289-.424.565-.6.818a8.15 8.15 0 0 0-.423.662 1.728 1.728 0 0 0-.196.467.84.84 0 0 0 .01.393c.035.14.1.298.19.465.094.175.215.36.357.548.13.172.276.345.43.514a11.268 11.268 0 0 0 1.015.984c.148.128.302.258.457.387l-.113.135a30.721 30.721 0 0 1-.46-.389 13.81 13.81 0 0 1-.483-.439c-.18-.172-.369-.362-.548-.56a7.571 7.571 0 0 1-.44-.525 4.507 4.507 0 0 1-.371-.57 2.194 2.194 0 0 1-.205-.507 1.015 1.015 0 0 1-.012-.471c.033-.155.103-.317.214-.516.11-.195.257-.425.433-.678a26.144 26.144 0 0 1 1.34-1.75c.271-.324.576-.67.929-1.042a28.116 28.116 0 0 1 2.432-2.277c.428-.351.847-.667 1.264-.958a20.045 20.045 0 0 1 2.582-1.518c.458-.221.94-.425 1.458-.61a20.93 20.93 0 0 1 1.368-.427c.605-.169 1.18-.306 1.609-.402.375-.083.64-.135.84-.167.203-.032.34-.044.454-.048a2.091 2.091 0 0 1 .513.043l.006.001c.114.022.223.042.352-.025.059-.03.128-.08.202-.134.114-.083.239-.174.378-.231.121-.05.248-.074.397-.08.144-.004.306.01.502.034.206.025.453.062.681.105.198.037.382.079.513.119.158.049.247.1.3.186.053.084.062.186.065.341a17.03 17.03 0 0 1-.027 1.052 1.973 1.973 0 0 1-.036.311.3.3 0 0 1-.093.172c-.047.041-.104.065-.203.107-.059.026-.136.058-.245.11a6.43 6.43 0 0 0-.522.278 2.53 2.53 0 0 0-.346.24.588.588 0 0 0-.209.335.81.81 0 0 1-.019.065.492.492 0 0 1-.268.3.977.977 0 0 1-.223.075c-.08.018-.169.028-.258.031a.939.939 0 0 1-.27-.027.718.718 0 0 1-.272-.139 2.086 2.086 0 0 1-.26-.275 2.165 2.165 0 0 0-.192-.212.259.259 0 0 0-.215-.073c-.126.007-.319.062-.64.187-.354.136-.858.355-1.39.606-.456.216-.932.457-1.347.69-.446.25-.82.49-1.167.744a12.03 12.03 0 0 0-.999.83 20.836 20.836 0 0 0-2.014 2.13c-.614.759-1.11 1.513-1.607 2.267l-.147-.096v-.003Z" fill="#FEFEFE"/><path d="m18.752 7.174-.013.006c-.341.154-.681.307-.9.41l-.043.02c-.206.098-.329.157-.702.229-.138.026-.32.056-.532.09-.36.06-.807.133-1.301.235-.417.086-.869.193-1.333.325-.399.113-.804.244-1.203.395a13.485 13.485 0 0 0-2.485 1.262 16.68 16.68 0 0 0-1.16.83c-.382.295-.762.61-1.149.941-.386.33-.779.677-1.154 1.017a41.04 41.04 0 0 0-1.034.968 17.7 17.7 0 0 0-.814.836c-.245.27-.47.539-.704.84-.234.3-.478.637-.712.97a63.826 63.826 0 0 0-1.141 1.682c-.134.209-.24.385-.317.538a2.447 2.447 0 0 0-.163.396 2.54 2.54 0 0 0-.072.31 8.726 8.726 0 0 0-.073.522V20l-.176-.02v-.003c.02-.168.04-.336.075-.532a2.585 2.585 0 0 1 .251-.756c.082-.16.19-.341.326-.554a64.29 64.29 0 0 1 1.146-1.688c.234-.332.479-.67.717-.976.238-.307.467-.58.713-.851.246-.271.51-.542.822-.844.307-.299.662-.63 1.038-.972a52.41 52.41 0 0 1 1.158-1.02c.387-.332.77-.649 1.155-.947.385-.299.773-.58 1.172-.837a13.332 13.332 0 0 1 2.519-1.28c.404-.153.815-.286 1.217-.4.465-.132.922-.24 1.346-.328.497-.103.947-.176 1.308-.235.206-.034.382-.063.527-.09.351-.068.466-.123.66-.215l.042-.02c.228-.108.565-.26.903-.412l.014-.006.072.16ZM3.031 14.471a15.111 15.111 0 0 0-.752.913c-.044.06-.08.114-.107.167a.807.807 0 0 0-.087.291.533.533 0 0 0 .004.122.224.224 0 0 0 .024.077.049.049 0 0 0 .023.023.151.151 0 0 0 .06.008.532.532 0 0 0 .249-.069.661.661 0 0 0 .15-.12 6.34 6.34 0 0 0 .3-.335c.102-.118.233-.274.38-.449.248-.292.54-.638.831-.974.229-.263.451-.512.674-.752a20.017 20.017 0 0 1 1.442-1.403 17.5 17.5 0 0 1 .762-.634c.365-.287.715-.535.979-.722l.247-.177c.126-.092.202-.153.25-.198a.23.23 0 0 0 .061-.08.147.147 0 0 0 .012-.06.059.059 0 0 0-.008-.03c-.003-.005-.009-.008-.018-.01a.202.202 0 0 0-.073 0 .614.614 0 0 0-.146.045c-.065.027-.147.07-.256.134a8.134 8.134 0 0 0-.404.26 31.275 31.275 0 0 0-2.022 1.516 25.222 25.222 0 0 0-2.053 1.894c-.197.205-.373.396-.522.563Zm-.481.288a20.084 20.084 0 0 1 .877-.974 26.048 26.048 0 0 1 3.541-3.04c.21-.151.397-.283.561-.393.165-.112.303-.201.413-.266.114-.067.204-.113.277-.145a.778.778 0 0 1 .188-.056.357.357 0 0 1 .144.003c.051.013.09.04.118.079a.233.233 0 0 1 .04.126.322.322 0 0 1-.025.131.39.39 0 0 1-.103.142c-.052.05-.134.115-.268.213l-.248.178c-.262.186-.609.432-.973.717a19.353 19.353 0 0 0-2.183 2.018c-.226.243-.446.49-.67.748-.28.323-.577.675-.829.973l-.38.45a6.515 6.515 0 0 1-.311.345.73.73 0 0 1-.52.24.317.317 0 0 1-.135-.024.222.222 0 0 1-.104-.095.408.408 0 0 1-.045-.138.699.699 0 0 1-.006-.162.963.963 0 0 1 .107-.361c.032-.06.071-.12.12-.188a15.522 15.522 0 0 1 .414-.521Z" fill="#FEFEFE"/><path d="m4.521 16.163-.099.115c-.277.321-.39.452-.463.562a.705.705 0 0 0-.122.298.816.816 0 0 0-.013.13c0 .041.004.08.01.113a.226.226 0 0 0 .029.076.2.2 0 0 0 .058.058.538.538 0 0 0 .119.057c.047.017.1.03.15.037a.546.546 0 0 0 .151.001.423.423 0 0 0 .146-.05.678.678 0 0 0 .164-.13c.062-.066.133-.155.219-.276.082-.118.174-.26.28-.424.127-.195.273-.42.442-.667a21.63 21.63 0 0 1 1.153-1.527 16.274 16.274 0 0 1 1.401-1.485c.275-.257.57-.518.882-.774a15.299 15.299 0 0 1 1.883-1.324 25.321 25.321 0 0 1 1.832-1.003c.285-.137.572-.263.882-.384.311-.122.65-.241.965-.348.322-.108.61-.2.825-.268l.024-.007c.407-.13.55-.175.625-.236a.223.223 0 0 0 .062-.079.248.248 0 0 0 .022-.103.145.145 0 0 0-.011-.063.067.067 0 0 0-.028-.029c-.015-.008-.036-.013-.078-.012a1.501 1.501 0 0 0-.27.047c-.136.032-.317.082-.527.144a26.742 26.742 0 0 0-1.534.512c-.291.11-.6.236-.93.387-.317.145-.656.313-.99.488-.363.19-.72.39-1.036.575a15.622 15.622 0 0 0-1.628 1.099 31.324 31.324 0 0 0-1.764 1.46 17.6 17.6 0 0 0-1.412 1.41 88.4 88.4 0 0 0-1.315 1.498l-.105.122h.001Zm-.232 0 .204-.237c.359-.416.879-1.018 1.317-1.5a17.662 17.662 0 0 1 1.425-1.423 31.514 31.514 0 0 1 1.775-1.469c.285-.219.544-.407.807-.584.261-.177.53-.346.84-.527a24.41 24.41 0 0 1 1.041-.58c.335-.176.677-.345 1-.492.335-.153.647-.28.94-.391a26.3 26.3 0 0 1 1.547-.516c.218-.065.402-.115.537-.147.14-.034.236-.049.304-.05a.3.3 0 0 1 .173.035.24.24 0 0 1 .097.103c.02.04.03.088.03.14a.403.403 0 0 1-.149.319c-.1.083-.253.131-.684.268l-.024.008c-.223.07-.518.164-.822.267a19.17 19.17 0 0 0-.956.344c-.31.121-.592.245-.871.379-.28.134-.56.28-.862.446-.303.166-.627.35-.955.548-.326.198-.66.412-.982.64a15.06 15.06 0 0 0-.88.67 17.39 17.39 0 0 0-1.602 1.492c-.23.244-.447.49-.657.743A21.42 21.42 0 0 0 5.3 16.826c-.11.17-.205.316-.285.43-.09.128-.166.223-.236.296a.861.861 0 0 1-.206.163.604.604 0 0 1-.205.07.723.723 0 0 1-.2-.001.958.958 0 0 1-.186-.045.715.715 0 0 1-.16-.079.373.373 0 0 1-.108-.11.403.403 0 0 1-.051-.133.717.717 0 0 1-.014-.149.982.982 0 0 1 .062-.332c.023-.06.056-.123.101-.192.077-.117.193-.251.478-.581h-.001Zm15.153-4.987a2.425 2.425 0 0 1-.461-.039c-.113-.03-.148-.074-.236-.185l-.041-.05a5.55 5.55 0 0 0-.236-.271 2.718 2.718 0 0 0-.197-.195.634.634 0 0 0-.162-.11.208.208 0 0 0-.104-.017.307.307 0 0 0-.096.029.515.515 0 0 0-.174.137.081.081 0 0 0-.017.037c-.001.024.027.068.074.14l.006.01c.03.044.066.1.103.161.035.06.068.12.09.171.044.105.042.167.04.274l-.001.025c-.002.052-.002.117.004.178.006.052.016.1.036.129.028.042.099.051.148.058l.026.004c.066.01.107.027.127.087.014.04.005.087-.023.158a4.676 4.676 0 0 1-.078.172 4.83 4.83 0 0 0-.108.244.498.498 0 0 0-.038.137.2.2 0 0 0 .018.095.924.924 0 0 0 .171.239c.048.047.08.057.11.067l.012.005-.04.08-.026.083a.39.39 0 0 1-.179-.11 1.143 1.143 0 0 1-.122-.144.812.812 0 0 1-.088-.15.365.365 0 0 1-.03-.177.649.649 0 0 1 .048-.188c.03-.078.073-.17.113-.254.028-.061.055-.118.074-.164l.004-.01c-.08-.01-.195-.028-.265-.133a.47.47 0 0 1-.064-.21 1.605 1.605 0 0 1-.006-.2l.001-.025a.424.424 0 0 0-.026-.2 1.28 1.28 0 0 0-.08-.15 4.815 4.815 0 0 0-.098-.155l-.006-.01c-.067-.102-.108-.165-.102-.248a.247.247 0 0 1 .047-.124.691.691 0 0 1 .245-.197.482.482 0 0 1 .152-.045.375.375 0 0 1 .19.03c.063.026.131.07.21.14.065.056.14.13.211.207.092.098.181.203.244.28l.041.052c.063.078.088.11.144.124.088.024.255.029.42.034l-.004.175-.001-.001Zm.845-.547-.006.151-.155-.005-.001.029-.176-.009c.004-.087.01-.175.011-.262l-.013-.006a.357.357 0 0 1-.133-.094.287.287 0 0 1-.073-.183.337.337 0 0 1 .057-.207.305.305 0 0 1 .078-.078.376.376 0 0 1 .098-.048.475.475 0 0 1 .335.02.317.317 0 0 1 .154.176.34.34 0 0 1 .02.123.283.283 0 0 1-.03.119.372.372 0 0 1-.14.136l-.014.01-.004.02a1.158 1.158 0 0 0-.01.107h.002Zm-.159-.165a.187.187 0 0 1 .03-.067.193.193 0 0 1 .061-.053l.002-.002a.22.22 0 0 0 .076-.067.103.103 0 0 0 .01-.045.16.16 0 0 0-.01-.059.14.14 0 0 0-.067-.078.186.186 0 0 0-.056-.018.306.306 0 0 0-.196.034.148.148 0 0 0-.035.035.134.134 0 0 0-.02.044.167.167 0 0 0 .004.097.158.158 0 0 0 .053.06.48.48 0 0 0 .045.023c.021.01.04.02.058.034a.125.125 0 0 1 .044.062h.001Zm-8.845 9.963-.239.328.011.328 2.587.38c.75.58 1.498 1.161 2.247 1.742l-.175 1.529 3.215.485 1.714-2.259c3.404-1.071 2.953-1.01 6.288-1.416-.103-1.614-.105-1.97-.027-3.588l-3.058-1.23.066-.164 3.174 1.278-.092 1.919.124 1.94-3.01.367-3.36 1.047-1.742 2.297c-1.162-.175-2.324-.352-3.486-.526l.182-1.6-2.131-1.653-2.686-.394-.019-.536.274-.376.143.103Z" fill="#FEFEFE"/><path d="m10.965 20.64 2.444.293.02-.677.175.005-.025.871-2.635-.317.02-.175Zm5.073-.118-.155 2.727-.176-.01.155-2.726.176.01Zm-.353 3.689 3.26.4 1.58-1.87.232.232-.125.125-.096-.095-1.517 1.794-3.355-.41.021-.176Z" fill="#FEFEFE"/><path d="m19.07 24.706-.015.61-.176-.004.015-.61.176.004Zm-3.282-1.55 4.736-.372.014.176-4.736.372-.014-.176Zm8.159-1.154a1.52 1.52 0 0 1-.004-.093.771.771 0 0 0-.013-.145c-.016-.113-.025-.232-.036-.346l2.969-1.777.09.15-2.873 1.72.024.224c.013.073.014.12.015.172a.94.94 0 0 0 .004.083l-.177.013v-.001Z" fill="#FEFEFE"/><path d="m23.976 21.377 3.004-.373.021.175-3.004.373-.02-.175Zm-8.456-1.299.459.351c1.506-.029 3.04-.088 4.542-.088l3.293-.776 3.138-1.744.085.154-3.16 1.756c-1.113.26-2.225.525-3.336.787-1.529 0-3.09.057-4.62.088l-.509-.388.107-.14Z" fill="#FEFEFE"/><path d="m20.597 20.43-.012 2.386.078-.01.02.176-.275.03.013-2.583.176.001Zm3.317-.837.047.06.113 1.806-.176.011-.11-1.752-.012-.015.01-.009v-.003h.005l.123-.098ZM8.93 13.338c1.454.941 2.908 1.882 3.68 2.33.379.22.589.319.709.357.06.019.083.02.095.017a1.426 1.426 0 0 0-.2-.24 17.464 17.464 0 0 0-.577-.568 33.373 33.373 0 0 0-1.356-1.215 21.23 21.23 0 0 0-.582-.475 3.954 3.954 0 0 0-.287-.211 2.206 2.206 0 0 0-.22-.123 20.401 20.401 0 0 0-.32-.154l-.388-.184.075-.16.389.184.322.156c.09.045.157.08.237.132.078.051.167.116.3.221a27.884 27.884 0 0 1 1.207 1.017c.25.222.511.464.743.684.238.226.447.431.583.574.142.15.21.238.238.297.05.107.013.151-.044.197-.044.036-.1.073-.269.02-.13-.042-.352-.145-.745-.373-.773-.45-2.23-1.392-3.687-2.335l.095-.148h.001Z" fill="#FEFEFE"/><path d="M9.613 13.873a3.6 3.6 0 0 1 .335-.374.956.956 0 0 1 .308-.19c.045-.018.09-.032.136-.046l.128-.034.043.17-.122.033a1.47 1.47 0 0 0-.12.04.84.84 0 0 0-.254.157c-.097.087-.207.222-.317.356l-.136-.112Z" fill="#FEFEFE"/><path d="M11.869 14.476v-.001c.02-.146.039-.291.067-.37.022-.06.051-.093.088-.111a.172.172 0 0 1 .105-.013l.032.004.062.007a.58.58 0 0 0 .01-.074c.006-.071.008-.176.005-.279a1.494 1.494 0 0 0-.022-.226.323.323 0 0 0-.048-.125.176.176 0 0 0-.054-.048l-.018-.013-.014.026a1.497 1.497 0 0 0-.081.19c-.03.075-.059.152-.088.209a.384.384 0 0 1-.116.143.314.314 0 0 1-.135.052.667.667 0 0 1-.134.009.21.21 0 0 1-.121-.037c-.061-.05-.05-.088-.026-.168.008-.027.02-.063.028-.11a1.98 1.98 0 0 0 .027-.235c.005-.083.007-.165.003-.225a.265.265 0 0 0-.02-.1.07.07 0 0 0-.028-.026.312.312 0 0 0-.114-.04.303.303 0 0 0-.021.056l-.026.084c-.027.095-.06.21-.109.293a.394.394 0 0 1-.106.12.287.287 0 0 1-.148.058c-.063.004-.104-.02-.127-.07a.203.203 0 0 1-.008-.122l.015-.07c.013-.058.03-.135.037-.228a1.539 1.539 0 0 0 0-.215.953.953 0 0 0-.028-.177.156.156 0 0 0-.032-.069.102.102 0 0 0-.039-.02.173.173 0 0 0-.054-.011c-.007 0-.013.001-.016.005a.193.193 0 0 0-.031.068c-.012.04-.022.088-.03.135l-.008.05a.998.998 0 0 1-.06.24c-.038.09-.097.136-.155.182l-.006.005-.05-.076-.054-.066.006-.005a.307.307 0 0 0 .099-.111.902.902 0 0 0 .045-.197l.009-.052c.01-.054.02-.108.034-.155a.35.35 0 0 1 .072-.139.192.192 0 0 1 .139-.06.336.336 0 0 1 .224.084.322.322 0 0 1 .076.145c.016.057.028.133.033.212.006.08.007.165.002.24a1.58 1.58 0 0 1-.042.255l-.005.02a.229.229 0 0 0 .055-.064c.037-.063.067-.167.092-.253l.027-.09a.342.342 0 0 1 .064-.126.149.149 0 0 1 .122-.052.5.5 0 0 1 .208.065.231.231 0 0 1 .093.095c.02.04.034.093.04.17a2.33 2.33 0 0 1-.032.504c-.01.046-.019.08-.027.108a.506.506 0 0 0 .076-.007.15.15 0 0 0 .063-.022.216.216 0 0 0 .061-.08c.026-.05.054-.122.08-.19.032-.083.063-.164.093-.216.043-.073.09-.104.14-.112.052-.008.094.01.136.036a.33.33 0 0 1 .106.096c.032.044.06.105.078.193.014.07.022.162.025.254a2.71 2.71 0 0 1-.005.3.409.409 0 0 1-.036.16.13.13 0 0 1-.114.075.514.514 0 0 1-.122-.008l-.028-.004c-.007 0-.002-.007-.007-.004-.004.002.003.001 0 .012a2.21 2.21 0 0 0-.059.334v.002l-.175-.023h.002Zm-.351-.793.002.001c-.01-.008-.016-.012-.002 0Zm1.987 4.349c.009-.172.017-.345.028-.494.011-.155.025-.294.045-.4a.83.83 0 0 1 .144-.362l.015-.023a.872.872 0 0 0 .057-.101.346.346 0 0 0 .022-.059.979.979 0 0 0-.114-.08 15.672 15.672 0 0 0-.567-.35.538.538 0 0 0-.152-.075c-.013-.002-.027.009-.05.038-.037.05-.082.133-.126.23a3.087 3.087 0 0 0-.13.342 2.22 2.22 0 0 0-.104.594 7.354 7.354 0 0 0-.011.607c.004.14.014.184.025.228l.002.01v.01h-.088l-.086.02a1.102 1.102 0 0 1-.03-.264 6.998 6.998 0 0 1 .012-.623 2.416 2.416 0 0 1 .111-.635c.038-.118.087-.249.138-.363.049-.107.1-.203.147-.264.067-.086.129-.116.21-.106a.623.623 0 0 1 .222.099 19.094 19.094 0 0 1 .572.353c.077.05.122.081.15.11.046.049.053.087.044.14a.443.443 0 0 1-.038.112 1.01 1.01 0 0 1-.068.123l-.016.024a.677.677 0 0 0-.117.296 3.745 3.745 0 0 0-.043.381c-.011.158-.02.324-.028.49l-.176-.008Z" fill="#FEFEFE"/><path d="M11.233 16.86a2.601 2.601 0 0 1-.002-.24 5.773 5.773 0 0 1 .048-.587c.013-.085.028-.164.047-.238a1.777 1.777 0 0 1 .136-.37 1.34 1.34 0 0 1 .077-.13.614.614 0 0 1 .08-.098c.083-.08.104-.068.32.062l.031.02c.171.102.461.277.614.377a.582.582 0 0 1 .154.123c.051.074.027.11-.017.16l-.016.019a.624.624 0 0 0-.162.275 1.236 1.236 0 0 0-.037.185c-.012.094-.02.215-.026.317a6.025 6.025 0 0 1-.01.149c-.008.082-.02.128-.076.165-.043.029-.1.034-.2.036a12.33 12.33 0 0 1-.67-.006c-.102-.004-.163-.012-.209-.041-.06-.039-.076-.09-.082-.178Zm.173-.235c-.002.088-.002.167.002.223.002.029 0 .041.002.042.012.008.05.01.121.014a9.993 9.993 0 0 0 .66.006.438.438 0 0 0 .107-.008c.007-.004-.006-.008-.004-.034l.01-.143a4.66 4.66 0 0 1 .028-.329 1.39 1.39 0 0 1 .042-.212.803.803 0 0 1 .188-.33l-.074-.05c-.143-.093-.436-.27-.609-.374l-.031-.02c-.111-.066-.093-.1-.108-.086a.479.479 0 0 0-.055.071 1.141 1.141 0 0 0-.132.26 1.67 1.67 0 0 0-.056.183c-.017.066-.031.14-.044.222a5.512 5.512 0 0 0-.047.565Z" fill="#FEFEFE"/></svg>