<svg width="16" height="16" viewBox="0 0 16 16" fill="none" xmlns="http://www.w3.org/2000/svg"><path d="M8.005 4.148a3.848 3.848 0 1 0-.001 7.696 3.848 3.848 0 0 0 0-7.696Zm0 6.347a2.498 2.498 0 1 1 0-4.996 2.498 2.498 0 0 1 0 4.996Z" fill="#fff"/><path d="M11.093.547c-1.38-.064-4.798-.061-6.18 0-1.214.058-2.285.351-3.147 1.214C.323 3.203.508 5.147.508 7.998c0 2.917-.163 4.817 1.258 6.237 1.447 1.447 3.42 1.258 6.237 1.258 3.453 0 7.23.331 7.45-4.405.065-1.381.062-4.798 0-6.18-.123-2.633-1.537-4.23-4.36-4.36Zm2.183 12.734c-.945.945-2.257.861-5.293.861-3.124 0-4.378.046-5.293-.87-1.054-1.049-.862-2.733-.862-5.284 0-6.234.357-6.154 6.146-6.154l.028.018c6.208 0 6.144.403 6.144 6.146.001 3.088.06 4.349-.87 5.283Z" fill="#fff"/><path d="M12.005 4.896a.9.9 0 1 0 0-1.798.9.9 0 0 0 0 1.798Z" fill="#fff"/></svg>