<svg width="202" height="44" viewBox="0 0 202 44" fill="none" xmlns="http://www.w3.org/2000/svg"><path fill-rule="evenodd" clip-rule="evenodd" d="m194.29 19.384 2.818 1.208c2.473 1.064 3.652 3.968 2.588 6.442L194.433 39.4c-1.064 2.473-3.968 3.652-6.441 2.588l-8.168-3.48c-2.473-1.064-3.652-3.969-2.588-6.442l.086-.23c.23-.086.432-.201.633-.345.201-.115.374-.259.546-.374.173.144.374.288.547.403a5.429 5.429 0 0 0 2.876.834h6.902a5.364 5.364 0 0 0 3.853-1.61 5.482 5.482 0 0 0 1.611-3.854v-7.506Z" fill="#FEFEFE"/><path fill-rule="evenodd" clip-rule="evenodd" d="m194.29 17.6 3.451 1.467a6.548 6.548 0 0 1 3.508 3.566 6.432 6.432 0 0 1-.057 5.004l-5.263 12.395a6.552 6.552 0 0 1-3.566 3.509 6.434 6.434 0 0 1-5.004-.058l-8.167-3.48a6.554 6.554 0 0 1-3.509-3.566 6.467 6.467 0 0 1-.258-4.112 4.761 4.761 0 0 0 1.898-.49l-.087.23c-1.064 2.474.115 5.379 2.589 6.443l8.167 3.48c2.473 1.064 5.378-.115 6.442-2.589l5.262-12.395c1.065-2.473-.115-5.377-2.588-6.441l-2.818-1.208V17.6Z" fill="#151517"/><path fill-rule="evenodd" clip-rule="evenodd" d="m194.289 22.202 1.64.69c1.495.633 2.214 2.387 1.581 3.883l-4.745 11.187c-.632 1.495-2.387 2.214-3.882 1.581l-7.88-3.364c-1.495-.633-2.214-2.387-1.581-3.883l.201-.46a5.311 5.311 0 0 0 2.329.518h6.902a5.364 5.364 0 0 0 3.854-1.61 5.481 5.481 0 0 0 1.61-3.854l-.029-4.688Z" fill="#151517" stroke="#151517" stroke-width=".163" stroke-miterlimit="10"/><path fill-rule="evenodd" clip-rule="evenodd" d="M181.925 4.601h6.902a3.842 3.842 0 0 1 3.825 3.825V26.86c0 2.1-1.726 3.825-3.825 3.825h-6.902c-1.496 0-2.819-.863-3.422-2.128a3.75 3.75 0 0 1-3.394 2.128h-6.816a3.752 3.752 0 0 1-3.134-1.697 3.505 3.505 0 0 1-2.991 1.697h-6.298a3.493 3.493 0 0 1-2.531-1.093 3.363 3.363 0 0 1-2.473 1.093h-6.011a3.338 3.338 0 0 1-3.335-3.336V11.417a3.338 3.338 0 0 1 3.335-3.336h6.011a3.41 3.41 0 0 1 1.524.374V7.333a3.473 3.473 0 0 1 3.48-3.48h6.269c.92 0 1.783.374 2.416.978.287-1.783 1.869-3.163 3.738-3.163h6.816a3.78 3.78 0 0 1 3.767 3.767v.72a3.774 3.774 0 0 1 3.049-1.554Z" fill="#FEFEFE"/><path fill-rule="evenodd" clip-rule="evenodd" d="M181.924 2.963h6.902a5.36 5.36 0 0 1 3.853 1.61 5.482 5.482 0 0 1 1.611 3.854V26.86a5.362 5.362 0 0 1-1.611 3.853 5.48 5.48 0 0 1-3.853 1.61h-6.902a5.506 5.506 0 0 1-2.876-.833 3.805 3.805 0 0 1-.546-.403 3.66 3.66 0 0 1-.547.374 5.43 5.43 0 0 1-2.876.834h-6.815c-.921 0-1.783-.23-2.56-.633-.201-.115-.374-.23-.575-.345-.172.115-.345.23-.518.316a5 5 0 0 1-2.501.662h-6.241c-.719 0-1.38-.144-2.013-.431-.173-.087-.345-.144-.489-.26a3.438 3.438 0 0 1-.46.23 4.777 4.777 0 0 1-2.013.432h-6.011a4.837 4.837 0 0 1-3.508-1.467 4.953 4.953 0 0 1-1.467-3.508V11.417a4.84 4.84 0 0 1 1.467-3.508 4.954 4.954 0 0 1 3.508-1.467h5.982a5.046 5.046 0 0 1 1.438-2.76 5.13 5.13 0 0 1 3.624-1.496h6.269c.546 0 1.093.086 1.61.259a5.756 5.756 0 0 1 1.036-1.18 5.354 5.354 0 0 1 3.479-1.293h6.816c1.495 0 2.847.604 3.825 1.581a5.046 5.046 0 0 1 1.15 1.726 7.008 7.008 0 0 1 1.812-.316Zm0 1.639h6.902a3.842 3.842 0 0 1 3.825 3.825V26.86a3.842 3.842 0 0 1-3.825 3.824h-6.902c-1.496 0-2.818-.862-3.422-2.128a3.75 3.75 0 0 1-3.394 2.128h-6.815a3.753 3.753 0 0 1-3.135-1.696 3.505 3.505 0 0 1-2.991 1.696h-6.298a3.494 3.494 0 0 1-2.531-1.092 3.363 3.363 0 0 1-2.473 1.092h-6.01a3.338 3.338 0 0 1-3.336-3.335V11.416a3.338 3.338 0 0 1 3.336-3.336h6.01a3.41 3.41 0 0 1 1.524.374v-1.12a3.473 3.473 0 0 1 3.48-3.48h6.269c.921 0 1.783.374 2.416.978.288-1.783 1.869-3.164 3.739-3.164h6.815a3.78 3.78 0 0 1 3.768 3.768v.719a3.77 3.77 0 0 1 3.048-1.553Z" fill="#151517"/><path fill-rule="evenodd" clip-rule="evenodd" d="M145.372 9.98h4.946a1.73 1.73 0 0 1 1.726 1.725v14.954a1.73 1.73 0 0 1-1.726 1.726h-4.946a1.731 1.731 0 0 1-1.726-1.726V11.705c.029-.949.777-1.726 1.726-1.726ZM156.3 6.068h5.781c1.092 0 2.013.92 2.013 2.071V26.17c0 1.15-.892 2.07-2.013 2.07H156.3c-1.093 0-2.013-.92-2.013-2.07V8.14c0-1.15.92-2.07 2.013-2.07Zm11.964-2.358h6.442c1.236 0 2.214 1.035 2.214 2.3v20.074c0 1.265-1.007 2.3-2.214 2.3h-6.442c-1.237 0-2.215-1.035-2.215-2.3V6.01c-.028-1.295.978-2.301 2.215-2.301Zm13.373 2.675h6.442c1.236 0 2.214.92 2.214 2.042v17.916c0 1.122-1.006 2.042-2.214 2.042h-6.442c-1.237 0-2.215-.92-2.215-2.042V8.427c-.028-1.122.978-2.042 2.215-2.042Z" fill="#151517" stroke="#151517" stroke-width=".163" stroke-miterlimit="10"/><path fill-rule="evenodd" clip-rule="evenodd" d="M28.183 11.935c6.758 0 12.25 5.493 12.25 12.251 0 6.759-5.492 12.252-12.25 12.252-6.759 0-12.251-5.493-12.251-12.252 0-6.758 5.464-12.25 12.25-12.25Zm0 8.973a3.277 3.277 0 0 1 3.278 3.278c0 1.812-1.495 3.279-3.278 3.279s-3.279-1.467-3.279-3.279a3.277 3.277 0 0 1 3.279-3.278Zm27.695-8.973c6.758 0 12.25 5.493 12.25 12.251 0 6.759-5.492 12.252-12.25 12.252-.604 0-1.18-.058-1.783-.116v-9.375a3.404 3.404 0 0 0 1.783.518 3.277 3.277 0 0 0 3.278-3.279 3.277 3.277 0 0 0-3.278-3.278 3.277 3.277 0 0 0-3.279 3.278v19.671h-8.972v-19.67c0-6.759 5.464-12.252 12.25-12.252Zm15.126 6.414h8.283c.776 0 1.438.632 1.438 1.438v3.824c0 .777-.633 1.438-1.438 1.438h-8.283a1.442 1.442 0 0 1-1.438-1.438v-3.853c0-.777.662-1.41 1.438-1.41ZM12.51 36.437C5.752 36.437 0 30.973 0 24.186V3.91h8.973v8.541h3.537v9.577H8.973v2.185c0 1.812 1.725 3.279 3.537 3.279v8.944Z" fill="#FEFEFE"/><path fill-rule="evenodd" clip-rule="evenodd" d="m79.172 3.94 13.89 34.165L106.981 3.94H96.053l-2.99 7.363L90.07 3.94h-10.9Zm43.77-.258c5.751 0 10.381 4.63 10.381 10.353 0 3.22-1.466 6.068-3.767 7.994l5.119 14.35h-9.806l-4.372-12.28v-6.786h.432a2.381 2.381 0 0 0 2.387-2.387 2.381 2.381 0 0 0-2.387-2.387h-1.927v23.812h-9.807V3.68h13.747Z" fill="#E31E24"/></svg>