<svg width="50" height="50" viewBox="0 0 50 50" fill="none" xmlns="http://www.w3.org/2000/svg"><g clip-path="url(#a)" fill="#fff"><path d="M26.007 21.465a.732.732 0 0 0 .731-.732c0-2.56-1.007-4.976-2.836-6.805a9.566 9.566 0 0 0-6.805-2.836 9.566 9.566 0 0 0-6.805 2.836c-1.83 1.829-2.837 4.246-2.837 6.805a9.58 9.58 0 0 0 1.862 5.688 9.58 9.58 0 0 0 4.854 3.5c.897.285 1.343-1.109.444-1.395a8.124 8.124 0 0 1-4.117-2.97 8.122 8.122 0 0 1-1.58-4.823c0-2.168.856-4.218 2.408-5.77a8.116 8.116 0 0 1 11.541 0 8.117 8.117 0 0 1 2.408 5.77c0 .404.328.732.732.732Z"/><path d="M17.096 15.915c2.087 0 3.98 1.4 4.604 3.405.28.899 1.679.47 1.397-.435-.812-2.61-3.28-4.434-6-4.434a6.29 6.29 0 0 0-6.283 6.282c0 1.94.88 3.743 2.413 4.946.74.58 1.65-.566.903-1.151a4.862 4.862 0 0 1-1.852-3.795 4.824 4.824 0 0 1 4.818-4.819Z"/><path d="M31.144 45.778a.731.731 0 0 0-.99-.298 4.95 4.95 0 0 1-4.85-.072l-2.08-1.2-6.311-3.829a.731.731 0 0 0-.447-.35.4.4 0 0 1 .03-.387 1.975 1.975 0 0 1 2.714-.572l4.697 2.967c1.652 1.044 3.668-.85 2.747-2.561l-2.53-4.705c-.447-.83-1.739-.142-1.29.693l2.531 4.704c.229.425-.273.887-.677.632l-4.696-2.967a3.43 3.43 0 0 0-4.71.995 1.84 1.84 0 0 0-.309 1.175h-11.6a1.911 1.911 0 0 1-1.91-1.91V3.374a1.91 1.91 0 0 1 1.91-1.91h3.553c.942 0 .948-1.463 0-1.463H3.372A3.376 3.376 0 0 0 0 3.372v34.722a3.376 3.376 0 0 0 3.372 3.372h12.511l6.588 3.997.014.008 2.088 1.204a6.4 6.4 0 0 0 5.61.405l1.37 2.546c.446.83 1.735.137 1.288-.693l-1.697-3.155Z"/><path d="M41.59 40.202a10.86 10.86 0 0 0-1.206-6.43l-1.9-3.534L36 25.624a2.599 2.599 0 0 0-1.808-1.316v-12.78l6.612-4.717h8.408c.942 0 .948-1.463 0-1.463h-8.487a.727.727 0 0 0-.37.102.73.73 0 0 0-.347.132L34.193 9.73V3.372A3.376 3.376 0 0 0 30.82 0H11.706c-.942 0-.948 1.463 0 1.463H30.82a1.91 1.91 0 0 1 1.909 1.91v7.4l-4.67 3.332c-.757.54.068 1.748.85 1.191l3.82-2.725v11.896a2.596 2.596 0 0 0-1.18.995c-1.254-1.148-3.337-.753-4.07.786-1.125-.628-2.59-.313-3.35.73l-3.55-6.599c-.666-1.24-2.254-1.712-3.494-1.05-1.24.661-1.716 2.26-1.05 3.495l4.91 9.128c.446.83 1.737.142 1.288-.693l-4.91-9.128c-.689-1.279 1.292-2.316 1.968-1.059l7.19 13.364c.446.83 1.734.136 1.288-.694l-2.536-4.714c-.688-1.278 1.289-2.32 1.968-1.06l.332.618 2.204 4.098c.435.807 1.755.172 1.289-.694l-2.204-4.097c-.687-1.277 1.29-2.32 1.969-1.059l2.203 4.097c.44.818 1.743.151 1.289-.693l-1.54-2.861a1.13 1.13 0 0 1 .65-1.596c.114.01.24-.008.345-.051.404.004.783.232.974.588l2.482 4.614 1.9 3.533a9.383 9.383 0 0 1 1.014 5.769.732.732 0 0 0 .08.453l1.79 3.33c.447.83 1.736.137 1.29-.694l-1.68-3.12Z"/><path d="M49.213 8.665H41.8c-.941 0-.948 1.463 0 1.463h7.414c.942 0 .948-1.463 0-1.463Zm0 3.316H41.8c-.941 0-.948 1.463 0 1.463h7.414c.942 0 .948-1.463 0-1.463Zm-4.293 3.317H41.8c-.942 0-.949 1.463 0 1.463h3.12c.943 0 .95-1.463 0-1.463Z"/></g><defs><clipPath id="a"><path fill="#fff" d="M0 0h50v50H0z"/></clipPath></defs></svg>