<svg width="50" height="50" viewBox="0 0 50 50" fill="none" xmlns="http://www.w3.org/2000/svg"><g clip-path="url(#a)" fill="#fff"><path d="M47.132 43.169H2.867a2.867 2.867 0 0 0-2.863 2.863v1.097a2.866 2.866 0 0 0 2.863 2.863h36.29c.945 0 .945-1.464 0-1.464H2.867a1.4 1.4 0 0 1-1.399-1.4v-1.096a1.4 1.4 0 0 1 1.4-1.398h44.264a1.4 1.4 0 0 1 1.399 1.398v1.097a1.4 1.4 0 0 1-1.399 1.399h-3.971c-.945 0-.945 1.464 0 1.464h3.971a2.867 2.867 0 0 0 2.864-2.863v-1.097a2.867 2.867 0 0 0-2.864-2.863ZM7.669 6.054h1.22v1.22c0 .945 1.464.945 1.464 0v-1.22h1.221c.945 0 .945-1.465 0-1.465h-1.22V3.37c0-.945-1.465-.945-1.465 0v1.22h-1.22c-.945 0-.945 1.465 0 1.465ZM5.814 18.552h1.22v1.22c0 .945 1.465.945 1.465 0v-1.22h1.22c.945 0 .945-1.465 0-1.465H8.5v-1.22a.732.732 0 1 0-1.464 0v1.22H5.814c-.945 0-.945 1.465 0 1.465Zm34.174-3.418h1.22v1.22c0 .946 1.465.946 1.465 0v-1.22h1.22c.945 0 .945-1.464 0-1.464h-1.22v-1.22c0-.945-1.465-.945-1.465 0v1.22h-1.22c-.945 0-.945 1.464 0 1.464Zm-23.402 8.465c-3.053 1.373-5.106 4.435-5.106 7.801v3.205c0 .945 1.464.945 1.464 0V31.4a7.07 7.07 0 0 1 4.06-6.38l1.422-.665c.496 3.182 3.255 5.624 6.574 5.624 3.318 0 6.077-2.442 6.573-5.624l1.422.665a7.069 7.069 0 0 1 4.06 6.38v3.205c0 .945 1.465.945 1.465 0V31.4c0-3.337-2.028-6.408-5.058-7.779 2.118-.745 3.133-2.303 3.19-2.39a.732.732 0 0 0-.118-.927c-1.254-1.176-1.248-4.148-1.244-6.114v-4.144C35.29 4.506 30.783 0 25.244 0H25a10.06 10.06 0 0 0-4.741 1.19c-.832.447-.14 1.737.694 1.29A8.578 8.578 0 0 1 25 1.464h.244c4.732 0 8.582 3.85 8.582 8.582v4.14c-.005 2.125-.01 4.959 1.254 6.674-.56.607-1.834 1.667-3.912 1.689l-1.908-.893a2.3 2.3 0 0 1-1.31-1.865 6.635 6.635 0 0 0 3.678-5.933v-3.812c0-1.068-.26-2.13-.753-3.071-.291-.556-1.247-.518-1.48.071-1.863 4.724-10.06 3.85-10.17 3.837l-.043-.002a.732.732 0 0 0-.811.728v2.249c0 2.595 1.5 4.845 3.678 5.933a2.3 2.3 0 0 1-1.31 1.865l-1.893.886c-2.105-.074-3.231-1.074-3.707-1.648 1.289-1.711 1.284-4.569 1.28-6.707l-.001-4.14c0-2.039.73-4.016 2.056-5.568.614-.718-.5-1.67-1.113-.952a10.043 10.043 0 0 0-2.408 6.52v4.143c.005 1.966.01 4.938-1.243 6.114a.733.733 0 0 0-.15.872c.046.087.89 1.658 3.026 2.423Zm3.25-9.741v-1.46c.28.014.625.025 1.02.025.854 0 1.94-.053 3.085-.242 2.818-.466 4.893-1.587 6.096-3.272.083.37.127.749.127 1.137v3.812a5.17 5.17 0 0 1-5.165 5.164 5.17 5.17 0 0 1-5.164-5.164Zm1.524 9.125a3.77 3.77 0 0 0 2.092-2.68 6.613 6.613 0 0 0 3.095 0c.23 1.16 1 2.169 2.093 2.68l1.533.717A5.194 5.194 0 0 1 25 28.515a5.194 5.194 0 0 1-5.174-4.815l1.534-.717Z"/><path d="M16.161 32.173v7.323c0 .944 1.465.944 1.465 0v-7.323c0-.945-1.465-.945-1.465 0Zm5.404 1.074v4.1c0 .945 1.465.945 1.465 0v-4.1c0-.945-1.465-.945-1.465 0Zm5.405 1.073v5.176c0 .944 1.465.944 1.465 0V34.32c0-.945-1.465-.945-1.465 0Zm5.405-2.147v4.1c0 .945 1.465.945 1.465 0v-4.1c0-.945-1.465-.945-1.465 0ZM7.947 40.498c.288.907 1.682.455 1.396-.443L1.434 15.157c-.286-.9-1.682-.457-1.396.443l7.91 24.898Zm33.186.477a.74.74 0 0 0 .92-.477L49.96 15.6c.287-.9-1.11-1.343-1.395-.443l-7.91 24.898a.732.732 0 0 0 .477.92Z"/></g><defs><clipPath id="a"><path fill="#fff" d="M0 0h50v50H0z"/></clipPath></defs></svg>