<svg width="50" height="50" viewBox="0 0 50 50" fill="none" xmlns="http://www.w3.org/2000/svg"><g clip-path="url(#a)" fill="#fff"><path d="M6.46 45.042v-8.35c0-.943-1.464-.95-1.464 0v8.35c0 .943 1.465.95 1.465 0Zm4.642 0v-8.35c0-.943-1.465-.95-1.465 0v8.35c0 .943 1.465.95 1.465 0ZM4.399 26.15c-.943 0-.944 1.464 0 1.464.943 0 .944-1.465 0-1.465Zm3.651 0c-.943 0-.945 1.464 0 1.464.942 0 .943-1.465 0-1.465Zm3.649 0c-.943 0-.944 1.464 0 1.464.942 0 .944-1.465 0-1.465Zm10.029-.99 2.175-2.175c.667-.666-.368-1.703-1.036-1.035l-2.693 2.693a.732.732 0 0 0 0 1.036l2.762 2.762c.667.666 1.704-.368 1.037-1.036l-2.245-2.244Zm12.332-3.21c-.667-.667-1.704.368-1.036 1.035l2.244 2.245-2.175 2.175c-.666.667.368 1.703 1.036 1.036l2.693-2.693a.732.732 0 0 0 0-1.036L34.06 21.95Zm-3.872-.195a.732.732 0 0 0-.98.334l-2.734 5.567c-.416.846.896 1.497 1.314.646l2.735-5.567a.732.732 0 0 0-.335-.98ZM40.907 5.523a3.574 3.574 0 0 0-3.57 3.57 3.574 3.574 0 0 0 3.57 3.57 3.574 3.574 0 0 0 3.57-3.57 3.574 3.574 0 0 0-3.57-3.57Zm0 5.675a2.108 2.108 0 0 1-2.105-2.105c0-1.161.945-2.106 2.105-2.106 1.161 0 2.106.945 2.106 2.106 0 1.16-.945 2.105-2.105 2.105Z"/><path d="M49.44 11.07a.733.733 0 0 0 .56-.712V7.827c0-.943-1.465-.95-1.465 0v1.955l-1.913.464a.732.732 0 0 0-.526.49 5.418 5.418 0 0 1-.358.861.733.733 0 0 0 .025.72l1.025 1.682-.975.975-1.682-1.026a.732.732 0 0 0-.719-.024 5.401 5.401 0 0 1-.86.357.732.732 0 0 0-.492.526l-.463 1.914h-1.38l-.463-1.914a.732.732 0 0 0-.49-.526 5.428 5.428 0 0 1-.861-.357.732.732 0 0 0-.72.024l-1.682 1.026-.975-.975 1.026-1.683a.732.732 0 0 0 .024-.719 5.428 5.428 0 0 1-.358-.86.731.731 0 0 0-.525-.49l-1.914-.465V8.403l1.914-.463a.733.733 0 0 0 .526-.491c.092-.292.212-.582.357-.861a.732.732 0 0 0-.024-.72l-1.026-1.681.975-.975 1.683 1.025a.732.732 0 0 0 .719.025 5.46 5.46 0 0 1 .86-.358.731.731 0 0 0 .49-.526l.465-1.913h1.379l.463 1.913c.061.25.247.449.491.526.292.093.582.213.861.358.227.118.5.109.72-.025l1.681-1.025.975.975-1.025 1.682a.732.732 0 0 0-.025.719c.145.28.266.569.358.86.284.9 1.683.463 1.397-.442a6.875 6.875 0 0 0-.272-.714l1.118-1.835a.733.733 0 0 0-.108-.899l-1.789-1.79a.732.732 0 0 0-.9-.107l-1.834 1.118a7.165 7.165 0 0 0-.317-.132L42.884.56a.731.731 0 0 0-.711-.56h-2.531a.732.732 0 0 0-.712.56l-.506 2.087a6.564 6.564 0 0 0-.318.132l-1.834-1.118a.732.732 0 0 0-.9.107l-1.789 1.79a.733.733 0 0 0-.108.9l1.119 1.834a6.82 6.82 0 0 0-.132.317l-2.087.507a.733.733 0 0 0-.56.711v2.531c0 .338.231.633.56.712l2.087.506c.041.107.085.213.132.318l-.29.475H11.299a4.308 4.308 0 0 0-4.303 4.303v1.177H2.76A2.762 2.762 0 0 0 0 20.609v20.993c0 .942 1.465.949 1.465 0V30.784h13.168V47.24c0 .714-.58 1.294-1.294 1.294H2.758c-.714 0-1.294-.58-1.294-1.294v-1.733c0-.943-1.465-.95-1.465 0v1.733A2.762 2.762 0 0 0 2.76 50h10.578a2.762 2.762 0 0 0 2.76-2.76v-4.119h7.508v5.39h-5.44c-.943 0-.95 1.465 0 1.465H38.83c.943 0 .949-1.465 0-1.465h-5.44v-5.39h12.307A4.308 4.308 0 0 0 50 38.818V16.672c0-1.359-.622-2.61-1.706-3.431a.73.73 0 0 0-.338-.141l-.735-1.206c.046-.105.09-.212.132-.318l2.087-.506ZM25.07 48.51v-5.285h6.855v5.286h-6.854ZM2.76 19.315h10.579c.713 0 1.294.58 1.294 1.294v2.372H1.465v-2.372c0-.714.58-1.294 1.294-1.294ZM1.464 29.319v-4.874h13.168v4.874H1.465Zm47.07 5.275H42.87c-.943 0-.949 1.465 0 1.465h5.664v2.759a2.841 2.841 0 0 1-2.838 2.838h-29.6V36.06h22.575c.943 0 .949-1.465 0-1.465H16.098V20.608a2.762 2.762 0 0 0-2.76-2.759H8.462v-1.177a2.841 2.841 0 0 1 2.838-2.838h22.124a.732.732 0 0 0 .16.793l1.79 1.79a.73.73 0 0 0 .899.107l1.834-1.118c.105.047.211.09.318.132l.506 2.087c.08.329.374.56.712.56h2.531a.733.733 0 0 0 .712-.56l.506-2.087c.107-.041.212-.085.317-.132l1.835 1.118c.289.176.66.132.899-.107l1.492-1.492c.387.492.601 1.1.601 1.747v17.922Z"/></g><defs><clipPath id="a"><path fill="#fff" d="M0 0h50v50H0z"/></clipPath></defs></svg>