<svg width="16" height="10" viewBox="0 0 16 10" fill="none" xmlns="http://www.w3.org/2000/svg"><path d="M12.947 5.643c-.243-.306-.172-.442 0-.716.003-.003 2.006-2.77 2.21-3.708h.002c.103-.343 0-.594-.496-.594h-1.64c-.418 0-.611.216-.713.457 0 0-.836 1.998-2.017 3.294-.381.374-.557.495-.766.495-.103 0-.261-.12-.261-.462v-3.19c0-.41-.118-.594-.463-.594H6.224c-.261 0-.417.191-.417.37 0 .388.59.477.652 1.572V4.94c0 .52-.095.615-.304.615-.557 0-1.91-2.007-2.712-4.303-.161-.445-.32-.626-.74-.626h-1.64C.595.626.5.842.5 1.083c0 .426.557 2.545 2.592 5.345C4.45 8.34 6.358 9.376 8.096 9.376c1.044 0 1.171-.23 1.171-.627 0-1.826-.094-1.998.429-1.998.243 0 .66.12 1.635 1.041 1.114 1.094 1.297 1.584 1.92 1.584h1.642c.467 0 .704-.23.568-.684-.312-.953-2.42-2.917-2.514-3.049Z" fill="#fff"/></svg>