<svg width="16" height="16" viewBox="0 0 16 16" fill="none" xmlns="http://www.w3.org/2000/svg"><path d="m11.443 9.444-.006.046c-1.374-.684-1.518-.776-1.696-.51-.123.185-.482.603-.59.727-.11.122-.218.131-.404.047-.187-.094-.789-.29-1.502-.928-.555-.497-.927-1.107-1.037-1.294-.184-.316.2-.36.548-1.021.063-.131.031-.234-.016-.327-.047-.094-.42-1.013-.576-1.38-.15-.364-.305-.318-.42-.318-.36-.03-.624-.026-.855.215-1.01 1.109-.755 2.252.108 3.468 1.696 2.22 2.6 2.63 4.253 3.196.446.142.853.122 1.175.076.359-.057 1.104-.45 1.26-.891.159-.44.159-.806.112-.89-.044-.085-.167-.132-.354-.216Z" fill="#fff"/><path d="M13.325 2.656C8.519-1.99.565 1.38.563 7.934a7.4 7.4 0 0 0 .996 3.715L.5 15.5l3.96-1.032c4.94 2.668 11.037-.874 11.04-6.53a7.372 7.372 0 0 0-2.184-5.257l.009-.025Zm.926 5.26c-.003 4.772-5.24 7.75-9.382 5.316l-.225-.134-2.344.609.628-2.278-.149-.235C.201 7.092 3.163 1.73 8.045 1.73c1.658 0 3.216.647 4.388 1.82a6.117 6.117 0 0 1 1.818 4.368Z" fill="#fff"/></svg>