<svg width="50" height="50" viewBox="0 0 50 50" fill="none" xmlns="http://www.w3.org/2000/svg">
<g clip-path="url(#clip0_918_982)">
<path d="M27.5989 5.46631L23.9473 0H18.2646C18.0596 0 17.8594 0.0429687 17.6758 0.124023L13.9316 7.36924L6.54199 10.8087C6.45117 11.002 6.40234 11.2149 6.40234 11.4337V45.4174C6.40234 46.226 7.05859 46.8822 7.86719 46.8822H23.9473L27.5989 42.5785V5.46631Z" fill="#E4EBF2"/>
<path d="M17.6729 0.125V9.34482C17.6729 10.1534 17.0166 10.8097 16.208 10.8097H6.53906C6.61523 10.6495 6.71973 10.5021 6.85059 10.3771L17.248 0.408203C17.3721 0.288086 17.5166 0.193359 17.6729 0.125V0.125Z" fill="#CCD6E7"/>
<path d="M41.4902 1.46484V45.4174C41.4902 46.226 40.834 46.8822 40.0254 46.8822H23.9453V0H40.0254C40.834 0 41.4902 0.65625 41.4902 1.46484Z" fill="#E4EBF2"/>
<path d="M25.694 15.6211L23.9463 12.7461H20.6807C18.9912 12.7461 17.6172 14.1201 17.6172 15.8096V28.8272C17.6172 30.5167 18.9912 31.8907 20.6807 31.8907H23.9463L25.694 29.266V15.6211Z" fill="#FF80AA"/>
<path d="M49.998 15.8096V28.8272C49.998 30.5167 48.623 31.8907 46.9336 31.8907H23.9453V12.7461H46.9336C48.623 12.7461 49.998 14.1201 49.998 15.8096V15.8096Z" fill="#FF80AA"/>
<path d="M19.248 39.1935L10.9257 49.4572C10.3375 50.1816 9.2338 50.1772 8.64933 49.4572L0.327064 39.1935C-0.0284052 38.755 -0.100671 38.1505 0.142493 37.6407C0.385657 37.131 0.900306 36.8067 1.46476 36.8067H4.29679V26.6523C4.29679 25.8438 4.95206 25.1875 5.76163 25.1875H13.8134C14.623 25.1875 15.2782 25.8438 15.2782 26.6523V36.8067H18.1103C18.6747 36.8067 19.1894 37.131 19.4325 37.6407C19.6757 38.1505 19.6034 38.755 19.248 39.1935Z" fill="#E32966"/>
<path d="M43.3836 21.2424H41.4453V19.3633H43.6352C44.1745 19.3633 44.6117 18.926 44.6117 18.3867C44.6117 17.8475 44.1745 17.4102 43.6352 17.4102H40.4688C39.9294 17.4102 39.4922 17.8475 39.4922 18.3867V26.1993C39.4922 26.7387 39.9294 27.1759 40.4688 27.1759C41.0081 27.1759 41.4453 26.7386 41.4453 26.1993V23.1956H43.3836C43.9229 23.1956 44.3602 22.7583 44.3602 22.219C44.3602 21.6798 43.9229 21.2424 43.3836 21.2424V21.2424Z" fill="#E4EBF2"/>
<path d="M33.9756 17.4105C31.6335 17.4105 31.4419 17.3264 31.0718 17.6973C30.8886 17.8809 30.7859 18.1297 30.7864 18.389V18.395V18.3953C30.7864 26.7154 30.7778 26.1258 30.8056 26.2647C30.8403 26.7852 31.271 27.1763 31.7789 27.1763H31.7826C31.8495 27.176 33.4271 27.1699 34.0575 27.1588C36.404 27.1179 38.1072 25.0717 38.1072 22.2934C38.1071 19.3728 36.4468 17.4105 33.9756 17.4105ZM34.0232 25.206C33.7312 25.211 33.2157 25.2151 32.752 25.2181C32.7491 24.2934 32.7452 22.9515 32.7452 22.2847C32.7452 21.7235 32.743 20.3239 32.7413 19.3637H33.9757C35.5818 19.3637 36.1541 20.8771 36.1541 22.2934C36.154 23.7245 35.4952 25.1803 34.0232 25.206Z" fill="#E4EBF2"/>
<path d="M24.2876 18.8161L23.9453 17.4102C23.4053 17.4102 22.9688 17.8506 22.9688 18.3867V26.1993C22.9688 26.7384 23.4063 27.1759 23.9453 27.1759L24.2876 25.6253V18.8161Z" fill="#E4EBF2"/>
<path d="M26.1211 17.4102H23.9453V27.1759C24.4854 27.1759 24.9219 26.7384 24.9219 26.1993V23.7765C25.3613 23.7745 25.8438 23.7726 26.1211 23.7726C27.8984 23.7726 29.3457 22.3458 29.3457 20.5909C29.3457 18.837 27.8984 17.4102 26.1211 17.4102V17.4102ZM26.1211 21.8194C25.8447 21.8194 25.3682 21.8214 24.9316 21.8233C24.9258 20.5431 24.9297 21.0421 24.9248 19.3634H26.1211C26.8096 19.3634 27.3926 19.9259 27.3926 20.5909C27.3926 21.2569 26.8096 21.8194 26.1211 21.8194Z" fill="#E4EBF2"/>
</g>
<defs>
<clipPath id="clip0_918_982">
<rect width="50" height="50" fill="white"/>
</clipPath>
</defs>
</svg>
