<svg width="50" height="50" viewBox="0 0 50 50" fill="none" xmlns="http://www.w3.org/2000/svg">
<g clip-path="url(#clip0_909_8352)">
<path d="M21.2359 5.97419C20.5699 6.64024 21.6044 7.67249 22.2693 7.00759C22.9979 6.27861 23.9661 5.8773 24.9953 5.8773C26.0241 5.8773 26.9923 6.27861 27.7213 7.00759C27.8639 7.15026 28.0508 7.2216 28.2378 7.2216C28.871 7.2216 29.2017 6.42166 28.7543 5.97419C27.7495 4.96941 26.4143 4.41589 24.9949 4.41589C23.5758 4.41589 22.2407 4.96941 21.2359 5.97419Z" fill="white"/>
<path d="M19.9188 3.56597C21.2761 2.20871 23.0789 1.46141 24.9954 1.46141C26.9119 1.46141 28.7147 2.20871 30.0716 3.56597C30.2143 3.70864 30.4012 3.77998 30.5881 3.77998C31.2214 3.77998 31.5525 2.98004 31.105 2.53257C29.472 0.899504 27.3022 0 24.9954 0C22.6887 0 20.5189 0.899504 18.8858 2.53257C18.2198 3.19862 19.2543 4.23087 19.9188 3.56597Z" fill="white"/>
<path d="M35.0749 8.15924H14.9158C12.5069 8.15924 10.5469 10.1192 10.5469 12.5282V15.8794C10.5469 16.8262 12.0083 16.8197 12.0083 15.8794V12.5282C12.0083 10.9249 13.3125 9.62065 14.9158 9.62065H35.0749C36.6779 9.62065 37.9825 10.9249 37.9825 12.5282V35.5518C37.9825 42.7127 32.1563 48.5389 24.9954 48.5389C17.8341 48.5389 12.0083 42.7127 12.0083 35.5518V19.971C12.0083 19.0242 10.5469 19.0307 10.5469 19.971V35.5518C10.5469 43.5184 17.0284 49.9999 24.9954 49.9999C32.9624 49.9999 39.4435 43.5184 39.4435 35.5518V12.5282C39.4435 10.1192 37.4839 8.15924 35.0749 8.15924Z" fill="white"/>
<path d="M29.0577 14.1841H20.9332C20.5296 14.1841 20.2027 14.5114 20.2027 14.915V19.5602H15.5572C15.1536 19.5602 14.8267 19.8875 14.8267 20.2907V28.4152C14.8267 28.8188 15.1536 29.1461 15.5572 29.1461H20.2027V33.7913C20.2027 34.1949 20.5296 34.5218 20.9332 34.5218H29.0577C29.461 34.5218 29.7883 34.1949 29.7883 33.7913V28.4152C29.7883 27.4684 28.3268 27.4749 28.3268 28.4152V33.0608H21.6637V28.4152C21.6637 28.012 21.3368 27.6847 20.9332 27.6847H16.2877V21.0216H20.9332C21.3368 21.0216 21.6637 20.6943 21.6637 20.2907V15.6456H28.3268V20.2907C28.3268 20.6943 28.6541 21.0216 29.0577 21.0216H33.7029V27.6847H32.594C31.6472 27.6847 31.6536 29.1461 32.594 29.1461H34.4338C34.837 29.1461 35.1643 28.8188 35.1643 28.4152V20.2907C35.1643 19.8875 34.837 19.5602 34.4338 19.5602H29.7883V14.915C29.7883 14.5114 29.461 14.1841 29.0577 14.1841Z" fill="white"/>
</g>
<defs>
<clipPath id="clip0_909_8352">
<rect width="50" height="50" fill="white"/>
</clipPath>
</defs>
</svg>
