<svg width="30" height="26" viewBox="0 0 30 26" fill="none" xmlns="http://www.w3.org/2000/svg">
<path d="M10.7929 1.00509C10.9482 1.0176 11.1074 1.05583 11.2665 1.11838C11.4226 1.17989 11.5793 1.26537 11.7329 1.37414C11.8858 1.48221 12.0345 1.61287 12.1794 1.76751C12.3236 1.9211 12.4644 2.09937 12.602 2.3037C12.7403 2.50941 12.8758 2.74224 13.0009 2.99209C13.1218 3.2336 13.233 3.49006 13.3276 3.75172C13.4221 4.01339 13.501 4.28096 13.5645 4.55027C13.6309 4.83105 13.682 5.11704 13.7185 5.40338C13.7543 5.68208 13.7758 5.95973 13.7845 6.24155C13.7932 6.52372 13.7887 6.80901 13.7717 7.10161C13.7536 7.41053 13.722 7.7278 13.6733 8.04228C13.6288 8.33036 13.5701 8.61809 13.4944 8.89644C13.4151 9.18868 13.3168 9.47189 13.1882 9.75093C13.0603 10.0293 12.9026 10.3021 12.7041 10.5738C12.5085 10.8417 12.2736 11.1079 12.0258 11.3494C11.7715 11.5972 11.5021 11.8206 11.2457 11.9951C10.9903 12.1688 10.7477 12.2946 10.5187 12.3874C10.2894 12.4802 10.0732 12.5407 9.87169 12.5834C9.67014 12.6261 9.48179 12.6515 9.29901 12.6581C9.11588 12.6651 8.93969 12.6525 8.76351 12.6202C8.58803 12.5879 8.41219 12.5351 8.23671 12.4645C8.0633 12.3947 7.88851 12.3061 7.71303 12.2018C7.53754 12.0976 7.36136 11.977 7.18969 11.8248C7.01733 11.6723 6.84949 11.4884 6.69242 11.2591C6.53049 11.0224 6.37933 10.7364 6.25423 10.4181C6.13782 10.1221 6.0433 9.7968 5.98318 9.45591C5.9241 9.12231 5.89804 8.77203 5.897 8.41863C5.89596 8.02908 5.92619 7.63606 5.97762 7.25798C6.02662 6.89693 6.09473 6.54874 6.19168 6.20367C6.28898 5.85791 6.41547 5.51493 6.58088 5.16569C6.7303 4.84982 6.91169 4.52908 7.10421 4.2205C7.33564 3.84972 7.58584 3.49353 7.81832 3.18321C8.03029 2.9 8.22698 2.65606 8.41219 2.44408C8.59845 2.23072 8.77359 2.04898 8.94108 1.89191C9.10962 1.7338 9.27156 1.60036 9.42793 1.48742C9.58569 1.37414 9.73825 1.28205 9.88732 1.20838C10.0381 1.13367 10.1865 1.07703 10.3349 1.04193C10.4857 1.00683 10.6372 0.993279 10.7926 1.00579L10.7929 1.00509ZM11.2026 1.28274C11.0598 1.22645 10.9173 1.1924 10.7794 1.18128C10.6424 1.17016 10.5086 1.18197 10.3756 1.21325C10.2404 1.24487 10.1049 1.29699 9.96586 1.3658C9.82512 1.43564 9.68056 1.52252 9.53148 1.6299C9.38136 1.73797 9.22534 1.86689 9.06236 2.01979C8.89834 2.17338 8.72703 2.3513 8.54528 2.55945C8.36215 2.769 8.16825 3.00981 7.95975 3.28851C7.73179 3.59291 7.48541 3.94389 7.25468 4.31328C7.06494 4.61734 6.88702 4.93217 6.74107 5.2404C6.58018 5.58061 6.45682 5.9142 6.3623 6.25093C6.26743 6.58835 6.20071 6.9289 6.15311 7.28092C6.10272 7.65239 6.07318 8.03742 6.07388 8.41793C6.07457 8.75952 6.10029 9.09937 6.15797 9.42498C6.216 9.75406 6.30705 10.0679 6.41929 10.3535C6.53952 10.6596 6.68408 10.9335 6.83872 11.1593C6.9871 11.3765 7.14487 11.5496 7.3068 11.6928C7.46908 11.8363 7.63658 11.9509 7.80372 12.0507C7.96983 12.1497 8.13663 12.2338 8.30308 12.3012C8.46779 12.3676 8.63216 12.4169 8.79583 12.4472C8.95915 12.4774 9.12317 12.4885 9.2931 12.4823C9.46372 12.476 9.64234 12.4517 9.8352 12.4107C10.0277 12.3697 10.2341 12.3123 10.4527 12.2237C10.6716 12.1351 10.9034 12.0149 11.1467 11.8495C11.3948 11.6806 11.6561 11.4638 11.9032 11.2229C12.145 10.987 12.3733 10.7288 12.562 10.4703C12.7528 10.2089 12.9047 9.94623 13.028 9.67761C13.151 9.41004 13.2462 9.13517 13.3237 8.85022C13.3974 8.57847 13.4551 8.29735 13.4985 8.01553C13.5465 7.70417 13.5778 7.39281 13.5951 7.09222C13.6118 6.80241 13.6163 6.52198 13.608 6.24641C13.5996 5.97015 13.5781 5.69806 13.5434 5.42562C13.5079 5.14832 13.4579 4.86858 13.3922 4.59024C13.3296 4.32614 13.2528 4.06551 13.1615 3.81184C13.0687 3.55504 12.9606 3.30484 12.8431 3.07062C12.7219 2.82842 12.5902 2.6022 12.4553 2.40169C12.3236 2.20605 12.1888 2.03543 12.0508 1.88843C11.9136 1.74179 11.7735 1.61878 11.6314 1.518C11.4907 1.41827 11.3465 1.33973 11.2026 1.28309V1.28274Z" fill="#FEFEFE"/>
<path d="M6.95459 11.42C7.06231 11.3706 7.17039 11.3209 7.28819 11.2709C7.40391 11.2219 7.52518 11.1746 7.65688 11.1305C7.78824 11.0864 7.93071 11.0457 8.08431 11.0082C8.23686 10.971 8.40088 10.9366 8.57741 10.905C8.75011 10.8741 8.93498 10.8452 9.12333 10.8202C9.31584 10.7945 9.51357 10.7719 9.70712 10.7538C9.89686 10.7361 10.08 10.7226 10.253 10.7135C10.4285 10.7045 10.5978 10.6993 10.7569 10.6986C10.9157 10.6979 11.062 10.7014 11.1979 10.71C11.3376 10.7187 11.4672 10.7323 11.5892 10.751C11.8321 10.7886 12.0513 10.8483 12.2703 10.9081L12.2241 11.078C12.0128 11.0204 11.8011 10.9627 11.5621 10.9258C11.4432 10.9074 11.3188 10.8946 11.1875 10.8862C11.0523 10.8779 10.9095 10.8744 10.7576 10.8748C10.6044 10.8754 10.4379 10.8803 10.2621 10.8897C10.088 10.8987 9.90694 10.9119 9.72311 10.9293C9.53476 10.947 9.33947 10.9693 9.14696 10.995C8.96139 11.0197 8.7793 11.0482 8.60868 11.0787C8.43632 11.1097 8.27578 11.1434 8.12601 11.1799C7.97797 11.216 7.84036 11.2553 7.71283 11.298C7.5853 11.3404 7.46819 11.3863 7.35665 11.4335C7.24684 11.4801 7.13737 11.5301 7.02791 11.5805L6.95459 11.4203V11.42Z" fill="#FEFEFE"/>
<path d="M11.6431 11.68L11.6397 11.6807C11.2741 11.7586 10.9082 11.8364 10.4808 11.8944C10.2566 11.9247 10.0175 11.9493 9.77326 11.9646C9.55086 11.9789 9.32186 11.9855 9.09355 11.9824C8.87914 11.9796 8.66995 11.9681 8.47674 11.9521C8.23384 11.9323 8.01005 11.9052 7.82796 11.8788C7.50131 11.8319 7.31088 11.7874 7.12115 11.7436L7.11768 11.7426L7.15903 11.5713L7.16042 11.5716C7.34668 11.6147 7.53363 11.6581 7.85263 11.704C8.03021 11.7297 8.24983 11.7561 8.49029 11.7759C8.68524 11.7919 8.89131 11.8034 9.09564 11.8062C9.3163 11.8093 9.54113 11.8024 9.76214 11.7885C10.0036 11.7732 10.2386 11.7492 10.4571 11.7196C10.8741 11.6634 11.2383 11.5855 11.6028 11.508L11.6063 11.5073L11.6428 11.68H11.6431Z" fill="#FEFEFE"/>
<path d="M18.0941 11.0724C18.2251 11.3104 18.3755 11.5241 18.542 11.7125C18.7133 11.9064 18.902 12.0742 19.1042 12.216C19.3033 12.3557 19.5174 12.4704 19.7325 12.5649C19.9469 12.659 20.1627 12.7331 20.366 12.7908C20.5682 12.8484 20.7569 12.8898 20.9602 12.9131C21.1642 12.9364 21.3835 12.9416 21.6458 12.9259C21.9329 12.9092 22.2724 12.8679 22.6272 12.7914C22.9236 12.7279 23.2301 12.6399 23.5251 12.5221C23.8486 12.3929 24.1607 12.2271 24.4529 12.0304C24.7462 11.8334 25.0197 11.6047 25.2657 11.3511C25.5017 11.1075 25.7126 10.8406 25.8957 10.5643C26.0938 10.2658 26.2596 9.9569 26.3899 9.65597C26.5153 9.3665 26.6092 9.0826 26.6783 8.78722C26.7475 8.49185 26.7919 8.18535 26.819 7.85002C26.8475 7.498 26.8569 7.11541 26.8413 6.72204C26.827 6.36064 26.7919 5.98882 26.7311 5.62151C26.6682 5.23926 26.5768 4.86014 26.4528 4.48415C26.3287 4.10885 26.1716 3.73738 25.9774 3.37042C25.7845 3.00624 25.5545 2.64554 25.3119 2.3175C25.0635 1.98181 24.8018 1.68019 24.5527 1.44423C24.3087 1.21315 24.0776 1.04565 23.8615 0.922639C23.6471 0.800667 23.4469 0.722827 23.2645 0.67105C23.0831 0.61962 22.9205 0.593558 22.7665 0.589388C22.6126 0.585566 22.4645 0.60294 22.313 0.638038C22.1615 0.673135 22.0065 0.725607 21.8349 0.812134C21.6615 0.899357 21.4693 1.02202 21.2452 1.19647C21.0075 1.38134 20.735 1.62285 20.4556 1.90293C20.2016 2.15765 19.941 2.44538 19.6946 2.75222C19.4389 3.07087 19.1981 3.41003 18.9791 3.75684C18.7543 4.11302 18.5514 4.47755 18.3783 4.83582C18.2077 5.18853 18.0656 5.53568 17.9491 5.88978C17.8327 6.24353 17.7424 6.60389 17.6753 6.98371C17.6072 7.36839 17.5627 7.77218 17.5454 8.16902C17.528 8.55892 17.536 8.94255 17.5718 9.29561C17.6076 9.64971 17.6722 9.97358 17.7608 10.2696C17.8491 10.564 17.9617 10.8309 18.0944 11.0724H18.0941ZM18.4103 11.8289C18.2344 11.6301 18.0763 11.406 17.9394 11.1572C17.8008 10.9052 17.6833 10.6269 17.5912 10.3197C17.4998 10.0142 17.4331 9.6796 17.3959 9.31264C17.3594 8.95124 17.3511 8.55892 17.3688 8.16138C17.3869 7.75515 17.4321 7.34371 17.5012 6.95347C17.57 6.56532 17.6625 6.19697 17.7813 5.83522C17.9001 5.47417 18.0451 5.11972 18.2195 4.75937C18.3953 4.39519 18.6014 4.0251 18.8301 3.66336C19.0528 3.31065 19.2978 2.96558 19.5574 2.64206C19.8076 2.33035 20.0724 2.03811 20.3305 1.77922C20.6165 1.49219 20.8949 1.24546 21.1364 1.05747C21.3692 0.876422 21.5708 0.747847 21.7549 0.655413C21.9409 0.561588 22.109 0.504598 22.2734 0.466721C22.4381 0.428496 22.6001 0.409731 22.7703 0.413901C22.9406 0.418419 23.1178 0.446219 23.3128 0.501471C23.5063 0.556723 23.7194 0.639428 23.9484 0.76974C24.1756 0.899009 24.4189 1.07519 24.6739 1.3167C24.93 1.55926 25.1987 1.86888 25.453 2.21255C25.7011 2.54824 25.9364 2.91693 26.1331 3.28806C26.3329 3.6651 26.4938 4.04526 26.6203 4.4289C26.7468 4.81184 26.8399 5.19965 26.9049 5.59336C26.9667 5.96797 27.0025 6.34674 27.0171 6.71509C27.0331 7.11784 27.0237 7.50739 26.9949 7.86357C26.9671 8.20759 26.9212 8.52278 26.85 8.82684C26.7787 9.1309 26.6818 9.42453 26.5511 9.72547C26.4159 10.0368 26.2457 10.3551 26.0424 10.6616C25.8533 10.9466 25.6358 11.2221 25.3919 11.4737C25.1378 11.7357 24.8546 11.972 24.5506 12.1764C24.2486 12.3797 23.9254 12.5513 23.5897 12.6851C23.2832 12.8074 22.9674 12.8981 22.6637 12.9635C22.3002 13.0416 21.9513 13.084 21.6552 13.1014C21.3821 13.1174 21.1531 13.1122 20.9401 13.0879C20.7257 13.0635 20.5279 13.0201 20.3173 12.96C20.1082 12.9006 19.8851 12.8238 19.6613 12.7258C19.4375 12.6278 19.2137 12.5072 19.0031 12.3595C18.7897 12.2097 18.5903 12.0325 18.4099 11.8285L18.4103 11.8289Z" fill="#FEFEFE"/>
<path d="M18.2891 11.5211C18.4781 11.412 18.6671 11.3028 18.868 11.1982C19.072 11.0923 19.2919 10.9884 19.5432 10.89C19.8003 10.7892 20.0898 10.694 20.405 10.6096C20.7024 10.5297 21.0242 10.4588 21.3648 10.4011C21.6977 10.3448 22.0497 10.3007 22.4062 10.2676C22.7916 10.2322 23.1815 10.2096 23.5582 10.1988C23.8692 10.1898 24.1722 10.1888 24.4502 10.1915C24.8193 10.1957 25.141 10.2075 25.3794 10.2193C25.8027 10.2402 25.9681 10.2607 26.1318 10.2809L26.1338 10.2812L26.1133 10.4563L26.1109 10.456C25.9472 10.4358 25.7822 10.4153 25.3711 10.3952C25.132 10.3834 24.8109 10.3715 24.4488 10.3674C24.1736 10.3643 23.873 10.3656 23.563 10.3747C23.1895 10.3854 22.8034 10.4077 22.4222 10.4428C22.0723 10.4751 21.7248 10.5185 21.3936 10.5748C21.0604 10.6315 20.7441 10.701 20.4505 10.7799C20.1416 10.8629 19.8584 10.9557 19.6075 11.054C19.3639 11.1496 19.1495 11.2507 18.9493 11.3546C18.7464 11.4603 18.5618 11.5669 18.3773 11.6736L18.2891 11.5211Z" fill="#FEFEFE"/>
<path d="M18.4863 11.6749L18.4915 11.676C19.3238 11.8542 20.1557 12.0325 20.9108 12.1107C21.2893 12.1499 21.6493 12.1642 21.9916 12.1618C22.3342 12.1593 22.6601 12.1399 22.9698 12.111C23.2766 12.0825 23.5709 12.0446 23.859 12.0019C24.1492 11.9588 24.4254 11.9119 24.7017 11.865L24.7305 12.0387C24.4494 12.0863 24.1683 12.134 23.8844 12.1763C23.5984 12.2187 23.302 12.257 22.9854 12.2862C22.6716 12.315 22.3404 12.3348 21.9919 12.3376C21.643 12.34 21.2764 12.3254 20.8924 12.2858C20.1255 12.2062 19.2901 12.0273 18.4551 11.8483L18.4502 11.8473L18.486 11.6746L18.4863 11.6749Z" fill="#FEFEFE"/>
<path d="M3.95775 13.0098L27.1234 14.8567L29.2595 13.2318L29.3665 13.3719L27.1762 15.0381L3.94385 13.1859L3.95775 13.0098Z" fill="#FEFEFE"/>
<path d="M27.2382 14.9456L27.2538 15.5255L27.0776 15.5294L27.062 14.9494L27.2382 14.9456Z" fill="#FEFEFE"/>
<path d="M4.08917 16.19L4.17779 19.0558L26.9417 22.3077L27.136 18.6159L4.08883 16.19H4.08917ZM4.00404 19.135L3.90674 15.9937C11.7115 16.8148 19.5167 17.6325 27.3208 18.4585C27.2485 19.8088 27.1777 21.1596 27.1075 22.5099C19.4072 21.4091 11.7067 20.3099 4.00612 19.2097L4.00369 19.1354L4.00404 19.135Z" fill="#FEFEFE"/>
<path d="M27.1632 18.4783L29.3663 16.0208C29.3044 17.2971 29.2412 18.5738 29.1807 19.8502C27.9607 21.7646 26.7486 23.6845 25.5327 25.6013L25.5098 24.6092L26.9508 22.3609L27.0992 22.4561L25.687 24.6596L25.6953 25.0154L29.007 19.7942L29.1661 16.5072L27.2942 18.5954L27.1628 18.4779L27.1632 18.4783Z" fill="#FEFEFE"/>
<path d="M25.6039 25.3962C17.7636 24.5244 8.55211 22.4769 0.619417 21.1196L0.599609 20.2505L25.6125 24.5477L25.583 24.7214L0.780656 20.4604L0.792471 20.9702L25.4854 25.2055L25.6233 25.2208L25.6039 25.3959V25.3962Z" fill="#FEFEFE"/>
<path d="M0.661133 20.2727L4.06279 19.0498L4.12222 19.2156L0.720555 20.4381L0.661133 20.2727Z" fill="#FEFEFE"/>
<path d="M4.80193 13.5873L4.95066 13.9702L4.77726 14.2336L4.94684 14.488L4.73904 14.8727L4.95449 15.1187L4.76684 15.567L4.91383 15.9308L26.9567 18.225L28.5965 16.3586L28.4909 15.9436L28.6528 15.5656L28.5229 15.2441L28.6504 14.709L28.5649 14.2409L28.7383 14.21L28.8308 14.7156L28.7077 15.2306L28.844 15.5673L28.6768 15.9575L28.7908 16.4048C28.2028 17.0723 27.6156 17.7409 27.0293 18.4098C19.6175 17.6314 12.2036 16.8586 4.79047 16.0955L4.57675 15.5659L4.74981 15.152L4.52637 14.8966L4.74182 14.4974L4.56668 14.2347L4.75398 13.9494L4.63791 13.6505L4.80228 13.5869L4.80193 13.5873Z" fill="#FEFEFE"/>
<path d="M28.6462 16.0134L27.0272 17.6198C26.9552 17.6678 26.884 17.7171 26.8128 17.7658L4.66357 15.6544L4.68025 15.4792L26.7659 17.5847L26.9146 17.4833L28.5218 15.8886L28.6462 16.0137V16.0134Z" fill="#FEFEFE"/>
<path d="M4.86036 15.0481L26.6353 17.0855L26.9255 17.0771L28.6904 15.5012L28.8079 15.6326L26.995 17.2516C21.1924 17.417 11.067 15.806 4.84473 15.2236L4.86071 15.0484L4.86036 15.0481Z" fill="#FEFEFE"/>
<path d="M4.64029 14.7969L26.6689 16.7092L26.9128 16.7022L28.5551 15.1732L28.6754 15.3021L26.9848 16.8763C21.0016 17.04 11.0006 15.5263 4.625 14.9731L4.64029 14.7972V14.7969Z" fill="#FEFEFE"/>
<path d="M4.85151 14.4053L26.3992 16.3328L26.9017 16.3183L28.6805 14.6482L28.8011 14.7764L26.9739 16.4923C20.7916 16.6612 11.3337 15.1614 4.83691 14.5804L4.8522 14.4053H4.85151Z" fill="#FEFEFE"/>
<path d="M4.86002 13.8726L26.4157 15.8158L26.8865 15.8022L28.591 14.1624L28.713 14.2892L26.9595 15.9763C20.8217 16.141 11.3068 14.6305 4.84473 14.0477L4.86002 13.8726Z" fill="#FEFEFE"/>
<path d="M4.679 14.1466L26.5717 16.1134L26.8956 16.104L28.2026 14.8982L28.3221 15.0278L26.9672 16.2778C20.977 16.4429 11.0375 14.8941 4.66406 14.3214L4.67935 14.1462L4.679 14.1466Z" fill="#FEFEFE"/>
<path d="M25.1478 25.9301C24.9403 25.9301 24.752 25.8589 24.6147 25.7442C24.4733 25.6257 24.3857 25.4606 24.3857 25.2775C24.3857 25.2476 24.3885 25.2174 24.3934 25.1864C24.3983 25.1559 24.4059 25.126 24.4153 25.0975L24.4393 25.0259L25.5544 25.2167L25.6395 25.1666L25.8008 24.8994L25.8671 25.0617C25.8814 25.0968 25.8925 25.1322 25.8994 25.1684C25.9064 25.2042 25.9102 25.2407 25.9102 25.2778C25.9102 25.461 25.8226 25.626 25.6812 25.7445C25.544 25.8592 25.3553 25.9304 25.1478 25.9304V25.9301ZM24.7277 25.6087C24.8344 25.698 24.9827 25.7532 25.1478 25.7532C25.3129 25.7532 25.4613 25.698 25.5679 25.6087C25.6597 25.5319 25.7201 25.4293 25.7316 25.3161L25.5877 25.4009L24.5654 25.2257C24.5633 25.2417 24.5623 25.2591 24.5623 25.2771C24.5623 25.4057 24.6255 25.5228 24.728 25.6087H24.7277Z" fill="#FEFEFE"/>
<path d="M12.0116 23.5631C11.8041 23.5631 11.6158 23.4918 11.4785 23.3772C11.3371 23.2587 11.2495 23.0936 11.2495 22.9105C11.2561 22.8795 11.2554 22.7989 11.2575 22.769L12.7726 23.0283L12.7299 23.1304C12.676 23.2597 12.5756 23.3702 12.4463 23.4467C12.3233 23.5196 12.1732 23.5627 12.0119 23.5627L12.0116 23.5631ZM11.5914 23.2416C11.6981 23.3309 11.8465 23.3862 12.0116 23.3862C12.1405 23.3862 12.2597 23.3521 12.3563 23.2948C12.4168 23.259 12.4685 23.2138 12.5085 23.1621L11.4319 22.9779C11.4497 23.0794 11.5077 23.1714 11.5918 23.2416H11.5914Z" fill="#FEFEFE"/>
<path d="M1.68199 21.776C1.47453 21.776 1.28584 21.7047 1.14892 21.5901C1.00749 21.4716 0.919922 21.3065 0.919922 21.1234C0.925134 21.0976 0.922354 21.0295 0.923049 21L2.43953 21.2596L2.39123 21.3638C2.33389 21.4879 2.23381 21.5928 2.10663 21.6658C1.98535 21.7353 1.83906 21.776 1.68233 21.776H1.68199ZM1.26221 21.4549C1.36889 21.5442 1.51727 21.5994 1.68199 21.5994C1.80743 21.5994 1.9235 21.5675 2.01871 21.5126C2.07605 21.4795 2.12609 21.4385 2.1657 21.3916L1.10653 21.2102C1.12807 21.3041 1.18367 21.3889 1.26256 21.4545L1.26221 21.4549Z" fill="#FEFEFE"/>
<path d="M6.52786 11.0698C6.66582 11.2867 6.8427 11.525 7.02791 11.752C7.22877 11.9983 7.439 12.2312 7.62075 12.4101C7.79172 12.5787 7.93593 12.6975 8.09161 12.7847C8.24624 12.8709 8.41686 12.9275 8.6417 12.9717C8.86826 13.0162 9.14765 13.0471 9.46944 13.0662C9.80686 13.086 10.1898 13.093 10.6065 13.0877C11.0175 13.0825 11.4651 13.0655 11.9002 13.0391C12.3283 13.0134 12.7432 12.9779 13.0973 12.9366C13.4504 12.8952 13.7416 12.8476 13.988 12.7861C14.2312 12.7256 14.4307 12.652 14.6041 12.5578C14.7761 12.4643 14.9234 12.35 15.0596 12.2089C15.1973 12.0664 15.3244 11.8951 15.4547 11.6891C15.5972 11.4642 15.7428 11.1991 15.8697 10.9051C15.977 10.6563 16.0712 10.387 16.139 10.1041C16.2133 9.79381 16.2571 9.46438 16.2787 9.12835C16.3002 8.79093 16.2995 8.44864 16.2856 8.11365C16.2714 7.77866 16.2436 7.45097 16.1887 7.11251C16.1341 6.77474 16.0518 6.42585 15.9291 6.04708C15.8075 5.67143 15.6448 5.2659 15.4627 4.87323C15.2782 4.475 15.0732 4.08997 14.8696 3.76262C14.668 3.43841 14.4682 3.17083 14.2687 2.93766C14.0679 2.70275 13.8677 2.50259 13.6669 2.3146C13.466 2.1266 13.2634 1.94972 13.0581 1.79231C12.8555 1.63698 12.6518 1.5018 12.4482 1.39581C12.2449 1.29052 12.0402 1.21338 11.8422 1.15708C11.6423 1.10044 11.4502 1.0643 11.2733 1.04171C11.0957 1.01878 10.9331 1.00835 10.7844 1.01078C10.6388 1.01287 10.5053 1.02746 10.3834 1.05387C10.2631 1.07994 10.1544 1.11781 10.0505 1.16473C9.94412 1.21268 9.84265 1.26967 9.7391 1.33291C9.6338 1.39685 9.52643 1.4674 9.41175 1.55253C9.29777 1.63698 9.17615 1.73706 9.04201 1.86076C8.91101 1.98169 8.76888 2.12486 8.62293 2.28124C8.4669 2.44804 8.30845 2.62769 8.15624 2.80874C8.00682 2.98666 7.86017 3.16944 7.71492 3.36578C7.5714 3.55968 7.42893 3.76749 7.2861 3.99753C7.13772 4.23626 6.98969 4.49758 6.85277 4.76724C6.72594 5.01744 6.60779 5.27598 6.50701 5.53209C6.40276 5.79723 6.31693 6.06098 6.24569 6.32299C6.17446 6.58466 6.11816 6.84424 6.07299 7.10104C6.02781 7.35749 5.99376 7.61013 5.97048 7.85476C5.94615 8.1074 5.93295 8.35377 5.93051 8.58868C5.92808 8.81907 5.93573 9.04112 5.95449 9.25623C5.97291 9.47028 6.00175 9.67427 6.04137 9.86887C6.08063 10.0635 6.13102 10.2515 6.20747 10.4468C6.28357 10.642 6.38539 10.8446 6.52821 11.0695L6.52786 11.0698ZM6.891 11.8632C6.70266 11.6317 6.52161 11.3881 6.37948 11.1643C6.23006 10.9291 6.12303 10.7164 6.04276 10.5114C5.96283 10.3067 5.90966 10.109 5.86831 9.90396C5.82696 9.69929 5.79707 9.48905 5.77831 9.27117C5.75989 9.05468 5.7519 8.82706 5.75433 8.58764C5.75711 8.34682 5.77066 8.09558 5.79499 7.83843C5.81931 7.58545 5.85372 7.32796 5.89889 7.07081C5.94511 6.8081 6.00245 6.54331 6.07507 6.27677C6.14735 6.01059 6.23527 5.74093 6.34265 5.46815C6.44516 5.20717 6.56574 4.94342 6.69536 4.68801C6.8354 4.41175 6.98621 4.14591 7.13633 3.9044C7.28054 3.67227 7.4258 3.4603 7.57349 3.26084C7.71944 3.06346 7.86816 2.87789 8.02176 2.69546C8.17987 2.50746 8.34007 2.32572 8.49401 2.161C8.64309 2.00115 8.78869 1.85486 8.92282 1.73115C9.06043 1.60396 9.18727 1.50006 9.30716 1.4111C9.4267 1.32249 9.53859 1.24917 9.64736 1.1828C9.75786 1.11538 9.86559 1.05492 9.97818 1.00418C10.0929 0.952404 10.2131 0.910357 10.3462 0.881862C10.4775 0.853367 10.6228 0.837729 10.7823 0.835297C10.939 0.832865 11.1096 0.843637 11.2952 0.867614C11.4815 0.891592 11.6827 0.929122 11.8894 0.987849C12.0979 1.04692 12.3141 1.12824 12.5288 1.23979C12.7429 1.35098 12.9552 1.49172 13.1651 1.65261C13.3725 1.81177 13.58 1.99316 13.7868 2.18672C13.9935 2.37993 14.1985 2.58495 14.4022 2.82334C14.6075 3.06346 14.8129 3.33833 15.019 3.66984C15.2261 4.00309 15.4346 4.39472 15.6226 4.79991C15.8071 5.19779 15.9722 5.61027 16.0966 5.99391C16.222 6.38033 16.3058 6.73825 16.3621 7.08506C16.4184 7.43082 16.4465 7.7658 16.4611 8.1074C16.4754 8.44899 16.4764 8.79753 16.4542 9.14016C16.4319 9.48418 16.3867 9.82369 16.3096 10.1455C16.2387 10.4408 16.1418 10.7195 16.0312 10.9753C15.9002 11.2794 15.7501 11.5528 15.6035 11.7843C15.4676 11.9987 15.3335 12.179 15.1861 12.3316C15.0374 12.4855 14.8765 12.6106 14.6882 12.7131C14.5009 12.815 14.2875 12.8942 14.03 12.9581C13.7756 13.0214 13.4771 13.0704 13.1171 13.1128C12.7613 13.1545 12.3432 13.1899 11.9099 13.216C11.4762 13.242 11.0259 13.2594 10.6078 13.2646C10.1846 13.2698 9.79748 13.2632 9.45832 13.2431C9.12715 13.2236 8.83977 13.1913 8.60695 13.1458C8.36439 13.0985 8.17813 13.036 8.00508 12.9394C7.83307 12.8435 7.67774 12.7156 7.49634 12.5366C7.31078 12.3538 7.09568 12.1154 6.8903 11.8639L6.891 11.8632Z" fill="#FEFEFE"/>
<path d="M17.5348 5.85955C17.4751 6.06457 17.4157 6.30261 17.3608 6.56219C17.3097 6.80405 17.2631 7.06467 17.2242 7.33398C17.1832 7.61719 17.1512 7.91152 17.1297 8.20377C17.1088 8.48733 17.098 8.76741 17.0994 9.03255C17.1005 9.30291 17.1144 9.5604 17.1498 9.81999C17.1849 10.0782 17.2423 10.3388 17.3305 10.6158C17.4184 10.8913 17.538 11.1843 17.6763 11.4703C17.8163 11.7597 17.9755 12.0412 18.1402 12.289C18.2587 12.4669 18.38 12.6274 18.5051 12.7706C18.6298 12.9134 18.7591 13.0392 18.8939 13.149C18.945 13.1907 18.9968 13.2296 19.0486 13.2661C19.0996 13.3019 19.1531 13.3363 19.2087 13.3693C19.4079 13.4871 19.6202 13.5754 19.8412 13.6435C20.0643 13.7123 20.2971 13.7613 20.5338 13.7999C20.7708 13.8385 21.0123 13.867 21.2944 13.8854C21.579 13.9038 21.9026 13.9125 22.3015 13.9111C22.7056 13.9097 23.19 13.8986 23.672 13.8798C24.1391 13.8617 24.6061 13.8364 24.996 13.8065C25.3855 13.7766 25.6927 13.7422 25.9422 13.6998C26.1896 13.6578 26.3811 13.6074 26.541 13.5459C26.6397 13.508 26.7269 13.4652 26.8085 13.4131C26.8905 13.361 26.9687 13.2984 27.0497 13.2203C27.099 13.173 27.1491 13.1198 27.2016 13.0604C27.2558 12.9986 27.3117 12.9311 27.3708 12.8571C27.548 12.6347 27.7603 12.3428 27.9619 12.0297C28.1283 11.7712 28.2875 11.4981 28.4133 11.2385C28.5516 10.9528 28.6503 10.6821 28.7201 10.3975C28.7903 10.1126 28.832 9.81199 28.8563 9.46797C28.8828 9.09858 28.889 8.6795 28.8636 8.23331C28.8414 7.84411 28.7948 7.43371 28.7167 7.01637C28.6315 6.56254 28.5082 6.10071 28.349 5.64514C28.194 5.20104 28.0046 4.7618 27.7822 4.34028C27.572 3.9417 27.3322 3.55807 27.0799 3.19945C26.7912 2.7887 26.4868 2.41063 26.1928 2.07946C25.9172 1.7688 25.65 1.49844 25.389 1.27048C25.1294 1.04357 24.8761 0.858698 24.6273 0.718656C24.3799 0.578962 24.1345 0.482357 23.9017 0.415638C23.6682 0.348918 23.4482 0.312431 23.2515 0.293318C23.0552 0.274206 22.8804 0.272468 22.7171 0.285673C22.5552 0.298878 22.4047 0.327373 22.2567 0.368725C22.1072 0.410425 21.9588 0.465677 21.8056 0.538999C21.652 0.612669 21.4918 0.706146 21.3188 0.824296C21.1443 0.94314 20.9584 1.08596 20.768 1.24616C20.5751 1.40914 20.377 1.59018 20.181 1.78339C19.9851 1.9766 19.7912 2.18197 19.5993 2.40472C19.4072 2.62746 19.216 2.86863 19.0256 3.13307C18.8501 3.37667 18.6743 3.64112 18.5117 3.89966C18.3223 4.20024 18.1503 4.49388 18.0151 4.73852C17.8907 4.96404 17.7989 5.14578 17.7246 5.31953C17.6499 5.49433 17.5915 5.66217 17.5338 5.85955H17.5348ZM17.188 6.5264C17.2433 6.26403 17.3041 6.02148 17.3656 5.81055C17.4254 5.60553 17.4862 5.43108 17.5633 5.25073C17.6412 5.06934 17.735 4.88273 17.8615 4.65373C17.997 4.40839 18.1708 4.11198 18.3636 3.80583C18.5277 3.54521 18.7052 3.27798 18.8838 3.03022C19.0774 2.7616 19.2716 2.51661 19.4673 2.2897C19.6633 2.06243 19.8603 1.85359 20.0587 1.65794C20.2582 1.46126 20.4597 1.27674 20.6554 1.11168C20.8524 0.94592 21.0432 0.799276 21.2204 0.678694C21.3997 0.556374 21.5676 0.458727 21.7309 0.38054C21.8942 0.302006 22.052 0.243278 22.2108 0.199146C22.3706 0.154319 22.5315 0.124086 22.7046 0.109839C22.8762 0.095939 23.0608 0.0976765 23.2693 0.118179C23.4771 0.138334 23.7082 0.176211 23.9514 0.246058C24.195 0.315905 24.4528 0.417723 24.7149 0.565409C24.9755 0.712054 25.2382 0.903873 25.5065 1.13809C25.773 1.37091 26.0454 1.64682 26.3262 1.96305C26.6254 2.30012 26.934 2.68341 27.2259 3.09798C27.482 3.46216 27.7259 3.85205 27.94 4.25827C28.1662 4.68709 28.3591 5.13467 28.5172 5.58746C28.6795 6.05206 28.8049 6.52257 28.8918 6.9844C28.9714 7.40904 29.019 7.82743 29.0416 8.22393C29.0673 8.6788 29.061 9.10518 29.0343 9.48083C29.0092 9.83423 28.9658 10.1442 28.8932 10.4403C28.8202 10.737 28.7177 11.0189 28.5738 11.3156C28.4446 11.5828 28.2816 11.8622 28.112 12.1256C27.907 12.4443 27.6912 12.7411 27.5105 12.9676C27.4476 13.0465 27.3899 13.1164 27.3357 13.1779C27.279 13.2415 27.2259 13.2977 27.1734 13.3481C27.0841 13.434 26.9969 13.5038 26.9044 13.5625C26.812 13.6213 26.7151 13.6689 26.6059 13.7109C26.4343 13.7773 26.232 13.8305 25.9735 13.8742C25.7167 13.918 25.4046 13.9528 25.0106 13.983C24.6252 14.0126 24.1554 14.0379 23.6797 14.0563C23.198 14.0748 22.7115 14.0862 22.3029 14.0876C21.897 14.089 21.5697 14.0803 21.2851 14.0619C20.9977 14.0431 20.7506 14.0139 20.507 13.9743C20.2631 13.9344 20.0229 13.884 19.7908 13.8124C19.5566 13.7401 19.3314 13.6466 19.1201 13.5215C19.0631 13.4878 19.0062 13.451 18.9488 13.411C18.8925 13.3718 18.8373 13.3301 18.7838 13.2863C18.6413 13.1702 18.5047 13.0371 18.3734 12.887C18.2424 12.7372 18.1166 12.5704 17.9942 12.3866C17.8254 12.1322 17.662 11.8438 17.5185 11.5471C17.3774 11.2548 17.2544 10.9539 17.1634 10.6689C17.0716 10.3815 17.0122 10.1115 16.9757 9.84362C16.9392 9.57674 16.9253 9.31159 16.9239 9.0336C16.9226 8.76011 16.9333 8.47586 16.9542 8.19161C16.9757 7.89589 17.0087 7.59739 17.0501 7.30966C17.0894 7.03652 17.137 6.77243 17.1887 6.52674L17.188 6.5264Z" fill="#FEFEFE"/>
<path d="M4.03675 13.173L4.02667 13.4715L27.1367 15.4362L29.2255 13.6067V13.3843L27.2555 13.2637L27.1732 13.3471C27.0835 13.4333 26.9963 13.5031 26.9039 13.5618C26.8114 13.6206 26.7145 13.6682 26.6054 13.7102C26.4337 13.7766 26.2315 13.8297 25.9729 13.8735C25.7161 13.9173 25.4041 13.9521 25.01 13.9823C24.6246 14.0118 24.1548 14.0372 23.6791 14.0556C23.1975 14.074 22.711 14.0855 22.3023 14.0869C21.8964 14.0883 21.5691 14.0796 21.2845 14.0612C20.9971 14.0424 20.75 14.0132 20.5064 13.9736C20.2625 13.9337 20.0224 13.8833 19.7902 13.8117C19.556 13.7394 19.3308 13.6459 19.1196 13.5208C19.0626 13.4871 19.0056 13.4503 18.9483 13.4103C18.892 13.3711 18.8367 13.3294 18.7832 13.2856C18.6803 13.2018 18.5806 13.1094 18.484 13.0079C18.3964 12.9162 18.3109 12.8168 18.2272 12.7101L14.9906 12.5117C14.9496 12.5447 14.9062 12.577 14.8603 12.6079C14.8054 12.6455 14.7484 12.6799 14.6897 12.7118C14.5024 12.8137 14.289 12.8929 14.0315 12.9568C13.7771 13.0201 13.4786 13.0691 13.1186 13.1115C12.7628 13.1532 12.3447 13.1886 11.9114 13.2147C11.4777 13.2407 11.0274 13.2581 10.6093 13.2633C10.1861 13.2685 9.79897 13.2619 9.45981 13.2418C9.12865 13.2223 8.84126 13.19 8.60844 13.1445C8.37006 13.0979 8.18623 13.0371 8.0163 12.944C7.85784 12.8571 7.71363 12.7431 7.55066 12.5867L4.03675 13.1726V13.173ZM3.84771 13.5497L3.86578 13.0229C5.11365 12.814 6.36152 12.6052 7.60973 12.3988L7.6417 12.4297C7.80676 12.5906 7.94785 12.7052 8.10179 12.7897C8.25434 12.8734 8.42253 12.9287 8.64284 12.9718C8.86941 13.0163 9.1488 13.0472 9.47058 13.0663C9.808 13.0861 10.1909 13.0931 10.6076 13.0878C11.0187 13.0826 11.4663 13.0656 11.9013 13.0392C12.3295 13.0135 12.7444 12.978 13.0985 12.9367C13.4515 12.8953 13.7427 12.8477 13.9891 12.7862C14.2324 12.7257 14.4318 12.6521 14.6052 12.5579C14.6601 12.528 14.7122 12.4964 14.7616 12.463C14.8099 12.4304 14.8575 12.3942 14.9048 12.3546L14.9319 12.332L18.3175 12.5395L18.3419 12.5711C18.4294 12.6851 18.5194 12.7904 18.6115 12.887C18.7029 12.9829 18.7974 13.0705 18.894 13.1493C18.9451 13.191 18.9969 13.23 19.0487 13.2665C19.0998 13.3022 19.1533 13.3366 19.2089 13.3697C19.408 13.4875 19.6203 13.5757 19.8413 13.6438C20.0644 13.7126 20.2972 13.7616 20.5339 13.8002C20.7709 13.8388 21.0124 13.8673 21.2946 13.8857C21.5792 13.9041 21.9027 13.9128 22.3016 13.9114C22.7058 13.91 23.1902 13.8989 23.6721 13.8801C24.1392 13.8621 24.6062 13.8367 24.9961 13.8068C25.3857 13.7769 25.6929 13.7425 25.9424 13.7001C26.1898 13.6581 26.3812 13.6077 26.5411 13.5462C26.6398 13.5083 26.727 13.4656 26.8087 13.4134C26.8903 13.3613 26.9685 13.2988 27.0495 13.2209L27.1009 13.1695L27.1822 13.083L29.4014 13.2192V13.6866C28.6653 14.3301 27.9297 14.9741 27.1951 15.619C19.4125 14.948 11.6279 14.2923 3.84424 13.6338L3.84702 13.55L3.84771 13.5497Z" fill="#FEFEFE"/>
<path d="M9.62685 10.853C9.59141 10.5847 9.55597 10.3164 9.52956 10.0496C9.5028 9.78095 9.48473 9.51164 9.48438 9.24198C9.48403 8.97163 9.50106 8.70197 9.54033 8.42327C9.57994 8.14319 9.64145 7.85407 9.72971 7.54515C9.82006 7.22892 9.93856 6.89081 10.0727 6.57007C10.2002 6.26461 10.342 5.9748 10.4869 5.73468C10.637 5.48518 10.7917 5.28745 10.9564 5.12795C11.1225 4.96706 11.299 4.84508 11.4919 4.74778C11.6847 4.65048 11.8943 4.57786 12.1007 4.53372C12.3075 4.48959 12.5128 4.47465 12.6956 4.49307C12.8815 4.51149 13.0431 4.56431 13.1915 4.63346C13.3371 4.70157 13.4698 4.78497 13.6026 4.86837L13.5088 5.01744C13.3812 4.93752 13.2537 4.8569 13.1175 4.79365C12.9837 4.73145 12.8405 4.68454 12.6782 4.66855C12.5139 4.65187 12.3273 4.66612 12.1372 4.70643C11.945 4.74709 11.7497 4.81485 11.5711 4.9052C11.3935 4.99486 11.2313 5.10675 11.0787 5.25444C10.9251 5.40317 10.7799 5.58942 10.6374 5.82607C10.4966 6.05924 10.359 6.34106 10.2346 6.63817C10.1033 6.95197 9.98721 7.28348 9.8986 7.5938C9.81242 7.89577 9.7523 8.17725 9.71408 8.4476C9.67585 8.71934 9.65917 8.98101 9.65952 9.24233C9.65987 9.50434 9.67759 9.76809 9.704 10.0329C9.73041 10.2991 9.76551 10.5649 9.8006 10.8307L9.62616 10.8533L9.62685 10.853Z" fill="#FEFEFE"/>
<path d="M22.3801 10.3688L22.3798 10.3677C22.2912 9.93162 22.2025 9.49586 22.1567 8.89399C22.132 8.56838 22.1195 8.19239 22.1317 7.80284C22.1417 7.47446 22.1692 7.13704 22.2213 6.81352C22.278 6.4615 22.3631 6.12651 22.4701 5.82245C22.5799 5.51005 22.7134 5.22927 22.8618 4.99575C23.0108 4.76119 23.1762 4.5725 23.3552 4.42134C23.5349 4.26983 23.7281 4.15585 23.9327 4.07141C24.1367 3.98731 24.3518 3.93206 24.5718 3.90669C24.7921 3.88133 25.0183 3.8855 25.2432 3.91955C25.6869 3.98697 26.1248 4.17114 26.5626 4.35497L26.564 4.35566L26.4973 4.51864L26.4955 4.51794C26.0685 4.33829 25.6414 4.15863 25.2167 4.09434C25.0069 4.06237 24.7966 4.05855 24.5916 4.08218C24.3873 4.10581 24.1878 4.15689 23.9995 4.23438C23.8115 4.31188 23.6339 4.41647 23.4688 4.55582C23.3034 4.69551 23.1498 4.871 23.0105 5.09027C22.8684 5.31406 22.7408 5.58233 22.6359 5.88083C22.532 6.1769 22.4493 6.50146 22.3947 6.84132C22.344 7.15684 22.3169 7.48662 22.3071 7.80771C22.2953 8.18787 22.3075 8.55796 22.3322 8.88078C22.3773 9.47362 22.4646 9.90278 22.5518 10.3312L22.5521 10.3323L22.3794 10.3688H22.3801Z" fill="#FEFEFE"/>
<path d="M12.0135 17.821C11.9256 17.8367 11.845 17.8763 11.7765 17.9319C11.7035 17.9917 11.6441 18.0698 11.6049 18.1567C11.5687 18.237 11.5493 18.3253 11.5423 18.4156C11.5347 18.5209 11.544 18.629 11.5642 18.7297C11.5833 18.8253 11.6115 18.9132 11.6469 18.9886C11.681 19.062 11.7223 19.1245 11.7682 19.1718C11.8116 19.2162 11.8592 19.2472 11.911 19.2621C11.961 19.2767 12.0177 19.2774 12.0809 19.2625C12.1511 19.2461 12.229 19.2107 12.304 19.162C12.3791 19.1137 12.4503 19.0529 12.508 18.9855C12.5646 18.9191 12.6084 18.8455 12.6397 18.7662C12.6717 18.6849 12.6901 18.5973 12.696 18.5046C12.7019 18.4055 12.6936 18.3013 12.6644 18.2057C12.6401 18.1254 12.6008 18.0514 12.5428 17.991C12.4799 17.9253 12.3933 17.8746 12.2995 17.8443C12.2057 17.8141 12.1053 17.8044 12.0135 17.8207V17.821ZM11.6653 17.7953C11.7564 17.7213 11.8644 17.6681 11.9829 17.6473C12.1028 17.6261 12.2328 17.6383 12.353 17.6772C12.4736 17.7161 12.5858 17.7825 12.6692 17.8697C12.7474 17.951 12.7999 18.0497 12.8322 18.155C12.8684 18.2724 12.8788 18.3982 12.8715 18.516C12.8645 18.6276 12.8423 18.7332 12.8037 18.8316C12.7655 18.9289 12.7116 19.0192 12.6418 19.1012C12.5726 19.1822 12.4882 19.2545 12.3992 19.3115C12.3078 19.3705 12.2109 19.414 12.1209 19.4352C12.0281 19.4571 11.9416 19.4553 11.862 19.432C11.7796 19.4081 11.7063 19.3615 11.642 19.2955C11.5826 19.2343 11.5301 19.1551 11.4877 19.064C11.4457 18.974 11.4127 18.8726 11.3911 18.7652C11.3682 18.6505 11.3574 18.5261 11.3665 18.4038C11.3748 18.294 11.3988 18.1852 11.444 18.0851C11.4943 17.9739 11.5708 17.8735 11.6653 17.796V17.7953Z" fill="#FEFEFE"/>
<path d="M18.3612 18.3352C18.4995 18.3731 18.6381 18.4106 18.7646 18.4527C18.8942 18.4951 19.012 18.543 19.1069 18.6003C19.1979 18.6556 19.2654 18.7188 19.314 18.7842C19.3727 18.8634 19.4043 18.9465 19.4165 19.0236C19.4283 19.0983 19.4221 19.1678 19.3953 19.2366C19.3696 19.3023 19.3258 19.3652 19.2612 19.4298C19.2035 19.4875 19.1277 19.5476 19.0562 19.6046C18.988 19.6588 18.9238 19.7096 18.8907 19.7471L18.8758 19.7645C18.8869 19.7888 18.9255 19.8277 18.986 19.8871C19.0555 19.9549 19.1486 20.0445 19.2532 20.1439L19.5962 20.4692L19.4749 20.5967L19.1319 20.2715C19.0245 20.1693 18.9307 20.0793 18.8629 20.0133C18.7868 19.9389 18.7378 19.8885 18.7146 19.8367C18.6805 19.7603 18.6948 19.7016 18.7587 19.6296C18.8014 19.5813 18.8716 19.5257 18.9463 19.4663C19.0127 19.4135 19.0836 19.3575 19.1361 19.3047C19.1837 19.2571 19.2146 19.214 19.2309 19.1723C19.2462 19.1338 19.2494 19.0938 19.2424 19.0504C19.2344 18.9996 19.2129 18.9437 19.1722 18.8891C19.1361 18.8405 19.085 18.7929 19.0155 18.7508C18.9356 18.7025 18.8292 18.6598 18.7094 18.6202C18.5867 18.5791 18.4508 18.542 18.3149 18.5051L18.3612 18.3352Z" fill="#FEFEFE"/>
<path d="M13.7692 17.7722C13.9697 17.8045 14.1702 17.8369 14.3196 17.915C14.3946 17.9543 14.4555 18.004 14.5034 18.0596C14.5576 18.1221 14.5958 18.1923 14.6209 18.2632C14.6448 18.3317 14.6567 18.4019 14.6549 18.471C14.6532 18.5391 14.6379 18.6066 14.608 18.6695C14.5792 18.7306 14.5371 18.7873 14.4881 18.8363C14.4374 18.8873 14.3773 18.9311 14.3161 18.9627C14.2685 18.9871 14.2212 19.0038 14.1799 19.018L14.1128 19.0413C14.1069 19.0503 14.1239 19.034 14.1299 19.0455C14.149 19.0812 14.1858 19.132 14.2369 19.1994C14.3415 19.338 14.5006 19.5396 14.6601 19.7422L14.666 19.7498L14.5274 19.8589L14.5215 19.8513C14.3609 19.6473 14.2007 19.4444 14.0961 19.3057C14.0412 19.2328 13.9999 19.1761 13.9749 19.1282C13.9363 19.0559 13.9307 18.9985 13.9648 18.9461C13.9975 18.8953 14.0534 18.8759 14.1229 18.8519C14.1577 18.8397 14.1976 18.8258 14.2355 18.8064C14.28 18.7834 14.3245 18.7508 14.3634 18.7119C14.3992 18.6764 14.4291 18.6361 14.4485 18.5947C14.4676 18.5537 14.4777 18.5103 14.4787 18.4662C14.4801 18.4189 14.4714 18.3699 14.4544 18.3213C14.4363 18.2702 14.4089 18.2198 14.3703 18.175C14.3359 18.135 14.2921 18.0992 14.2383 18.0711C14.1139 18.0061 13.9276 17.9759 13.7417 17.946L13.7692 17.7722Z" fill="#FEFEFE"/>
<path d="M16.5525 18.0959L17.0237 19.6983L17.43 18.1359L17.6002 18.18L17.0342 20.3582L16.3833 18.1456L16.5525 18.0959Z" fill="#FEFEFE"/>
<path d="M18.1562 20.2108L18.2497 18.4153L18.4256 18.4243L18.3321 20.2198L18.1562 20.2108Z" fill="#FEFEFE"/>
<path d="M13.4995 19.6838L13.668 17.8511L13.8432 17.8671L13.6747 19.6998L13.4995 19.6838Z" fill="#FEFEFE"/>
<path d="M10.0394 19.2804C10.0394 18.6771 10.0884 18.0488 10.1145 17.4438L10.2903 17.4515L10.2156 19.1681L10.2159 19.2804H10.0391H10.0394Z" fill="#FEFEFE"/>
<path d="M9.61086 17.2288L10.8076 17.3222L10.7944 17.4981L9.59766 17.4046L9.61086 17.2288Z" fill="#FEFEFE"/>
</svg>
