<svg width="30" height="30" viewBox="0 0 30 30" fill="none" xmlns="http://www.w3.org/2000/svg">
<path d="M18.4547 0.27048L18.437 3.15654L21.9682 3.4421L24.0952 3.08744L24.1216 0.292093C21.7107 0.489562 21.0779 0.412932 18.455 0.27048H18.4547ZM18.2635 3.23775L18.2828 0.0844727L22.0152 0.287181L24.2963 0.100519C24.2857 1.14615 24.2767 2.19179 24.2667 3.23742C23.5029 3.36416 22.7365 3.48696 21.974 3.61959C20.7387 3.51185 19.4992 3.41852 18.2632 3.31962L18.2638 3.23775H18.2635Z" fill="#FEFEFE"/>
<path d="M18.3643 0.0894077C20.7925 -0.050425 21.6718 -0.0124376 24.2127 0.108401L24.2053 0.284257L20.8304 0.123793L18.3739 0.265263L18.3646 0.0894077H18.3643Z" fill="#FEFEFE"/>
<path d="M22.1038 0.376926L22.0574 3.53184L21.8843 3.52988L21.9309 0.374634L22.1038 0.376926Z" fill="#FEFEFE"/>
<path d="M18.3716 0.420166L22.0123 0.637283L24.1985 0.43916L24.2133 0.61436C21.6248 0.848833 21.2031 0.765327 18.3623 0.596021L18.3716 0.420166Z" fill="#FEFEFE"/>
<path d="M19.4529 0.637329L19.6759 0.816787L19.5688 0.954982L19.3457 0.775524L19.4529 0.637329Z" fill="#FEFEFE"/>
<path d="M20.8733 0.703369L21.096 0.883154L20.9888 1.02102L20.7661 0.841564L20.8733 0.703369Z" fill="#FEFEFE"/>
<path d="M18.5684 1.55359L21.6201 1.73239L21.7173 2.20985L21.5477 2.24489L21.4775 1.90071L18.5591 1.72977L18.5684 1.55359Z" fill="#FEFEFE"/>
<path d="M18.6291 2.03076L21.6994 2.22921L21.7596 2.70766L21.5877 2.7296L21.5459 2.3959L18.6182 2.20694L18.6291 2.03076Z" fill="#FEFEFE"/>
<path d="M18.774 2.48425L21.7017 2.7017L21.7828 3.18604L21.6119 3.21485L21.5536 2.86773L18.7617 2.66011L18.774 2.48425Z" fill="#FEFEFE"/>
<path d="M22.6693 1.99894L22.3394 2.02513L22.3729 2.31659L22.2007 2.33657C22.1807 2.16431 22.1582 2.02939 22.1582 1.86238L22.6565 1.82275L22.6693 1.99861V1.99894Z" fill="#FEFEFE"/>
<path d="M22.2428 2.84062L22.1685 2.33859L22.686 2.30945L22.6954 2.48563L22.3683 2.50397L22.4144 2.81409L22.2428 2.84062Z" fill="#FEFEFE"/>
<path d="M22.2697 3.28065V3.2348L22.2295 2.8248L22.7277 2.76782L22.7467 2.94302L22.4188 2.98036C22.4284 3.08024 22.4435 3.17979 22.4435 3.28032H22.2697V3.28065Z" fill="#FEFEFE"/>
<path d="M24.0749 1.83813L23.0236 1.96519L23.0417 2.24092L22.8685 2.25173L22.8398 1.80963L24.0546 1.6626L24.0749 1.83813Z" fill="#FEFEFE"/>
<path d="M24.0949 2.74461L23.21 2.86513L23.2455 3.14676L23.0739 3.16902L23.0166 2.71383L24.0723 2.57007L24.0949 2.74461Z" fill="#FEFEFE"/>
<path d="M24.0676 2.26744L23.0557 2.41088L23.1059 2.71838L22.935 2.74719L22.8555 2.26122L24.0438 2.0929L24.0676 2.26744Z" fill="#FEFEFE"/>
<path d="M0.444182 20.9621L20.5962 29.9252L29.643 22.1309L11.1078 16.5186L0.444182 20.9621ZM20.5766 30.1089L0 20.9569C3.69894 19.4138 7.39756 17.8678 11.0994 16.3319C17.401 18.2339 23.7 20.1467 30 22.0549C26.8753 24.7464 23.7515 27.4396 20.6261 30.1305L20.5766 30.1085V30.1089Z" fill="#FEFEFE"/>
<path d="M20.3927 29.0007L28.7862 22.0356L11.257 16.7076L1.32153 20.8102L20.3927 29.0007ZM29.0221 22.0671L20.4616 29.1707L20.4069 29.1023L20.3734 29.1835L0.868652 20.8069C4.3278 19.3772 7.78599 17.9438 11.248 16.5212C17.2155 18.3325 23.1821 20.1484 29.1489 21.9619L29.0221 22.0671Z" fill="#FEFEFE"/>
<path d="M5.96614 17.8118L6.02118 17.7548C10.108 13.5212 14.1871 9.29576 16.34 7.08038C17.4386 5.94993 18.0704 5.30742 18.467 4.92001C18.8629 4.53326 19.0187 4.40685 19.168 4.30664C19.3183 4.20578 19.4609 4.13243 19.6003 4.08101C19.7403 4.02927 19.8777 3.9998 20.0168 3.9867C20.1571 3.9736 20.2987 3.97688 20.4339 3.99718C20.5672 4.01683 20.6956 4.05318 20.8121 4.1059C20.9319 4.15994 21.0384 4.231 21.1379 4.33907C21.2354 4.44517 21.3262 4.58631 21.4163 4.7828C21.5499 5.07425 21.6818 5.48491 22.108 6.81348L22.614 8.38668C23.4698 11.0376 24.9649 15.6128 26.4655 20.206L26.507 20.3327L26.3757 20.3769L26.3341 20.2502C24.8175 15.6082 23.3066 10.9839 22.482 8.43024L21.976 6.85704C21.5511 5.53272 21.4198 5.1237 21.2907 4.8424C21.2074 4.66098 21.125 4.53129 21.0368 4.43567C20.9509 4.34201 20.8588 4.28077 20.7561 4.23427C20.6522 4.18744 20.5356 4.1547 20.4133 4.13636C20.2881 4.11769 20.1574 4.11442 20.0287 4.12653C19.9016 4.13832 19.7757 4.16583 19.647 4.21331C19.5172 4.26113 19.384 4.32957 19.2436 4.42388C19.102 4.51885 18.9514 4.64133 18.5626 5.0212C18.1747 5.40042 17.5432 6.04293 16.4385 7.17927C14.2044 9.47784 10.1666 13.661 6.11967 17.8531L6.06463 17.91L5.96582 17.8111L5.96614 17.8118Z" fill="#FEFEFE"/>
<path d="M11.5306 15.3259L11.5448 15.306C13.8069 12.1497 16.0667 8.9958 17.3494 7.25166C17.9951 6.37369 18.3951 5.84973 18.6662 5.51996C18.9407 5.18561 19.0881 5.04414 19.2249 4.93378C19.3627 4.82276 19.4895 4.7445 19.608 4.68752C19.727 4.63021 19.8384 4.59386 19.9446 4.56799C20.0518 4.54146 20.1548 4.52509 20.2552 4.52672C20.3586 4.52836 20.4583 4.54965 20.5549 4.59877C20.655 4.64953 20.7509 4.72681 20.8855 5.10112C21.0123 5.45316 21.1816 6.08748 21.4394 7.26017C21.9544 9.60229 22.8209 14.0841 23.6867 18.566L23.5506 18.5928C22.6838 14.1071 21.8166 9.62096 21.3042 7.29063C21.0483 6.12678 20.8803 5.49802 20.7551 5.14991C20.6376 4.82375 20.5662 4.76251 20.4931 4.72517C20.4165 4.68588 20.3363 4.66918 20.253 4.66787C20.1661 4.66656 20.074 4.68129 19.9771 4.7052C19.8793 4.72943 19.7769 4.76251 19.6672 4.81523C19.5568 4.86828 19.4386 4.94131 19.3105 5.04446C19.1815 5.14828 19.0408 5.28418 18.7724 5.611C18.5004 5.94208 18.1016 6.46408 17.4601 7.33648C16.1733 9.08619 13.916 12.2365 11.6564 15.3891L11.6423 15.4091L11.5303 15.3263L11.5306 15.3259Z" fill="#FEFEFE"/>
<path d="M13.8286 15.4461C15.6739 12.1192 17.5195 8.79238 18.5588 7.08655C19.0815 6.22856 19.4031 5.77631 19.6146 5.54217C19.8466 5.2851 19.9667 5.27134 20.0671 5.29066C20.1737 5.31162 20.2544 5.36533 20.3356 5.70722C20.4083 6.01275 20.4907 6.57437 20.6117 7.61935C20.8525 9.69785 21.249 13.7193 21.6456 17.7407L21.5078 17.7544C21.1122 13.7402 20.7163 9.72569 20.474 7.6354C20.3536 6.59566 20.2722 6.03928 20.201 5.74062C20.1386 5.47798 20.0951 5.44032 20.041 5.42951C19.9805 5.41773 19.9023 5.43213 19.7166 5.63779C19.5103 5.86637 19.1939 6.31174 18.677 7.16023C17.6367 8.8677 15.793 12.1913 13.9493 15.5148L13.8289 15.4457L13.8286 15.4461Z" fill="#FEFEFE"/>
<path d="M17.3496 16.2955L19.7266 6.09363L19.8618 6.12605L17.4848 16.3283L17.3496 16.2955Z" fill="#FEFEFE"/>
<path d="M15.9328 20.6402L13.6858 22.1705L13.6089 22.0536L15.8555 20.5233L15.9328 20.6402Z" fill="#FEFEFE"/>
<path d="M13.3659 20.6897L16.1701 21.9177L16.1015 22.0798L13.2974 20.8518L13.3659 20.6897Z" fill="#FEFEFE"/>
<path d="M4.74788 21.5833C6.5304 20.8026 8.31325 20.0216 9.49548 19.5019L9.70856 19.4086C10.7498 18.9507 11.2909 18.7127 11.7592 18.543C11.9935 18.4582 12.2082 18.3908 12.4033 18.3377C12.625 18.2775 12.824 18.2352 13 18.2064C13.1651 18.1792 13.309 18.1638 13.4384 18.1566C13.5678 18.1494 13.6833 18.1501 13.7909 18.155C13.8987 18.1599 13.9988 18.1687 14.0915 18.1841C14.1855 18.1998 14.2727 18.2224 14.3519 18.2542C14.4317 18.286 14.5038 18.3282 14.5669 18.3783C14.6306 18.4291 14.6847 18.4883 14.7275 18.5548C14.7726 18.6243 14.8057 18.7006 14.8096 18.8535C14.8131 18.9936 14.7912 19.2039 14.7285 19.5477C14.6383 20.0399 14.4658 20.803 14.3142 21.4749C14.254 21.7415 14.1967 21.9943 14.1526 22.1954C14.0696 22.572 14.0158 22.8379 13.9817 23.0409C13.9482 23.2407 13.9344 23.3759 13.9315 23.4948C13.9286 23.6121 13.9357 23.7142 13.9534 23.8013C13.9701 23.8852 13.9965 23.9553 14.0323 24.0126C14.0625 24.0607 14.1018 24.0993 14.2035 24.1121C14.3264 24.1272 14.5283 24.1085 14.8759 24.0348C15.2583 23.9536 15.8099 23.8069 16.4859 23.597C17.0652 23.4172 17.7376 23.1899 18.475 22.9165C19.2707 22.6214 20.1433 22.272 21.0539 21.8954C21.9677 21.5175 22.9124 21.1154 23.8574 20.7132L23.9105 20.8436C22.9613 21.2473 22.0121 21.6518 21.106 22.0261C20.1967 22.402 19.3235 22.7518 18.5224 23.0488C17.7859 23.3219 17.1106 23.5498 16.5261 23.7313C15.8444 23.9431 15.2885 24.0908 14.9042 24.1724C14.5402 24.2497 14.3239 24.2686 14.1871 24.2516C14.0287 24.232 13.9653 24.1681 13.9151 24.0876C13.8704 24.0155 13.8378 23.9297 13.8176 23.8288C13.7979 23.7316 13.7899 23.6189 13.7931 23.4909C13.7963 23.3642 13.8105 23.2224 13.8449 23.0167C13.8787 22.8143 13.9334 22.5464 14.0174 22.1643C14.0667 21.9409 14.1214 21.6983 14.179 21.4428C14.3313 20.7696 14.5041 20.0046 14.5923 19.5219C14.6531 19.1885 14.6747 18.9874 14.6712 18.8564C14.6683 18.7379 14.6441 18.6816 14.6116 18.6318C14.5772 18.5784 14.5331 18.5303 14.4813 18.4887C14.4294 18.4474 14.3686 18.4124 14.3004 18.3849C14.2312 18.3567 14.1536 18.3367 14.0686 18.3226C13.9817 18.3082 13.8868 18.2997 13.7844 18.2951C13.6814 18.2906 13.5707 18.2899 13.4458 18.2968C13.3203 18.3037 13.1809 18.3184 13.0216 18.3449C12.8523 18.3727 12.6582 18.4143 12.439 18.4736C12.2462 18.526 12.0347 18.5925 11.8052 18.6753C11.3446 18.8424 10.8039 19.0798 9.76328 19.5373L9.5502 19.6306C8.36797 20.1503 6.58544 20.9313 4.8026 21.7124L4.74756 21.5827L4.74788 21.5833Z" fill="#FEFEFE"/>
<path d="M5.13834 21.9049L5.14574 21.9016C7.31612 20.9392 9.48553 19.977 10.7907 19.4328C11.4457 19.1597 11.8835 18.9913 12.1999 18.8813C12.5188 18.7703 12.7158 18.7179 12.8871 18.6766C13.0589 18.6354 13.2064 18.6049 13.3316 18.5853C13.4577 18.5656 13.5633 18.5568 13.6496 18.5584C13.7403 18.5601 13.8112 18.5738 13.8681 18.5961C13.9286 18.62 13.974 18.6534 14.0114 18.6937C14.0532 18.7385 14.087 18.7896 14.0815 18.9327C14.077 19.0542 14.0432 19.2537 13.957 19.6031C13.8607 19.9931 13.6975 20.5773 13.5356 21.1579C13.412 21.601 13.2888 22.0421 13.1954 22.3971C13.0886 22.8032 13.0232 23.0878 12.9852 23.3039C12.9476 23.52 12.936 23.6694 12.9376 23.8046C12.9389 23.9382 12.953 24.0591 12.983 24.1642C13.012 24.266 13.056 24.3541 13.1185 24.4258C13.1809 24.4982 13.2637 24.5558 13.3686 24.6014C13.478 24.6485 13.6116 24.6822 13.7725 24.7052C13.9402 24.7291 14.1369 24.7405 14.3493 24.7382C14.554 24.7363 14.7742 24.7212 14.9985 24.6924C15.2264 24.6629 15.4598 24.6187 15.8267 24.5061C16.1956 24.3928 16.6983 24.2107 17.4641 23.9061C18.9981 23.2957 21.5853 22.1934 24.1725 21.0915L24.2256 21.2218C21.6381 22.3241 19.0506 23.426 17.5146 24.0374C16.7453 24.3436 16.2387 24.5267 15.8666 24.641C15.4926 24.7559 15.2522 24.8014 15.0159 24.8319C14.7861 24.8614 14.5605 24.8768 14.3506 24.8787C14.1305 24.881 13.927 24.8689 13.7535 24.8443C13.5804 24.8198 13.4352 24.7828 13.3145 24.7307C13.1899 24.677 13.0911 24.6069 13.0148 24.5188C12.9379 24.4304 12.8845 24.3243 12.85 24.2028C12.8166 24.0849 12.8008 23.9516 12.7992 23.8053C12.7976 23.6602 12.8095 23.5027 12.8488 23.2787C12.8884 23.055 12.9547 22.7665 13.0612 22.3601C13.1533 22.01 13.2775 21.5656 13.4021 21.1193C13.5636 20.5406 13.7262 19.9587 13.8224 19.5684C13.9064 19.2284 13.9393 19.0385 13.9431 18.9272C13.9463 18.8378 13.9306 18.8112 13.9106 18.7903C13.8862 18.7641 13.8569 18.7425 13.8179 18.7271C13.7751 18.7104 13.7201 18.7002 13.647 18.6986C13.5698 18.6969 13.4719 18.7055 13.3515 18.7245C13.2302 18.7434 13.0863 18.7729 12.918 18.8135C12.7493 18.8541 12.5559 18.9055 12.2436 19.0143C11.9289 19.1236 11.4937 19.291 10.8429 19.5625C9.53928 20.1061 7.37019 21.0682 5.20046 22.0303L5.19306 22.0336L5.1377 21.9043L5.13834 21.9049Z" fill="#FEFEFE"/>
<path d="M10.3127 17.4552L10.321 17.4693C10.4981 17.7614 10.6751 18.0535 10.8483 18.3482L10.9986 18.6079C11.0465 18.6921 11.0932 18.7759 11.1367 18.8568L11.015 18.9243C10.9738 18.8473 10.9274 18.7645 10.8785 18.6787C10.8286 18.5909 10.7784 18.5048 10.7292 18.4206C10.5554 18.1242 10.379 17.8334 10.2029 17.543L10.1942 17.5289L10.3127 17.4555V17.4552ZM11.3382 19.2868C11.3671 19.3696 11.3826 19.4417 11.3855 19.5131C11.3887 19.5848 11.3797 19.6539 11.3604 19.7305C11.3375 19.8215 11.2999 19.9254 11.2171 20.0704C11.1367 20.2112 11.0121 20.3923 10.8151 20.6409C10.6104 20.8986 10.3326 21.2232 10.059 21.5428C9.80025 21.8454 9.54469 22.1437 9.36637 22.3667C9.18033 22.5995 9.06929 22.76 9.00459 22.8792C8.94376 22.9909 8.92476 23.0636 8.92058 23.1264C8.91704 23.1841 8.92541 23.2335 8.95019 23.2735C8.97562 23.3144 9.02036 23.3495 9.08827 23.3783C9.16166 23.4094 9.26144 23.4317 9.46873 23.4159C9.68631 23.3992 10.0153 23.3406 10.5402 23.208C10.8563 23.1281 11.2442 23.021 11.6748 22.8969C12.1081 22.7721 12.5803 22.6316 13.064 22.4852L13.103 22.6205C12.6137 22.7685 12.1403 22.9097 11.7122 23.0328C11.2815 23.1569 10.8924 23.2643 10.5731 23.3449C10.0397 23.4798 9.70305 23.5394 9.4787 23.5564C9.24406 23.5744 9.12529 23.5466 9.03484 23.5083C8.93893 23.4677 8.87359 23.4143 8.83271 23.3485C8.79119 23.2813 8.77638 23.2047 8.78185 23.1176C8.787 23.0357 8.81018 22.9447 8.88292 22.8108C8.95148 22.6847 9.06703 22.5173 9.25854 22.278C9.44555 22.0438 9.6979 21.7491 9.95379 21.4501C10.2293 21.1282 10.509 20.8014 10.7066 20.5525C10.8991 20.3098 11.0195 20.1349 11.0968 19.9997C11.1714 19.869 11.2052 19.7764 11.2255 19.6955C11.2416 19.631 11.2493 19.575 11.2467 19.519C11.2442 19.4626 11.2316 19.4034 11.2072 19.3336L11.3378 19.2868H11.3382ZM14.0493 22.1843L15.4945 21.7366C16.8518 21.3148 17.97 20.9671 18.6707 20.7896C19.0663 20.6894 19.3325 20.6422 19.5208 20.6281C19.7171 20.6134 19.8333 20.6347 19.9225 20.6694C20.0216 20.7084 20.0889 20.764 20.1265 20.8662C20.16 20.9572 20.1658 21.084 20.1462 21.2713C20.1326 21.4 20.1069 21.5598 20.067 21.7599C20.0267 21.9603 19.9727 22.199 19.9022 22.4846L19.7676 22.4505C19.8385 22.1633 19.8922 21.9266 19.9311 21.7317C19.9701 21.5365 19.9952 21.381 20.0084 21.2566C20.0258 21.0915 20.0222 20.9847 19.9968 20.9153C19.9756 20.8574 19.9344 20.8246 19.8729 20.8007C19.8008 20.7725 19.7033 20.7558 19.5307 20.7686C19.3498 20.782 19.0914 20.8282 18.7042 20.9261C18.0025 21.104 16.8879 21.4504 15.535 21.8709L14.0898 22.3186L14.0496 22.184L14.0493 22.1843ZM19.7474 23.0904L19.7042 23.2538C19.4351 24.268 19.0203 25.7296 18.605 27.1921L18.6021 27.2035L18.4686 27.1649L18.4718 27.1534C18.8841 25.7014 19.2961 24.2503 19.57 23.2175L19.6131 23.0541L19.7474 23.0904Z" fill="#FEFEFE"/>
<path d="M11.2408 17.1526C11.3873 17.3916 11.5341 17.6307 11.6721 17.8609C11.8099 18.0902 11.9377 18.3086 12.0458 18.5044L11.9248 18.5735C11.8173 18.379 11.6902 18.1622 11.5537 17.9346C11.4179 17.708 11.2701 17.4673 11.123 17.2273L11.2408 17.1529V17.1526ZM12.2628 18.9255C12.3548 19.1247 12.4063 19.2799 12.4279 19.4155C12.4501 19.5553 12.4414 19.6729 12.4131 19.7943C12.3838 19.9211 12.3333 20.0521 12.2377 20.2083C12.1447 20.3606 12.0079 20.5374 11.8051 20.7584C11.5878 20.9945 11.2981 21.2785 11.0204 21.5503C10.7815 21.7841 10.5517 22.0091 10.3869 22.1856C10.2134 22.3713 10.1156 22.499 10.0686 22.5907C10.0316 22.6627 10.0293 22.704 10.0448 22.7328C10.0586 22.7583 10.0943 22.7757 10.2646 22.7541C10.4722 22.7279 10.8388 22.6395 11.4964 22.441C11.7243 22.3722 11.9914 22.2887 12.2847 22.1954C12.5959 22.0965 12.9081 21.9956 13.2197 21.8945L13.2615 22.0287C12.9162 22.141 12.5972 22.2442 12.3259 22.3303C12.0368 22.4223 11.7697 22.5055 11.5354 22.5763C10.8688 22.7773 10.4954 22.8674 10.2813 22.8942C10.03 22.926 9.96204 22.8726 9.9231 22.8006C9.88608 22.7315 9.88254 22.6483 9.94563 22.5255C9.99906 22.422 10.104 22.2835 10.2862 22.0883C10.4513 21.9115 10.683 21.6845 10.9241 21.4488C11.2019 21.177 11.4922 20.8927 11.7034 20.6625C11.8994 20.449 12.0307 20.279 12.1192 20.1339C12.2055 19.9928 12.2509 19.8749 12.2773 19.7623C12.3017 19.6571 12.3095 19.5563 12.2905 19.438C12.2708 19.3156 12.2232 19.1728 12.1366 18.9858L12.2618 18.9255H12.2628ZM14.1834 21.5794L14.5239 21.4678C15.3647 21.192 16.1967 20.9192 16.853 20.7123C17.6255 20.4689 18.1569 20.3157 18.5528 20.2201C18.9532 20.1235 19.22 20.0845 19.4595 20.0701C19.6993 20.0557 19.9114 20.0662 20.0991 20.093C20.2877 20.1202 20.4515 20.1637 20.5947 20.2155C20.7396 20.2679 20.8641 20.3288 20.9665 20.3995C21.0718 20.4725 21.1535 20.5564 21.2102 20.652C21.2639 20.743 21.2945 20.8423 21.2845 21.044C21.2752 21.2323 21.2298 21.5159 21.1332 21.9822L20.9974 21.9534C21.0927 21.494 21.1374 21.2172 21.1461 21.0374C21.1542 20.8708 21.1316 20.7928 21.0914 20.7244C21.0457 20.6471 20.9774 20.5777 20.8886 20.5161C20.7966 20.4522 20.6826 20.3966 20.549 20.3484C20.4135 20.2993 20.2587 20.2581 20.0807 20.2325C19.9014 20.2066 19.6986 20.1968 19.4685 20.2106C19.2377 20.2243 18.9783 20.2626 18.5856 20.3573C18.1891 20.4529 17.6602 20.6052 16.8945 20.8465C16.2369 21.0538 15.4062 21.3263 14.5671 21.6014L14.2265 21.713L14.184 21.5788L14.1834 21.5794ZM21.0087 22.5573C20.7441 23.746 20.2874 25.6385 19.8306 27.5323L19.8284 27.5415L19.6938 27.5074L19.6961 27.4986C20.1531 25.6038 20.6102 23.71 20.8738 22.5265L21.009 22.5576L21.0087 22.5573Z" fill="#FEFEFE"/>
<path d="M15.7129 19.4335C15.9148 19.4335 16.0989 19.4819 16.2331 19.5605C16.3789 19.646 16.4693 19.7678 16.4693 19.9057C16.4693 20.0436 16.3789 20.1654 16.2331 20.2505C16.0985 20.3291 15.9144 20.3779 15.7129 20.3779C15.5111 20.3779 15.327 20.3291 15.1928 20.2505C15.047 20.1654 14.9565 20.0436 14.9565 19.9057C14.9565 19.7678 15.047 19.6457 15.1928 19.5605C15.3273 19.4823 15.5114 19.4335 15.7129 19.4335ZM16.1645 19.6827C16.0499 19.6162 15.8906 19.5746 15.7129 19.5746C15.5353 19.5746 15.3756 19.6159 15.2617 19.6827C15.159 19.7429 15.0953 19.8219 15.0953 19.9054C15.0953 19.9892 15.1587 20.0685 15.2617 20.1284C15.3756 20.1952 15.5353 20.2364 15.7129 20.2364C15.8906 20.2364 16.0503 20.1952 16.1642 20.1284C16.2669 20.0685 16.3303 19.9892 16.3303 19.9054C16.3303 19.8215 16.2669 19.7426 16.1642 19.6827H16.1645Z" fill="#FEFEFE"/>
<path d="M17.38 18.9233C17.493 18.9233 17.5966 18.9502 17.6729 18.9934C17.7614 19.0435 17.8161 19.1172 17.8161 19.202C17.8161 19.2868 17.7611 19.3605 17.6729 19.4106C17.5966 19.4539 17.493 19.4807 17.38 19.4807C17.267 19.4807 17.1634 19.4539 17.0871 19.4106C16.9986 19.3605 16.9438 19.2868 16.9438 19.202C16.9438 19.1172 16.9989 19.0435 17.0871 18.9934C17.1634 18.9502 17.267 18.9233 17.38 18.9233ZM17.6056 19.1166C17.5493 19.0845 17.4695 19.0648 17.38 19.0648C17.2905 19.0648 17.2107 19.0845 17.1544 19.1166C17.1103 19.1414 17.0829 19.1719 17.0829 19.202C17.0829 19.2318 17.1103 19.2623 17.1544 19.2875C17.2107 19.3196 17.2905 19.3392 17.38 19.3392C17.4695 19.3392 17.5493 19.3196 17.6056 19.2875C17.6497 19.2626 17.6771 19.2322 17.6771 19.202C17.6771 19.1722 17.6497 19.1418 17.6056 19.1166Z" fill="#FEFEFE"/>
<path d="M12.556 21.3034C12.4546 21.3034 12.3638 21.3224 12.2998 21.3525C12.2515 21.3754 12.2219 21.401 12.2219 21.4239C12.2219 21.4468 12.2518 21.4724 12.3001 21.4953C12.3645 21.5257 12.4549 21.5447 12.5563 21.5447C12.6577 21.5447 12.7481 21.5257 12.8125 21.4953C12.8608 21.4727 12.8907 21.4468 12.8907 21.4242C12.8907 21.4013 12.8608 21.3757 12.8128 21.3532C12.7481 21.3227 12.6577 21.3037 12.5563 21.3037L12.556 21.3034ZM12.2412 21.2248C12.323 21.1861 12.4346 21.1622 12.556 21.1622C12.6777 21.1622 12.7893 21.1861 12.8708 21.2248C12.9683 21.2713 13.0291 21.3414 13.0291 21.4239C13.0291 21.5064 12.9683 21.5768 12.8708 21.623C12.789 21.662 12.6777 21.6859 12.556 21.6859C12.4346 21.6859 12.323 21.662 12.2412 21.6233C12.143 21.5768 12.0825 21.5067 12.0825 21.4239C12.0825 21.341 12.143 21.271 12.2412 21.2245V21.2248Z" fill="#FEFEFE"/>
<path d="M9.56639 20.7555C9.48206 20.7555 9.40739 20.7745 9.35428 20.805C9.31308 20.8289 9.28765 20.8577 9.28765 20.8855C9.28765 20.9137 9.31308 20.9425 9.35428 20.9661C9.40707 20.9965 9.48206 21.0155 9.56639 21.0155C9.65072 21.0155 9.7254 20.9965 9.77851 20.9661C9.81971 20.9425 9.84513 20.9134 9.84513 20.8855C9.84513 20.8574 9.81971 20.8286 9.77851 20.805C9.72572 20.7745 9.65072 20.7555 9.56639 20.7555ZM9.28604 20.6825C9.35911 20.6406 9.45824 20.6144 9.56639 20.6144C9.67454 20.6144 9.774 20.6406 9.84674 20.6825C9.93139 20.7313 9.98418 20.803 9.98418 20.8859C9.98418 20.9684 9.93172 21.0401 9.84674 21.0892C9.77368 21.1311 9.67422 21.1573 9.56639 21.1573C9.45824 21.1573 9.35879 21.1311 9.28604 21.0892C9.20139 21.0404 9.14893 20.9687 9.14893 20.8859C9.14893 20.803 9.20139 20.7316 9.28636 20.6825H9.28604Z" fill="#FEFEFE"/>
<path d="M7.1733 18.9324C7.04294 18.9324 6.92642 18.9576 6.8437 18.9979C6.77611 19.0306 6.73426 19.0709 6.73426 19.1095C6.73426 19.1485 6.77611 19.1885 6.8437 19.2215C6.92642 19.2618 7.04294 19.287 7.1733 19.287C7.30365 19.287 7.41985 19.2618 7.50289 19.2215C7.57048 19.1888 7.61233 19.1485 7.61233 19.1095C7.61233 19.0706 7.57048 19.0306 7.50289 18.9979C7.42017 18.9576 7.30365 18.9324 7.1733 18.9324ZM6.78383 18.8708C6.8849 18.8217 7.02266 18.7909 7.1733 18.7909C7.32361 18.7909 7.46169 18.8213 7.56244 18.8708C7.67896 18.9275 7.75105 19.0116 7.75105 19.1095C7.75105 19.2074 7.67896 19.2916 7.56244 19.3483C7.46137 19.3974 7.32361 19.4282 7.1733 19.4282C7.02298 19.4282 6.8849 19.3977 6.78383 19.3483C6.66731 19.2916 6.59521 19.2071 6.59521 19.1095C6.59521 19.0116 6.66731 18.9275 6.78383 18.8708Z" fill="#FEFEFE"/>
<path d="M8.48499 21.6108C8.65751 21.6108 8.81523 21.6393 8.93046 21.6848C9.06532 21.7386 9.14869 21.8204 9.14869 21.9177C9.14869 22.0149 9.06532 22.0968 8.93046 22.1505C8.81555 22.1964 8.65751 22.2245 8.48499 22.2245C8.31246 22.2245 8.15475 22.196 8.03952 22.1505C7.90465 22.0968 7.82129 22.0149 7.82129 21.9177C7.82129 21.8204 7.90465 21.7386 8.03952 21.6848C8.15475 21.639 8.31246 21.6108 8.48499 21.6108ZM8.87992 21.8165C8.78014 21.7769 8.64045 21.7523 8.48499 21.7523C8.32952 21.7523 8.18983 21.7769 8.09005 21.8165C8.00991 21.8483 7.96034 21.8846 7.96034 21.9177C7.96034 21.9508 8.00991 21.9871 8.09005 22.0189C8.18983 22.0585 8.32952 22.0831 8.48499 22.0831C8.64045 22.0831 8.78014 22.0585 8.87992 22.0189C8.96007 21.9871 9.00964 21.9508 9.00964 21.9177C9.00964 21.8846 8.96007 21.8483 8.87992 21.8165Z" fill="#FEFEFE"/>
<path d="M4.26981 20.3259C4.53021 20.3259 4.76711 20.3714 4.93963 20.4448C5.13082 20.526 5.24895 20.6455 5.24895 20.7837C5.24895 20.9219 5.1305 21.0415 4.93963 21.1227C4.76711 21.196 4.52989 21.2416 4.26949 21.2416C4.0091 21.2416 3.7722 21.196 3.59936 21.1227C3.40817 21.0415 3.29004 20.9219 3.29004 20.7837C3.29004 20.6455 3.40849 20.526 3.59936 20.4448C3.77188 20.3714 4.0091 20.3259 4.26917 20.3259H4.26981ZM4.88652 20.5751C4.73009 20.5087 4.51186 20.4671 4.26981 20.4671C4.02777 20.4671 3.80954 20.5083 3.65311 20.5751C3.51503 20.6341 3.42941 20.7081 3.42941 20.7837C3.42941 20.8594 3.51503 20.9337 3.65311 20.9923C3.80986 21.0592 4.02777 21.1004 4.26981 21.1004C4.51186 21.1004 4.73009 21.0592 4.88652 20.9923C5.0246 20.9334 5.11022 20.8594 5.11022 20.7837C5.11022 20.7081 5.0246 20.6338 4.88652 20.5751Z" fill="#FEFEFE"/>
<path d="M12.1569 24.2936C12.341 24.2936 12.509 24.344 12.6314 24.4256C12.7624 24.5127 12.8435 24.6364 12.8435 24.7753C12.8435 24.9141 12.7624 25.0376 12.631 25.125C12.5087 25.2066 12.3407 25.257 12.1566 25.257C11.9725 25.257 11.8045 25.2066 11.6822 25.125C11.5512 25.0376 11.4697 24.9141 11.4697 24.7753C11.4697 24.6364 11.5508 24.513 11.6822 24.4256C11.8045 24.344 11.9725 24.2936 12.1566 24.2936H12.1569ZM12.5554 24.5438C12.4547 24.4766 12.3137 24.435 12.1569 24.435C12.0002 24.435 11.8592 24.4766 11.7584 24.5438C11.6664 24.605 11.6091 24.6872 11.6091 24.7753C11.6091 24.8634 11.6661 24.9453 11.7584 25.0068C11.8592 25.074 12.0002 25.1155 12.1569 25.1155C12.3137 25.1155 12.4547 25.074 12.5554 25.0068C12.6478 24.9456 12.7047 24.8634 12.7047 24.7753C12.7047 24.6872 12.6478 24.605 12.5554 24.5438Z" fill="#FEFEFE"/>
<path d="M16.4741 22.3948C16.6467 22.3948 16.8041 22.4275 16.9193 22.4799C17.0516 22.5402 17.1333 22.6299 17.1333 22.7347C17.1333 22.8395 17.0516 22.9292 16.9193 22.9895C16.8041 23.0422 16.6467 23.0746 16.4741 23.0746C16.3019 23.0746 16.1442 23.0419 16.029 22.9895C15.897 22.9292 15.8149 22.8395 15.8149 22.7347C15.8149 22.6302 15.8967 22.5402 16.029 22.4799C16.1442 22.4272 16.3019 22.3948 16.4741 22.3948ZM16.863 22.6086C16.7648 22.5638 16.6277 22.5362 16.4741 22.5362C16.3209 22.5362 16.1835 22.5641 16.0853 22.6086C16.0042 22.6456 15.954 22.6905 15.954 22.7347C15.954 22.7786 16.0042 22.8238 16.0853 22.8608C16.1835 22.9056 16.3206 22.9331 16.4741 22.9331C16.6273 22.9331 16.7648 22.9053 16.863 22.8608C16.9441 22.8238 16.9943 22.7789 16.9943 22.7347C16.9943 22.6908 16.9441 22.6456 16.863 22.6086Z" fill="#FEFEFE"/>
<path d="M23.0434 22.6683C22.8519 22.6683 22.6797 22.6988 22.5564 22.7479C22.4528 22.7892 22.3887 22.8386 22.3887 22.8861C22.3887 22.9336 22.4528 22.9827 22.5564 23.024C22.6797 23.0731 22.8519 23.1035 23.0434 23.1035C23.2349 23.1035 23.4071 23.0731 23.5304 23.024C23.634 22.9827 23.6981 22.9336 23.6981 22.8861C23.6981 22.8386 23.6337 22.7892 23.5304 22.7479C23.4071 22.6988 23.2349 22.6683 23.0434 22.6683ZM22.5062 22.6163C22.6449 22.5609 22.8352 22.5269 23.0434 22.5269C23.252 22.5269 23.4422 22.5609 23.5806 22.6163C23.739 22.6791 23.8368 22.7741 23.8368 22.8858C23.8368 22.9974 23.7387 23.0924 23.5806 23.1553C23.4419 23.2106 23.2517 23.2447 23.0434 23.2447C22.8348 23.2447 22.6446 23.2106 22.5062 23.1553C22.3478 23.0924 22.25 22.9974 22.25 22.8858C22.25 22.7741 22.3482 22.6791 22.5062 22.6163Z" fill="#FEFEFE"/>
<path d="M24.5939 22.3473C24.4639 22.3473 24.347 22.361 24.2637 22.3836L24.1713 22.4088L24.2637 22.4341C24.347 22.4563 24.4639 22.4704 24.5939 22.4704C24.7239 22.4704 24.8411 22.4567 24.9241 22.4341L25.0165 22.4088L24.9241 22.3836C24.8408 22.3614 24.7239 22.3473 24.5939 22.3473ZM24.2282 22.2471C24.3229 22.2215 24.4523 22.2058 24.5939 22.2058C24.7355 22.2058 24.8649 22.2215 24.9595 22.2471C25.0806 22.2795 25.1556 22.3361 25.1556 22.4088C25.1556 22.4815 25.0806 22.5382 24.9595 22.5706C24.8649 22.5962 24.7355 22.6119 24.5939 22.6119C24.4523 22.6119 24.3229 22.5962 24.2282 22.5706C24.1072 22.5382 24.0322 22.4815 24.0322 22.4088C24.0322 22.3361 24.1072 22.2795 24.2282 22.2471Z" fill="#FEFEFE"/>
<path d="M23.9713 24.9921C23.831 24.9921 23.7051 25.0137 23.615 25.0484C23.5455 25.0752 23.5023 25.1044 23.5023 25.1293C23.5023 25.1542 23.5455 25.1833 23.615 25.2102C23.7051 25.2449 23.831 25.2665 23.9713 25.2665C24.1116 25.2665 24.2378 25.2449 24.3276 25.2102C24.3971 25.1833 24.4403 25.1542 24.4403 25.1293C24.4403 25.1044 24.3971 25.0752 24.3276 25.0484C24.2375 25.0137 24.1116 24.9921 23.9713 24.9921ZM23.5661 24.9161C23.671 24.8758 23.8142 24.8506 23.9713 24.8506C24.128 24.8506 24.2716 24.8758 24.3765 24.9161C24.5017 24.9645 24.5793 25.0392 24.5793 25.1289C24.5793 25.2187 24.5017 25.2937 24.3765 25.3418C24.2716 25.3821 24.1284 25.4073 23.9713 25.4073C23.8142 25.4073 23.671 25.3821 23.5661 25.3418C23.4409 25.2937 23.3633 25.2187 23.3633 25.1289C23.3633 25.0392 23.4409 24.9645 23.5661 24.9161Z" fill="#FEFEFE"/>
<path d="M12.5053 17.2845C12.6441 17.2845 12.7712 17.314 12.8642 17.3615C12.9721 17.4159 13.039 17.4971 13.039 17.5914C13.039 17.6854 12.9724 17.7666 12.8645 17.8213C12.7715 17.8688 12.6444 17.8982 12.5053 17.8982C12.3663 17.8982 12.2392 17.8688 12.1461 17.8216C12.0383 17.7666 11.9717 17.6854 11.9717 17.5914C11.9717 17.4971 12.0383 17.4159 12.1461 17.3612C12.2395 17.314 12.3666 17.2845 12.5053 17.2845ZM12.8028 17.4876C12.7281 17.4496 12.6231 17.426 12.5053 17.426C12.3879 17.426 12.2826 17.4496 12.2079 17.4876C12.1477 17.5184 12.1104 17.5557 12.1104 17.5917C12.1104 17.6281 12.1477 17.6651 12.2076 17.6959C12.2826 17.7335 12.3879 17.7574 12.505 17.7574C12.6225 17.7574 12.7274 17.7338 12.8024 17.6959C12.8626 17.6654 12.9 17.6284 12.9 17.592C12.9 17.556 12.8626 17.519 12.8024 17.4882L12.8028 17.4876Z" fill="#FEFEFE"/>
<path d="M15.2213 17.9644C15.3192 17.9644 15.4096 17.9833 15.4759 18.0135C15.5593 18.0515 15.6111 18.1107 15.6111 18.1815C15.6111 18.2522 15.5593 18.3112 15.4759 18.3491C15.4093 18.3796 15.3192 18.3983 15.2213 18.3983C15.1235 18.3983 15.033 18.3793 14.9667 18.3491C14.8834 18.3112 14.8315 18.2519 14.8315 18.1815C14.8315 18.1107 14.8834 18.0518 14.9667 18.0135C15.0334 17.983 15.1235 17.9644 15.2213 17.9644ZM15.4196 18.1422C15.3704 18.1196 15.3002 18.1055 15.2213 18.1055C15.1425 18.1055 15.0723 18.1196 15.0231 18.1422C14.9905 18.1569 14.9706 18.1713 14.9706 18.1815C14.9706 18.1916 14.9909 18.2057 15.0231 18.2208C15.0723 18.2434 15.1425 18.2574 15.2213 18.2574C15.3002 18.2574 15.3704 18.2434 15.4196 18.2208C15.4521 18.206 15.4721 18.1916 15.4721 18.1815C15.4721 18.1713 15.4518 18.1569 15.4196 18.1422Z" fill="#FEFEFE"/>
<path d="M21.3673 19.9198C21.469 19.9198 21.5624 19.9473 21.6309 19.9918C21.7088 20.0426 21.7571 20.1153 21.7571 20.1982C21.7571 20.281 21.7088 20.354 21.6309 20.4045C21.5621 20.449 21.4687 20.4765 21.3673 20.4765C21.2656 20.4765 21.1723 20.449 21.1037 20.4045C21.0258 20.354 20.9775 20.281 20.9775 20.1982C20.9775 20.1153 21.0258 20.0423 21.1037 19.9918C21.1723 19.9473 21.2659 19.9198 21.3673 19.9198ZM21.5566 20.1107C21.5096 20.0803 21.4426 20.0613 21.3673 20.0613C21.292 20.0613 21.2251 20.0803 21.1781 20.1107C21.1401 20.1353 21.1166 20.1667 21.1166 20.1985C21.1166 20.2302 21.1401 20.2614 21.1781 20.2859C21.2251 20.3164 21.292 20.3354 21.3673 20.3354C21.4426 20.3354 21.5096 20.3164 21.5566 20.2859C21.5946 20.2614 21.6181 20.2302 21.6181 20.1985C21.6181 20.1667 21.5946 20.1356 21.5566 20.1107Z" fill="#FEFEFE"/>
<path d="M10.3045 23.859C10.439 23.859 10.5623 23.876 10.6524 23.9035C10.767 23.9386 10.8382 23.9972 10.8382 24.0712C10.8382 24.1452 10.767 24.2042 10.6524 24.2392C10.5623 24.2667 10.439 24.2837 10.3045 24.2837C10.1696 24.2837 10.0464 24.2667 9.95623 24.2392C9.84164 24.2042 9.77051 24.1456 9.77051 24.0712C9.77051 23.9972 9.84164 23.9383 9.95623 23.9035C10.0464 23.876 10.1696 23.859 10.3042 23.859H10.3045ZM10.6128 24.0388C10.535 24.0149 10.4262 24.0005 10.3045 24.0005C10.1828 24.0005 10.0737 24.0152 9.99614 24.0388C9.94271 24.0552 9.90988 24.0673 9.90988 24.0712C9.90988 24.0755 9.94303 24.0876 9.99614 24.104C10.074 24.1279 10.1828 24.1423 10.3048 24.1423C10.4265 24.1423 10.5356 24.1275 10.6132 24.104C10.6666 24.0876 10.6994 24.0755 10.6994 24.0712C10.6994 24.067 10.6663 24.0548 10.6132 24.0388H10.6128Z" fill="#FEFEFE"/>
<path d="M6.65568 21.8564C6.79408 21.8564 6.9209 21.8921 7.0136 21.9498C7.1166 22.014 7.18033 22.106 7.18033 22.2104C7.18033 22.3149 7.1166 22.4069 7.0136 22.4711C6.9209 22.5288 6.79408 22.5645 6.65568 22.5645C6.51727 22.5645 6.39078 22.5288 6.29808 22.4711C6.19508 22.4069 6.13135 22.3149 6.13135 22.2104C6.13135 22.106 6.19508 22.014 6.29808 21.9498C6.39078 21.8921 6.51727 21.8564 6.65568 21.8564ZM6.94118 22.0703C6.8694 22.0254 6.76833 21.9979 6.65568 21.9979C6.54302 21.9979 6.44228 22.0258 6.37018 22.0703C6.30838 22.1086 6.2704 22.1587 6.2704 22.2104C6.2704 22.2622 6.3087 22.3123 6.37018 22.3506C6.44195 22.3955 6.54302 22.423 6.65568 22.423C6.76833 22.423 6.8694 22.3951 6.94118 22.3506C7.00265 22.3123 7.04096 22.2622 7.04096 22.2104C7.04096 22.1587 7.00265 22.1086 6.94118 22.0703Z" fill="#FEFEFE"/>
<path d="M21.7527 25.89C21.8972 25.89 22.0292 25.9211 22.1254 25.9709C22.2361 26.0282 22.3047 26.1127 22.3047 26.2109C22.3047 26.3089 22.2361 26.3937 22.1254 26.451C22.0289 26.5011 21.8969 26.5319 21.7527 26.5319C21.6082 26.5319 21.4762 26.5008 21.38 26.451C21.2692 26.3937 21.2007 26.3089 21.2007 26.2109C21.2007 26.113 21.2692 26.0282 21.38 25.9709C21.4765 25.9208 21.6085 25.89 21.7527 25.89ZM22.0627 26.097C21.9844 26.0564 21.875 26.0315 21.7527 26.0315C21.6304 26.0315 21.5209 26.0567 21.4427 26.097C21.379 26.1301 21.3394 26.1707 21.3394 26.2109C21.3394 26.2512 21.379 26.2918 21.4427 26.3249C21.5209 26.3655 21.6304 26.3904 21.7527 26.3904C21.875 26.3904 21.9844 26.3652 22.0627 26.3249C22.1264 26.2918 22.166 26.2512 22.166 26.2109C22.166 26.1707 22.1264 26.1301 22.0627 26.097Z" fill="#FEFEFE"/>
<path d="M6.00466 21.3502L5.8418 21.193C6.13631 21.0574 6.44273 20.9277 6.73048 20.781L6.90751 21.0011L6.03846 21.3826L6.00499 21.3505L6.00466 21.3502Z" fill="#FEFEFE"/>
<path d="M7.76818 20.6124L7.67773 20.428L8.09456 20.2067L8.27706 20.3923L7.88309 20.6304L7.80359 20.6845L7.76818 20.6124Z" fill="#FEFEFE"/>
<path d="M9.3495 20.0127L9.28223 19.8457L10.0209 19.5042H10.0737L10.2787 19.6731L9.37653 20.0799L9.3495 20.0127Z" fill="#FEFEFE"/>
<path d="M14.194 19.2157L14.173 19.3172L14.2834 19.3192V19.2295L14.194 19.2154V19.2157ZM14.0205 19.3719L14.0849 19.0559L14.4222 19.1083V19.4626L14.0034 19.4551L14.0205 19.3719Z" fill="#FEFEFE"/>
<path d="M14.1606 20.357L13.9955 20.8243L13.5864 20.767L13.7721 20.2349L14.1915 20.2706L14.161 20.357H14.1606ZM13.9031 20.6691L13.9997 20.396L13.8668 20.3845L13.7738 20.6508L13.9031 20.6688V20.6691Z" fill="#FEFEFE"/>
<path d="M13.7091 22.1076L13.6502 22.3758L13.7465 22.3778L13.797 22.1132L13.7095 22.1076H13.7091ZM13.4964 22.4292L13.6 21.9596L13.9631 21.9825L13.8604 22.5209L13.478 22.5134L13.4964 22.4295V22.4292Z" fill="#FEFEFE"/>
<path d="M13.3875 23.0148V22.8815L13.7631 22.9188V23.43L13.3135 23.4372L13.3875 23.0148ZM13.5246 23.0367L13.4796 23.2938L13.6241 23.2915V23.0468L13.5246 23.037V23.0367Z" fill="#FEFEFE"/>
<path d="M12.9366 24.0028L13.244 23.8892L13.5652 24.401L13.132 24.5742V24.477L12.8555 24.0329L12.9366 24.0028ZM13.187 24.0601L13.065 24.1053L13.2366 24.3807L13.3579 24.3322L13.187 24.0601Z" fill="#FEFEFE"/>
<path d="M15.3161 24.3115L15.3589 24.3813L15.9553 24.2048L15.9176 24.1537L15.3161 24.3115ZM15.2642 24.4936L15.0981 24.2235L15.9727 23.9939L16.1857 24.2831L15.3357 24.5349L15.2777 24.5156L15.2642 24.4936Z" fill="#FEFEFE"/>
<path d="M16.7944 23.8661L16.8642 23.9336L17.4037 23.688L17.358 23.63L16.7944 23.8661ZM16.8024 24.0682L16.5439 23.8186L17.4011 23.4597L17.6245 23.742L16.8362 24.1009L16.8024 24.0685V24.0682Z" fill="#FEFEFE"/>
<path d="M22.2847 21.6931V21.6911H22.3516L22.3307 21.6433L22.9165 21.3767L23.1862 21.5644L22.4585 21.8725H22.406L22.302 21.7477C22.2969 21.7382 22.2914 21.7291 22.2882 21.7189C22.285 21.7075 22.285 21.7032 22.285 21.6927L22.2847 21.6931Z" fill="#FEFEFE"/>
</svg>
