<svg width="20" height="20" viewBox="0 0 20 20" fill="none" xmlns="http://www.w3.org/2000/svg">
<path d="M8.80758 0C3.95121 0 0 3.95121 0 8.80758C0 13.6642 3.95121 17.6152 8.80758 17.6152C13.6642 17.6152 17.6152 13.6642 17.6152 8.80758C17.6152 3.95121 13.6642 0 8.80758 0ZM8.80758 15.9892C4.8477 15.9892 1.62602 12.7675 1.62602 8.80762C1.62602 4.84773 4.8477 1.62602 8.80758 1.62602C12.7675 1.62602 15.9891 4.8477 15.9891 8.80758C15.9891 12.7675 12.7675 15.9892 8.80758 15.9892Z" fill="white"/>
<path d="M19.76 18.6104L15.0988 13.9492C14.7811 13.6315 14.2668 13.6315 13.9492 13.9492C13.6315 14.2665 13.6315 14.7814 13.9492 15.0988L18.6104 19.76C18.7692 19.9188 18.9771 19.9982 19.1852 19.9982C19.3931 19.9982 19.6012 19.9188 19.76 19.76C20.0776 19.4427 20.0776 18.9277 19.76 18.6104Z" fill="white"/>
</svg>
