<svg width="16" height="16" viewBox="0 0 16 16" fill="none" xmlns="http://www.w3.org/2000/svg">
<path d="M8.00469 4.14844C5.8775 4.14844 4.15625 5.8725 4.15625 7.99687C4.15625 10.1231 5.88031 11.8453 8.00469 11.8453C10.1319 11.8453 11.8531 10.1212 11.8531 7.99687C11.8531 5.86969 10.1291 4.14844 8.00469 4.14844ZM8.00469 10.4953C6.62469 10.4953 5.50625 9.37687 5.50625 7.99687C5.50625 6.61687 6.62469 5.49844 8.00469 5.49844C9.38469 5.49844 10.5031 6.61594 10.5031 7.99687C10.5031 9.37687 9.38469 10.4953 8.00469 10.4953Z" fill="white"/>
<path d="M11.093 0.547467C9.71298 0.482779 6.29486 0.485592 4.91298 0.547467C3.69892 0.604654 2.6283 0.898092 1.7658 1.76059C0.322985 3.2034 0.507673 5.14684 0.507673 7.99778C0.507673 10.9153 0.345486 12.8147 1.7658 14.235C3.2133 15.6825 5.1858 15.4931 8.00299 15.4931C11.4558 15.4931 15.2339 15.824 15.4533 11.0878C15.518 9.70684 15.5152 6.28965 15.4533 4.90872C15.3295 2.27528 13.9158 0.678717 11.093 0.547467V0.547467ZM13.2764 13.2806C12.3305 14.2265 11.0189 14.1422 7.9833 14.1422C4.85861 14.1422 3.60517 14.1881 2.69017 13.2712C1.63642 12.2231 1.82767 10.5393 1.82767 7.9884C1.82767 1.75403 2.18486 1.83372 7.97392 1.83372L8.00205 1.85247C14.2102 1.85247 14.1464 2.25465 14.1464 7.99778C14.1474 11.0859 14.2064 12.3468 13.2764 13.2806V13.2806Z" fill="white"/>
<path d="M12.0045 4.89578C12.5011 4.89578 12.9036 4.49326 12.9036 3.99672C12.9036 3.50018 12.5011 3.09766 12.0045 3.09766C11.508 3.09766 11.1055 3.50018 11.1055 3.99672C11.1055 4.49326 11.508 4.89578 12.0045 4.89578Z" fill="white"/>
</svg>
