<svg width="50" height="50" viewBox="0 0 50 50" fill="none" xmlns="http://www.w3.org/2000/svg">
<g clip-path="url(#clip0_909_8359)">
<path d="M26.0067 21.4645C26.4107 21.4645 26.7384 21.1372 26.7384 20.7329C26.7384 18.1736 25.7309 15.757 23.9017 13.9278C22.073 12.0987 19.656 11.0916 17.0967 11.0916C14.5374 11.0916 12.1204 12.0987 10.2917 13.9278C8.46254 15.7566 7.45508 18.1736 7.45508 20.7329C7.45508 22.7878 8.099 24.7543 9.31703 26.4206C10.5351 28.0865 12.2135 29.2965 14.1712 29.9202C15.0684 30.2059 15.5136 28.812 14.6153 28.5259C12.9555 27.9972 11.5318 26.9707 10.4984 25.5569C9.46466 24.1432 8.91839 22.475 8.91839 20.7329C8.91839 18.5646 9.77365 16.5153 11.3262 14.9624C12.8788 13.4098 14.9281 12.5549 17.0967 12.5549C19.2654 12.5549 21.3146 13.4098 22.8672 14.9624C24.4198 16.5153 25.275 18.5646 25.275 20.7329C25.275 21.1372 25.6027 21.4645 26.0067 21.4645Z" fill="white"/>
<path d="M17.0961 15.9145C19.1827 15.9145 21.076 17.3149 21.7001 19.3199C21.9801 20.219 23.3789 19.7903 23.0974 18.8851C22.2849 16.2747 19.8167 14.4512 17.0961 14.4512C13.6324 14.4512 10.8145 17.2695 10.8145 20.7333C10.8145 22.673 11.6937 24.4759 13.2269 25.679C13.9673 26.2596 14.8763 25.1133 14.1302 24.5277C12.9701 23.6172 12.2778 22.1989 12.2778 20.7333C12.2778 18.0763 14.4392 15.9145 17.0961 15.9145Z" fill="white"/>
<path d="M31.1443 45.7778C31.0524 45.6069 30.8963 45.4795 30.7106 45.4238C30.5244 45.3678 30.3241 45.3884 30.1532 45.4803C28.6224 46.3039 26.8093 46.2768 25.3036 45.4082L23.2231 44.2077L16.9128 40.3793C16.8182 40.2092 16.658 40.0817 16.4665 40.0295C16.4524 39.9986 16.4436 39.97 16.439 39.9482C16.4253 39.8864 16.4146 39.7647 16.4966 39.6423C17.1009 38.7405 18.2922 38.4887 19.2097 39.0697L23.9067 42.0372C25.5588 43.0805 27.5745 41.1865 26.654 39.4756L24.1234 34.7709C23.6774 33.9416 22.3854 34.629 22.8348 35.4641L25.3654 40.1683C25.5939 40.5933 25.0923 41.0553 24.6883 40.8001L19.9917 37.833C18.3994 36.8251 16.3303 37.2623 15.2813 38.8275C15.0455 39.1792 14.941 39.5889 14.9734 40.0028H3.37219C2.31972 40.0028 1.46332 39.1464 1.46332 38.0939V3.37219C1.46332 2.31933 2.31972 1.46332 3.37219 1.46332H6.92596C7.86781 1.46332 7.87391 0 6.92596 0H3.37219C1.51253 0 0 1.51291 0 3.37219V38.0939C0 39.9532 1.51253 41.4657 3.37219 41.4657H15.8832L22.4712 45.4628C22.4758 45.4654 22.4804 45.4685 22.4849 45.4711L24.5727 46.6754C26.3069 47.676 28.3565 47.8134 30.183 47.0798L31.5525 49.6257C31.9992 50.4558 33.2878 49.7627 32.8411 48.9326L31.1443 45.7778Z" fill="white"/>
<path d="M41.5895 40.2023C41.8604 38.0005 41.4358 35.7261 40.3841 33.7711L38.4836 30.2383L36.0014 25.6241C35.6317 24.9367 34.9592 24.4499 34.1925 24.308V11.5276L40.8048 6.81114H49.2132C50.1547 6.81114 50.1611 5.3482 49.2132 5.3482H40.7263C40.5908 5.3482 40.4642 5.38558 40.3551 5.45005C40.2342 5.46302 40.1148 5.50613 40.0087 5.58166L34.1925 9.73052V3.37219C34.1925 1.51291 32.6799 0 30.8207 0H11.7056C10.7641 0 10.7577 1.46332 11.7056 1.46332H30.8207C31.8731 1.46332 32.7295 2.31933 32.7295 3.37219V10.7738L28.0592 14.1052C27.3027 14.6446 28.1282 15.8535 28.9091 15.2962L32.7295 12.5709V24.4671C32.2473 24.6708 31.8312 25.0194 31.5508 25.4616C30.2961 24.3137 28.2129 24.7085 27.4794 26.2481C26.3552 25.6199 24.8892 25.9346 24.1308 26.9779L20.5809 20.3792C19.9141 19.1391 18.326 18.6672 17.0855 19.3291C15.8465 19.9901 15.3704 21.5889 16.0353 22.8245L20.9456 31.9523C21.3919 32.7816 22.6835 32.0942 22.2342 31.2591L17.3239 22.1313C16.6353 20.8523 18.6159 19.8147 19.2923 21.0724L26.4811 34.4356C26.9278 35.2657 28.216 34.5722 27.7697 33.7425L25.2337 29.0275C24.5459 27.7504 26.523 26.7071 27.202 27.9686L27.5343 28.5862L29.7384 32.6835C30.1729 33.4911 31.4928 32.8563 31.027 31.9904L28.8229 27.893C28.1359 26.6159 30.1126 25.5726 30.7917 26.8345L32.9954 30.9314C33.4349 31.7486 34.7383 31.0825 34.284 30.2383L32.7448 27.3765C32.4171 26.7677 32.7375 25.9891 33.3933 25.7812C33.5081 25.7919 33.6332 25.7732 33.7393 25.7297C34.1432 25.7339 34.5217 25.9617 34.7132 26.3176L37.1954 30.9318L39.0959 34.4646C40.0385 36.2171 40.3982 38.2656 40.1094 40.234C40.0865 40.3896 40.1144 40.5487 40.1888 40.6871L41.9798 44.0166C42.4265 44.8467 43.7151 44.1536 43.2684 43.3235L41.5895 40.2023Z" fill="white"/>
<path d="M49.2132 8.66467H41.7994C40.8579 8.66467 40.8514 10.1276 41.7994 10.1276H49.2132C50.1547 10.1276 50.1612 8.66467 49.2132 8.66467Z" fill="white"/>
<path d="M49.2132 11.9812H41.7994C40.8579 11.9812 40.8514 13.4445 41.7994 13.4445H49.2132C50.1547 13.4445 50.1612 11.9812 49.2132 11.9812Z" fill="white"/>
<path d="M44.9209 15.2981H41.7994C40.8579 15.2981 40.8514 16.761 41.7994 16.761H44.9209C45.8628 16.761 45.8693 15.2981 44.9209 15.2981Z" fill="white"/>
</g>
<defs>
<clipPath id="clip0_909_8359">
<rect width="50" height="50" fill="white"/>
</clipPath>
</defs>
</svg>
