<svg width="50" height="50" viewBox="0 0 50 50" fill="none" xmlns="http://www.w3.org/2000/svg">
<g clip-path="url(#clip0_909_8369)">
<path d="M47.1321 43.1686H2.86721C1.28831 43.1686 0.00390625 44.4534 0.00390625 46.0323V47.1287C0.00390625 48.7076 1.28831 49.992 2.86721 49.992H39.1575C40.1021 49.992 40.1021 48.5275 39.1575 48.5275H2.86721C2.09588 48.5275 1.46837 47.9 1.46837 47.1287V46.0323C1.46837 45.261 2.09588 44.6335 2.86721 44.6335H47.1321C47.9035 44.6335 48.531 45.261 48.531 46.0323V47.1287C48.531 47.9 47.9035 48.5275 47.1321 48.5275H43.1607C42.2162 48.5275 42.2162 49.992 43.1607 49.992H47.1321C48.711 49.992 49.9958 48.7076 49.9958 47.1287V46.0323C49.9958 44.4534 48.711 43.1686 47.1321 43.1686Z" fill="white"/>
<path d="M7.66864 6.05395H8.88896V7.27427C8.88896 8.21879 10.3534 8.21879 10.3534 7.27427V6.05395H11.5741C12.5186 6.05395 12.5186 4.58911 11.5741 4.58911H10.3534V3.36879C10.3534 2.42427 8.88896 2.42427 8.88896 3.36879V4.58911H7.66864C6.72374 4.58911 6.72374 6.05395 7.66864 6.05395Z" fill="white"/>
<path d="M5.81386 18.5517H7.03456V19.7724C7.03456 20.7169 8.49902 20.7169 8.49902 19.7724V18.5517H9.71972C10.6642 18.5517 10.6642 17.0872 9.71972 17.0872H8.49902V15.8669C8.49902 15.4621 8.17134 15.1345 7.76698 15.1345C7.36224 15.1345 7.03456 15.4621 7.03456 15.8669V17.0872H5.81386C4.86934 17.0872 4.86934 18.5517 5.81386 18.5517Z" fill="white"/>
<path d="M39.988 15.1345H41.2083V16.3548C41.2083 17.2997 42.6731 17.2997 42.6731 16.3548V15.1345H43.8935C44.838 15.1345 44.838 13.67 43.8935 13.67H42.6731V12.4493C42.6731 11.5048 41.2083 11.5048 41.2083 12.4493V13.67H39.988C39.0431 13.67 39.0431 15.1345 39.988 15.1345Z" fill="white"/>
<path d="M16.5858 23.5988C13.5333 24.9717 11.4795 28.0342 11.4795 31.4003V34.6054C11.4795 35.5499 12.944 35.5499 12.944 34.6054V31.4003C12.944 28.6777 14.5377 26.1734 17.0039 25.0202L18.426 24.3549C18.9223 27.5367 21.6807 29.9793 24.9995 29.9793C28.3183 29.9793 31.0771 27.5367 31.573 24.3549L32.9955 25.0202C35.4617 26.1734 37.0551 28.6777 37.0551 31.4003V34.6054C37.0551 35.5499 38.5199 35.5499 38.5199 34.6054V31.4003C38.5199 28.0632 36.4921 24.992 33.462 23.6213C35.5803 22.8756 36.5954 21.3184 36.6511 21.2303C36.84 20.9335 36.7904 20.5444 36.534 20.3037C35.2801 19.1284 35.2858 16.1564 35.2897 14.1899L35.29 10.0464C35.29 4.50668 30.7834 0 25.2437 0H24.9995C23.3478 0 21.7086 0.411605 20.259 1.19018C19.427 1.63727 20.1198 2.92701 20.9525 2.48031C22.1892 1.81579 23.5889 1.46446 24.9995 1.46446H25.2437C29.9758 1.46446 33.8256 5.31425 33.8256 10.0464L33.8252 14.1868C33.821 16.3112 33.8157 19.1448 35.0795 20.8603C34.5191 21.4672 33.2461 22.5269 31.1679 22.5486L29.2602 21.6564C28.5216 21.3112 28.025 20.5936 27.9502 19.791C30.1284 18.7034 31.6283 16.4531 31.6283 13.8576V10.0464C31.6283 8.97788 31.3682 7.91587 30.8753 6.97478C30.5839 6.4186 29.6279 6.45713 29.3956 7.04612C27.5321 11.7702 19.3359 10.8959 19.2256 10.8833C19.2111 10.8818 19.1966 10.8814 19.1821 10.8806C19.1562 10.878 19.1299 10.8765 19.1032 10.8765C18.6984 10.8765 18.3707 11.2041 18.3707 11.6085V13.8576C18.3707 16.4528 19.8711 18.7034 22.0489 19.791C21.9741 20.5936 21.4774 21.3112 20.7393 21.6564L18.8457 22.5418C16.7411 22.4685 15.6146 21.4679 15.1385 20.8942C16.4279 19.1826 16.4226 16.3254 16.4184 14.1868L16.418 10.0464C16.418 8.00818 17.1481 6.03065 18.4745 4.47921C19.0879 3.76091 17.9748 2.80952 17.361 3.52745C15.8084 5.34438 14.9535 7.65952 14.9535 10.0464L14.9539 14.1899C14.9577 16.1564 14.9635 19.1284 13.7096 20.3037C13.4704 20.5284 13.4093 20.8847 13.5608 21.1757C13.6062 21.2631 14.45 22.8336 16.5858 23.5988ZM19.8352 13.8576V12.3978C20.1156 12.4122 20.4608 12.4233 20.8552 12.4233C21.7105 12.4233 22.7958 12.3703 23.9413 12.1807C26.7585 11.7149 28.8344 10.5942 30.0372 8.90921C30.12 9.27848 30.1639 9.65804 30.1639 10.0464V13.8576C30.1639 16.7053 27.8472 19.022 24.9995 19.022C22.1519 19.022 19.8352 16.7053 19.8352 13.8576ZM21.3595 22.9831C22.4528 22.472 23.2226 21.4622 23.4519 20.3022C23.9486 20.4216 24.4666 20.4864 24.9995 20.4864C25.5324 20.4864 26.0505 20.4216 26.5471 20.3022C26.7764 21.4622 27.5462 22.472 28.6395 22.9831L30.1734 23.7003C29.9808 26.3874 27.7347 28.5148 24.9995 28.5148C22.2644 28.5148 20.0183 26.3874 19.8257 23.7003L21.3595 22.9831Z" fill="white"/>
<path d="M16.1611 32.1728V39.4959C16.1611 40.4404 17.6256 40.4404 17.6256 39.4959V32.1728C17.6256 31.2279 16.1611 31.2279 16.1611 32.1728Z" fill="white"/>
<path d="M21.5654 33.2466V37.3474C21.5654 38.2923 23.0299 38.2923 23.0299 37.3474V33.2466C23.0299 32.3021 21.5654 32.3021 21.5654 33.2466Z" fill="white"/>
<path d="M26.9697 34.3208V39.4958C26.9697 40.4403 28.4346 40.4403 28.4346 39.4958V34.3208C28.4346 33.3759 26.9697 33.3759 26.9697 34.3208Z" fill="white"/>
<path d="M32.375 32.1728V36.2736C32.375 37.2181 33.8395 37.2181 33.8395 36.2736V32.1728C33.8395 31.2279 32.375 31.2279 32.375 32.1728Z" fill="white"/>
<path d="M7.94705 40.4984C8.23544 41.4051 9.62857 40.9531 9.34323 40.0551L1.43423 15.157C1.14813 14.2567 -0.247671 14.7 0.0384312 15.6002L7.94705 40.4984Z" fill="white"/>
<path d="M41.1331 40.9748C41.5119 41.0954 41.9315 40.8798 42.0528 40.4984L49.9614 15.6002C50.2475 14.7 48.8517 14.2567 48.5656 15.157L40.6566 40.0551C40.5342 40.4404 40.7474 40.8524 41.1331 40.9748Z" fill="white"/>
</g>
<defs>
<clipPath id="clip0_909_8369">
<rect width="50" height="50" fill="white"/>
</clipPath>
</defs>
</svg>
