<svg width="120" height="120" viewBox="0 0 120 120" fill="none" xmlns="http://www.w3.org/2000/svg">
<path d="M17.4613 12.9763L20.8515 13.9805L22.4496 10.8789L22.7686 11.1201L85.0153 30.8141C77.9679 45.4871 70.916 60.1579 63.8787 74.8354L63.4797 74.7216L57.1187 71.2255L53.7612 69.3963L48.7628 66.8965L42.5978 63.7633L35.7431 60.5152L30.9599 58.3557L24.7849 55.5212L19.8811 53.3483C13.7319 50.667 7.61881 47.9384 1.49219 45.2042C6.72394 34.433 11.9647 23.6675 17.2021 12.8997L17.4624 12.9775L17.4613 12.9763ZM20.9236 14.6725L17.5402 13.6706L2.35889 44.8875L14.3946 50.2545L20.138 52.7588C23.8573 54.4077 27.5236 56.0723 31.2237 57.7697C37.2984 60.5106 43.1095 63.3012 49.0524 66.3228C51.932 67.7632 54.611 69.128 57.4275 70.662L63.5541 74.0296L84.1159 31.2063L22.7088 11.7783L21.1783 14.7503L20.9236 14.6748V14.6725Z" fill="#FEFEFE"/>
<path d="M45.0138 33.7644L44.8177 34.1329L45.3768 34.2952L45.5481 33.9469L45.0138 33.7644ZM44.0637 34.1791L44.7028 32.9766L46.4474 33.5739L45.805 34.8813L45.5886 35.0255L43.8789 34.5274L44.0637 34.1791Z" fill="#FEFEFE"/>
<path d="M33.7164 57.2788L34.1706 57.4512L34.3566 57.1007L33.9193 56.9564L33.7164 57.2799V57.2788ZM34.2089 58.1534L32.7539 57.6011L33.6454 56.1855L34.8547 56.5857H35.3619L34.4749 58.2537L34.21 58.1534H34.2089Z" fill="#FEFEFE"/>
<path d="M67.3519 70.4797L66.8864 71.476L68.0045 71.7601L67.3553 73.2106L66.1347 72.9852L65.2274 74.8955L67.9616 76.4937L67.9966 76.5466L71.6876 79.0273L77.3398 82.7149L86.9963 88.9081C90.6615 91.2997 94.303 93.7037 97.9512 96.1223L99.4118 93.3757L100.902 93.8671L106.285 82.7747L67.3496 70.4797H67.3519ZM66.1403 71.5561L67.0093 69.6953C80.4008 73.9319 93.7947 78.1617 107.191 82.3836L101.237 94.6537L99.7274 94.1556L98.189 97.0476L91.3106 92.4876L86.6503 89.4457L76.9938 83.2526C73.8189 81.181 70.671 79.1264 67.5322 77.0042L67.5086 76.9681L64.3945 75.1468L65.7661 72.2582L66.9755 72.4825L67.1051 72.1928L65.9758 71.9054L66.1403 71.5538V71.5561Z" fill="#FEFEFE"/>
<path d="M67.0088 69.723L78.3886 46.1914C91.7667 50.4595 105.155 54.7074 118.54 58.9552C114.7 66.8738 110.855 74.7902 107.021 82.7111C93.6285 78.4993 80.237 74.2819 66.8477 70.0577L67.0088 69.723ZM78.7245 46.9724L67.7493 69.6678L106.684 81.93L117.637 59.3418L78.7245 46.9724Z" fill="#FEFEFE"/>
<path d="M69.5312 70.5166L73.3857 62.527L73.3542 67.5164L73.663 66.9574L73.6033 62.4255C74.8847 59.6823 76.1718 56.9413 77.4566 54.1992L77.5006 58.8009L78.2602 57.063L80.4613 57.7663L80.2675 58.3783L78.6175 57.8508L76.8875 61.8113L76.8413 57.0258L74.2468 62.5653L74.3065 67.1219L72.696 70.0421L72.7253 65.375L70.1106 70.7961L69.5312 70.5166ZM86.9791 59.8514L94.0547 62.1122L93.8608 62.7242L86.7852 60.4633L86.9791 59.8514ZM100.573 64.1961L100.91 64.3032L100.717 64.9152L100.38 64.8081L100.573 64.1961ZM107.438 66.3905L113.576 68.3527L113.382 68.9647L107.244 67.0025L107.438 66.3905Z" fill="#FEFEFE"/>
<path d="M78.8802 46.5857L78.7596 57.4617L78.1172 57.4561L78.2378 46.5801L78.8802 46.5857Z" fill="#FEFEFE"/>
<path d="M77.14 60.6244L75.7605 60.3923L75.7109 58.0007L76.3534 57.9883L76.3917 59.8468L77.246 59.9899L77.14 60.6244Z" fill="#FEFEFE"/>
<path d="M72.9563 69.0948L71.5903 68.8018L71.543 66.4226L72.1854 66.4102L72.2215 68.2788L73.0893 68.4659L72.9563 69.0948Z" fill="#FEFEFE"/>
<path d="M73.7969 80.9904L73.8566 77.7344L80.5862 79.9062L80.451 84.7085L81.0415 85.0872L102.169 91.8867L101.973 92.4987L80.7631 85.6722L79.7995 85.0545L79.9303 80.3694L74.4832 78.6123L74.4393 81.0006L73.7969 80.9904Z" fill="#FEFEFE"/>
<path d="M44.6686 34.3315L44.6799 45.1038L45.3167 45.3213L45.5387 44.9685L45.6762 33.7578L46.3186 33.7657L46.1789 45.159L45.5906 46.0956L44.0386 45.5647L44.0273 34.3315H44.6686Z" fill="#FEFEFE"/>
<path d="M45.8755 34.6638L45.7741 45.7111L45.1328 45.7055L45.2342 34.6582L45.8755 34.6638Z" fill="#FEFEFE"/>
<path d="M33.5593 57.4375L33.5728 59.0334L32.9304 59.039L32.918 57.442L33.5593 57.4375Z" fill="#FEFEFE"/>
<path d="M34.6459 57.8538L34.6335 59.5173L33.9922 59.5151L34.0035 57.8516L34.6459 57.8538Z" fill="#FEFEFE"/>
<path d="M35.1455 56.9099L35.1139 59.7354L34.4727 59.7309L34.5042 56.9043L35.1455 56.9099Z" fill="#FEFEFE"/>
<path d="M6.13394 46.8482L6.34019 46.5642L17.3323 24.0052L20.7562 24.9361L22.3206 21.8672L80.0253 40.371L79.8292 40.983L22.6463 22.6471L21.0921 25.6958L17.6771 24.7682C15.0579 30.1431 9.65145 43.0962 6.65463 47.2269L6.13281 46.8493L6.13394 46.8482Z" fill="#FEFEFE"/>
<path d="M17.6921 13.2812L17.8228 24.3827L17.1815 24.3905L17.0508 13.2891L17.6921 13.2812Z" fill="#FEFEFE"/>
<path d="M21.3375 14.3678L21.2429 25.3182L20.6016 25.3137L20.6951 14.3633L21.3375 14.3678Z" fill="#FEFEFE"/>
<path d="M22.9412 11.3906C23.1531 14.6241 22.8488 18.9125 22.8026 22.2599L22.1602 22.252L22.3101 11.5957L22.2988 11.4312L22.9412 11.3906Z" fill="#FEFEFE"/>
<path d="M67.8768 71.9766L67.8836 76.629H67.2411L67.2344 71.9766H67.8768Z" fill="#FEFEFE"/>
<path d="M67.4862 72.8438L67.5425 76.4266L66.9012 76.4379L66.8438 72.8539L67.4862 72.8438Z" fill="#FEFEFE"/>
<path d="M66.2702 72.6152L66.3559 75.7304L65.7134 75.745L65.6289 72.6299L66.2702 72.6152Z" fill="#FEFEFE"/>
<path d="M0.875715 45.4836C4.58144 47.0187 8.11248 48.5515 11.7833 50.1834L19.5058 53.5578C23.5699 55.3532 27.5969 57.1497 31.6407 58.9879C36.4825 61.2071 40.7979 63.2741 45.5394 65.6826C55.3447 70.7069 63.8258 75.267 73.0247 81.2493C76.6053 83.5474 80.1589 85.8499 83.7193 88.1784L89.5055 91.927C92.9599 94.1754 96.3951 96.4261 99.8338 98.6983L119.095 59.1434L78.3849 46.2027L85.9564 30.4443L22.5556 10.3807L20.8774 13.7516L16.8753 12.522L0.874588 45.4825L0.875715 45.4836ZM5.55521 48.1175L0 45.8161C5.50675 34.4566 11.0214 23.1005 16.5394 11.7466L20.5449 12.9774L22.2254 9.59961C43.7632 16.4329 65.3112 23.2436 86.8569 30.0532L79.2832 45.815L119.999 58.7569C113.355 72.3806 106.725 86.01 100.092 99.6382L94.6122 96.017L89.1561 92.4646L83.3676 88.716L77.9533 85.1771L72.6776 81.7892L67.1922 78.2221L62.9715 75.6479L53.7883 70.6292L45.2498 66.2551L38.7264 62.9416L31.377 59.5728L25.9356 57.1012L19.2477 54.1472C14.673 52.149 10.1164 50.1462 5.55521 48.1175Z" fill="#FEFEFE"/>
<path d="M0.75863 45.6507L0.745106 48.1663L1.04715 48.2711L0.92656 56.0252L6.87624 58.579L13.1156 61.2794C18.5547 63.6474 23.9589 66.0175 29.3743 68.4339C35.7185 71.3023 41.7764 74.2439 47.9965 77.3624C56.038 81.422 63.4303 85.4027 70.9725 90.3516L75.785 93.4848L82.6047 97.9671C88.2614 101.583 93.8132 105.186 99.4169 108.884L100.072 109.303L119.203 69.8811L119.226 58.9498H119.868L119.846 70.031C113.334 83.4282 106.838 96.8344 100.334 110.235C97.1526 108.2 94.0161 106.09 90.8637 104.009C85.6849 100.698 80.5715 97.3979 75.4367 94.0235L70.622 90.8903L66.3471 88.0862L60.385 84.6206L53.847 81.0366L47.7091 77.9372L41.791 74.9697L35.4097 71.8692L29.1117 69.0211L22.0226 65.8586L12.8609 61.87L6.62603 59.1707L0.279636 56.4467L0.399103 48.7264L0.101562 48.6227L0.117341 45.6484L0.759757 45.6507H0.75863Z" fill="#FEFEFE"/>
<path d="M86.7291 30.2514L86.6604 41.4948L83.7188 47.6091L83.1406 47.3318L86.0202 41.3472L86.0867 30.248L86.7291 30.2514Z" fill="#FEFEFE"/>
<path d="M0.845606 48.2023C8.47684 51.4144 15.9165 54.6163 23.4868 57.9648C33.4048 62.3941 42.8608 66.9541 52.506 71.9503C62.1513 76.9656 68.6093 80.9227 77.8758 86.931L91.7554 96.0229L91.8163 96.113L99.6571 101.118L99.8882 100.909L100.321 101.384L99.727 101.924C96.9364 100.146 94.1414 98.3705 91.3576 96.5819L91.2978 96.4928L77.5253 87.4697L66.0103 80.0019L60.3987 76.7786L52.2107 72.5206L43.874 68.2017L31.3547 62.1811L23.2287 58.5531L12.3122 53.7248L0.597656 48.7929L0.846733 48.2012L0.845606 48.2023Z" fill="#FEFEFE"/>
<path d="M100.283 99.1621L100.522 109.763L99.8807 109.776L99.6406 99.1745L100.283 99.1621Z" fill="#FEFEFE"/>
<path d="M81.4738 89.4643L81.4276 97.3683L80.7852 97.366L80.8314 89.4609L81.4738 89.4643Z" fill="#FEFEFE"/>
<path d="M80.582 97.2305L80.6237 89.3242L81.2661 89.3265L81.2233 97.2338L80.582 97.2305Z" fill="#FEFEFE"/>
<path d="M88.1107 93.8461L88.1006 93.943L88.1141 101.667H87.4717C87.4672 99.3912 87.2395 95.9052 87.4706 93.7773L88.1096 93.845L88.1107 93.8461Z" fill="#FEFEFE"/>
<path d="M88.3854 93.9939L88.2987 101.786L87.6562 101.782L87.743 93.9883L88.3854 93.9939Z" fill="#FEFEFE"/>
<path d="M98.9717 67.6817L94.9008 66.3574L94.122 67.9792L94.0792 69.2449L93.5664 69.2291L93.6126 67.8553L94.6326 65.7285L99.1306 67.1926L98.9717 67.6817Z" fill="#FEFEFE"/>
<path d="M102.358 71.9418L103.125 70.6243L103.292 69.087L99.3555 67.8055L99.5144 67.3164L103.849 68.7263L103.625 70.7888L102.803 72.1999L102.358 71.9418Z" fill="#FEFEFE"/>
<path d="M102.324 72.0518L102.425 70.7219L103.337 68.7969L103.803 69.0167L102.931 70.8549L102.837 72.089L102.324 72.0518Z" fill="#FEFEFE"/>
<path d="M94.0027 67.6992C94.014 67.706 94.0061 67.7094 93.9948 67.7116L94.0027 67.6992ZM93.9948 67.7116C93.9779 67.715 93.9542 67.7139 93.9824 67.715L93.9813 67.733L93.9858 67.715H93.9824L93.9813 67.733L93.7266 68.1354C93.8629 68.2222 93.8697 68.2244 93.9497 68.2289L98.0747 69.5679L98.2336 69.0787L94.1605 67.7556C94.0613 67.7229 94.0162 67.7184 93.9914 67.7161L93.9937 67.7127L93.9948 67.7116ZM93.9858 67.7263L93.9925 67.715H93.9869L93.9858 67.7263ZM98.5684 69.1858L102.754 70.545L102.595 71.0341L98.4094 69.6749L98.5684 69.1858Z" fill="#FEFEFE"/>
<path d="M99.667 67.6783L98.7496 69.4951L98.7293 71.0008H98.4757V70.7427L98.2188 70.7405L98.2379 69.3677L99.2072 67.4473L99.667 67.6783Z" fill="#FEFEFE"/>
<path d="M99.2852 67.5459L98.414 69.3853L98.3577 70.6318L97.8438 70.6093L97.9046 69.2579L98.8198 67.3262L99.2852 67.5459Z" fill="#FEFEFE"/>
<path d="M93.9245 68.332L98.2084 69.7228L98.0495 70.2119L93.7656 68.8212L93.9245 68.332ZM98.5747 69.8423L102.709 71.1846L102.55 71.6737L98.4158 70.3314L98.5747 69.8423Z" fill="#FEFEFE"/>
<path d="M93.6016 69.1048L93.9385 68.5469L94.3792 68.8129L94.0422 69.3707L93.6016 69.1048Z" fill="#FEFEFE"/>
<path d="M93.6406 68.4177L93.6598 68.394L93.9472 67.9004L94.3924 68.1585C94.2842 68.3444 94.176 68.571 94.043 68.7378L93.6406 68.4177Z" fill="#FEFEFE"/>
<path d="M98.2812 70.5736L98.3241 70.5251L98.5619 70.0664L99.0195 70.302L98.7535 70.8148L98.6678 70.9128L98.2812 70.5736Z" fill="#FEFEFE"/>
<path d="M98.2617 69.949L98.5976 69.4023L99.0371 69.6695L98.7013 70.2172L98.2617 69.949Z" fill="#FEFEFE"/>
<path d="M99.3065 67.4404L99.2952 68.3465L98.7812 68.3409L98.7937 67.4336L99.3065 67.4404Z" fill="#FEFEFE"/>
<path d="M98.1341 70.8805L98.0845 70.8783L98.0992 70.5886L97.9414 70.4692L98.2739 70.0273L98.6853 70.3362L98.2694 70.8873L98.1341 70.8805Z" fill="#FEFEFE"/>
<path d="M81.7545 57.1239C81.2293 56.9673 80.9464 56.8872 80.7897 56.8489L80.7154 56.8309L80.6996 56.9391C80.6703 57.1758 80.6477 57.5725 80.6331 57.861L80.6229 58.0402C80.6139 58.2025 80.6072 58.2949 80.5779 58.3941C80.5486 58.4933 80.5046 58.5744 80.4223 58.7153L80.3276 58.8765C80.1789 59.1289 79.9738 59.4749 79.8577 59.7082C79.79 59.8446 79.7483 59.9449 79.7258 60.0283C79.7055 60.1005 79.6988 60.1579 79.6988 60.2143C79.6976 60.2751 79.7033 60.3383 79.7134 60.3946C79.7213 60.4363 79.7326 60.4724 79.7461 60.496C79.7483 60.5006 79.7619 60.5084 79.8419 60.5434C79.9805 60.6042 80.2364 60.6933 80.7041 60.8466C81.1865 61.0043 81.7455 61.1847 82.2865 61.3571L84.4278 62.0322L85.3419 62.314L85.5042 62.3591C85.5335 62.323 85.5741 62.2633 85.6315 62.1742C85.7285 62.0266 85.8592 61.8158 85.9888 61.6006C86.1421 61.3481 86.2954 61.0889 86.3991 60.9097C86.4903 60.7519 86.5422 60.6538 86.5715 60.5648C86.5985 60.4803 86.6098 60.3856 86.6199 60.2312C86.6301 60.061 86.638 59.8379 86.6425 59.617C86.6481 59.36 86.6493 59.0985 86.6481 58.9171C86.647 58.8201 86.6447 58.7627 86.6076 58.7322C86.5039 58.6499 86.2683 58.5564 85.7961 58.3952C85.3577 58.2453 84.722 58.0402 84.0582 57.8317C83.2242 57.5691 82.3439 57.2997 81.7567 57.1239H81.7545ZM80.9103 56.3496C81.0862 56.3925 81.3792 56.4747 81.9021 56.6303C82.4859 56.805 83.3673 57.0743 84.2103 57.3403C84.8719 57.5488 85.5109 57.7551 85.9606 57.9084C86.4926 58.0898 86.7699 58.2036 86.9276 58.3299C87.1497 58.5079 87.1587 58.6601 87.1621 58.9114C87.1643 59.0996 87.1621 59.3668 87.1564 59.6271C87.1519 59.866 87.144 60.0982 87.1339 60.2616C87.1215 60.4622 87.1057 60.5896 87.0617 60.7237C87.02 60.8522 86.9547 60.9739 86.8442 61.1655C86.7349 61.3571 86.5782 61.6197 86.4283 61.8665C86.2909 62.0931 86.1567 62.3095 86.0621 62.4537C85.946 62.6318 85.8727 62.7276 85.8107 62.7828C85.6834 62.8967 85.6 62.8955 85.4873 62.8786C85.4354 62.8707 85.3723 62.8572 85.1987 62.8065C85.0184 62.7547 84.7434 62.6701 84.2746 62.5236L82.1309 61.8463L80.5429 61.3357C80.0617 61.1779 79.7946 61.0832 79.6356 61.0145C79.417 60.9198 79.3539 60.8488 79.2987 60.7496C79.2558 60.6741 79.2254 60.5862 79.2074 60.4927C79.1905 60.4036 79.1826 60.3045 79.1837 60.2053C79.1848 60.1072 79.1961 60.008 79.2288 59.8886C79.2592 59.7792 79.3111 59.6485 79.3967 59.4783C79.5286 59.2157 79.7348 58.8675 79.8836 58.615L79.9783 58.455C80.0391 58.3535 80.0696 58.2972 80.0842 58.2498C80.0977 58.2025 80.1022 58.136 80.1101 58.012L80.1203 57.834C80.1361 57.5308 80.1597 57.1149 80.189 56.8771C80.2116 56.7002 80.242 56.5886 80.2826 56.5119C80.357 56.3733 80.4471 56.3339 80.5564 56.3147C80.6241 56.3023 80.6962 56.2978 80.9103 56.3496Z" fill="#FEFEFE"/>
<path d="M80.216 58.5506L80.3343 58.3116L80.4324 58.084C80.5969 58.155 80.7637 58.226 81.751 58.5314L83.5024 59.0668C84.2981 59.308 85.0995 59.5514 85.5469 59.6912C86.0236 59.8411 86.2738 59.9256 86.4091 59.9785C86.5939 60.0518 86.6322 60.0913 86.6694 60.1318L86.293 60.4823C86.2908 60.4801 86.2975 60.4868 86.2231 60.4587C86.0958 60.4102 85.8568 60.3279 85.3936 60.1825C84.8256 60.0045 84.0806 59.7791 83.3525 59.5582L81.5989 59.0228C80.5732 58.705 80.3997 58.6306 80.2272 58.5573L80.2148 58.5506H80.216Z" fill="#FEFEFE"/>
<path d="M86.9019 58.645L86.8614 58.8693L86.9019 58.8828C86.9087 58.8783 86.9121 58.8783 86.9098 58.8851C86.8997 58.9166 86.8895 58.9764 86.8805 59.0789L86.8557 59.4869C86.8456 59.6898 86.8332 59.9039 86.8163 60.0606C86.7994 60.2195 86.7757 60.3277 86.7318 60.4404C86.6901 60.5463 86.6303 60.6433 86.539 60.7898L86.4286 60.9656C86.2674 61.2203 86.06 61.5483 85.9349 61.7737C85.8639 61.901 85.8222 61.9923 85.7986 62.0633C85.7794 62.1208 85.7715 62.1693 85.7681 62.2177C85.7602 62.3316 85.7693 62.4634 85.7783 62.5931L85.7794 62.61L85.2655 62.6426L85.2643 62.6269C85.2542 62.4781 85.2441 62.3293 85.2542 62.1806C85.2598 62.0938 85.2734 62.0092 85.3106 61.8988C85.3432 61.8007 85.3962 61.6835 85.4841 61.5257C85.6137 61.2913 85.8267 60.9543 85.9935 60.6917L86.104 60.5159C86.1784 60.3976 86.2257 60.3198 86.255 60.2488C86.2809 60.1857 86.2945 60.1169 86.3057 60.0076C86.3215 59.8622 86.3328 59.6571 86.3429 59.4621L86.3688 59.0361C86.3835 58.8851 86.4015 58.787 86.4241 58.7217C86.468 58.592 86.5323 58.5323 86.6134 58.494C86.7374 58.432 86.84 58.4534 86.9403 58.4748L86.9031 58.6461L86.9019 58.645ZM86.8614 58.8693L86.8512 58.9279C86.8681 58.9099 86.8907 58.8896 86.9019 58.8828L86.8614 58.8693ZM86.8467 58.9504L86.8456 58.955C86.8501 58.9504 86.8524 58.9482 86.8467 58.9504Z" fill="#FEFEFE"/>
<path d="M84.1358 57.6757L84.0659 57.7737C84.0468 57.8031 84.031 57.8301 84.022 57.8538C84.013 57.8774 84.0039 57.9067 83.9972 57.9529C83.9882 58.0161 83.9814 58.0983 83.9758 58.2167L83.9679 58.441C83.96 58.6889 83.951 58.9808 83.925 59.1758C83.8867 59.4666 83.8225 59.5556 83.6703 59.7664L83.3491 60.2285L83.0809 60.6353C82.9986 60.7661 82.9378 60.8664 82.8972 60.9441C82.8566 61.0196 82.8273 61.0839 82.807 61.1425C82.789 61.1943 82.7766 61.2428 82.771 61.2879C82.7642 61.3341 82.7619 61.3758 82.7631 61.4119C82.7642 61.4502 82.7687 61.4907 82.7743 61.5313L82.7969 61.6587L82.292 61.7567L82.266 61.6035C82.2582 61.5494 82.2525 61.4896 82.2503 61.4231C82.2491 61.3555 82.2514 61.2845 82.2627 61.2124C82.2739 61.138 82.2931 61.058 82.3235 60.9712C82.3517 60.8912 82.39 60.8055 82.4452 60.7018C82.4993 60.6004 82.5647 60.4899 82.647 60.3603L82.9231 59.9399L83.2545 59.4643C83.3536 59.3279 83.3965 59.2693 83.4168 59.1082C83.4393 58.938 83.4483 58.6607 83.4551 58.4252L83.463 58.1941C83.4686 58.051 83.4776 57.9507 83.4878 57.8763C83.5013 57.785 83.5204 57.7208 83.5464 57.6577C83.5723 57.5957 83.6027 57.5416 83.6343 57.4931L83.7222 57.3691L84.1347 57.6757H84.1358Z" fill="#FEFEFE"/>
<path d="M85.5414 58.1838C85.5076 58.2109 85.4738 58.2391 85.4456 58.2684C85.4264 58.2886 85.4095 58.3112 85.3971 58.3394C85.3802 58.3766 85.3667 58.4261 85.3566 58.4915C85.3442 58.5693 85.3352 58.6707 85.3273 58.7992L85.3149 59.0269C85.3025 59.2613 85.2878 59.5228 85.2596 59.7189C85.2382 59.8643 85.2078 59.9803 85.1627 60.0964C85.1188 60.2091 85.0647 60.3128 84.9925 60.4447L84.837 60.7231C84.7265 60.9169 84.6071 61.1288 84.5203 61.2979C84.4617 61.4162 84.4211 61.5064 84.3952 61.5796C84.3704 61.6484 84.3569 61.707 84.3479 61.7667C84.3276 61.8974 84.3298 62.0372 84.331 62.1747V62.1882L83.817 62.1961V62.1826C83.8159 62.0169 83.8136 61.8512 83.8384 61.6912C83.852 61.601 83.8734 61.512 83.9094 61.4083C83.9444 61.3091 83.9928 61.1987 84.0616 61.0657C84.1484 60.8978 84.2735 60.6757 84.3884 60.4729L84.5428 60.1967C84.606 60.0818 84.6522 59.9939 84.6837 59.9127C84.7142 59.835 84.7344 59.7538 84.7502 59.6456C84.7761 59.4664 84.7897 59.2207 84.8009 59.0009L84.8133 58.771C84.8224 58.6301 84.8336 58.5129 84.8494 58.4126C84.8674 58.2988 84.8922 58.2075 84.9283 58.1297C84.9677 58.0429 85.0185 57.9742 85.0737 57.9156C85.1199 57.866 85.1695 57.8266 85.2179 57.7871L85.5425 58.1861L85.5414 58.1838Z" fill="#FEFEFE"/>
<path d="M86.377 58.4073L86.2586 58.5685C86.2237 58.6181 86.1933 58.6654 86.1696 58.706C86.1504 58.742 86.1335 58.7758 86.1211 58.8187C86.1054 58.8728 86.0907 58.9438 86.0783 59.0463L86.0389 59.4059C86.0208 59.5896 86.0005 59.78 85.9802 59.9153C85.96 60.0528 85.9363 60.1531 85.8991 60.259C85.8619 60.3638 85.8157 60.4619 85.7458 60.6017L85.6083 60.8733C85.49 61.1077 85.3547 61.3771 85.268 61.5664C85.2093 61.6949 85.1733 61.7839 85.1507 61.8515C85.1305 61.9135 85.1203 61.9643 85.1135 62.0172L85.0955 62.2122L85.0842 62.4365L84.5703 62.4162L84.5816 62.1818C84.5861 62.104 84.594 62.0262 84.603 61.9496C84.6131 61.8673 84.6289 61.7918 84.6605 61.6949C84.6898 61.6036 84.7326 61.4977 84.7991 61.3523C84.8904 61.1562 85.0279 60.8834 85.1474 60.6445L85.2837 60.3729C85.3457 60.2466 85.3863 60.161 85.4122 60.0877C85.437 60.0167 85.4539 59.9446 85.4697 59.8386C85.49 59.7 85.5091 59.5231 85.5261 59.3529L85.5678 58.9787C85.5858 58.8446 85.6038 58.7499 85.6275 58.6722C85.6534 58.5842 85.6827 58.52 85.7199 58.4535C85.7548 58.3926 85.7954 58.3318 85.8371 58.272L85.9622 58.0996L86.3747 58.4062L86.377 58.4073Z" fill="#FEFEFE"/>
<path d="M84.8855 57.9344L84.8809 57.9389C84.8178 58.0088 84.7536 58.0787 84.7187 58.1328C84.7074 58.1519 84.6972 58.1722 84.6882 58.2049C84.6758 58.2511 84.6623 58.3244 84.6476 58.445L84.6048 58.8361C84.5823 59.0502 84.5586 59.2779 84.5361 59.4345C84.5135 59.5878 84.4899 59.6949 84.4493 59.8064C84.411 59.9146 84.3614 60.0149 84.2859 60.157L84.0976 60.5041C83.9861 60.707 83.8666 60.9256 83.7731 61.1104C83.7111 61.2322 83.675 61.3122 83.6525 61.3742C83.6333 61.4271 83.6243 61.47 83.6175 61.5196C83.6006 61.639 83.5905 61.7946 83.5815 61.9523L83.5803 61.9738L83.0664 61.9411L83.0675 61.9208C83.0777 61.7517 83.0878 61.5838 83.107 61.4474C83.1182 61.3651 83.134 61.2941 83.1656 61.2017C83.1949 61.1172 83.24 61.018 83.311 60.8771C83.3842 60.7329 83.5172 60.4883 83.6423 60.2606L83.8283 59.9158C83.8925 59.7929 83.9354 59.7095 83.9624 59.634C83.9895 59.5607 84.0064 59.4819 84.0233 59.3613C84.0469 59.1967 84.0695 58.9837 84.0898 58.7831L84.1337 58.383C84.1495 58.2432 84.1675 58.1463 84.1889 58.0685C84.2137 57.9772 84.243 57.9175 84.2802 57.8589C84.3433 57.7609 84.42 57.6775 84.4955 57.5941L84.4977 57.5918L84.8821 57.9344H84.8855Z" fill="#FEFEFE"/>
<path d="M82.5427 57.1897L82.4548 57.3058C82.4312 57.3385 82.4098 57.3701 82.394 57.3982C82.3827 57.4197 82.3726 57.4411 82.3647 57.4749C82.3523 57.5256 82.3399 57.6011 82.3252 57.7228L82.2858 58.0734C82.261 58.2988 82.2351 58.5445 82.2103 58.7113C82.1889 58.8623 82.1663 58.9615 82.1302 59.0618C82.0953 59.1576 82.0502 59.2432 81.9815 59.3717L81.8428 59.6242C81.7245 59.8394 81.587 60.0885 81.5092 60.2362C81.4484 60.3556 81.4067 60.4401 81.3819 60.5066C81.3582 60.5698 81.3447 60.6227 81.3357 60.6858C81.312 60.8312 81.3075 61.0341 81.303 61.2358L80.7891 61.2257C80.7936 61.0082 80.7992 60.7895 80.8274 60.6103C80.842 60.51 80.8634 60.4244 80.9006 60.3252C80.9367 60.2316 80.984 60.1313 81.0528 59.9995C81.1565 59.8034 81.2827 59.5757 81.392 59.3773L81.5307 59.1249C81.587 59.0212 81.6242 58.9524 81.6479 58.8871C81.6704 58.8251 81.6862 58.753 81.702 58.638C81.7256 58.4723 81.7516 58.2368 81.7752 58.0193L81.8147 57.662C81.8316 57.52 81.8474 57.4253 81.8654 57.352C81.8868 57.263 81.9116 57.2078 81.9432 57.1503C81.9702 57.1007 82.004 57.0511 82.0378 57.0038L82.1381 56.873L82.5427 57.1886V57.1897Z" fill="#FEFEFE"/>
<path d="M83.4006 57.4761L83.3961 57.4806C83.3476 57.5325 83.298 57.5843 83.2653 57.6362C83.2529 57.6553 83.2417 57.679 83.2304 57.715C83.2146 57.7658 83.1966 57.839 83.1763 57.9506L83.0219 58.8635C82.9948 59.0078 82.97 59.1103 82.934 59.2151C82.8968 59.3233 82.8494 59.4282 82.7796 59.5735L82.562 60.0063C82.4584 60.2103 82.349 60.4245 82.2724 60.5856C82.2059 60.7265 82.1597 60.8313 82.1293 60.9147C82.1 60.9959 82.0831 61.0567 82.0718 61.1108C82.0594 61.1717 82.0515 61.2303 82.0459 61.2878L82.0335 61.4749L81.5195 61.449L81.5331 61.2416C81.5398 61.1661 81.55 61.0894 81.5669 61.0105C81.5838 60.926 81.6074 60.8392 81.6446 60.7378C81.6807 60.6386 81.7325 60.5191 81.8058 60.3636C81.8881 60.19 81.9974 59.9759 82.1011 59.7719L82.3152 59.347C82.3783 59.2174 82.4189 59.1284 82.446 59.0483C82.4741 58.9638 82.4933 58.8827 82.5158 58.7677L82.6702 57.8559C82.695 57.7218 82.7176 57.6283 82.7401 57.5573C82.7672 57.4727 82.7954 57.4164 82.828 57.3634L82.8292 57.36C82.8866 57.2687 82.9543 57.1977 83.0208 57.1279L83.0275 57.1211L83.4006 57.4761Z" fill="#FEFEFE"/>
<path d="M81.7571 56.9962L81.6095 57.1325C81.5723 57.1686 81.5396 57.2047 81.5182 57.2362C81.5058 57.2543 81.4979 57.2723 81.4912 57.2994C81.4799 57.3478 81.4709 57.4222 81.4607 57.536L81.4416 57.7716C81.4235 58.0049 81.401 58.281 81.3728 58.4839C81.3514 58.6338 81.3255 58.7408 81.2872 58.8445C81.2511 58.9426 81.2026 59.0361 81.1339 59.1669L81.0494 59.3247C80.9288 59.5489 80.78 59.8239 80.6921 60.0121C80.6369 60.1305 80.6008 60.2207 80.5782 60.2939C80.5557 60.3683 80.5433 60.4314 80.5354 60.4968C80.5163 60.6399 80.5106 60.8 80.5061 60.96V60.9758L79.9922 60.96V60.9453C79.9967 60.7707 80.0023 60.5948 80.0249 60.4292C80.0373 60.3367 80.0553 60.2466 80.0857 60.144C80.1162 60.0426 80.1612 59.931 80.2255 59.7935C80.328 59.5737 80.4757 59.301 80.594 59.0812L80.6786 58.9246C80.7349 58.8197 80.7732 58.7442 80.8014 58.6676C80.8273 58.5977 80.8454 58.5211 80.8611 58.4106C80.8859 58.2325 80.9085 57.9609 80.9265 57.7321L80.9457 57.4955C80.9581 57.3568 80.9693 57.2622 80.9874 57.1844C81.011 57.0852 81.0426 57.0165 81.0933 56.9443C81.1328 56.8869 81.1869 56.8271 81.2455 56.7696L81.4111 56.6152L81.756 56.9973L81.7571 56.9962Z" fill="#FEFEFE"/>
<path d="M95.3544 61.3689C94.827 61.2111 94.5441 61.1311 94.3908 61.0939L94.3153 61.0759L94.2995 61.1841C94.2702 61.4061 94.2477 61.813 94.233 62.1083L94.2229 62.2852C94.2138 62.4475 94.2071 62.5399 94.1778 62.6391C94.1485 62.7383 94.1045 62.8194 94.0222 62.9603L93.9242 63.1282C93.7754 63.3796 93.5726 63.7222 93.4576 63.9521C93.3888 64.0907 93.3483 64.191 93.3257 64.271C93.3054 64.3454 93.2987 64.4029 93.2976 64.4593C93.2964 64.5201 93.3021 64.5821 93.3122 64.6396C93.3201 64.6813 93.3314 64.7174 93.346 64.741C93.3494 64.7455 93.3618 64.7534 93.4418 64.7884C93.5804 64.8492 93.8363 64.9383 94.304 65.0915L95.9179 65.6122L98.0278 66.2783L98.9418 66.5601L99.1041 66.6052C99.1323 66.5691 99.1728 66.5094 99.2315 66.4192C99.334 66.2614 99.4636 66.0529 99.5887 65.8467C99.7296 65.6145 99.8829 65.3553 99.9978 65.1547C100.089 64.9969 100.142 64.8988 100.171 64.8098C100.2 64.7241 100.211 64.6306 100.22 64.4762C100.23 64.3049 100.238 64.0783 100.242 63.8552C100.248 63.6005 100.249 63.3424 100.248 63.162C100.247 63.0651 100.245 63.0076 100.206 62.9772C100.104 62.8949 99.8671 62.8014 99.3949 62.6402C98.9565 62.4903 98.3208 62.2852 97.6558 62.0767C96.8218 61.8141 95.9427 61.5447 95.3544 61.3689ZM94.5091 60.5946C94.6883 60.6375 94.9814 60.7197 95.5009 60.8753C96.0836 61.05 96.965 61.3204 97.808 61.5853C98.4696 61.7938 99.1097 62.0001 99.5583 62.1533C100.091 62.3359 100.368 62.4497 100.525 62.5748C100.747 62.7518 100.757 62.9051 100.76 63.1564C100.762 63.3435 100.76 63.6072 100.754 63.8653C100.75 64.1054 100.742 64.3398 100.732 64.5055C100.719 64.7083 100.703 64.8357 100.659 64.9698C100.617 65.0972 100.552 65.2189 100.443 65.4094C100.346 65.5807 100.189 65.8433 100.027 66.1115C99.8851 66.3459 99.7499 66.5646 99.6609 66.6998C99.5459 66.8757 99.4726 66.9703 99.4095 67.0278C99.2822 67.1428 99.1999 67.1405 99.0872 67.1247C99.0354 67.118 98.9722 67.1044 98.7964 67.0526C98.6161 67.0008 98.3411 66.9162 97.8722 66.7697L95.7602 66.1014L94.1417 65.5807C93.6605 65.4229 93.3922 65.3282 93.2333 65.2583C93.0135 65.1625 92.9504 65.0915 92.8952 64.9924C92.8535 64.9168 92.8231 64.8289 92.805 64.7365C92.787 64.6475 92.7802 64.5483 92.7814 64.4491C92.7836 64.3499 92.7938 64.2519 92.8276 64.1324C92.8591 64.0197 92.911 63.8901 92.9955 63.7211C93.1262 63.4607 93.3302 63.117 93.479 62.8656L93.5771 62.6988C93.6368 62.5974 93.6684 62.541 93.6819 62.4937C93.6954 62.4464 93.6999 62.3799 93.7078 62.2559L93.7179 62.0801C93.7337 61.7825 93.7563 61.3723 93.7878 61.121C93.8092 60.9418 93.8397 60.8313 93.8802 60.7558C93.9569 60.616 94.0459 60.5777 94.1541 60.5586C94.2217 60.5462 94.2939 60.5428 94.508 60.5935L94.5091 60.5946Z" fill="#FEFEFE"/>
<path d="M94.0332 62.3281C94.1178 62.3642 94.2034 62.4014 94.3736 62.4611C94.5584 62.5254 94.8492 62.6212 95.3519 62.7767L97.0616 63.2985C97.8675 63.5431 98.697 63.7944 99.1478 63.9364C100.153 64.252 100.212 64.314 100.27 64.376L99.895 64.7287C99.8826 64.7163 99.8702 64.7028 98.9945 64.4278C98.4118 64.2452 97.6567 64.0153 96.9117 63.7899L95.1997 63.2681C94.6948 63.1114 94.3962 63.0145 94.2034 62.9469C93.996 62.8747 93.9115 62.8375 93.8281 62.8026L94.0321 62.3292L94.0332 62.3281Z" fill="#FEFEFE"/>
<path d="M100.424 62.699C100.47 62.7024 100.509 62.7103 100.546 62.7182L100.461 63.1115L100.506 63.1262C100.513 63.1217 100.516 63.1217 100.514 63.1284C100.504 63.16 100.494 63.2197 100.485 63.3223L100.459 63.7359C100.449 63.9377 100.438 64.1484 100.421 64.3028C100.404 64.4629 100.38 64.5711 100.335 64.6826C100.292 64.7863 100.234 64.8844 100.142 65.0298L100.024 65.218C99.8582 65.4806 99.6486 65.8119 99.537 66.0137C99.466 66.1422 99.4243 66.2323 99.4006 66.3022C99.3815 66.3619 99.3736 66.4081 99.3702 66.4566C99.3612 66.5738 99.3713 66.7057 99.3803 66.8375L99.3815 66.8499L98.8675 66.8838L98.8664 66.8736C98.8563 66.7226 98.845 66.5716 98.8563 66.4205C98.8619 66.3338 98.8754 66.2481 98.9126 66.1388C98.9464 66.0407 98.9994 65.9224 99.0862 65.7657C99.2259 65.5155 99.4277 65.1954 99.5866 64.9441L99.7049 64.757C99.7793 64.6387 99.8266 64.5609 99.8548 64.4899C99.8807 64.4257 99.8943 64.3558 99.9067 64.2476C99.9213 64.1045 99.9326 63.9016 99.9427 63.7089C99.9506 63.5545 99.9585 63.4068 99.9698 63.2772C99.9833 63.1262 100.001 63.0281 100.024 62.9616C100.068 62.832 100.132 62.7734 100.213 62.7328L100.217 62.7306C100.284 62.6979 100.354 62.69 100.423 62.6945L100.424 62.699ZM100.46 63.1115L100.444 63.1837C100.46 63.1656 100.489 63.1363 100.505 63.1273L100.46 63.1127V63.1115Z" fill="#FEFEFE"/>
<path d="M97.7402 61.9218L97.6703 62.0187C97.6545 62.0435 97.6398 62.0694 97.6274 62.0976C97.6173 62.1235 97.6094 62.1528 97.6027 62.1968C97.5936 62.2588 97.5869 62.3422 97.5812 62.4616L97.5733 62.6893C97.5655 62.9361 97.5564 63.2258 97.5305 63.4208C97.4922 63.7115 97.428 63.8006 97.2747 64.0125L96.9546 64.4712L96.6864 64.8814C96.6041 65.0122 96.5432 65.1125 96.5027 65.1891C96.4621 65.2657 96.4328 65.3289 96.4125 65.3875C96.3945 65.4393 96.3821 65.4878 96.3764 65.5328C96.3697 65.5802 96.3674 65.6208 96.3685 65.658C96.3697 65.6963 96.3742 65.7368 96.3798 65.7774L96.4024 65.907L95.8974 66.0017L95.8715 65.8495C95.8636 65.7954 95.858 65.7357 95.8557 65.6692C95.8546 65.6016 95.8569 65.5295 95.8681 65.4573C95.8794 65.3829 95.8986 65.3029 95.929 65.2173C95.9572 65.1384 95.9955 65.0516 96.0507 64.9479C96.1048 64.8465 96.1702 64.7349 96.2525 64.6064L96.5297 64.1849L96.8588 63.7138C96.9591 63.5752 97.0008 63.5166 97.0222 63.3565C97.0448 63.1863 97.0538 62.9113 97.0605 62.6758L97.0684 62.4414C97.0741 62.2982 97.0831 62.1979 97.0932 62.1235C97.1067 62.0311 97.1259 61.9669 97.1507 61.9049C97.1755 61.8452 97.2071 61.7911 97.2397 61.7403L97.3277 61.6152L97.7402 61.924V61.9218Z" fill="#FEFEFE"/>
<path d="M99.1656 62.4114L99.1442 62.4294C99.0867 62.4767 99.0281 62.5241 99.001 62.5838C98.9841 62.6199 98.9717 62.6706 98.9616 62.736C98.9492 62.8137 98.9402 62.9152 98.9323 63.0448L98.9199 63.2645C98.9075 63.5012 98.8928 63.7649 98.8647 63.9633C98.8433 64.1098 98.8128 64.2248 98.7677 64.3409C98.7249 64.4524 98.6708 64.5573 98.5976 64.6891L98.4454 64.9596C98.3383 65.1467 98.2223 65.353 98.1265 65.5423C98.0678 65.6561 98.0273 65.7452 98.0002 65.8229C97.9754 65.8928 97.9608 65.9525 97.9529 66.0111C97.9326 66.1453 97.9349 66.2895 97.9371 66.4327L97.4232 66.4383C97.4209 66.2704 97.4187 66.1013 97.4435 65.9345C97.457 65.8432 97.4784 65.7531 97.5156 65.6494C97.5494 65.5547 97.5979 65.4454 97.6689 65.3079C97.7455 65.1557 97.8774 64.9213 97.9991 64.7072L98.149 64.4378C98.2121 64.3228 98.2583 64.2349 98.2899 64.1538C98.3203 64.076 98.3406 63.9949 98.3564 63.8867C98.3834 63.7052 98.3958 63.4573 98.4082 63.2352L98.4206 63.0121C98.4296 62.8712 98.4398 62.7551 98.4567 62.6537C98.4747 62.5421 98.4995 62.4508 98.5344 62.3719C98.6111 62.2006 98.717 62.115 98.823 62.0293L98.9785 62.2209L99.1678 62.4102L99.1656 62.4114Z" fill="#FEFEFE"/>
<path d="M99.9779 62.6526L99.8596 62.8126C99.828 62.8566 99.7976 62.9028 99.7717 62.9501C99.7514 62.985 99.7356 63.0177 99.7232 63.0617C99.7074 63.1146 99.6939 63.1857 99.6804 63.2893L99.6398 63.6545C99.6218 63.8371 99.6015 64.0253 99.5823 64.1583C99.562 64.2958 99.5384 64.3961 99.5012 64.502C99.4651 64.6035 99.4178 64.7027 99.3479 64.8447L99.2093 65.1208C99.0921 65.3552 98.9568 65.6235 98.87 65.8117C98.8126 65.9356 98.7776 66.0236 98.7551 66.0946C98.7348 66.1554 98.7247 66.2061 98.7179 66.2614C98.701 66.382 98.6953 66.5262 98.6897 66.6705V66.6806L98.4463 66.6716H98.1758L98.1769 66.6615C98.1837 66.5014 98.1904 66.3403 98.2107 66.1937C98.2209 66.1137 98.2366 66.0393 98.2671 65.9413C98.2941 65.8534 98.3369 65.7463 98.4057 65.5975C98.4959 65.4026 98.6334 65.1298 98.7528 64.892L98.8903 64.6193C98.9512 64.4953 98.9918 64.4085 99.0188 64.333C99.0436 64.262 99.0605 64.1899 99.0763 64.0839C99.0966 63.9464 99.1146 63.7717 99.1315 63.6049L99.1743 63.224C99.1924 63.091 99.2104 62.9963 99.2329 62.9185C99.2577 62.8306 99.2882 62.7664 99.3265 62.6988C99.3569 62.6447 99.3975 62.5827 99.4426 62.5173L99.5688 62.3438L99.9813 62.6526H99.9779Z" fill="#FEFEFE"/>
<path d="M98.4864 62.1794L98.4774 62.1895C98.4165 62.256 98.3568 62.3214 98.3207 62.3789C98.3083 62.398 98.2993 62.4183 98.2903 62.4488C98.2768 62.4972 98.2644 62.5705 98.2497 62.6911L98.2069 63.0799C98.1844 63.294 98.1607 63.5228 98.1382 63.6806C98.1156 63.835 98.092 63.9432 98.0525 64.0525C98.0142 64.1607 97.9646 64.261 97.8891 64.403L97.7043 64.7434C97.5848 64.9609 97.4574 65.1965 97.3763 65.3543C97.3165 65.4737 97.2794 65.5549 97.2568 65.6191C97.2377 65.6721 97.2286 65.7149 97.2219 65.7645L97.2016 65.9708L97.1858 66.2165L96.6719 66.1883L96.6877 65.9336C96.6933 65.8513 96.7023 65.7713 96.7124 65.6946C96.7237 65.6124 96.7384 65.5402 96.7711 65.4478C96.8004 65.3655 96.8443 65.2664 96.9164 65.1244C97.0066 64.9497 97.134 64.7152 97.2501 64.5011L97.4326 64.1619C97.4969 64.039 97.5397 63.9556 97.5668 63.8801C97.5938 63.8057 97.6107 63.7257 97.6276 63.6074C97.6513 63.4439 97.6738 63.2298 97.6941 63.0281L97.7381 62.6291C97.755 62.4871 97.773 62.3901 97.7944 62.3135C97.8203 62.2222 97.8485 62.1636 97.8857 62.1061C97.9454 62.0137 98.0198 61.9314 98.0942 61.848L98.1032 61.8379L98.4853 62.1805L98.4864 62.1794Z" fill="#FEFEFE"/>
<path d="M96.1427 61.4344L96.1359 61.4434C96.0818 61.5133 96.0266 61.5832 95.9939 61.6429C95.9826 61.6632 95.9736 61.6835 95.9646 61.7196C95.9522 61.768 95.9409 61.8435 95.9251 61.9675L95.8857 62.3191C95.8609 62.5468 95.835 62.7936 95.8113 62.9582C95.7899 63.1069 95.7673 63.2073 95.7313 63.3076C95.6963 63.4034 95.6513 63.4901 95.5814 63.6175L95.4383 63.8778C95.3199 64.0909 95.1858 64.3343 95.108 64.4831C95.0472 64.6014 95.0066 64.6848 94.9807 64.7536C94.957 64.8155 94.9435 64.8685 94.9345 64.9316C94.9232 65.0004 94.9164 65.0872 94.9108 65.1807L94.9007 65.4816L94.3867 65.4715L94.3969 65.1559C94.4025 65.0511 94.4104 64.9497 94.425 64.8561C94.4397 64.7558 94.4611 64.6702 94.4983 64.5721C94.5332 64.4808 94.5806 64.3805 94.6505 64.2475C94.7519 64.0548 94.877 63.8294 94.9863 63.6322L95.1294 63.3729C95.1869 63.2692 95.223 63.2005 95.2467 63.1351C95.2692 63.0731 95.2839 63.0021 95.3008 62.886C95.3256 62.7181 95.3503 62.4837 95.374 62.2684L95.4135 61.91C95.4304 61.7703 95.4461 61.6756 95.4642 61.6012C95.4856 61.5144 95.5093 61.457 95.5419 61.3995C95.5915 61.3082 95.6603 61.2191 95.729 61.1312L95.7369 61.1211L96.1415 61.4389L96.1427 61.4344Z" fill="#FEFEFE"/>
<path d="M97.0089 61.7129L96.9999 61.723C96.948 61.7771 96.8962 61.8312 96.8669 61.8797C96.8545 61.9 96.8432 61.9236 96.8319 61.9597C96.8162 62.0104 96.7981 62.0837 96.7779 62.1941L96.6234 63.107C96.5964 63.2502 96.5716 63.3516 96.5355 63.4587C96.4995 63.5635 96.4533 63.6683 96.38 63.8182L96.1602 64.2555C96.0487 64.4742 95.9337 64.7007 95.8717 64.8292C95.8063 64.9678 95.7613 65.0726 95.7297 65.1594C95.7004 65.2394 95.6835 65.3003 95.6722 65.3555C95.6486 65.4738 95.6418 65.5956 95.635 65.7162V65.7218L95.1211 65.6936V65.6891C95.1279 65.5516 95.1357 65.413 95.1673 65.2552C95.1842 65.1718 95.2068 65.0861 95.2451 64.9836C95.28 64.8867 95.3319 64.7672 95.4062 64.6105C95.5043 64.4065 95.6057 64.207 95.7004 64.0222L95.9168 63.5928C95.9799 63.4666 96.0194 63.3775 96.0475 63.2941C96.0757 63.2119 96.0949 63.1296 96.1174 63.0135L96.2718 62.1017C96.2966 61.9687 96.3191 61.8763 96.3417 61.8042C96.3687 61.7185 96.3969 61.661 96.4307 61.6069C96.4927 61.5089 96.5603 61.4379 96.6268 61.3691L96.7655 61.501L97.0078 61.7129H97.0089Z" fill="#FEFEFE"/>
<path d="M95.3626 61.2426L95.215 61.3789C95.1766 61.4161 95.1451 61.4522 95.1225 61.4826C95.109 61.5018 95.1011 61.5198 95.0944 61.5457C95.0831 61.5953 95.0752 61.6686 95.0651 61.7813L95.0459 62.018C95.0279 62.2513 95.0053 62.5274 94.9772 62.7291C94.9557 62.8802 94.9298 62.9861 94.8915 63.0909C94.8532 63.1946 94.8059 63.287 94.7394 63.4121L94.6548 63.5688C94.5342 63.792 94.3843 64.0703 94.2964 64.2585C94.2423 64.3735 94.2074 64.4637 94.1837 64.5426C94.1612 64.6158 94.1488 64.6789 94.1409 64.7443C94.1206 64.8931 94.1161 65.0587 94.1116 65.2222L93.5977 65.2086C93.6022 65.0272 93.6078 64.8457 93.6315 64.6756C93.6439 64.5831 93.6619 64.4941 93.6923 64.3915C93.7228 64.2935 93.7656 64.1819 93.8321 64.041C93.9358 63.8201 94.0834 63.5463 94.2029 63.3254L94.2852 63.1709C94.3426 63.0616 94.3832 62.9839 94.4091 62.914C94.435 62.843 94.4531 62.7675 94.4689 62.657C94.4948 62.4789 94.5162 62.2073 94.5342 61.9774L94.5534 61.7396C94.5658 61.5998 94.5771 61.5063 94.5951 61.4285C94.6199 61.3282 94.6514 61.2595 94.701 61.1885C94.7405 61.131 94.7946 61.0713 94.8543 61.0127L95.0189 60.8594L95.3637 61.2414L95.3626 61.2426Z" fill="#FEFEFE"/>
<path d="M102.214 63.5486C101.686 63.3908 101.403 63.3108 101.25 63.2736L101.174 63.2555L101.158 63.3637C101.13 63.6004 101.107 63.9983 101.092 64.2879L101.082 64.4649C101.073 64.6272 101.065 64.7185 101.037 64.8188C101.008 64.9179 100.964 65.0002 100.882 65.14L100.78 65.3113C100.631 65.5626 100.431 65.903 100.316 66.1318C100.248 66.267 100.208 66.3685 100.184 66.4507C100.164 66.5229 100.157 66.5815 100.157 66.6367C100.156 66.6975 100.161 66.7607 100.173 66.8181C100.181 66.861 100.192 66.897 100.205 66.9207C100.208 66.9241 100.22 66.932 100.301 66.9669C100.44 67.0278 100.695 67.1168 101.163 67.2701L102.75 67.7818L104.888 68.4557L105.802 68.7364L105.965 68.7815C105.993 68.7454 106.034 68.6857 106.092 68.5966C106.188 68.4501 106.317 68.2416 106.447 68.0275C106.601 67.7739 106.756 67.5124 106.859 67.3321C106.951 67.1709 107.004 67.0729 107.032 66.9861C107.06 66.9004 107.071 66.8069 107.08 66.6525C107.091 66.4834 107.098 66.2636 107.103 66.0461C107.109 65.7858 107.11 65.5209 107.109 65.3383C107.107 65.2425 107.105 65.1851 107.067 65.1546C106.963 65.0723 106.728 64.9788 106.255 64.8176C105.815 64.6677 105.176 64.4615 104.511 64.2519C103.679 63.9904 102.801 63.721 102.216 63.5463L102.214 63.5486ZM101.369 62.7743C101.548 62.8171 101.841 62.8994 102.36 63.0549C102.942 63.2285 103.821 63.4979 104.662 63.7627C105.327 63.9724 105.968 64.1786 106.419 64.333C106.951 64.5156 107.228 64.6294 107.386 64.7545C107.609 64.9315 107.618 65.0847 107.62 65.3372C107.622 65.5265 107.62 65.797 107.615 66.0596C107.61 66.2952 107.602 66.5251 107.592 66.6863C107.58 66.888 107.564 67.0154 107.52 67.1495C107.477 67.2814 107.413 67.402 107.305 67.5902L106.884 68.2968C106.748 68.5211 106.615 68.7364 106.521 68.8795C106.405 69.0565 106.332 69.1534 106.27 69.2086C106.143 69.3213 106.06 69.3213 105.948 69.3055C105.897 69.2988 105.836 69.2852 105.657 69.2334C105.477 69.1816 105.202 69.097 104.733 68.9505L102.592 68.2743L101.001 67.7626C100.52 67.6048 100.252 67.5101 100.093 67.4403C99.8752 67.3456 99.8109 67.2746 99.7546 67.1743C99.7117 67.0988 99.6813 67.0109 99.6644 66.9184C99.6464 66.8294 99.6396 66.7302 99.6407 66.6311C99.6419 66.5319 99.6531 66.4327 99.6858 66.3132C99.7163 66.2039 99.7681 66.0732 99.8538 65.9041C99.9834 65.6449 100.185 65.3034 100.334 65.0521L100.435 64.8819C100.495 64.7793 100.527 64.723 100.541 64.6756C100.555 64.6283 100.56 64.5618 100.567 64.4389L100.577 64.2631C100.593 63.9588 100.617 63.5418 100.646 63.304C100.67 63.1226 100.7 63.0121 100.741 62.9377C100.816 62.7991 100.904 62.7608 101.013 62.7405C101.081 62.7281 101.153 62.7236 101.367 62.7754L101.369 62.7743Z" fill="#FEFEFE"/>
<path d="M100.888 64.5098C100.972 64.5458 101.058 64.583 101.228 64.6428C101.413 64.707 101.704 64.8028 102.206 64.9583L103.913 65.479C104.72 65.7236 105.542 65.9738 106.003 66.1181C106.475 66.2668 106.727 66.3514 106.864 66.4055C107.051 66.4776 107.089 66.5193 107.127 66.5599L106.748 66.9081C106.746 66.9047 106.754 66.9138 106.678 66.8844C106.556 66.836 106.317 66.7548 105.85 66.6095C105.274 66.4291 104.51 66.197 103.764 65.9704L102.055 65.4497C101.55 65.2931 101.253 65.195 101.059 65.1285C100.852 65.0564 100.767 65.0192 100.684 64.9843L100.888 64.5109V64.5098Z" fill="#FEFEFE"/>
<path d="M107.294 65.3926C107.303 65.3813 107.322 65.3667 107.298 65.3791L107.294 65.3926ZM107.07 64.9181C107.197 64.855 107.3 64.8775 107.402 64.9001L107.315 65.2923L107.362 65.3081C107.367 65.3047 107.371 65.3047 107.368 65.3115C107.358 65.343 107.348 65.4027 107.339 65.5053L107.314 65.9133C107.304 66.1162 107.293 66.3303 107.276 66.4858C107.259 66.6459 107.235 66.7541 107.19 66.8656C107.15 66.9671 107.09 67.0651 106.998 67.2128L106.893 67.3785C106.729 67.6377 106.515 67.9735 106.392 68.1967C106.321 68.3252 106.28 68.4153 106.256 68.4852C106.237 68.5427 106.229 68.5912 106.226 68.6419C106.221 68.7027 106.221 68.7636 106.223 68.8245L106.237 69.0318L105.723 69.0701L105.709 68.8425C105.706 68.7602 105.706 68.6802 105.712 68.6058C105.718 68.519 105.731 68.4345 105.768 68.324C105.802 68.2249 105.855 68.1065 105.943 67.9499C106.077 67.7087 106.292 67.3683 106.458 67.1068L106.563 66.9423C106.636 66.8262 106.683 66.7484 106.712 66.674C106.738 66.6098 106.752 66.5411 106.764 66.4329C106.78 66.2875 106.791 66.0835 106.8 65.8885L106.826 65.4625C106.841 65.3126 106.859 65.2157 106.88 65.1492C106.924 65.0195 106.989 64.9609 107.069 64.9204L107.07 64.9181ZM107.315 65.2934L107.3 65.3678C107.314 65.3498 107.347 65.3182 107.362 65.3092L107.315 65.2934Z" fill="#FEFEFE"/>
<path d="M104.594 64.1029L104.526 64.1998C104.508 64.2269 104.492 64.2551 104.482 64.2799C104.472 64.3035 104.464 64.3328 104.457 64.379C104.448 64.4421 104.441 64.5244 104.436 64.6428L104.428 64.8569C104.42 65.1071 104.411 65.4046 104.385 65.603C104.347 65.8938 104.282 65.9828 104.129 66.1947L103.811 66.6512C103.724 66.7774 103.629 66.9228 103.541 67.0625C103.458 67.1933 103.398 67.2924 103.357 67.3702C103.315 67.4469 103.287 67.5111 103.268 67.5674C103.25 67.6193 103.238 67.6678 103.232 67.714C103.225 67.7613 103.223 67.803 103.224 67.8391C103.226 67.9191 103.242 68.0014 103.257 68.0825L103.258 68.0881L102.753 68.1828L102.752 68.1772C102.733 68.0769 102.713 67.9754 102.711 67.8503C102.71 67.7827 102.712 67.7106 102.724 67.6373C102.735 67.5641 102.754 67.484 102.784 67.3973C102.813 67.3161 102.851 67.2293 102.906 67.1279C102.96 67.0265 103.026 66.9149 103.108 66.7864L103.387 66.3626C103.485 66.2161 103.59 66.0651 103.679 65.9422L103.714 65.8938C103.815 65.7552 103.857 65.6965 103.878 65.5354C103.9 65.3618 103.909 65.0789 103.917 64.8411L103.925 64.6202C103.931 64.4771 103.94 64.3768 103.95 64.3024C103.963 64.2111 103.983 64.1457 104.008 64.0837C104.033 64.0229 104.064 63.9699 104.095 63.9203L104.184 63.793L104.597 64.1018L104.594 64.1029Z" fill="#FEFEFE"/>
<path d="M106.02 64.5935L105.998 64.6116C105.941 64.6578 105.882 64.7051 105.855 64.766C105.838 64.8032 105.825 64.8528 105.815 64.9181C105.802 64.9959 105.793 65.0973 105.784 65.2269L105.773 65.4366C105.761 65.6755 105.746 65.9437 105.717 66.1455C105.695 66.2931 105.665 66.4081 105.62 66.5242C105.577 66.6346 105.523 66.7394 105.45 66.8724L105.293 67.1531C105.184 67.3469 105.065 67.5565 104.98 67.7256C104.92 67.8417 104.88 67.9318 104.853 68.0074C104.829 68.0772 104.814 68.1358 104.805 68.1944C104.786 68.3252 104.787 68.4661 104.789 68.6069L104.79 68.6193H104.274V68.6103C104.273 68.4458 104.271 68.2812 104.295 68.1189C104.309 68.0276 104.33 67.9386 104.368 67.8349C104.403 67.738 104.451 67.6275 104.52 67.4923C104.604 67.3255 104.729 67.1046 104.844 66.9017L105 66.6233C105.063 66.5095 105.109 66.4216 105.141 66.3382C105.171 66.2616 105.191 66.1804 105.207 66.0722C105.234 65.8885 105.248 65.6349 105.259 65.4095L105.27 65.1976C105.279 65.0567 105.291 64.9395 105.306 64.8392C105.324 64.7265 105.349 64.6352 105.385 64.5563C105.462 64.3862 105.568 64.3005 105.674 64.2148L105.829 64.4064L106.019 64.5958L106.02 64.5935Z" fill="#FEFEFE"/>
<path d="M106.832 64.8336L106.826 64.8404C106.748 64.9452 106.671 65.0511 106.624 65.1323C106.604 65.1683 106.588 65.201 106.577 65.2438C106.561 65.2979 106.548 65.3701 106.534 65.4738L106.494 65.8412C106.476 66.0226 106.455 66.2108 106.436 66.3427C106.416 66.4813 106.392 66.5817 106.355 66.6865C106.319 66.7879 106.272 66.8871 106.202 67.028L106.062 67.3052C105.947 67.534 105.815 67.7944 105.724 67.995C105.665 68.1234 105.629 68.2114 105.607 68.2801C105.587 68.341 105.577 68.3906 105.571 68.4458C105.555 68.5641 105.548 68.7073 105.542 68.8493L105.541 68.8662L105.027 68.8436L105.028 68.8267C105.035 68.6723 105.042 68.5179 105.061 68.377C105.071 68.297 105.087 68.2226 105.118 68.1246C105.147 68.0333 105.19 67.9262 105.256 67.7808C105.341 67.5982 105.48 67.3199 105.602 67.0776L105.74 66.8026C105.8 66.6774 105.842 66.5929 105.868 66.5163C105.894 66.4441 105.91 66.372 105.926 66.2683C105.947 66.1286 105.965 65.9561 105.981 65.7893L106.024 65.4073C106.042 65.2731 106.06 65.1773 106.082 65.1007C106.108 65.0128 106.139 64.9474 106.176 64.8809C106.242 64.7637 106.328 64.6499 106.411 64.5361L106.417 64.5293L106.829 64.8359L106.832 64.8336Z" fill="#FEFEFE"/>
<path d="M105.338 64.3619L105.241 64.4713C105.216 64.5006 105.194 64.5299 105.175 64.5592C105.162 64.5795 105.152 64.5997 105.144 64.6302C105.131 64.6775 105.118 64.7508 105.104 64.8714L105.062 65.2534C105.04 65.4676 105.016 65.6975 104.992 65.8598C104.969 66.0142 104.946 66.1213 104.906 66.2317C104.869 66.3376 104.818 66.4379 104.743 66.5822L104.551 66.935C104.442 67.1356 104.325 67.3497 104.23 67.5357C104.168 67.6585 104.131 67.7386 104.11 67.7983C104.09 67.8524 104.081 67.8952 104.075 67.9437C104.058 68.0609 104.048 68.2198 104.038 68.3798L104.037 68.3945L103.794 68.3798H103.523L103.525 68.3641C103.535 68.1905 103.546 68.0147 103.565 67.8727C103.576 67.7904 103.591 67.7183 103.624 67.6259C103.654 67.5402 103.698 67.4399 103.769 67.3001C103.841 67.1593 103.975 66.9136 104.098 66.687L104.286 66.341C104.351 66.2193 104.392 66.137 104.421 66.0581C104.448 65.9838 104.465 65.9037 104.483 65.7854C104.506 65.6231 104.529 65.4044 104.55 65.1993L104.592 64.8082C104.61 64.6662 104.628 64.5682 104.649 64.4927C104.675 64.4002 104.703 64.3416 104.741 64.283C104.771 64.2357 104.808 64.1861 104.849 64.1388L104.959 64.0137L105.338 64.3597V64.3619Z" fill="#FEFEFE"/>
<path d="M103.001 63.6144L102.913 63.7305C102.889 63.7632 102.868 63.7959 102.852 63.824C102.841 63.8454 102.831 63.8669 102.823 63.9007C102.812 63.9491 102.799 64.0246 102.785 64.1486L102.742 64.5296C102.718 64.7471 102.693 64.9781 102.671 65.1382C102.648 65.2892 102.627 65.3884 102.59 65.4875C102.555 65.5833 102.51 65.669 102.441 65.7964L102.295 66.0623C102.178 66.2742 102.046 66.5143 101.967 66.6631C101.909 66.7758 101.868 66.8592 101.84 66.9336C101.816 66.9922 101.803 67.0463 101.794 67.1116C101.771 67.2536 101.766 67.4509 101.76 67.647V67.6594L101.246 67.6515V67.6368C101.252 67.4227 101.257 67.2108 101.284 67.035C101.298 66.9381 101.32 66.8524 101.359 66.751C101.39 66.6642 101.44 66.5639 101.512 66.4253C101.611 66.2359 101.735 66.0105 101.843 65.8144L101.989 65.5495C102.045 65.4459 102.081 65.3771 102.105 65.3117C102.127 65.2497 102.143 65.1776 102.16 65.0638C102.183 64.906 102.206 64.6828 102.229 64.4743L102.272 64.0855C102.289 63.9458 102.304 63.8522 102.322 63.7778C102.344 63.6888 102.369 63.6324 102.4 63.575C102.427 63.5254 102.461 63.4758 102.495 63.4284L102.593 63.2988L103 63.6133L103.001 63.6144Z" fill="#FEFEFE"/>
<path d="M103.853 63.9056C103.802 63.9574 103.754 64.0093 103.723 64.0589C103.71 64.0803 103.699 64.1039 103.687 64.14C103.671 64.1907 103.654 64.264 103.632 64.3756L103.478 65.2885C103.452 65.4271 103.428 65.5285 103.39 65.639C103.355 65.7438 103.308 65.8497 103.235 65.9985L103.016 66.4369C102.917 66.6308 102.813 66.8348 102.728 67.0117C102.661 67.1549 102.614 67.2597 102.585 67.3408C102.556 67.4231 102.539 67.484 102.528 67.538C102.515 67.5989 102.507 67.6575 102.503 67.7161L102.49 67.9032L101.977 67.8773L101.99 67.6699C101.997 67.5944 102.007 67.5178 102.023 67.4377C102.04 67.3532 102.063 67.2664 102.101 67.165C102.138 67.0624 102.19 66.943 102.262 66.7908C102.335 66.6364 102.448 66.4155 102.555 66.2059L102.771 65.7742C102.834 65.648 102.874 65.559 102.902 65.4756C102.93 65.3967 102.949 65.3144 102.971 65.1949L103.125 64.2831C103.15 64.149 103.173 64.0555 103.196 63.9833C103.223 63.8977 103.252 63.8402 103.285 63.7884C103.344 63.6937 103.412 63.6216 103.481 63.5494L103.486 63.5449L103.854 63.9044L103.852 63.9078L103.853 63.9056Z" fill="#FEFEFE"/>
<path d="M102.227 63.4129L102.214 63.4242C102.118 63.511 102.023 63.5978 101.977 63.662C101.965 63.6789 101.957 63.6981 101.95 63.7251C101.939 63.7736 101.93 63.848 101.92 63.9618L101.9 64.2019C101.882 64.434 101.859 64.7079 101.831 64.9085C101.81 65.0596 101.784 65.1655 101.745 65.2703C101.707 65.374 101.66 65.4653 101.593 65.5915L101.509 65.7471C101.388 65.9713 101.237 66.2508 101.149 66.4379C101.095 66.5529 101.06 66.6431 101.036 66.7208C101.014 66.793 101.001 66.8572 100.992 66.9237C100.973 67.0691 100.968 67.2359 100.963 67.4016L100.449 67.3858C100.455 67.2066 100.46 67.0274 100.483 66.8561C100.495 66.7625 100.513 66.6735 100.545 66.5698C100.575 66.4729 100.618 66.3613 100.685 66.2204C100.788 65.9984 100.937 65.7234 101.056 65.5025L101.138 65.3492C101.195 65.2399 101.235 65.1621 101.262 65.0922C101.288 65.0224 101.306 64.9457 101.322 64.8353C101.346 64.6595 101.368 64.3901 101.386 64.1613L101.406 63.919C101.418 63.7792 101.43 63.6857 101.448 63.6079C101.471 63.5087 101.503 63.44 101.554 63.3679C101.63 63.2574 101.744 63.1537 101.859 63.05L101.869 63.041L102 63.1864L102.227 63.4129Z" fill="#FEFEFE"/>
<path d="M106.466 78.6772C106.599 78.6118 106.734 78.534 106.853 78.4382C106.968 78.3458 107.073 78.2342 107.154 78.0945C107.236 77.9536 107.297 77.78 107.337 77.5941C107.38 77.3901 107.398 77.1737 107.39 76.9641C107.382 76.7589 107.348 76.5583 107.298 76.3645C107.248 76.1706 107.177 75.9768 107.094 75.7852C107.008 75.5823 106.908 75.3873 106.801 75.2194C106.708 75.074 106.606 74.9444 106.499 74.8441C106.389 74.7426 106.271 74.6671 106.143 74.613C106.009 74.5578 105.864 74.5217 105.71 74.5026C105.545 74.4823 105.367 74.4789 105.189 74.4924C105.017 74.5048 104.846 74.5353 104.687 74.5826C104.525 74.6299 104.37 74.6976 104.235 74.7787C104.109 74.8542 104 74.9433 103.918 75.0402C103.838 75.1337 103.782 75.2408 103.739 75.3625C103.692 75.4978 103.658 75.6522 103.628 75.8314C103.594 76.0354 103.563 76.2664 103.55 76.4975C103.539 76.6857 103.539 76.8739 103.554 77.0475C103.571 77.2267 103.607 77.3935 103.652 77.5355C103.701 77.6865 103.759 77.8093 103.816 77.8905C103.891 77.9976 103.989 78.0348 104.143 78.0911L104.227 78.1227C104.37 78.1779 104.539 78.2489 104.704 78.3255C104.853 78.3943 105.004 78.4687 105.138 78.543L105.319 78.6479C105.493 78.7493 105.644 78.8383 105.785 78.8564C105.873 78.8676 105.973 78.8564 106.082 78.8282C106.204 78.7955 106.334 78.7437 106.466 78.6783V78.6772ZM107.176 78.8383C107.02 78.9623 106.854 79.0592 106.693 79.1381C106.53 79.2181 106.369 79.2835 106.213 79.3241C106.043 79.368 105.877 79.385 105.719 79.3647C105.474 79.332 105.282 79.2193 105.059 79.0897L104.89 78.9927C104.765 78.924 104.625 78.8541 104.488 78.791C104.323 78.7155 104.166 78.649 104.046 78.6028L103.962 78.5723C103.72 78.4811 103.562 78.4225 103.395 78.1858C103.309 78.0629 103.225 77.8916 103.162 77.6899C103.107 77.5141 103.064 77.3112 103.043 77.0948C103.024 76.8919 103.024 76.6778 103.036 76.4682C103.051 76.2146 103.083 75.9644 103.12 75.7457C103.155 75.5395 103.195 75.3569 103.253 75.1901C103.318 75.0109 103.402 74.852 103.525 74.7066C103.643 74.5657 103.796 74.4417 103.968 74.3369C104.139 74.2332 104.334 74.1487 104.541 74.0878C104.737 74.0304 104.943 73.9932 105.147 73.9785C105.36 73.9616 105.573 73.9672 105.771 73.9909C105.975 74.018 106.166 74.0642 106.34 74.1374C106.523 74.2152 106.693 74.3223 106.848 74.4665C106.988 74.5995 107.117 74.7618 107.233 74.9421C107.36 75.1405 107.472 75.3591 107.567 75.58C107.657 75.7885 107.736 76.0061 107.794 76.2337C107.853 76.4614 107.892 76.6969 107.901 76.9415C107.91 77.1951 107.89 77.4555 107.838 77.6978C107.788 77.9344 107.708 78.1599 107.597 78.3503C107.481 78.5498 107.334 78.7087 107.174 78.8372L107.176 78.8383Z" fill="#FEFEFE"/>
<path d="M106.034 82.024C106.098 81.8888 106.164 81.7535 106.213 81.6172C106.258 81.4887 106.292 81.3568 106.299 81.2182C106.306 81.0829 106.29 80.933 106.256 80.7775C106.218 80.5983 106.157 80.4168 106.084 80.2433C106.01 80.0708 105.923 79.904 105.83 79.7598C105.745 79.629 105.655 79.5163 105.566 79.4341C105.432 79.3112 105.279 79.2447 105.107 79.1726L104.919 79.0903C104.78 79.0261 104.627 78.9449 104.479 78.8604C104.322 78.7725 104.187 78.6902 104.069 78.6203L104.064 78.617C103.879 78.5054 103.744 78.4242 103.631 78.4558C103.559 78.4761 103.472 78.529 103.384 78.6012C103.281 78.6868 103.178 78.7973 103.092 78.9156C103.009 79.0306 102.944 79.1523 102.891 79.2729C102.838 79.3957 102.796 79.522 102.764 79.6437C102.732 79.7677 102.708 79.8815 102.694 79.9863C102.68 80.0956 102.673 80.1982 102.674 80.2974C102.675 80.3909 102.684 80.4924 102.697 80.596C102.711 80.7133 102.727 80.8091 102.742 80.9049L102.235 80.9871C102.215 80.871 102.196 80.755 102.185 80.658C102.172 80.5476 102.161 80.4304 102.16 80.3019C102.159 80.1779 102.167 80.0494 102.184 79.9198C102.202 79.7857 102.229 79.6505 102.266 79.513C102.303 79.3732 102.353 79.2233 102.419 79.07C102.486 78.9156 102.569 78.7612 102.675 78.6147C102.785 78.4637 102.919 78.3194 103.059 78.2045C103.199 78.0884 103.35 78.0005 103.492 77.9599C103.817 77.8686 104.032 77.9971 104.326 78.174L104.733 78.413C104.867 78.4885 105.006 78.5629 105.136 78.6226L105.31 78.6992C105.526 78.7905 105.717 78.8728 105.917 79.0565C106.038 79.1692 106.157 79.3157 106.265 79.4825C106.373 79.6516 106.473 79.8443 106.558 80.0427C106.645 80.25 106.717 80.4631 106.761 80.6693C106.804 80.8654 106.824 81.0604 106.814 81.2464C106.803 81.4447 106.759 81.6228 106.699 81.7907C106.641 81.9496 106.569 82.0984 106.498 82.246L106.035 82.024H106.034Z" fill="#FEFEFE"/>
<path d="M111.281 72.6099C111.224 72.3405 111.168 72.0711 111.097 71.8299C111.03 71.6023 110.949 71.3949 110.842 71.2304C110.75 71.0884 110.631 70.9723 110.503 70.881C110.351 70.7717 110.187 70.6984 110.035 70.6556C109.893 70.6161 109.76 70.6026 109.636 70.6049C109.507 70.6071 109.38 70.6274 109.259 70.6544C109.137 70.6815 109.019 70.7164 108.907 70.7604C108.801 70.8021 108.702 70.8517 108.615 70.908C108.527 70.9655 108.446 71.032 108.371 71.1086C108.288 71.1909 108.211 71.28 108.136 71.3769C108.063 71.4704 107.991 71.5719 107.928 71.6846C107.87 71.786 107.822 71.8987 107.79 72.0227C107.759 72.1489 107.743 72.2875 107.743 72.4284C107.743 72.5761 107.761 72.7305 107.795 72.8781C107.825 73.0179 107.871 73.1531 107.927 73.276C107.983 73.4056 108.052 73.5228 108.125 73.6231C108.19 73.7121 108.259 73.7842 108.338 73.8474C108.42 73.9127 108.518 73.9713 108.635 74.0277C108.758 74.0874 108.9 74.1438 109.056 74.1821C109.204 74.2182 109.365 74.2373 109.53 74.2238C109.881 74.1956 110.29 74.0164 110.698 73.8372L110.707 73.8338L110.846 74.1753L110.955 74.4267C110.496 74.6273 110.038 74.829 109.581 74.8662C109.343 74.8854 109.114 74.8583 108.904 74.8065C108.699 74.7569 108.514 74.6825 108.356 74.607C108.195 74.5292 108.058 74.447 107.938 74.3512C107.814 74.252 107.706 74.1393 107.606 74.0029C107.51 73.871 107.418 73.7132 107.34 73.5374C107.268 73.3774 107.21 73.2016 107.168 73.0179C107.125 72.8263 107.102 72.6245 107.102 72.4273C107.102 72.2312 107.122 72.0385 107.166 71.8649C107.211 71.6846 107.282 71.5211 107.366 71.3701C107.444 71.2292 107.537 71.1008 107.63 70.9802C107.723 70.8618 107.817 70.7514 107.918 70.6522C108.023 70.5474 108.138 70.4516 108.266 70.3693C108.393 70.287 108.53 70.2171 108.674 70.1608C108.812 70.1067 108.962 70.0627 109.12 70.0267C109.278 69.9917 109.445 69.9647 109.624 69.9613C109.809 69.9579 110.003 69.9771 110.209 70.0346C110.43 70.0966 110.664 70.2014 110.878 70.3558C111.065 70.4899 111.24 70.6623 111.381 70.8799C111.526 71.103 111.63 71.3656 111.713 71.6474C111.792 71.9156 111.852 72.1974 111.911 72.478L111.281 72.6087V72.6099Z" fill="#FEFEFE"/>
<path d="M110.729 72.0207L110.453 72.1007L110.239 72.1762C110.137 71.8911 110.036 71.6037 109.903 71.4504C109.849 71.3884 109.787 71.3467 109.719 71.3197C109.646 71.2903 109.564 71.278 109.478 71.2768C109.386 71.2757 109.288 71.2892 109.195 71.3163C109.113 71.3399 109.036 71.3749 108.972 71.42C108.912 71.4617 108.861 71.5158 108.821 71.5777C108.775 71.6465 108.74 71.7254 108.716 71.811C108.691 71.899 108.679 71.9925 108.681 72.086C108.683 72.1694 108.698 72.2551 108.728 72.3385C108.762 72.4309 108.815 72.5233 108.877 72.6146C108.948 72.7183 109.029 72.8209 109.109 72.9223L108.707 73.2424C108.618 73.1297 108.528 73.0159 108.451 72.902C108.367 72.7758 108.293 72.6473 108.245 72.5121C108.197 72.3768 108.172 72.2371 108.168 72.0984C108.165 71.9519 108.184 71.8077 108.221 71.6724C108.26 71.536 108.316 71.4064 108.394 71.2915C108.467 71.1799 108.561 71.0807 108.676 70.9996C108.787 70.9207 108.918 70.8598 109.055 70.8204C109.193 70.7809 109.34 70.7606 109.485 70.7618C109.63 70.7629 109.776 70.7866 109.911 70.8407C110.053 70.897 110.182 70.9849 110.294 71.1134C110.491 71.3399 110.608 71.6724 110.727 72.0038L110.732 72.0184L110.729 72.0207Z" fill="#FEFEFE"/>
<path d="M105.151 77.657C104.92 77.2805 104.687 76.9041 104.659 76.477C104.645 76.2639 104.684 76.0476 104.76 75.8503C104.841 75.6407 104.964 75.4513 105.109 75.306C105.25 75.1651 105.413 75.0636 105.573 75.0039C105.758 74.9363 105.946 74.9216 106.103 74.9611C106.264 75.0017 106.388 75.0929 106.482 75.2158C106.574 75.3386 106.633 75.4897 106.663 75.6497C106.687 75.7726 106.694 75.9044 106.69 76.0306C106.687 76.1828 106.668 76.3293 106.645 76.4488C106.603 76.6674 106.549 76.8038 106.495 76.939L106.493 76.9458L106.017 76.7497L106.018 76.7452C106.064 76.6347 106.108 76.522 106.14 76.3519C106.158 76.2527 106.174 76.1355 106.177 76.0183C106.18 75.927 106.174 75.8323 106.158 75.7455C106.141 75.6576 106.113 75.5787 106.073 75.5246C106.047 75.4919 106.016 75.4682 105.98 75.4592C105.922 75.4446 105.84 75.4536 105.754 75.4863C105.659 75.5212 105.561 75.5832 105.474 75.6689C105.377 75.7658 105.294 75.8943 105.24 76.034C105.19 76.1636 105.164 76.3045 105.173 76.442C105.193 76.7396 105.392 77.063 105.591 77.3865L105.152 77.6558L105.151 77.657Z" fill="#FEFEFE"/>
<path d="M107.746 76.1201V76.1234C107.728 76.4074 107.71 76.6937 107.619 76.9574C107.572 77.0927 107.506 77.2189 107.43 77.3316C107.35 77.4522 107.253 77.5604 107.149 77.6551C106.955 77.8287 106.742 77.9459 106.529 78.0631L106.52 78.0676L106.391 77.8117L106.281 77.6123C106.467 77.5097 106.654 77.4071 106.804 77.2719C106.877 77.2054 106.946 77.1288 107.004 77.0442C107.058 76.9665 107.102 76.8808 107.132 76.7906C107.201 76.5889 107.217 76.3387 107.232 76.0896V76.084L107.746 76.1201Z" fill="#FEFEFE"/>
<path d="M106.617 80.2448L106.616 80.2561C106.605 80.5176 106.593 80.7802 106.528 81.0146C106.462 81.2513 106.35 81.4305 106.236 81.6085L106.23 81.6187L106.051 81.5037L105.789 81.3538L105.797 81.3414C105.89 81.1938 105.985 81.045 106.033 80.876C106.081 80.7001 106.092 80.4725 106.102 80.2437V80.2324L106.354 80.2437H106.617V80.2448Z" fill="#FEFEFE"/>
<path d="M103.884 81.0755L103.883 81.0699C103.812 80.5593 103.741 80.0499 103.767 79.6802C103.781 79.4898 103.821 79.3331 103.875 79.2091C103.949 79.0423 104.051 78.9274 104.161 78.8586C104.381 78.72 104.569 78.7684 104.758 78.8169L104.775 78.8225L104.691 79.0773L104.63 79.3151C104.549 79.2936 104.467 79.2734 104.434 79.2936C104.406 79.3117 104.375 79.35 104.346 79.4142C104.315 79.4875 104.29 79.5878 104.281 79.7163C104.259 80.0375 104.326 80.521 104.394 81.0056L104.395 81.0158L103.883 81.0744L103.884 81.0755Z" fill="#FEFEFE"/>
<path d="M108.724 73.0059L108.953 73.2346L109.23 73.3958C109.17 73.4995 109.11 73.6021 109.085 73.6934C109.058 73.7903 109.053 73.9188 109.049 74.0461V74.054L108.406 74.0315V74.0247C108.412 73.8579 108.418 73.6911 108.465 73.522C108.514 73.344 108.593 73.2076 108.673 73.0712L108.695 73.0352L108.724 73.0059Z" fill="#FEFEFE"/>
<path d="M110.15 73.1992L110.239 73.5892L109.737 73.7041L109.648 73.3142L110.15 73.1992Z" fill="#FEFEFE"/>
<path d="M27.1026 16.8101L32.2081 18.4331L32.0751 19.9377L29.9022 20.4663L31.7765 21.0726L31.9658 22.6471L26.6935 20.9272L26.6822 19.6041L29.2 19.0383L27.2525 18.4624L26.4219 16.5938L27.1015 16.8101H27.1026ZM31.5206 18.8884L27.5884 17.6385L27.718 17.9293L31.506 19.0496L31.5206 18.8884ZM31.4733 19.4226L31.4947 19.1803L27.3291 20.1169L27.3325 20.4584L31.2073 21.7229L31.187 21.5584L27.5433 20.3795L31.4733 19.4238V19.4226Z" fill="#FEFEFE"/>
<path d="M32.9843 22.302L33.5208 22.4722L34.0358 21.7937L36.929 22.7212C37.1003 23.0639 37.2998 23.3963 37.4869 23.7311L37.8396 23.8021L35.927 20.3499L34.8203 19.9803L32.9843 22.302ZM33.5309 23.1506L31.9023 22.6344L34.5949 19.2285L36.3666 19.8191C37.2648 21.4499 38.1699 23.0763 39.0726 24.7048C38.4155 24.573 37.6773 24.4817 37.0507 24.2709L36.4804 23.2532L34.2703 22.5454L33.8859 23.0515L33.6876 23.2025L33.5298 23.1529L33.5309 23.1506Z" fill="#FEFEFE"/>
<path d="M34.2259 21.4487L35.1365 20.2676L35.9198 20.4761V20.6654L37.0965 22.8812L33.9531 21.8049L34.227 21.4498L34.2259 21.4487ZM35.3732 21.0114L35.008 21.4859L35.762 21.744L35.3732 21.0114Z" fill="#FEFEFE"/>
<path d="M39.4997 21.5767L39.4873 24.2804L43.5413 25.5777L43.5514 24.0359L42.5991 23.7135V23.913L43.3598 24.1035L43.299 25.4492L39.8096 24.3075C39.7274 23.3968 39.6056 22.4862 39.4997 21.5778V21.5767ZM38.8438 24.4935L38.8618 20.7246L44.5545 22.3678L43.7351 23.4183L44.1972 23.5738L44.1781 26.4545L38.9238 24.773L38.8449 24.5498V24.4923L38.8438 24.4935ZM41.9544 23.265V23.0722L40.4239 22.5763V23.8319L41.9544 24.3323V23.265ZM39.7792 23.975V21.6905L43.361 22.8525L43.4635 22.7217L39.4986 21.5767L39.7792 23.975Z" fill="#FEFEFE"/>
<path d="M44.5021 26.5184L44.1133 26.3212L46.8047 23.1113L48.5414 23.6399C49.4115 25.3181 50.2872 26.9929 51.1596 28.6688L49.1061 27.9531L48.6947 27.1033L46.4395 26.3854L45.956 27.0988L44.6306 26.5669C44.5618 26.5477 44.554 26.5432 44.5021 26.5173V26.5184ZM45.1513 26.0845L45.7148 26.311L46.1769 25.6291L49.1546 26.5759L49.5693 27.4347L49.8398 27.5293L48.094 24.1753L47.0267 23.8495L45.1535 26.0833L45.1513 26.0845Z" fill="#FEFEFE"/>
<path d="M46.4147 25.3149L47.3625 24.1191L47.9632 24.2082L49.2582 26.6719L46.125 25.6801L46.4147 25.3138V25.3149ZM47.5857 24.8743L47.2092 25.3499L47.9598 25.5877L47.5857 24.8743Z" fill="#FEFEFE"/>
<path d="M54.5878 27.2953L54.5168 28.4088L51.0253 27.248L50.9531 25.8223L54.6036 27.0485L54.5878 27.2942V27.2953ZM53.9274 27.5365L53.9297 27.5004L51.6417 26.7318L51.644 26.7769L53.9274 27.5354V27.5365Z" fill="#FEFEFE"/>
<path d="M60.3016 27.8358L59.897 28.4038V28.5087L60.376 28.6484L60.2869 31.5111L54.832 29.789L54.9132 25.6426L60.5552 27.4797L60.3005 27.8369L60.3016 27.8358ZM59.436 27.9429L59.5239 27.82L55.5387 26.5228L55.4846 29.319L59.6716 30.641L59.7189 29.1263L58.5964 28.7994L58.5851 28.8919L59.3436 29.1229L59.3289 30.5159L55.7562 29.3246L55.8678 26.8034L59.4349 27.9429H59.436ZM58.025 28.166L56.4741 27.6701L56.4212 28.8682L58.6967 29.6267V29.5951L57.8807 29.3461L58.025 28.1649V28.166Z" fill="#FEFEFE"/>
<path d="M60.6849 31.6608C60.606 31.6372 60.5643 31.6248 60.4775 31.5402L60.2656 31.334L62.8229 28.2109L64.6036 28.7553L67.2511 33.6963L65.1874 33.1418L64.7716 32.2277L62.4521 31.5064L61.9968 32.1286C61.5606 31.973 61.1233 31.8096 60.6849 31.662V31.6608ZM61.2304 31.1717L61.7601 31.3599L62.2041 30.7536L65.2382 31.6969L65.6473 32.5974L65.982 32.6876L64.1618 29.2906L63.0483 28.9503L61.2292 31.1717H61.2304Z" fill="#FEFEFE"/>
<path d="M63.2516 30.416L63.9639 30.6425L63.6122 29.9562L63.2505 30.416H63.2516ZM64.5037 31.4889L62.1719 30.7485L63.4206 29.1582L64.0225 29.3464L65.2374 31.72L64.5037 31.4867V31.4889Z" fill="#FEFEFE"/>
<path d="M67.6169 30.7343L67.6067 33.2476L67.9888 33.3648V31.149L69.8281 33.2566L71.6292 32.3459L71.5176 33.0019L71.4804 34.449L71.8343 34.5392L71.8681 31.9109L69.6906 32.8452L67.6169 30.7331V30.7343ZM66.9632 33.4831L66.9812 29.1699L69.8405 32.0822L72.5218 30.9315L72.4654 35.3664L70.8245 34.9472L70.8628 33.4538L69.6726 34.0557L68.6323 32.8644V34.2326L66.9609 33.7209L66.9621 33.4831H66.9632Z" fill="#FEFEFE"/>
<path d="M73.402 32.2177L73.3963 35.0196L77.3094 36.283L77.2294 36.0632L73.704 34.9982L73.7187 33.657L76.7155 34.6555L76.7121 34.5417L73.7277 33.6175V32.3947L77.2801 33.5815L77.403 33.453L73.4031 32.22L73.402 32.2177ZM72.7539 35.254L72.7629 31.3477L78.5852 33.143L77.4638 34.3185L77.3477 34.2802C77.3556 34.6646 77.3692 35.0511 77.3804 35.4355L77.7242 35.5391L78.3632 37.2985L72.7539 35.4873V35.254Z" fill="#FEFEFE"/>
</svg>
