<svg width="120" height="120" viewBox="0 0 120 120" fill="none" xmlns="http://www.w3.org/2000/svg">
<g clip-path="url(#clip0_925_3623)">
<path d="M73.8168 1.08192L73.746 12.6261L87.871 13.7684L96.3787 12.3497L96.4843 1.16837C86.841 1.95825 84.3098 1.65173 73.8181 1.08192H73.8168ZM73.0521 12.951L73.1293 0.337891L88.059 1.14872L97.1834 0.402076C97.1409 4.58461 97.1049 8.76715 97.0649 12.9497C94.0097 13.4566 90.9442 13.9478 87.8942 14.4783C82.9528 14.0474 77.9947 13.6741 73.0508 13.2785L73.0534 12.951H73.0521Z" fill="#FEFEFE"/>
<path d="M73.457 0.357631C83.1698 -0.2017 86.6872 -0.0497505 96.8506 0.433606L96.821 1.13703L83.3217 0.495171L73.4957 1.06105L73.4583 0.357631H73.457Z" fill="#FEFEFE"/>
<path d="M88.4171 1.50722L88.2317 14.1269L87.5391 14.119L87.7257 1.49805L88.4171 1.50722Z" fill="#FEFEFE"/>
<path d="M73.4866 1.67969L88.0493 2.54816L96.7939 1.75566L96.8531 2.45646C86.4992 3.39436 84.8126 3.06033 73.4492 2.38311L73.4866 1.67969Z" fill="#FEFEFE"/>
<path d="M77.8115 2.54883L78.7038 3.26666L78.275 3.81944L77.3828 3.10161L77.8115 2.54883Z" fill="#FEFEFE"/>
<path d="M83.4951 2.81445L84.3861 3.53359L83.9573 4.08506L83.0664 3.36723L83.4951 2.81445Z" fill="#FEFEFE"/>
<path d="M74.2717 6.21484L86.4784 6.93005L86.8672 8.8399L86.1887 8.98006L85.908 7.60335L74.2344 6.91957L74.2717 6.21484Z" fill="#FEFEFE"/>
<path d="M74.5164 8.12305L86.7977 8.91685L87.0385 10.8306L86.351 10.9184L86.1836 9.5836L74.4727 8.82778L74.5164 8.12305Z" fill="#FEFEFE"/>
<path d="M75.0958 9.9375L86.8068 10.8073L87.1312 12.7446L86.4475 12.8599L86.2145 11.4714L75.0469 10.6409L75.0958 9.9375Z" fill="#FEFEFE"/>
<path d="M90.6773 7.99575L89.3577 8.10054L89.4916 9.26636L88.8028 9.34626C88.7229 8.65725 88.6328 8.11757 88.6328 7.44951L90.6258 7.29102L90.6773 7.99444V7.99575Z" fill="#FEFEFE"/>
<path d="M88.9732 11.363L88.6758 9.35486L90.7461 9.23828L90.7834 9.94301L89.4753 10.0164L89.6594 11.2569L88.9732 11.363Z" fill="#FEFEFE"/>
<path d="M89.0789 13.1216V12.9382L88.918 11.2982L90.911 11.0703L90.987 11.7711L89.675 11.9204C89.7136 12.32 89.7741 12.7182 89.7741 13.1203H89.0789V13.1216Z" fill="#FEFEFE"/>
<path d="M96.2995 7.3525L92.0945 7.86075L92.1666 8.96369L91.474 9.00692L91.3594 7.23854L96.2183 6.65039L96.2995 7.3525Z" fill="#FEFEFE"/>
<path d="M96.3795 10.9794L92.8402 11.4615L92.9818 12.588L92.2956 12.6771L92.0664 10.8563L96.2894 10.2812L96.3795 10.9794Z" fill="#FEFEFE"/>
<path d="M96.2705 9.06927L92.2227 9.64302L92.4235 10.873L91.7399 10.9883L91.4219 9.04439L96.1753 8.37109L96.2705 9.06927Z" fill="#FEFEFE"/>
<path d="M1.77673 83.8489L82.3849 119.701L118.572 88.524L44.4311 66.0748L1.77673 83.8489ZM82.3063 120.436L0 83.828C14.7958 77.6557 29.5903 71.4716 44.3976 65.3281C69.604 72.9361 94.8001 80.5872 120 88.2201C107.501 98.9862 95.0061 109.759 82.5046 120.522L82.3063 120.435V120.436Z" fill="#FEFEFE"/>
<path d="M81.5689 116.004L115.143 88.1435L45.0262 66.8313L5.28415 83.2418L81.5689 116.004ZM116.086 88.2692L81.8444 116.684L81.6255 116.41L81.4917 116.735L3.47266 83.2287C17.3093 77.5096 31.142 71.7762 44.9902 66.0859C68.8601 73.331 92.7262 80.5945 116.594 87.8488L116.086 88.2692Z" fill="#FEFEFE"/>
<path d="M23.8646 71.2477L24.0847 71.0198C40.4319 54.0853 56.7482 37.1835 65.3602 28.322C69.7544 23.8002 72.2817 21.2301 73.8679 19.6805C75.4515 18.1335 76.0746 17.6279 76.672 17.2271C77.2733 16.8236 77.8437 16.5302 78.4011 16.3245C78.9612 16.1176 79.5109 15.9997 80.0671 15.9473C80.6285 15.8949 81.195 15.908 81.7357 15.9892C82.2687 16.0678 82.7824 16.2132 83.2485 16.4241C83.7275 16.6402 84.1536 16.9245 84.5514 17.3567C84.9415 17.7812 85.3046 18.3457 85.6651 19.1317C86.1994 20.2975 86.7273 21.9401 88.4319 27.2544L90.4558 33.5472C93.8793 44.1509 99.8596 62.4517 105.862 80.8244L106.028 81.3314L105.503 81.5082L105.337 81.0013C99.27 62.4333 93.2265 43.9361 89.928 33.7214L87.9041 27.4286C86.2046 22.1314 85.6793 20.4953 85.163 19.3701C84.8295 18.6444 84.4999 18.1257 84.1472 17.7432C83.8034 17.3685 83.4352 17.1236 83.0245 16.9376C82.6086 16.7503 82.1426 16.6193 81.6533 16.5459C81.1525 16.4713 80.6298 16.4582 80.1148 16.5066C79.6062 16.5538 79.1028 16.6638 78.5878 16.8537C78.069 17.045 77.5359 17.3188 76.9746 17.696C76.4081 18.0759 75.8056 18.5658 74.2503 20.0853C72.6989 21.6022 70.1728 24.1722 65.7542 28.7176C56.8177 37.9118 40.6662 54.6446 24.4787 71.4127L24.2585 71.6407L23.8633 71.2451L23.8646 71.2477Z" fill="#FEFEFE"/>
<path d="M46.1224 61.3028L46.179 61.2229C55.2275 48.598 64.2669 35.9822 69.3975 29.0057C71.9802 25.4938 73.5806 23.3979 74.6646 22.0789C75.7628 20.7415 76.3525 20.1756 76.8997 19.7341C77.4507 19.2901 77.958 18.977 78.4318 18.7491C78.9082 18.5198 79.3536 18.3745 79.7785 18.271C80.2073 18.1649 80.6192 18.0994 81.0209 18.1059C81.4342 18.1125 81.8333 18.1976 82.2196 18.3941C82.62 18.5971 83.0037 18.9063 83.5418 20.4035C84.0491 21.8116 84.7263 24.3489 85.7576 29.0397C87.8176 38.4082 91.2835 56.3356 94.7468 74.263L94.2022 74.3704C90.735 56.4273 87.2665 38.4829 85.2169 29.1615C84.1933 24.5061 83.5212 21.9911 83.0204 20.5987C82.5505 19.294 82.2646 19.0491 81.9724 18.8997C81.666 18.7425 81.3454 18.6757 81.0119 18.6705C80.6643 18.6652 80.2961 18.7242 79.9086 18.8198C79.5172 18.9168 79.1077 19.0491 78.6687 19.2599C78.2271 19.4722 77.7546 19.7643 77.2422 20.1769C76.7259 20.5921 76.1633 21.1357 75.0895 22.443C74.0016 23.7673 72.4064 25.8553 69.8404 29.3449C64.6931 36.3438 55.6639 48.9451 46.6258 61.5556L46.5691 61.6355L46.1211 61.3041L46.1224 61.3028Z" fill="#FEFEFE"/>
<path d="M55.3125 61.7842C62.6936 48.4769 70.0761 35.1695 74.2334 28.3462C76.3242 24.9142 77.6104 23.1053 78.4563 22.1687C79.3846 21.1404 79.8648 21.0854 80.2665 21.1627C80.6927 21.2465 81.0158 21.4613 81.3403 22.8289C81.6313 24.051 81.9609 26.2975 82.4449 30.4774C83.408 38.7914 84.9942 54.8771 86.5803 70.9627L86.0293 71.0178C84.447 54.9609 82.8634 38.9027 81.8939 30.5416C81.4124 26.3826 81.0866 24.1571 80.8021 22.9625C80.5523 21.9119 80.3785 21.7613 80.1622 21.7181C79.9202 21.6709 79.6073 21.7285 78.8645 22.5512C78.0392 23.4655 76.7736 25.2469 74.7059 28.6409C70.5447 35.4708 63.17 48.765 55.7953 62.0593L55.3138 61.7829L55.3125 61.7842Z" fill="#FEFEFE"/>
<path d="M69.3984 65.1826L78.9065 24.375L79.4473 24.5047L69.9392 65.3136L69.3984 65.1826Z" fill="#FEFEFE"/>
<path d="M63.7331 82.5614L54.7452 88.6826L54.4375 88.2149L63.4241 82.0938L63.7331 82.5614Z" fill="#FEFEFE"/>
<path d="M53.4656 82.7578L64.6822 87.67L64.408 88.3184L53.1914 83.4062L53.4656 82.7578Z" fill="#FEFEFE"/>
<path d="M18.9935 86.3338C26.1236 83.211 33.2549 80.0869 37.9839 78.0081L38.8362 77.6347C43.0012 75.8035 45.1655 74.8512 47.0388 74.1726C47.976 73.8334 48.8348 73.5635 49.615 73.3513C50.5021 73.1103 51.2978 72.9413 52.002 72.8261C52.6625 72.7173 53.238 72.6558 53.7556 72.6269C54.2731 72.5981 54.7353 72.6008 55.1654 72.6204C55.5967 72.64 55.9971 72.6754 56.3679 72.737C56.7438 72.7999 57.0927 72.8902 57.4094 73.0173C57.7287 73.1444 58.0171 73.3133 58.2695 73.5138C58.5244 73.7168 58.7407 73.9539 58.9119 74.2198C59.0922 74.4975 59.2248 74.8027 59.2402 75.4144C59.2544 75.9751 59.1669 76.816 58.9158 78.1914C58.5553 80.1602 57.8652 83.2123 57.2588 85.9002C57.0181 86.9665 56.7889 87.9778 56.6125 88.782C56.2803 90.2884 56.0653 91.3521 55.9288 92.1642C55.7949 92.9633 55.7396 93.5043 55.728 93.9798C55.7164 94.4487 55.7447 94.8574 55.8155 95.2058C55.8825 95.5412 55.9881 95.8215 56.131 96.0507C56.252 96.2433 56.4091 96.3979 56.8159 96.4489C57.3077 96.5092 58.115 96.4345 59.5055 96.1398C61.035 95.8149 63.2418 95.2281 65.9455 94.3885C68.2629 93.6693 70.9525 92.7602 73.9021 91.6665C77.0848 90.4862 80.5752 89.0886 84.2175 87.5822C87.8726 86.0705 91.6514 84.462 95.4314 82.8534L95.6439 83.3747C91.8471 84.9899 88.0503 86.6076 84.426 88.1048C80.7889 89.6086 77.2959 91.0076 74.0914 92.1957C71.1456 93.2881 68.4445 94.1998 66.1064 94.9255C63.3795 95.773 61.156 96.3638 59.6188 96.69C58.1626 96.9991 57.2974 97.0751 56.7503 97.007C56.1168 96.9284 55.8632 96.6729 55.6623 96.3507C55.4834 96.0625 55.3533 95.7193 55.2722 95.3159C55.1937 94.9268 55.1615 94.4762 55.1744 93.964C55.1873 93.4571 55.2439 92.8899 55.3817 92.0673C55.5168 91.2578 55.7357 90.1863 56.0717 88.6576C56.2687 87.7642 56.4876 86.7936 56.7181 85.7719C57.327 83.0787 58.0184 80.0188 58.3712 78.088C58.6145 76.7545 58.7008 75.9502 58.6866 75.4262C58.675 74.952 58.5785 74.7267 58.4484 74.5276C58.3107 74.3141 58.1343 74.1216 57.927 73.9552C57.7197 73.7901 57.4764 73.65 57.2034 73.5399C56.9266 73.4273 56.6164 73.3474 56.2765 73.2911C55.9288 73.2334 55.549 73.1994 55.1396 73.181C54.7276 73.1627 54.2847 73.1601 53.7852 73.1876C53.2831 73.2151 52.7256 73.274 52.0883 73.3801C51.4111 73.4915 50.6347 73.6578 49.7579 73.8949C48.9867 74.1045 48.1408 74.3704 47.2229 74.7018C45.3805 75.3699 43.2175 76.3196 39.0551 78.1495L38.2027 78.5228C33.4738 80.6017 26.3437 83.7258 19.2123 86.8499L18.9922 86.3312L18.9935 86.3338Z" fill="#FEFEFE"/>
<path d="M20.5534 87.6191L20.583 87.606C29.2645 83.7562 37.9421 79.9077 43.1629 77.7306C45.7829 76.6382 47.5339 75.9649 48.7995 75.5248C50.0754 75.0807 50.8633 74.8711 51.5483 74.7061C52.2358 74.541 52.8254 74.4192 53.3263 74.3406C53.831 74.262 54.2533 74.2266 54.5983 74.2332C54.9614 74.2397 55.2446 74.2947 55.4725 74.3838C55.7146 74.4794 55.8961 74.6131 56.0454 74.7742C56.2128 74.9536 56.348 75.158 56.3261 75.7304C56.3081 76.2164 56.1729 77.0141 55.8279 78.4118C55.4429 79.9719 54.7901 82.3088 54.1425 84.6312C53.6481 86.4035 53.155 88.168 52.7817 89.5879C52.3542 91.2122 52.0929 92.3505 51.9409 93.2151C51.7903 94.0796 51.744 94.6769 51.7504 95.2179C51.7555 95.7524 51.8122 96.2357 51.9319 96.6562C52.0478 97.0636 52.2242 97.4159 52.474 97.7028C52.7237 97.9923 53.0546 98.2228 53.4743 98.4049C53.9121 98.5935 54.4464 98.7285 55.0901 98.8202C55.7609 98.9158 56.5476 98.9616 57.3973 98.9525C58.2161 98.9446 59.0968 98.8844 59.9942 98.7691C60.9057 98.6512 61.8391 98.4743 63.3069 98.0237C64.7823 97.5705 66.7934 96.8422 69.8563 95.624C75.9924 93.1823 86.3412 88.7732 96.69 84.3653L96.9025 84.8867C86.5524 89.2958 76.2023 93.7037 70.0584 96.1493C66.9813 97.374 64.9548 98.1063 63.4665 98.5634C61.9705 99.0232 61.0087 99.2053 60.0637 99.3271C59.1444 99.445 58.2419 99.5066 57.4025 99.5144C56.5218 99.5236 55.7081 99.4751 55.0142 99.3769C54.3215 99.2786 53.7408 99.1306 53.258 98.9223C52.7598 98.7075 52.3645 98.4272 52.0594 98.0748C51.7517 97.7211 51.538 97.2967 51.4002 96.8108C51.2663 96.3392 51.2032 95.8061 51.1968 95.2205C51.1903 94.6402 51.238 94.0102 51.3951 93.1142C51.5534 92.2195 51.8186 91.0655 52.2448 89.4399C52.613 88.0396 53.11 86.2621 53.6082 84.4767C54.2546 82.1621 54.9047 79.8344 55.2897 78.2729C55.6257 76.9133 55.757 76.1535 55.7725 75.7081C55.7854 75.3505 55.7223 75.2444 55.6425 75.1606C55.5446 75.0558 55.4275 74.9694 55.2717 74.9078C55.1004 74.841 54.8803 74.8004 54.588 74.7938C54.279 74.7873 53.8876 74.8213 53.4061 74.8973C52.9207 74.9733 52.3452 75.0912 51.6719 75.2536C50.9972 75.416 50.2234 75.6217 48.9746 76.0566C47.7154 76.4941 45.9747 77.1634 43.3714 78.2494C38.1571 80.4238 29.4808 84.2723 20.8018 88.1208L20.7722 88.1339L20.5508 87.6165L20.5534 87.6191Z" fill="#FEFEFE"/>
<path d="M41.2526 69.8203L41.2861 69.8766C41.9942 71.0451 42.7024 72.2135 43.395 73.3924L43.9963 74.4312C44.1881 74.7678 44.3748 75.1032 44.5486 75.4267L44.0619 75.6966C43.8971 75.3887 43.7117 75.0573 43.516 74.7141C43.3165 74.3631 43.1156 74.0186 42.9187 73.6819C42.2234 72.4965 41.5179 71.3333 40.8136 70.1714L40.7789 70.115L41.2526 69.8216V69.8203ZM45.3546 77.1466C45.4704 77.478 45.5322 77.7662 45.5438 78.0518C45.5567 78.3386 45.5207 78.615 45.4434 78.9216C45.352 79.2857 45.2014 79.7009 44.8705 80.2812C44.5486 80.8445 44.0504 81.5689 43.2624 82.5631C42.4436 83.594 41.3325 84.8921 40.2381 86.1706C39.203 87.3809 38.1807 88.5743 37.4674 89.4663C36.7233 90.3977 36.2791 91.0395 36.0203 91.5163C35.777 91.963 35.701 92.2538 35.6843 92.5053C35.6701 92.7358 35.7036 92.9336 35.8027 93.0935C35.9044 93.2572 36.0834 93.3974 36.3551 93.5126C36.6486 93.6371 37.0477 93.7261 37.8769 93.6633C38.7472 93.5965 40.063 93.362 42.1629 92.8315C43.4272 92.5119 44.9786 92.0835 46.7013 91.5871C48.4342 91.088 50.323 90.526 52.2581 89.9405L52.4138 90.4815C50.4569 91.0736 48.563 91.6381 46.8506 92.1307C45.128 92.6271 43.5714 93.0568 42.2942 93.379C40.1609 93.9187 38.8141 94.1571 37.9168 94.2252C36.9782 94.2973 36.5031 94.1859 36.1413 94.0327C35.7577 93.8702 35.4963 93.6567 35.3328 93.3934C35.1667 93.1249 35.1075 92.8184 35.1294 92.4699C35.15 92.1425 35.2427 91.7783 35.5336 91.2425C35.8079 90.7382 36.2701 90.0689 37.0361 89.1113C37.7842 88.1747 38.7935 86.9958 39.8171 85.7999C40.9192 84.5122 42.038 83.205 42.8285 82.2094C43.5984 81.2388 44.08 80.5393 44.389 79.9983C44.6877 79.4756 44.8228 79.1049 44.904 78.7814C44.9683 78.5233 44.9992 78.2993 44.9889 78.0753C44.9786 77.85 44.9284 77.613 44.8306 77.3339L45.3533 77.1466H45.3546ZM56.1991 88.7367L61.9799 86.9461C67.4092 85.2589 71.8819 83.8678 74.6848 83.1578C76.2671 82.757 77.3318 82.5683 78.085 82.512C78.8704 82.4531 79.3352 82.5382 79.6918 82.6771C80.0883 82.8329 80.3574 83.0556 80.508 83.4643C80.6419 83.8285 80.6651 84.3354 80.5866 85.0847C80.5325 85.5995 80.4295 86.2387 80.2699 87.0391C80.1089 87.8407 79.8926 88.7956 79.6107 89.9379L79.0725 89.8017C79.3558 88.6529 79.5708 87.7058 79.7265 86.9264C79.8823 86.1457 79.9828 85.5235 80.0355 85.0257C80.1051 84.3655 80.0909 83.9385 79.9892 83.6608C79.9042 83.4289 79.7394 83.298 79.4935 83.2023C79.2051 83.0897 78.815 83.0229 78.1249 83.074C77.4013 83.1277 76.3675 83.3124 74.8187 83.704C72.0119 84.4153 67.5534 85.8012 62.1421 87.4831L56.3613 89.2738L56.2003 88.7354L56.1991 88.7367ZM78.9914 92.3612L78.8189 93.0149C77.7425 97.0716 76.083 102.918 74.4221 108.768L74.4105 108.814L73.8762 108.659L73.8891 108.613C75.5384 102.805 77.1863 97.0009 78.282 92.8695L78.4545 92.2158L78.9914 92.3612Z" fill="#FEFEFE"/>
<path d="M44.9634 68.6094C45.5492 69.5656 46.1363 70.5218 46.6886 71.4427C47.2396 72.3596 47.7508 73.2333 48.1834 74.0167L47.6993 74.2931C47.2692 73.515 46.7607 72.6478 46.2148 71.7374C45.6715 70.831 45.0805 69.8682 44.4921 68.908L44.9634 68.6107V68.6094ZM49.0511 75.7012C49.4193 76.4976 49.6253 77.1185 49.7116 77.6608C49.8004 78.2202 49.7657 78.6904 49.6524 79.1764C49.5352 79.6833 49.3331 80.2073 48.9507 80.8321C48.5786 81.4412 48.0314 82.1486 47.2203 83.0328C46.3513 83.9772 45.1925 85.1129 44.0814 86.2001C43.1261 87.1354 42.2069 88.0353 41.5477 88.7413C40.8537 89.4841 40.4623 89.9949 40.2743 90.3617C40.1263 90.6499 40.1173 90.8149 40.1791 90.9302C40.2344 91.0324 40.3773 91.1018 41.0584 91.0154C41.8888 90.9106 43.3553 90.5569 45.9856 89.7631C46.8972 89.488 47.9658 89.154 49.1387 88.7806C50.3837 88.3851 51.6325 87.9816 52.8788 87.5768L53.0462 88.1139C51.6647 88.5632 50.3888 88.9758 49.3035 89.3203C48.1473 89.6884 47.0787 90.0211 46.1414 90.3041C43.475 91.1084 41.9815 91.4686 41.1254 91.576C40.1198 91.7031 39.8482 91.4895 39.6924 91.2014C39.5443 90.925 39.5302 90.5922 39.7825 90.101C39.9962 89.6871 40.416 89.133 41.1447 88.3523C41.8052 87.645 42.7321 86.7372 43.6965 85.7941C44.8076 84.7068 45.9689 83.5698 46.8135 82.649C47.5975 81.7949 48.1228 81.1151 48.4769 80.5348C48.8219 79.9702 49.0035 79.4986 49.1091 79.048C49.2069 78.6275 49.2378 78.2241 49.1618 77.7512C49.0833 77.2613 48.8928 76.6902 48.5464 75.9422L49.0473 75.7012H49.0511ZM56.7335 86.3167L58.0957 85.87C61.4586 84.7671 64.7868 83.6759 67.4119 82.8481C70.5019 81.8748 72.6275 81.2618 74.2111 80.8793C75.8128 80.4929 76.8801 80.337 77.838 80.2793C78.7972 80.2217 79.6456 80.2636 80.3962 80.371C81.1507 80.4798 81.806 80.654 82.3789 80.8609C82.9583 81.0705 83.4566 81.3142 83.866 81.5971C84.287 81.8892 84.614 82.2246 84.8406 82.6071C85.0556 82.9712 85.1779 83.3681 85.138 84.175C85.1007 84.9282 84.9192 86.0626 84.5329 87.9279L83.9896 87.8126C84.3707 85.9748 84.5496 84.8679 84.5844 84.1488C84.6166 83.4821 84.5265 83.1703 84.3655 82.8965C84.1827 82.5874 83.9098 82.3097 83.5544 82.0634C83.1862 81.808 82.7304 81.5853 82.1961 81.3928C81.6541 81.1963 81.0348 81.0312 80.3228 80.9291C79.6057 80.8256 78.7946 80.7863 77.874 80.8413C76.9509 80.8963 75.9132 81.0496 74.3425 81.4281C72.7563 81.8106 70.641 82.4197 67.578 83.3851C64.9477 84.2143 61.6247 85.3042 58.2682 86.4045L56.9061 86.8512L56.7361 86.3141L56.7335 86.3167ZM84.0347 90.2281C82.9763 94.9831 81.1494 102.553 79.3225 110.128L79.3134 110.165L78.7753 110.029L78.7843 109.993C80.6125 102.414 82.4408 94.839 83.4952 90.105L84.0359 90.2294L84.0347 90.2281Z" fill="#FEFEFE"/>
<path d="M62.8537 77.7344C63.661 77.7344 64.3974 77.9282 64.9343 78.2426C65.5175 78.5845 65.8793 79.0718 65.8793 79.6233C65.8793 80.1747 65.5175 80.662 64.9343 81.0026C64.3961 81.317 63.6597 81.5122 62.8537 81.5122C62.0465 81.5122 61.31 81.317 60.7731 81.0026C60.1899 80.662 59.8281 80.1747 59.8281 79.6233C59.8281 79.0718 60.1899 78.5832 60.7731 78.2426C61.3113 77.9296 62.0477 77.7344 62.8537 77.7344ZM64.6601 78.7312C64.2017 78.4653 63.5644 78.2989 62.8537 78.2989C62.143 78.2989 61.5044 78.464 61.0487 78.7312C60.638 78.9722 60.383 79.2879 60.383 79.622C60.383 79.9573 60.6367 80.2743 61.0487 80.514C61.5044 80.7812 62.143 80.9463 62.8537 80.9463C63.5644 80.9463 64.203 80.7812 64.6588 80.514C65.0695 80.2743 65.3231 79.9573 65.3231 79.622C65.3231 79.2866 65.0695 78.9709 64.6588 78.7312H64.6601Z" fill="#FEFEFE"/>
<path d="M69.518 75.6934C69.9699 75.6934 70.3845 75.8008 70.6896 75.9737C71.0437 76.1741 71.2625 76.4688 71.2625 76.8081C71.2625 77.1474 71.0424 77.4421 70.6896 77.6425C70.3845 77.8154 69.9699 77.9228 69.518 77.9228C69.0661 77.9228 68.6515 77.8154 68.3464 77.6425C67.9923 77.4421 67.7734 77.1474 67.7734 76.8081C67.7734 76.4688 67.9936 76.1741 68.3464 75.9737C68.6515 75.8008 69.0661 75.6934 69.518 75.6934ZM70.4205 76.4662C70.1952 76.3378 69.8759 76.2592 69.518 76.2592C69.1601 76.2592 68.8408 76.3378 68.6155 76.4662C68.4391 76.5658 68.3296 76.6876 68.3296 76.8081C68.3296 76.9273 68.4391 77.0491 68.6155 77.15C68.8408 77.2783 69.1601 77.3569 69.518 77.3569C69.8759 77.3569 70.1952 77.2783 70.4205 77.15C70.5969 77.0504 70.7063 76.9286 70.7063 76.8081C70.7063 76.6889 70.5969 76.5671 70.4205 76.4662Z" fill="#FEFEFE"/>
<path d="M50.2259 85.213C49.8204 85.213 49.4573 85.289 49.2011 85.4095C49.008 85.5012 48.8895 85.6034 48.8895 85.6951C48.8895 85.7868 49.0092 85.8889 49.2024 85.9806C49.4599 86.1024 49.8216 86.1784 50.2272 86.1784C50.6328 86.1784 50.9945 86.1024 51.252 85.9806C51.4452 85.8902 51.5649 85.7867 51.5649 85.6964C51.5649 85.6047 51.4452 85.5025 51.2533 85.4121C50.9945 85.2903 50.6328 85.2143 50.2272 85.2143L50.2259 85.213ZM48.9668 84.8986C49.2938 84.7441 49.7405 84.6484 50.2259 84.6484C50.7126 84.6484 51.1593 84.7441 51.4851 84.8986C51.8752 85.0846 52.1185 85.365 52.1185 85.6951C52.1185 86.0252 51.8752 86.3068 51.4851 86.4915C51.1581 86.6474 50.7126 86.743 50.2259 86.743C49.7405 86.743 49.2938 86.6474 48.9668 86.4928C48.5741 86.3068 48.332 86.0265 48.332 85.6951C48.332 85.3637 48.5741 85.0833 48.9668 84.8973V84.8986Z" fill="#FEFEFE"/>
<path d="M38.2675 83.0216C37.9302 83.0216 37.6315 83.0976 37.4191 83.2194C37.2543 83.315 37.1526 83.4303 37.1526 83.5416C37.1526 83.6543 37.2543 83.7696 37.4191 83.8639C37.6302 83.9857 37.9302 84.0617 38.2675 84.0617C38.6048 84.0617 38.9035 83.9857 39.116 83.8639C39.2808 83.7696 39.3825 83.653 39.3825 83.5416C39.3825 83.429 39.2808 83.3137 39.116 83.2194C38.9048 83.0976 38.6048 83.0216 38.2675 83.0216ZM37.1461 82.7295C37.4384 82.5618 37.8349 82.457 38.2675 82.457C38.7001 82.457 39.098 82.5618 39.3889 82.7295C39.7275 82.9247 39.9387 83.2115 39.9387 83.543C39.9387 83.873 39.7288 84.1599 39.3889 84.3564C39.0967 84.5241 38.6988 84.6289 38.2675 84.6289C37.8349 84.6289 37.4371 84.5241 37.1461 84.3564C36.8075 84.1612 36.5977 83.8744 36.5977 83.543C36.5977 83.2115 36.8075 82.926 37.1474 82.7295H37.1461Z" fill="#FEFEFE"/>
<path d="M28.6951 75.7299C28.1737 75.7299 27.7076 75.8308 27.3768 75.9919C27.1064 76.1229 26.939 76.284 26.939 76.4386C26.939 76.5945 27.1064 76.7543 27.3768 76.8866C27.7076 77.0477 28.1737 77.1486 28.6951 77.1486C29.2166 77.1486 29.6813 77.0477 30.0135 76.8866C30.2839 76.7556 30.4513 76.5945 30.4513 76.4386C30.4513 76.2827 30.2839 76.1229 30.0135 75.9919C29.6826 75.8308 29.2166 75.7299 28.6951 75.7299ZM27.1373 75.4837C27.5415 75.2872 28.0926 75.1641 28.6951 75.1641C29.2964 75.1641 29.8487 75.2859 30.2517 75.4837C30.7178 75.7103 31.0062 76.0469 31.0062 76.4386C31.0062 76.8303 30.7178 77.1669 30.2517 77.3935C29.8474 77.59 29.2964 77.7131 28.6951 77.7131C28.0939 77.7131 27.5415 77.5913 27.1373 77.3935C26.6712 77.1669 26.3828 76.829 26.3828 76.4386C26.3828 76.0469 26.6712 75.7103 27.1373 75.4837Z" fill="#FEFEFE"/>
<path d="M33.9399 86.4434C34.63 86.4434 35.2609 86.5573 35.7218 86.7394C36.2613 86.9542 36.5947 87.2817 36.5947 87.6707C36.5947 88.0598 36.2613 88.3873 35.7218 88.6021C35.2622 88.7855 34.63 88.8981 33.9399 88.8981C33.2499 88.8981 32.619 88.7842 32.1581 88.6021C31.6186 88.3873 31.2852 88.0598 31.2852 87.6707C31.2852 87.2817 31.6186 86.9542 32.1581 86.7394C32.619 86.556 33.2499 86.4434 33.9399 86.4434ZM35.5197 87.266C35.1206 87.1075 34.5618 87.0092 33.9399 87.0092C33.3181 87.0092 32.7593 87.1075 32.3602 87.266C32.0396 87.393 31.8413 87.5384 31.8413 87.6707C31.8413 87.803 32.0396 87.9484 32.3602 88.0755C32.7593 88.234 33.3181 88.3323 33.9399 88.3323C34.5618 88.3323 35.1206 88.234 35.5197 88.0755C35.8403 87.9484 36.0385 87.803 36.0385 87.6707C36.0385 87.5384 35.8403 87.393 35.5197 87.266Z" fill="#FEFEFE"/>
<path d="M17.0793 81.3027C18.1208 81.3027 19.0684 81.4848 19.7585 81.7782C20.5233 82.1031 20.9958 82.5812 20.9958 83.134C20.9958 83.6868 20.522 84.1649 19.7585 84.4897C19.0684 84.7832 18.1195 84.9652 17.078 84.9652C16.0364 84.9652 15.0888 84.7832 14.3974 84.4897C13.6327 84.1649 13.1602 83.6868 13.1602 83.134C13.1602 82.5812 13.634 82.1031 14.3974 81.7782C15.0875 81.4848 16.0364 81.3027 17.0767 81.3027H17.0793ZM19.5461 82.2996C18.9204 82.0337 18.0474 81.8673 17.0793 81.8673C16.1111 81.8673 15.2382 82.0324 14.6124 82.2996C14.0601 82.5354 13.7176 82.8314 13.7176 83.134C13.7176 83.4366 14.0601 83.7339 14.6124 83.9684C15.2394 84.2356 16.1111 84.4007 17.0793 84.4007C18.0474 84.4007 18.9204 84.2356 19.5461 83.9684C20.0984 83.7326 20.4409 83.4366 20.4409 83.134C20.4409 82.8314 20.0984 82.534 19.5461 82.2996Z" fill="#FEFEFE"/>
<path d="M48.6277 97.1738C49.3641 97.1738 50.0362 97.3755 50.5254 97.7017C51.0494 98.0502 51.3739 98.5453 51.3739 99.1007C51.3739 99.6561 51.0494 100.15 50.5241 100.5C50.0349 100.826 49.3628 101.028 48.6264 101.028C47.89 101.028 47.2179 100.826 46.7286 100.5C46.2046 100.15 45.8789 99.6561 45.8789 99.1007C45.8789 98.5453 46.2034 98.0515 46.7286 97.7017C47.2179 97.3755 47.89 97.1738 48.6264 97.1738H48.6277ZM50.2216 98.1746C49.8186 97.9061 49.2547 97.7397 48.6277 97.7397C48.0007 97.7397 47.4368 97.9061 47.0338 98.1746C46.6656 98.4195 46.4364 98.7483 46.4364 99.1007C46.4364 99.4531 46.6643 99.7805 47.0338 100.027C47.4368 100.295 48.0007 100.462 48.6277 100.462C49.2547 100.462 49.8186 100.295 50.2216 100.027C50.5911 99.7819 50.819 99.4531 50.819 99.1007C50.819 98.7483 50.5911 98.4195 50.2216 98.1746Z" fill="#FEFEFE"/>
<path d="M65.8985 89.5801C66.5886 89.5801 67.2182 89.7111 67.6791 89.9207C68.2082 90.1617 68.5353 90.5206 68.5353 90.9398C68.5353 91.3589 68.2082 91.7179 67.6791 91.9589C67.2182 92.1698 66.5886 92.2994 65.8985 92.2994C65.2097 92.2994 64.5788 92.1685 64.1179 91.9589C63.59 91.7179 63.2617 91.3589 63.2617 90.9398C63.2617 90.5219 63.5887 90.1617 64.1179 89.9207C64.5788 89.7098 65.2097 89.5801 65.8985 89.5801ZM67.4538 90.4355C67.0611 90.256 66.5126 90.146 65.8985 90.146C65.2856 90.146 64.7359 90.2573 64.3432 90.4355C64.0188 90.5835 63.8179 90.7629 63.8179 90.9398C63.8179 91.1153 64.0188 91.2961 64.3432 91.4441C64.7359 91.6235 65.2844 91.7336 65.8985 91.7336C66.5113 91.7336 67.0611 91.6222 67.4538 91.4441C67.7782 91.2961 67.9791 91.1166 67.9791 90.9398C67.9791 90.7642 67.7782 90.5835 67.4538 90.4355Z" fill="#FEFEFE"/>
<path d="M92.1736 90.6733C91.4076 90.6733 90.7188 90.7951 90.2257 90.9916C89.8111 91.1567 89.5549 91.3545 89.5549 91.5444C89.5549 91.7343 89.8111 91.9308 90.2257 92.0959C90.7188 92.2923 91.4076 92.4142 92.1736 92.4142C92.9397 92.4142 93.6285 92.2923 94.1216 92.0959C94.5362 91.9308 94.7924 91.7343 94.7924 91.5444C94.7924 91.3545 94.5349 91.1567 94.1216 90.9916C93.6285 90.7951 92.9397 90.6733 92.1736 90.6733ZM90.0248 90.465C90.5797 90.2436 91.3406 90.1074 92.1736 90.1074C93.0079 90.1074 93.7688 90.2436 94.3225 90.465C94.9559 90.7165 95.3473 91.0964 95.3473 91.5431C95.3473 91.9898 94.9546 92.3696 94.3225 92.6211C93.7676 92.8425 93.0066 92.9787 92.1736 92.9787C91.3394 92.9787 90.5785 92.8425 90.0248 92.6211C89.3914 92.3696 89 91.9898 89 91.5431C89 91.0964 89.3927 90.7165 90.0248 90.465Z" fill="#FEFEFE"/>
<path d="M98.3756 89.3901C97.8554 89.3901 97.3881 89.4451 97.0546 89.5355L96.6851 89.6364L97.0546 89.7372C97.3881 89.8263 97.8554 89.8826 98.3756 89.8826C98.8957 89.8826 99.3644 89.8276 99.6965 89.7372L100.066 89.6364L99.6965 89.5355C99.3631 89.4464 98.8957 89.3901 98.3756 89.3901ZM96.913 88.9893C97.2915 88.8871 97.8091 88.8242 98.3756 88.8242C98.9421 88.8242 99.4596 88.8871 99.8381 88.9893C100.322 89.1189 100.622 89.3456 100.622 89.6364C100.622 89.9272 100.322 90.1538 99.8381 90.2835C99.4596 90.3856 98.9421 90.4485 98.3756 90.4485C97.8091 90.4485 97.2915 90.3856 96.913 90.2835C96.4289 90.1538 96.1289 89.9272 96.1289 89.6364C96.1289 89.3456 96.4289 89.1189 96.913 88.9893Z" fill="#FEFEFE"/>
<path d="M95.8852 99.9682C95.3238 99.9682 94.8204 100.055 94.4599 100.194C94.1818 100.301 94.0093 100.418 94.0093 100.517C94.0093 100.617 94.1818 100.733 94.4599 100.841C94.8204 100.979 95.3238 101.066 95.8852 101.066C96.4465 101.066 96.9512 100.979 97.3104 100.841C97.5885 100.733 97.7611 100.617 97.7611 100.517C97.7611 100.418 97.5885 100.301 97.3104 100.194C96.9499 100.055 96.4465 99.9682 95.8852 99.9682ZM94.2642 99.6643C94.684 99.5032 95.2569 99.4023 95.8852 99.4023C96.5122 99.4023 97.0864 99.5032 97.5061 99.6643C98.007 99.8582 98.3172 100.157 98.3172 100.516C98.3172 100.875 98.007 101.175 97.5061 101.367C97.0864 101.528 96.5135 101.629 95.8852 101.629C95.2569 101.629 94.684 101.528 94.2642 101.367C93.7634 101.175 93.4531 100.875 93.4531 100.516C93.4531 100.157 93.7634 99.8582 94.2642 99.6643Z" fill="#FEFEFE"/>
<path d="M50.0214 69.1387C50.5763 69.1387 51.0848 69.2566 51.4569 69.4465C51.8882 69.6639 52.156 69.9888 52.156 70.3661C52.156 70.742 51.8895 71.0669 51.4582 71.2856C51.0861 71.4755 50.5776 71.5934 50.0214 71.5934C49.4652 71.5934 48.9566 71.4756 48.5845 71.2869C48.1532 71.0669 47.8867 70.742 47.8867 70.3661C47.8867 69.9888 48.1532 69.6639 48.5845 69.4452C48.9579 69.2566 49.4665 69.1387 50.0214 69.1387ZM51.211 69.9508C50.9123 69.7989 50.4926 69.7046 50.0214 69.7046C49.5514 69.7046 49.1304 69.7989 48.8317 69.9508C48.591 70.0739 48.4416 70.2233 48.4416 70.3674C48.4416 70.5128 48.591 70.6608 48.8304 70.7839C49.1304 70.9346 49.5514 71.0302 50.0201 71.0302C50.49 71.0302 50.9097 70.9359 51.2097 70.7839C51.4505 70.6621 51.5998 70.5141 51.5998 70.3687C51.5998 70.2246 51.4505 70.0766 51.2097 69.9534L51.211 69.9508Z" fill="#FEFEFE"/>
<path d="M60.8834 71.8574C61.2748 71.8574 61.6365 71.9334 61.9018 72.0539C62.2352 72.2059 62.4425 72.443 62.4425 72.7259C62.4425 73.0088 62.2352 73.2446 61.9018 73.3966C61.6353 73.5184 61.2748 73.5931 60.8834 73.5931C60.492 73.5931 60.1302 73.5171 59.865 73.3966C59.5315 73.2446 59.3242 73.0075 59.3242 72.7259C59.3242 72.443 59.5315 72.2072 59.865 72.0539C60.1315 71.9321 60.492 71.8574 60.8834 71.8574ZM61.6765 72.5687C61.4795 72.4783 61.1988 72.422 60.8834 72.422C60.5679 72.422 60.2873 72.4783 60.0903 72.5687C59.9602 72.6276 59.8804 72.6853 59.8804 72.7259C59.8804 72.7665 59.9615 72.8228 60.0903 72.8831C60.2873 72.9735 60.5679 73.0298 60.8834 73.0298C61.1988 73.0298 61.4795 72.9735 61.6765 72.8831C61.8065 72.8241 61.8863 72.7665 61.8863 72.7259C61.8863 72.6853 61.8052 72.6276 61.6765 72.5687Z" fill="#FEFEFE"/>
<path d="M85.4693 79.6797C85.8761 79.6797 86.2495 79.7897 86.5237 79.9679C86.8353 80.1709 87.0284 80.4617 87.0284 80.7931C87.0284 81.1245 86.8353 81.4166 86.5237 81.6184C86.2482 81.7965 85.8749 81.9065 85.4693 81.9065C85.0625 81.9065 84.6891 81.7965 84.4148 81.6184C84.1033 81.4166 83.9102 81.1245 83.9102 80.7931C83.9102 80.4617 84.1033 80.1696 84.4148 79.9679C84.6891 79.7897 85.0637 79.6797 85.4693 79.6797ZM86.2263 80.4434C86.0384 80.3215 85.7706 80.2456 85.4693 80.2456C85.168 80.2456 84.9002 80.3215 84.7123 80.4434C84.5603 80.5416 84.4664 80.6674 84.4664 80.7944C84.4664 80.9215 84.5603 81.0459 84.7123 81.1442C84.9002 81.266 85.168 81.342 85.4693 81.342C85.7706 81.342 86.0384 81.266 86.2263 81.1442C86.3783 81.0459 86.4723 80.9215 86.4723 80.7944C86.4723 80.6674 86.3783 80.5429 86.2263 80.4434Z" fill="#FEFEFE"/>
<path d="M41.218 95.4355C41.7561 95.4355 42.2492 95.5037 42.6097 95.6137C43.0681 95.7539 43.3526 95.9883 43.3526 96.2844C43.3526 96.5804 43.0681 96.8162 42.6097 96.9563C42.2492 97.0664 41.7561 97.1345 41.218 97.1345C40.6785 97.1345 40.1854 97.0664 39.8249 96.9563C39.3666 96.8162 39.082 96.5817 39.082 96.2844C39.082 95.9883 39.3666 95.7525 39.8249 95.6137C40.1854 95.5037 40.6785 95.4355 41.2167 95.4355H41.218ZM42.4514 96.1547C42.1398 96.0591 41.7046 96.0014 41.218 96.0014C40.7313 96.0014 40.2948 96.0604 39.9846 96.1547C39.7708 96.2202 39.6395 96.2686 39.6395 96.2844C39.6395 96.3014 39.7721 96.3499 39.9846 96.4154C40.2961 96.511 40.7313 96.5686 41.2193 96.5686C41.7059 96.5686 42.1424 96.5097 42.4527 96.4154C42.6664 96.3499 42.7977 96.3014 42.7977 96.2844C42.7977 96.2673 42.6651 96.2189 42.4527 96.1547H42.4514Z" fill="#FEFEFE"/>
<path d="M26.6247 87.4258C27.1783 87.4258 27.6855 87.5686 28.0563 87.7991C28.4683 88.0559 28.7233 88.4239 28.7233 88.8418C28.7233 89.2597 28.4683 89.6277 28.0563 89.8845C27.6855 90.115 27.1783 90.2578 26.6247 90.2578C26.071 90.2578 25.5651 90.115 25.1943 89.8845C24.7823 89.6277 24.5273 89.2597 24.5273 88.8418C24.5273 88.4239 24.7823 88.0559 25.1943 87.7991C25.5651 87.5686 26.071 87.4258 26.6247 87.4258ZM27.7667 88.2812C27.4795 88.1017 27.0753 87.9917 26.6247 87.9917C26.174 87.9917 25.7711 88.103 25.4827 88.2812C25.2355 88.4344 25.0835 88.6348 25.0835 88.8418C25.0835 89.0488 25.2367 89.2492 25.4827 89.4024C25.7698 89.5819 26.174 89.6919 26.6247 89.6919C27.0753 89.6919 27.4795 89.5806 27.7667 89.4024C28.0126 89.2492 28.1658 89.0488 28.1658 88.8418C28.1658 88.6348 28.0126 88.4344 27.7667 88.2812Z" fill="#FEFEFE"/>
<path d="M87.0127 103.561C87.5908 103.561 88.1187 103.685 88.5036 103.884C88.9465 104.113 89.2208 104.451 89.2208 104.844C89.2208 105.236 88.9465 105.575 88.5036 105.804C88.1174 106.005 87.5895 106.128 87.0127 106.128C86.4346 106.128 85.9068 106.004 85.5218 105.804C85.0789 105.575 84.8047 105.236 84.8047 104.844C84.8047 104.453 85.0789 104.113 85.5218 103.884C85.9081 103.684 86.4359 103.561 87.0127 103.561ZM88.2526 104.388C87.9397 104.226 87.502 104.126 87.0127 104.126C86.5235 104.126 86.0857 104.227 85.7729 104.388C85.518 104.521 85.3596 104.683 85.3596 104.844C85.3596 105.005 85.518 105.168 85.7729 105.3C86.0857 105.463 86.5235 105.562 87.0127 105.562C87.502 105.562 87.9397 105.461 88.2526 105.3C88.5075 105.168 88.6659 105.005 88.6659 104.844C88.6659 104.683 88.5075 104.521 88.2526 104.388Z" fill="#FEFEFE"/>
<path d="M24.0187 85.4016L23.3672 84.7729C24.5452 84.2306 25.7709 83.7118 26.9219 83.125L27.63 84.0053L24.1538 85.5313L24.0199 85.4029L24.0187 85.4016Z" fill="#FEFEFE"/>
<path d="M31.0727 82.4492L30.7109 81.7117L32.3782 80.8262L33.1082 81.5689L31.5324 82.5212L31.2143 82.7373L31.0727 82.4492Z" fill="#FEFEFE"/>
<path d="M37.398 80.0519L37.1289 79.3838L40.0837 78.0176H40.2948L41.115 78.6935L37.5061 80.3204L37.398 80.0519Z" fill="#FEFEFE"/>
<path d="M56.7739 76.8619L56.6902 77.268L57.1318 77.2758V76.9169L56.7739 76.8606V76.8619ZM56.08 77.4867L56.3375 76.2227L57.6867 76.4322V77.8496L56.0117 77.8194L56.08 77.4867Z" fill="#FEFEFE"/>
<path d="M56.6406 81.428L55.9801 83.2973L54.3438 83.0681L55.0866 80.9395L56.7642 81.0822L56.6419 81.428H56.6406ZM55.6106 82.6764L55.9969 81.5839L55.4651 81.5381L55.0931 82.603L55.6106 82.6751V82.6764Z" fill="#FEFEFE"/>
<path d="M54.8346 88.43L54.599 89.5028L54.9839 89.5106L55.1861 88.4522L54.8359 88.43H54.8346ZM53.9835 89.7163L54.3981 87.8379L55.8504 87.9296L55.4397 90.0831L53.9102 90.0529L53.9835 89.7176V89.7163Z" fill="#FEFEFE"/>
<path d="M53.55 92.0585V91.5254L55.0525 91.6747V93.7195L53.2539 93.7483L53.55 92.0585ZM54.0985 92.1463L53.9182 93.1746L54.4963 93.1654V92.1869L54.0985 92.1476V92.1463Z" fill="#FEFEFE"/>
<path d="M51.7463 96.0112L52.9759 95.5566L54.2608 97.604L52.5278 98.297V97.9079L51.4219 96.1317L51.7463 96.0112ZM52.748 96.2404L52.26 96.4212L52.9463 97.5228L53.4316 97.329L52.748 96.2404Z" fill="#FEFEFE"/>
<path d="M61.2623 97.2472L61.4335 97.5262L63.8192 96.8201L63.6686 96.6158L61.2623 97.2472ZM61.055 97.9755L60.3906 96.8948L63.8887 95.9766L64.741 97.1332L61.3408 98.1405L61.109 98.0632L61.055 97.9755Z" fill="#FEFEFE"/>
<path d="M67.1774 95.4654L67.4568 95.7353L69.6147 94.7528L69.4318 94.521L67.1774 95.4654ZM67.2096 96.2737L66.1758 95.2755L69.6044 93.8398L70.4979 94.969L67.3448 96.4046L67.2096 96.275V96.2737Z" fill="#FEFEFE"/>
<path d="M89.1367 86.7712V86.7634H89.4045L89.3208 86.5721L91.664 85.5059L92.743 86.2564L89.832 87.4891H89.6221L89.2062 86.99C89.1856 86.952 89.1638 86.9153 89.1509 86.8747C89.138 86.8289 89.138 86.8118 89.138 86.7699L89.1367 86.7712Z" fill="#FEFEFE"/>
</g>
<defs>
<clipPath id="clip0_925_3623">
<rect width="120" height="120" fill="white"/>
</clipPath>
</defs>
</svg>
