<svg width="120" height="120" viewBox="0 0 120 120" fill="none" xmlns="http://www.w3.org/2000/svg">
<path d="M1.53362 22.7676H118.385V46.462H1.19922V22.7676H1.53362ZM117.715 23.4364H1.86802V45.7926H117.715V23.4364Z" fill="#FEFEFE"/>
<path d="M41.7023 23.1029V16.9552L1.40625 0.619418L1.65735 0L42.3711 16.5053V23.1029H41.7023Z" fill="#FEFEFE"/>
<path d="M41.9883 16.3999L118 5.15039L118.097 5.81146L42.0853 17.0609L41.9883 16.3999Z" fill="#FEFEFE"/>
<path d="M18.6418 50.7377C17.6773 51.1394 16.7907 51.5726 15.991 52.0242C15.1597 52.4931 14.4124 52.9875 13.7614 53.4909C13.1599 53.9556 12.641 54.4287 12.2001 54.894C11.7157 55.4051 11.3242 55.9073 11.0184 56.3815C10.7334 56.8236 10.5233 57.239 10.3627 57.7548C10.1978 58.282 10.0806 58.9211 9.98364 59.8017C9.87773 60.7555 9.79442 61.9801 9.75456 63.4623C9.71885 64.7838 9.71648 66.3136 9.76051 68.0422C9.80573 69.8308 9.90272 71.8491 10.0301 73.8371C10.1627 75.9143 10.3288 77.9463 10.5025 79.6403C10.6721 81.2921 10.8506 82.6268 11.0832 83.74C11.3123 84.8373 11.5926 85.7143 11.9674 86.4647C12.3399 87.2096 12.8106 87.8391 13.3538 88.402C13.9013 88.9697 14.5278 89.4743 15.205 89.9664C15.8845 90.4602 16.6128 90.9392 17.447 91.37C18.2824 91.8014 19.2297 92.1882 20.3495 92.5C21.511 92.8231 22.8587 93.0664 24.354 93.2039C25.7666 93.3336 27.3148 93.3693 28.9666 93.2901C30.7112 93.2062 32.5707 92.9926 34.351 92.6666C36.0414 92.3572 37.6611 91.9448 39.0415 91.445C40.4476 90.9356 41.6085 90.3335 42.5897 89.6819C43.5691 89.0316 44.3717 88.3295 45.0644 87.6196C45.7195 86.9484 46.2776 86.2671 46.7477 85.5989C47.2701 84.8557 47.6824 84.1304 47.9978 83.4521C48.2953 82.81 48.5077 82.2091 48.6702 81.5527C48.8338 80.8911 48.9498 80.1652 49.0546 79.2804C49.1652 78.3438 49.2634 77.2371 49.3324 76.0607C49.3961 74.9778 49.4372 73.8377 49.4425 72.7208C49.4479 71.5921 49.4181 70.4705 49.3628 69.4089C49.3027 68.2725 49.2117 67.2044 49.1022 66.269C48.9968 65.3735 48.8749 64.6077 48.7178 63.9044C48.5607 63.2005 48.3667 62.5507 48.1186 61.8867C47.8669 61.2137 47.5569 60.5217 47.1981 59.8398C46.8506 59.1793 46.4591 58.5319 46.0336 57.925C45.6017 57.3086 45.131 56.7284 44.5675 56.1453C44.0022 55.5598 43.3441 54.9707 42.5373 54.3388C41.6715 53.6599 40.6344 52.9298 39.5223 52.2491C38.5524 51.6553 37.529 51.1001 36.518 50.6515C35.4345 50.1707 34.3557 49.8071 33.3103 49.531C32.2648 49.2544 31.2539 49.0651 30.3048 48.9313C29.3546 48.7974 28.468 48.7182 27.5802 48.7129C26.6913 48.7075 25.794 48.7736 24.8205 48.9301C23.8584 49.0848 22.82 49.3275 21.7805 49.6316C20.7131 49.944 19.6397 50.323 18.6418 50.7383V50.7377ZM15.6643 51.4434C16.4956 50.9746 17.4065 50.5283 18.3853 50.1207C19.3981 49.6988 20.4959 49.3115 21.5949 48.9902C22.6594 48.679 23.7251 48.4297 24.7164 48.2708C25.7255 48.1083 26.6579 48.0393 27.5826 48.0453C28.5091 48.0512 29.423 48.1321 30.3959 48.269C31.3699 48.4065 32.4076 48.601 33.4799 48.8843C34.5527 49.1681 35.6642 49.5429 36.787 50.041C37.8325 50.5045 38.8815 51.0733 39.8692 51.6785C41.0015 52.3717 42.0613 53.1178 42.9473 53.8128C43.7809 54.4662 44.4622 55.0761 45.0477 55.6824C45.6344 56.2899 46.1265 56.8974 46.5793 57.543C47.0243 58.1779 47.4307 58.8485 47.7884 59.5286C48.1579 60.2301 48.4792 60.9483 48.7428 61.6534C49.0016 62.346 49.2039 63.0244 49.3681 63.7604C49.5324 64.4958 49.6585 65.2831 49.7656 66.1928C49.8757 67.1324 49.9679 68.2147 50.0292 69.375C50.0851 70.4389 50.1149 71.5718 50.1089 72.7232C50.1036 73.8674 50.0625 75.0182 49.9989 76.0994C49.9281 77.2977 49.8293 78.4176 49.718 79.3577C49.6103 80.2657 49.4901 81.016 49.3182 81.7116C49.1444 82.4114 48.9189 83.051 48.6041 83.7305C48.2721 84.4457 47.8401 85.2068 47.2939 85.9827C46.806 86.6759 46.2258 87.384 45.5427 88.0843C44.8198 88.8251 43.9814 89.5582 42.9574 90.2383C41.9357 90.9166 40.729 91.5426 39.2682 92.0715C37.8527 92.5839 36.1967 93.0063 34.4706 93.3223C32.6611 93.6537 30.7713 93.8709 28.997 93.956C27.3178 94.0363 25.7386 93.9994 24.2927 93.8667C22.754 93.7251 21.367 93.4746 20.1704 93.142C19.0012 92.8165 18.0123 92.4125 17.14 91.9621C16.2665 91.511 15.5126 91.0154 14.8116 90.5066C14.1083 89.9955 13.4538 89.4671 12.8719 88.8632C12.2858 88.2557 11.7764 87.5738 11.37 86.7616C10.9666 85.9541 10.6679 85.0253 10.4275 83.8745C10.1907 82.7392 10.0092 81.3832 9.83667 79.707C9.66114 77.9963 9.49394 75.9548 9.36125 73.8776C9.2351 71.9003 9.13811 69.8748 9.0917 68.0565C9.04708 66.3166 9.05005 64.7767 9.08575 63.4456C9.12621 61.9319 9.21071 60.6889 9.31722 59.7273C9.41956 58.8027 9.54511 58.1249 9.72243 57.5555C9.90331 56.9742 10.1372 56.5101 10.4537 56.0198C10.7798 55.514 11.1975 54.9779 11.714 54.4334C12.1769 53.9455 12.7207 53.4493 13.3509 52.9625C14.0226 52.4431 14.7968 51.932 15.6619 51.4434H15.6643Z" fill="#FEFEFE"/>
<path d="M11.3867 58.25C11.514 59.2705 11.642 60.2915 11.7776 61.5298C11.9103 62.74 12.0442 64.1032 12.1787 65.7699C12.3179 67.4937 12.4619 69.5739 12.5869 71.6999C12.7017 73.6563 12.7999 75.6502 12.863 77.4323C12.9927 81.1054 12.9695 83.8258 12.9457 86.5457L12.2792 86.5403C12.3024 83.8318 12.3262 81.1232 12.1965 77.4561C12.1346 75.7008 12.0359 73.7099 11.9204 71.7391C11.7973 69.6459 11.6533 67.5698 11.5123 65.8228C11.376 64.1383 11.2433 62.7859 11.1136 61.6006C10.9868 60.4438 10.8548 59.3871 10.7227 58.3309L11.3861 58.25H11.3867Z" fill="#FEFEFE"/>
<path d="M17.9635 92.1367L17.9647 92.1206C18.0522 90.3564 18.1402 88.591 17.9843 84.2289C17.9082 82.0975 17.7719 79.3188 17.6345 76.496C17.4917 73.572 17.3459 70.5987 17.2614 68.2139C17.1787 65.8784 17.1549 64.129 17.2245 62.6938C17.2947 61.2408 17.4607 60.1061 17.7559 59.0166C18.0486 57.9348 18.4699 56.8948 18.984 55.9487C19.5082 54.9835 20.13 54.1148 20.8113 53.3972C21.4878 52.6832 22.2257 52.1179 23.0099 51.6669C23.7918 51.2171 24.6188 50.8826 25.4786 50.628C26.3343 50.3745 27.2286 50.1996 28.1705 50.1073C29.1107 50.0151 30.0954 50.0062 31.1325 50.0835C32.1774 50.1621 33.2836 50.3299 34.3564 50.5709C35.406 50.8071 36.4235 51.1141 37.3214 51.4765C38.2353 51.846 39.0273 52.2738 39.7455 52.7683C40.4625 53.2627 41.1045 53.8227 41.7204 54.4564C42.341 55.0954 42.9384 55.8124 43.4828 56.577C44.0136 57.3226 44.4973 58.1151 44.9067 58.9285C45.3226 59.755 45.6642 60.6029 45.9438 61.5419C46.2223 62.4773 46.4419 63.5054 46.615 64.6967C46.7852 65.8641 46.9119 67.1928 46.9952 68.6197C47.0803 70.0703 47.1196 71.6293 47.1136 73.2287C47.1071 74.9031 47.0512 76.6108 46.9328 78.1942C46.8257 79.6204 46.6668 80.958 46.4478 82.0957C45.9861 84.4871 45.2578 85.9884 44.7014 87.1356L44.677 87.1867C44.1284 88.3161 43.7577 89.1039 43.3864 89.8905L42.7825 89.6055C43.152 88.8218 43.5221 88.037 44.0755 86.8952L44.0999 86.844C44.6401 85.7319 45.3458 84.2759 45.7909 81.9708C46.0051 80.8599 46.161 79.5478 46.2657 78.1448C46.3847 76.5596 46.4407 74.871 46.4466 73.2293C46.452 71.6525 46.4127 70.1054 46.3282 68.6566C46.2461 67.2529 46.1212 65.9438 45.9534 64.7913C45.785 63.6346 45.5725 62.6379 45.303 61.7329C45.034 60.8314 44.708 60.0198 44.3105 59.2302C43.9166 58.4472 43.4507 57.6838 42.9384 56.965C42.4136 56.2277 41.8382 55.5369 41.2414 54.9223C40.6541 54.3171 40.0436 53.7846 39.3659 53.3175C38.6887 52.851 37.9396 52.4464 37.0721 52.0959C36.2069 51.7466 35.2245 51.4503 34.2094 51.2224C33.1729 50.9898 32.1001 50.8273 31.082 50.7506C30.0782 50.675 29.1321 50.6833 28.2348 50.7714C27.3381 50.8589 26.4848 51.0261 25.6661 51.2688C24.8509 51.5098 24.0714 51.8246 23.3407 52.2447C22.6124 52.6635 21.9264 53.1901 21.2939 53.8572C20.6524 54.5331 20.0657 55.3536 19.5689 56.2682C19.081 57.1661 18.6805 58.1562 18.4009 59.1898C18.1176 60.2358 17.9588 61.3271 17.8903 62.726C17.8213 64.1433 17.8451 65.876 17.9272 68.1907C18.0111 70.5457 18.1569 73.5298 18.3003 76.4644C18.4378 79.2759 18.5734 82.0445 18.6502 84.2051C18.8067 88.5862 18.7192 90.3659 18.6317 92.1361L18.6311 92.1522L18.3033 92.1367H17.9629H17.9635Z" fill="#FEFEFE"/>
<path d="M44.011 58.1421C43.6766 58.2528 43.3416 58.3635 43.0423 58.5027C42.7537 58.6366 42.4842 58.802 42.2575 59.0275C42.0284 59.2542 41.8326 59.5505 41.6607 59.945C41.4804 60.3568 41.3245 60.8768 41.1817 61.5355C41.0347 62.2127 40.902 63.0308 40.7937 63.9311C40.6866 64.8218 40.6021 65.7905 40.5509 66.78C40.4974 67.8065 40.4766 68.8608 40.4926 69.9235C40.5081 70.9464 40.5581 71.9936 40.6455 73.0492C40.7312 74.0881 40.8538 75.1223 41.0008 76.1064C41.1555 77.143 41.3382 78.1241 41.5345 78.9988C41.7219 79.8354 41.9242 80.581 42.1301 81.2206C42.3431 81.8811 42.5597 82.4261 42.7692 82.8397C42.9638 83.2235 43.1494 83.4883 43.3386 83.6733C43.5153 83.8465 43.7004 83.953 43.9039 84.0297C44.3454 84.1957 44.8958 84.232 45.4468 84.2671L45.4587 84.2689L45.4188 84.7081L45.4045 84.9342C44.8042 84.8955 44.2032 84.8562 43.6683 84.6551C43.3832 84.548 43.122 84.3963 42.8703 84.1499C42.6305 83.9149 42.4026 83.5942 42.173 83.1408C41.9486 82.6975 41.7178 82.1203 41.494 81.4247C41.2828 80.769 41.0752 80.0032 40.883 79.1452C40.6807 78.2455 40.4956 77.2477 40.3391 76.2034C40.1898 75.2008 40.0648 74.1524 39.9785 73.1045C39.8917 72.0561 39.8417 70.9922 39.8256 69.9319C39.8095 68.8472 39.8304 67.7797 39.8839 66.7467C39.9369 65.7304 40.022 64.7474 40.1297 63.8531C40.2409 62.9285 40.3766 62.0889 40.5277 61.3945C40.6795 60.6959 40.8484 60.1354 41.0484 59.679C41.256 59.2042 41.4976 58.8413 41.7868 58.5551C42.0772 58.2671 42.4104 58.0606 42.7626 57.897C43.1048 57.7381 43.4535 57.6227 43.8015 57.5078L44.011 58.1433V58.1421Z" fill="#FEFEFE"/>
<path d="M19.2473 92.6159L19.2485 92.6051C19.3336 89.8984 19.4187 87.1905 19.3907 84.2647C19.3681 81.915 19.2717 79.4028 19.1855 77.1655L19.126 75.5905C19.0784 74.2969 19.0432 73.1461 19.0522 72.1168C19.0611 71.079 19.1152 70.1704 19.2479 69.3755C19.4699 68.0438 19.906 67.0394 20.3773 65.9517L20.6623 65.2883C20.798 64.9658 20.9551 64.5766 21.1127 64.1845C21.5382 63.1272 21.9755 62.0401 22.4616 61.1922C22.8032 60.5953 23.1703 60.1134 23.5916 59.7349C24.0206 59.35 24.5032 59.0727 25.0702 58.893C25.6236 58.7169 26.2573 58.6347 26.8803 58.6455C27.5051 58.6562 28.1263 58.7609 28.6511 58.9572C29.1919 59.159 29.6334 59.4571 29.9958 59.8504C30.3522 60.2371 30.6301 60.7149 30.8521 61.2856C31.0645 61.8318 31.2198 62.4429 31.3745 63.0492C31.5316 63.6657 31.6875 64.2779 31.8892 64.773C32.1736 65.4715 32.5693 65.9815 32.9388 66.4575C33.0846 66.6467 33.2268 66.8306 33.3517 67.0079C33.6017 67.3637 33.8147 67.7368 34.0295 68.3092C34.2365 68.8614 34.4448 69.6016 34.6899 70.7036C34.9381 71.8169 35.2231 73.2878 35.4944 74.8354C35.7604 76.3533 36.0174 77.9664 36.2174 79.4153L36.4084 80.8582C36.6862 83.0015 36.8963 84.6223 37.4389 85.4357C37.9185 86.1551 38.7432 86.2729 39.421 86.3693C39.6167 86.3973 39.8018 86.4241 39.9839 86.4645C40.4503 86.5687 40.7883 86.7537 41.0323 87.0268C41.2745 87.297 41.4113 87.6421 41.4809 88.0723C41.544 88.4632 41.5511 88.9279 41.5297 89.4283C41.5095 89.9109 41.4619 90.4387 41.4143 90.9653L40.7508 90.9081C40.7967 90.3958 40.8437 89.8823 40.8633 89.4021C40.8823 88.9398 40.877 88.5173 40.8222 88.177C40.7734 87.8747 40.6848 87.6403 40.5342 87.4713C40.3867 87.3047 40.163 87.1881 39.8399 87.1161C39.6965 87.0839 39.5162 87.0584 39.327 87.031C38.5159 86.9156 37.5294 86.7745 36.8838 85.8058C36.2554 84.8615 36.0365 83.174 35.7479 80.9421C35.6931 80.5167 35.6342 80.0651 35.5569 79.5069C35.3599 78.0842 35.1041 76.4777 34.8363 74.9503C34.5626 73.3883 34.28 71.9269 34.0396 70.847C33.8016 69.7777 33.6016 69.0655 33.4053 68.5413C33.2161 68.0373 33.0275 67.707 32.8061 67.3911C32.6782 67.2078 32.5467 67.0394 32.4128 66.8663C32.0159 66.3564 31.5911 65.8089 31.2709 65.0229C31.0508 64.482 30.8895 63.8495 30.7277 63.2128C30.576 62.6178 30.4236 62.0186 30.2314 61.5242C30.0404 61.0327 29.8042 60.6251 29.5061 60.3008C29.214 59.9837 28.8575 59.7433 28.4196 59.5802C27.9656 59.4107 27.4223 59.3202 26.8714 59.3107C26.3174 59.3012 25.7581 59.3726 25.2731 59.5267C24.8019 59.6766 24.399 59.9075 24.0402 60.23C23.6743 60.559 23.35 60.9869 23.0436 61.5224C22.5759 62.3382 22.1487 63.3997 21.7339 64.4315C21.5882 64.7944 21.4436 65.1538 21.2782 65.5453L20.9908 66.2153C20.5362 67.262 20.1173 68.2283 19.9078 69.4838C19.7805 70.246 19.7287 71.1201 19.7198 72.1209C19.7115 73.1295 19.7466 74.2755 19.7936 75.5655L19.8531 77.1405C19.9388 79.3754 20.0351 81.884 20.0584 84.2582C20.0863 87.2 20.0018 89.9073 19.9167 92.6141V92.6248L19.6008 92.6147H19.2491L19.2473 92.6159Z" fill="#FEFEFE"/>
<path d="M19.7854 83.9348C20.5524 84.0919 21.3181 84.2466 21.8983 84.7553C22.1964 85.0165 22.4332 85.3617 22.6117 85.8418C22.7795 86.294 22.8973 86.8712 22.9675 87.6215C23.036 88.3516 23.061 89.2525 23.0645 90.2379C23.0681 91.2185 23.0497 92.2812 23.0318 93.3427L22.3654 93.332C22.3832 92.271 22.4011 91.2089 22.3981 90.2379C22.3951 89.2715 22.3701 88.3903 22.3041 87.681C22.2392 86.9926 22.1351 86.4714 21.9869 86.0739C21.8495 85.7044 21.6752 85.4455 21.4598 85.2563C21.0117 84.8636 20.334 84.7262 19.6562 84.5887L19.7854 83.9336V83.9348Z" fill="#FEFEFE"/>
<path d="M38.8202 91.7654C38.8107 91.3477 38.8012 90.93 38.7827 90.5343C38.7649 90.1582 38.7393 89.8232 38.6988 89.5721C38.6667 89.3764 38.6274 89.2431 38.5286 89.1491C38.4031 89.0295 38.1681 88.9212 37.751 88.7843C37.2964 88.635 36.6692 88.4654 35.9808 88.3006C35.2471 88.125 34.4272 87.9495 33.6578 87.8031C32.9229 87.6639 32.2381 87.5526 31.5627 87.4681C30.8862 87.3837 30.2299 87.3265 29.5569 87.295C28.8667 87.2629 28.1556 87.2551 27.4725 87.2593C26.7889 87.2635 26.1189 87.2795 25.525 87.2938L22.5702 87.3658L22.5547 86.6994L25.5096 86.6274C26.101 86.6131 26.7692 86.597 27.4696 86.5929C28.1705 86.5887 28.8946 86.5958 29.5867 86.6286C30.2924 86.6613 30.9653 86.7196 31.6431 86.8047C32.3232 86.8898 33.0223 87.0034 33.7798 87.1468C34.5438 87.2914 35.3744 87.4699 36.1349 87.652C36.8602 87.8258 37.5088 88.0001 37.9598 88.1488C38.4733 88.3178 38.7827 88.4702 38.988 88.6659C39.2207 88.8879 39.3016 89.1283 39.3563 89.465C39.4015 89.7477 39.4301 90.1065 39.4486 90.5028C39.4664 90.88 39.4765 91.3167 39.486 91.7523L38.8196 91.7654H38.8202Z" fill="#FEFEFE"/>
<path d="M22.7188 89.3954L30.1494 89.0955C32.2831 89.0122 34.1461 88.9432 35.9949 88.8748L36.2537 88.8652L36.2775 89.5317L36.0187 89.5412C34.1914 89.6084 32.3504 89.6768 30.1762 89.7619L22.7455 90.0618L22.7193 89.3954H22.7188Z" fill="#FEFEFE"/>
<path d="M20.622 118.115C19.9639 118.058 18.9685 117.865 17.8623 117.575C16.868 117.314 15.7815 116.974 14.7712 116.582C13.7715 116.195 12.8451 115.757 12.0281 115.311C11.0963 114.804 10.3055 114.286 9.70574 113.821C9.12857 113.373 8.7192 112.965 8.42288 112.577C8.11882 112.177 7.93436 111.799 7.81119 111.417C7.68862 111.036 7.62674 110.65 7.63328 110.216C7.63923 109.792 7.71064 109.327 7.85344 108.776C7.99327 108.235 8.20212 107.607 8.51332 106.893C8.82392 106.179 9.23508 105.38 9.77953 104.496C10.2829 103.677 10.9077 102.774 11.5485 101.908C12.2739 100.927 13.0206 99.9942 13.6359 99.2837C14.2196 98.6096 14.6896 98.1312 15.1323 97.7629C15.5828 97.3886 16.0035 97.1297 16.4819 96.8995C16.9525 96.6734 17.4785 96.4752 18.0438 96.3003C18.6114 96.1248 19.2136 95.9712 19.8354 95.835C20.34 95.7243 20.8636 95.6232 21.4693 95.5315C22.0739 95.4405 22.7587 95.3584 23.5828 95.287L23.9196 95.2578L24.7919 106.981L24.5075 107.042C23.6923 107.219 23.211 107.405 22.9283 107.685C22.6576 107.954 22.541 108.355 22.4547 108.964C22.2286 110.557 22.2316 113.421 22.2333 115.264V115.704C22.2345 116.658 22.2274 117.236 22.031 117.614C21.7912 118.074 21.3878 118.181 20.6202 118.115H20.622ZM18.0301 116.93C19.094 117.209 20.0502 117.394 20.6791 117.449C21.1379 117.488 21.3604 117.46 21.4396 117.308C21.5622 117.07 21.5669 116.556 21.5669 115.705L21.5681 115.265C21.5663 113.401 21.5639 110.504 21.7948 108.873C21.9013 108.119 22.062 107.607 22.4588 107.213C22.804 106.87 23.3044 106.645 24.0833 106.454L23.3044 95.9837C22.6397 96.0462 22.0745 96.1164 21.5693 96.1926C20.982 96.2812 20.4715 96.38 19.977 96.4883C19.3606 96.6234 18.7757 96.7715 18.2401 96.9376C17.7028 97.1042 17.2066 97.2904 16.7698 97.5004C16.3396 97.7069 15.9624 97.939 15.559 98.2746C15.1466 98.6173 14.701 99.0719 14.1404 99.7193C13.5359 100.417 12.801 101.335 12.0846 102.305C11.4611 103.148 10.8488 104.033 10.3496 104.845C9.81999 105.706 9.42251 106.478 9.1256 107.159C8.82928 107.84 8.63054 108.435 8.49963 108.944C8.37051 109.443 8.30566 109.857 8.3003 110.224C8.29495 110.581 8.34552 110.899 8.44668 111.213C8.54783 111.526 8.70016 111.839 8.95304 112.171C9.21426 112.514 9.58436 112.88 10.1163 113.293C10.6947 113.742 11.4545 114.24 12.347 114.726C13.1408 115.158 14.0411 115.584 15.0116 115.96C15.9969 116.342 17.0578 116.674 18.0295 116.93H18.0301ZM38.9195 95.7737C39.414 95.8748 39.8787 95.9849 40.3095 96.1015C40.748 96.2206 41.161 96.3485 41.5442 96.4836C42.5218 96.8293 43.3114 97.2297 44.0165 97.7147C44.7198 98.1984 45.3327 98.7625 45.961 99.439C46.5852 100.111 47.2272 100.897 47.8484 101.747C48.4631 102.587 49.0605 103.495 49.6032 104.419C50.1012 105.268 50.5528 106.131 50.9342 106.926C51.3847 107.865 51.7375 108.709 51.9559 109.327C52.1725 109.939 52.2677 110.356 52.2278 110.757C52.1873 111.165 52.013 111.513 51.6923 111.985C51.4061 112.407 50.989 112.945 50.554 113.468C50.1 114.013 49.6287 114.541 49.2694 114.901C48.838 115.334 48.5172 115.568 48.1132 115.47C47.761 115.384 47.4492 115.021 47.0404 114.271C46.6394 113.535 46.1086 112.38 45.5558 111.178C45.1054 110.198 44.6389 109.184 44.2265 108.36C43.8731 107.653 43.5548 107.075 43.1067 106.641C42.6688 106.216 42.0862 105.912 41.189 105.732L40.9837 105.691L38.3965 95.666L38.9189 95.7731L38.9195 95.7737ZM40.137 96.7471C39.8692 96.6751 39.5937 96.6061 39.3105 96.5413L41.5257 105.123C42.4504 105.337 43.0799 105.684 43.572 106.162C44.0897 106.664 44.4396 107.295 44.8228 108.061C45.2488 108.914 45.7135 109.924 46.1627 110.901C46.7102 112.092 47.2362 113.235 47.6265 113.952C47.9371 114.522 48.1275 114.786 48.2709 114.821C48.3625 114.843 48.5327 114.693 48.7969 114.429C49.1486 114.078 49.6055 113.567 50.0429 113.042C50.46 112.54 50.8628 112.02 51.1419 111.61C51.3995 111.233 51.5376 110.967 51.5649 110.691C51.5929 110.408 51.5108 110.069 51.3269 109.548C51.1121 108.942 50.7694 108.121 50.3338 107.213C49.9608 106.435 49.5187 105.589 49.029 104.756C48.5018 103.856 47.9157 102.968 47.3105 102.141C46.7048 101.313 46.0794 100.546 45.4725 99.8936C44.8733 99.2492 44.2938 98.7143 43.6375 98.2633C42.9835 97.8134 42.2439 97.4398 41.3216 97.1137C40.9551 96.984 40.5588 96.8614 40.1364 96.7471H40.137Z" fill="#FEFEFE"/>
<path d="M16.1248 97.8163L16.12 97.8246C15.7743 98.4405 15.4286 99.0557 15.2584 99.5097C15.1799 99.7192 15.1382 99.8923 15.1335 100.045C15.1287 100.186 15.1561 100.318 15.2144 100.458C15.2751 100.604 15.3709 100.756 15.5393 100.918C15.7243 101.095 15.9956 101.286 16.3985 101.494C16.771 101.686 17.2494 101.891 17.7521 102.087C18.396 102.337 19.0844 102.576 19.6515 102.759C20.2268 102.945 20.6642 103.072 21.0123 103.173C21.3062 103.258 21.5406 103.326 21.7162 103.386C21.9988 103.482 22.2106 103.579 22.3713 103.895C22.498 104.147 22.5659 104.535 22.5778 105.214C22.5885 105.848 22.5552 106.757 22.4998 107.801C22.4433 108.862 22.3654 110.034 22.288 111.207L21.6216 111.165C21.7001 109.976 21.7793 108.787 21.8334 107.767C21.8887 106.73 21.9221 105.834 21.9113 105.225C21.9012 104.66 21.8572 104.36 21.7757 104.199C21.7269 104.104 21.6317 104.063 21.5014 104.019C21.3116 103.955 21.0962 103.892 20.8254 103.814C20.4637 103.709 20.0085 103.577 19.4468 103.395C18.8732 103.21 18.1722 102.967 17.5106 102.71C16.9846 102.505 16.4836 102.291 16.0914 102.088C15.6267 101.848 15.3042 101.618 15.0757 101.399C14.8306 101.163 14.689 100.936 14.5967 100.716C14.5015 100.49 14.4575 100.268 14.4658 100.025C14.4736 99.7942 14.5289 99.5526 14.633 99.2765C14.8252 98.7648 15.1811 98.1317 15.5363 97.4986L15.541 97.4902L16.1242 97.8169L16.1248 97.8163Z" fill="#FEFEFE"/>
<path d="M44.3605 108.63L44.339 108.583C43.5697 106.908 42.8039 105.241 42.4088 104.324C42.1981 103.833 42.0785 103.524 42.0232 103.3C41.9518 103.009 41.975 102.837 42.0547 102.655C42.1214 102.501 42.2309 102.353 42.3695 102.207C42.4945 102.076 42.645 101.944 42.811 101.81L43.0193 101.644C43.2674 101.448 43.531 101.24 43.7041 101.034C43.8059 100.912 43.8821 100.784 43.9386 100.655C43.9969 100.521 44.0385 100.377 44.0695 100.229C44.1016 100.076 44.123 99.9204 44.1314 99.7604C44.1397 99.5967 44.1361 99.426 44.1171 99.2463C44.0981 99.0636 44.0629 98.8655 44.0195 98.6614C43.9737 98.4436 43.9219 98.233 43.8708 98.0223L44.5187 97.8652C44.5735 98.0907 44.6288 98.3174 44.6728 98.5257C44.7193 98.7471 44.7579 98.9666 44.7805 99.1785C44.8026 99.3933 44.8073 99.5979 44.7972 99.7943C44.7865 99.9924 44.7603 100.183 44.7222 100.366C44.6824 100.555 44.6288 100.739 44.5491 100.922C44.4676 101.109 44.3593 101.29 44.2147 101.463C43.9957 101.722 43.7053 101.951 43.431 102.167L43.2305 102.327C43.0841 102.446 42.9538 102.559 42.8515 102.667C42.764 102.759 42.698 102.845 42.6652 102.922C42.645 102.969 42.6414 103.025 42.6706 103.141C42.7152 103.322 42.8247 103.601 43.0222 104.06C43.4364 105.023 44.1891 106.66 44.9442 108.304L44.9662 108.351L44.3599 108.63L44.3605 108.63Z" fill="#FEFEFE"/>
<path d="M21.8723 109.108L21.8824 109.1C22.5262 108.652 23.1718 108.203 24.441 107.793C25.0693 107.59 25.8482 107.398 26.7277 107.229C27.5928 107.062 28.5615 106.916 29.5861 106.8C30.6102 106.685 31.6937 106.6 32.7945 106.537C33.8792 106.474 34.9931 106.431 36.0868 106.398C37.1632 106.366 38.2199 106.343 39.1678 106.333C40.1186 106.321 40.9558 106.321 41.5871 106.334C42.2232 106.346 42.6552 106.371 42.9849 106.402C43.324 106.433 43.5495 106.47 43.7744 106.506L43.6673 107.164C43.4496 107.129 43.2312 107.093 42.9248 107.065C42.6094 107.036 42.1923 107.011 41.5752 107C40.9481 106.988 40.118 106.988 39.1755 106.999C38.2401 107.01 37.187 107.032 36.1046 107.064C35.033 107.097 33.9304 107.139 32.8308 107.203C31.7467 107.266 30.6762 107.349 29.6593 107.464C28.6549 107.577 27.7041 107.721 26.8526 107.885C25.9958 108.05 25.2437 108.235 24.6445 108.428C23.4741 108.807 22.8678 109.228 22.2632 109.649L22.0936 109.405L21.8711 109.109L21.8723 109.108Z" fill="#FEFEFE"/>
<path d="M23.7836 93.4181L24.8445 107.681L41.1577 106.365L37.5203 92.2703L38.1653 92.1055L42.0014 106.967L24.7654 108.358L24.262 108.857L23.1172 93.4657L23.7836 93.4181Z" fill="#FEFEFE"/>
<path d="M38.4766 94.8187L41.9122 93.4258L42.1633 94.0452L38.7277 95.4381L38.4766 94.8187Z" fill="#FEFEFE"/>
<path d="M8.85414 107.549L1.65735 110.466L1.40625 109.847L8.60304 106.93L8.85414 107.549Z" fill="#FEFEFE"/>
<path d="M41.7031 93.7359V89.4512L42.7379 90.8881L42.3719 91.1511V93.7359H41.7031Z" fill="#FEFEFE"/>
<path d="M42.1367 82.99V56.9727L42.8609 58.202L42.8061 58.2341V82.99H42.1367Z" fill="#FEFEFE"/>
<path d="M41.8594 53.6589V46.1289H42.5282V53.6589H41.8594Z" fill="#FEFEFE"/>
<path d="M85.3034 77.7216L77.461 115.135L88.9676 119.121L97.2872 78.1863L97.9411 78.3172L89.4692 120L76.6875 115.573L84.6501 77.5859L85.3034 77.7216Z" fill="#FEFEFE"/>
<path d="M99.8747 78.336L95.9684 97.936L101.823 103.302L104.84 117.299L89.2702 119.891L89.1602 119.232L104.039 116.755L101.214 103.647L95.2395 98.171L99.219 78.2051L99.8747 78.336Z" fill="#FEFEFE"/>
<path d="M89.7702 105.022L90.1754 102.707L86.6201 99.1845L82.0754 101.067L81.8195 103.089L86.0709 101.356L89.7696 105.022H89.7702ZM90.8638 102.65L90.2081 106.395L85.9156 102.141L81.0156 104.139L81.4631 100.599L86.7748 98.3984L90.8936 102.48L90.8632 102.651L90.8638 102.65Z" fill="#FEFEFE"/>
<path d="M81.1211 106.162L80.7825 108.335L85.0452 106.637L88.6231 110.425L88.9855 108.109L85.504 104.465L81.1211 106.163V106.162ZM80.0346 108.81L80.5219 105.68L85.6789 103.682L89.6953 107.886L89.0718 111.872L84.8709 107.423L79.9453 109.386L80.0352 108.81H80.0346Z" fill="#FEFEFE"/>
<path d="M80.1301 111.378L79.7112 113.617L84.0043 111.985L87.3828 115.945L87.8035 113.713L84.2994 109.832L80.1307 111.378H80.1301ZM78.9454 114.079L79.544 110.883L84.4922 109.049L88.5211 113.511L87.7803 117.439L83.8014 112.775L78.8359 114.663L78.9454 114.079V114.079Z" fill="#FEFEFE"/>
<path d="M89.8118 84.9435C90.6139 85.1423 91.1863 85.8777 91.4612 86.9053C91.7153 87.8556 91.7194 89.0724 91.4136 90.3344L91.4029 90.3791C91.0857 91.6566 90.5086 92.7472 89.8326 93.4773C89.1234 94.2425 88.2939 94.6257 87.5055 94.4526L87.4603 94.4419C86.6582 94.2431 86.0864 93.5077 85.8115 92.4807C85.5556 91.5239 85.5532 90.2958 85.8656 89.0242L85.8692 89.0081C86.1851 87.7318 86.7623 86.6405 87.4388 85.9104C88.1618 85.1298 89.0103 84.746 89.8112 84.9441L89.8118 84.9435ZM90.8162 87.0773C90.6038 86.2853 90.1992 85.7266 89.6523 85.5915C89.1043 85.4558 88.4855 85.7605 87.928 86.3621C87.327 87.0106 86.8105 87.9924 86.5213 89.1527L86.5172 89.1688C86.2286 90.3338 86.2268 91.4489 86.4565 92.3081C86.6671 93.0947 87.0681 93.6511 87.609 93.7909L87.6203 93.7939C88.1677 93.9296 88.7866 93.6243 89.3441 93.0227C89.9457 92.3736 90.4622 91.3924 90.7513 90.2339L90.7549 90.2196C91.0441 89.0522 91.0459 87.9371 90.8162 87.0785V87.0773Z" fill="#FEFEFE"/>
<path d="M98.7744 77.9404C100.964 78.0178 102.137 78.0303 102.785 78.0065C103.349 77.9856 103.438 77.9499 103.497 77.9101C103.524 77.8916 103.547 77.8541 103.616 77.3668C103.703 76.7522 103.81 75.5829 103.982 73.3236C104.153 71.078 104.388 67.7947 104.615 64.506C104.85 61.0829 105.078 57.652 105.22 55.3564C105.361 53.0745 105.42 51.885 105.431 51.2519C105.441 50.6908 105.425 50.6313 105.404 50.5932C105.379 50.5504 105.351 50.5165 105.315 50.4909C105.271 50.4599 105.211 50.4337 105.129 50.4135C105.033 50.3903 104.906 50.3766 104.278 50.4349C103.606 50.4974 102.406 50.6414 100.182 50.9359C97.9158 51.2364 94.5278 51.7005 91.1582 52.1724C88.0545 52.6068 84.9687 53.0471 82.8272 53.3648C80.6495 53.6879 79.5165 53.8759 78.9162 54.0009C78.4098 54.1062 78.364 54.1366 78.3354 54.1687C78.3027 54.2056 78.2735 54.2603 78.2081 54.709C78.1307 55.2421 78.0326 56.231 77.882 58.1119C77.747 59.7982 77.572 62.1652 77.3983 64.5982C77.1775 67.693 76.9585 70.8823 76.8229 72.944C76.6997 74.8219 76.642 75.7924 76.6247 76.297C76.6105 76.7242 76.6128 76.7539 76.6176 76.7617C76.6265 76.7766 76.6414 76.7914 76.6628 76.8051C76.6967 76.8271 76.7443 76.8474 76.8044 76.864C76.877 76.8843 76.9764 76.8997 77.578 76.9378C78.2265 76.9783 79.3809 77.0396 81.545 77.1484C84.1381 77.2788 88.1747 77.4793 91.9317 77.6518C94.526 77.7708 96.9929 77.8779 98.775 77.9404H98.7744ZM102.809 78.6729C102.146 78.6967 100.958 78.6848 98.7512 78.6068C96.9531 78.5432 94.4867 78.4367 91.9025 78.3183C88.1206 78.1445 84.0946 77.9452 81.5134 77.8149C79.3136 77.7042 78.1545 77.6429 77.5363 77.6042C76.874 77.5626 76.7449 77.5394 76.6277 77.5072C76.4962 77.4715 76.3855 77.4228 76.2939 77.3621C76.188 77.2924 76.1059 77.2068 76.0452 77.1044C75.9791 76.9949 75.9381 76.8884 75.9583 76.2761C75.9762 75.7412 76.0339 74.7642 76.1565 72.9024C76.2951 70.8007 76.5141 67.6019 76.7318 64.5512C76.9074 62.0902 77.0829 59.7149 77.2156 58.0595C77.3667 56.1709 77.4673 55.1683 77.547 54.615C77.6398 53.9765 77.7279 53.8456 77.8356 53.7248C77.9475 53.5993 78.0659 53.4969 78.7799 53.3476C79.3993 53.2184 80.5441 53.0286 82.7303 52.7038C84.8122 52.3949 87.9075 51.9528 91.0665 51.5113C94.3772 51.0478 97.7659 50.5837 100.095 50.2749C102.324 49.9797 103.533 49.8352 104.218 49.7715C104.948 49.7037 105.13 49.7275 105.286 49.7655C105.455 49.8066 105.592 49.8685 105.705 49.9494C105.825 50.0363 105.915 50.1422 105.986 50.2677C106.057 50.3957 106.111 50.5343 106.098 51.262C106.086 51.9207 106.027 53.1215 105.887 55.3944C105.743 57.7245 105.515 61.1549 105.282 64.5495C105.053 67.8709 104.818 71.1601 104.649 73.3724C104.476 75.6418 104.368 76.8242 104.277 77.4596C104.168 78.2242 104.048 78.3415 103.873 78.4599C103.73 78.5581 103.555 78.6437 102.809 78.6717V78.6729Z" fill="#FEFEFE"/>
<path d="M76.5289 76.5028L78.1676 54.3371L105.124 50.7188L105.002 51.3346L103.186 77.8934C94.2921 77.5411 85.3983 77.1907 76.5039 76.8462L76.5289 76.5028ZM78.7941 54.9261L77.2209 76.2071L102.565 77.2014L104.322 51.4994L78.7947 54.9261H78.7941Z" fill="#FEFEFE"/>
<path d="M80.3636 99.7448L41.9883 94.0654L42.0853 93.4043L80.46 99.0838L80.3636 99.7448Z" fill="#FEFEFE"/>
<path d="M100.351 102.027L118.099 104.654L118.002 105.314L100.254 102.688L100.351 102.027Z" fill="#FEFEFE"/>
<path d="M33.9488 28.2027H41.205V29.1605H38.0849V38.3613H37.069V29.1605H33.9488V28.2027ZM50.4784 37.0117C49.4626 38.0275 48.2193 38.5355 46.7487 38.5355C45.2782 38.5355 44.0349 38.0275 43.0191 37.0117C42.0032 35.9765 41.4953 34.7332 41.4953 33.282C41.4953 31.8211 42.0032 30.5827 43.0191 29.5668C44.0349 28.5413 45.2782 28.0285 46.7487 28.0285C48.2193 28.0285 49.4626 28.5413 50.4784 29.5668C51.4943 30.5827 52.0022 31.8211 52.0022 33.282C52.0022 34.7332 51.4943 35.9765 50.4784 37.0117ZM42.5111 33.282C42.5111 34.4817 42.9175 35.4927 43.7302 36.3151C44.5429 37.1375 45.5491 37.5486 46.7487 37.5486C47.9484 37.5486 48.9546 37.1375 49.7673 36.3151C50.58 35.4927 50.9864 34.4817 50.9864 33.282C50.9864 32.092 50.58 31.0858 49.7673 30.2634C48.9546 29.4314 47.9484 29.0154 46.7487 29.0154C45.5491 29.0154 44.5429 29.4314 43.7302 30.2634C42.9175 31.0858 42.5111 32.092 42.5111 33.282ZM53.7395 28.2027H57.3676C58.277 28.2027 59.0365 28.5074 59.646 29.1169C60.2556 29.7265 60.5603 30.4859 60.5603 31.3954C60.5603 32.3048 60.2556 33.0643 59.646 33.6738C59.0365 34.2834 58.277 34.5881 57.3676 34.5881H54.7554V38.3613H53.7395V28.2027ZM54.7554 33.6303H57.3676C57.9965 33.6303 58.5141 33.4223 58.9204 33.0063C59.3364 32.5902 59.5445 32.0533 59.5445 31.3954C59.5445 30.7472 59.3364 30.215 58.9204 29.799C58.5141 29.3733 57.9965 29.1605 57.3676 29.1605H54.7554V33.6303ZM67.524 34.3414H62.2995V33.4126H67.524V34.3414ZM73.173 38.3613H72.1282L68.384 28.2027H69.4869L72.6506 37.0117L75.8143 28.2027H76.9172L73.173 38.3613ZM85.6304 38.3613H84.4695L82.0894 34.2979H79.245V38.3613H78.2291V28.2027H82.2926C83.1246 28.2027 83.8406 28.5026 84.4404 29.1024C85.0403 29.7023 85.3402 30.4182 85.3402 31.2503C85.3402 31.9469 85.1322 32.5612 84.7162 33.0933C84.3195 33.6158 83.797 33.9738 83.1488 34.1673L85.6304 38.3613ZM82.2926 29.1605H79.245V33.34H82.2926C82.8537 33.34 83.3326 33.1369 83.7293 32.7305C84.126 32.3048 84.3243 31.8114 84.3243 31.2503C84.3243 30.6794 84.126 30.186 83.7293 29.77C83.3326 29.3637 82.8537 29.1605 82.2926 29.1605Z" fill="#FEFEFE"/>
</svg>
