<svg width="120" height="120" viewBox="0 0 120 120" fill="none" xmlns="http://www.w3.org/2000/svg">
<path d="M107.454 15.3627C107.702 15.3534 107.863 15.3879 107.959 15.5613C108.046 15.7201 108.066 15.9915 108.033 16.4588C108.002 16.8996 107.926 17.527 107.833 18.1492C107.74 18.766 107.629 19.3842 107.529 19.8197C107.405 20.3505 107.272 20.6735 107.039 20.9131C106.804 21.154 106.569 21.211 106.223 21.2335C105.916 21.252 105.499 21.2507 105.101 21.2269C104.741 21.2057 104.386 21.166 104.125 21.109C103.829 21.0442 103.646 20.9515 103.555 20.7688C103.459 20.5782 103.47 20.3095 103.565 19.8952C103.647 19.5364 103.794 19.0652 103.96 18.5913C104.144 18.0671 104.354 17.531 104.529 17.1405C104.72 16.7142 104.884 16.4296 105.084 16.2059C105.298 15.965 105.515 15.8326 105.804 15.7201C106.042 15.6275 106.342 15.5427 106.635 15.4792C106.936 15.4143 107.235 15.3706 107.457 15.3627H107.454ZM107.488 16.0709C107.435 15.9743 107.327 15.9557 107.158 15.9624C106.957 15.969 106.677 16.0113 106.393 16.0722C106.119 16.1305 105.843 16.2086 105.634 16.2906C105.467 16.3555 105.355 16.4177 105.276 16.5064C105.182 16.611 105.085 16.7897 104.953 17.0849C104.79 17.4489 104.591 17.9533 104.418 18.451C104.26 18.9024 104.123 19.3419 104.05 19.6622C103.981 19.9627 103.969 20.1507 104.029 20.2685C104.091 20.3929 104.238 20.4604 104.483 20.5147C104.73 20.569 105.073 20.6073 105.424 20.6285C105.824 20.6524 106.227 20.655 106.513 20.6378C106.728 20.6246 106.852 20.61 106.888 20.5743C106.924 20.5372 106.97 20.377 107.044 20.0553C107.141 19.6423 107.247 19.0427 107.338 18.4391C107.429 17.8275 107.505 17.2159 107.534 16.7937C107.56 16.4032 107.55 16.1834 107.489 16.0736L107.488 16.0709Z" fill="#FEFEFE"/>
<path d="M111.551 15.9866C111.437 15.9959 111.362 16.0118 111.33 16.0475C111.267 16.1216 111.197 16.2964 111.106 16.6128C111.005 16.9741 110.899 17.4692 110.806 17.9802C110.699 18.5732 110.607 19.1834 110.558 19.6335C110.515 20.0306 110.503 20.2941 110.557 20.4688C110.607 20.6356 110.727 20.7335 110.941 20.8103C111.167 20.8911 111.497 20.9467 111.845 20.9745C112.216 21.0036 112.602 21.0036 112.904 20.9692C113.149 20.9414 113.314 20.9017 113.395 20.8236C113.45 20.7719 113.493 20.6276 113.537 20.3563C113.594 19.9922 113.615 19.4906 113.607 18.9822C113.598 18.4316 113.554 17.8729 113.487 17.4626C113.422 17.0734 113.337 16.8193 113.223 16.6419C113.112 16.4685 112.969 16.3639 112.789 16.2726C112.6 16.1772 112.372 16.0978 112.148 16.0462C111.933 15.9972 111.722 15.9747 111.551 15.9879V15.9866ZM111.12 15.7695C111.349 15.5035 111.572 15.4095 111.835 15.3896C112.034 15.3737 112.271 15.3976 112.506 15.4505C112.747 15.5048 112.989 15.5895 113.189 15.6901C113.391 15.792 113.554 15.9138 113.685 16.1216C113.815 16.3255 113.911 16.6088 113.982 17.0324C114.052 17.4613 114.097 18.0397 114.106 18.6076C114.115 19.1464 114.093 19.6798 114.031 20.0743C113.95 20.5866 113.787 20.9347 113.516 21.1955C113.271 21.4298 112.989 21.5251 112.629 21.5662C112.307 21.6032 111.901 21.6046 111.517 21.5741C111.154 21.545 110.806 21.4854 110.561 21.3981C110.291 21.3014 110.14 21.1677 110.069 20.9334C109.999 20.7071 110.01 20.3986 110.061 19.9433C110.111 19.48 110.205 18.8525 110.315 18.2462C110.412 17.7141 110.524 17.1939 110.633 16.8073C110.772 16.3189 110.925 15.9959 111.122 15.7682L111.12 15.7695Z" fill="#FEFEFE"/>
<path d="M107.739 16.4105C107.566 16.5032 107.392 16.5972 107.265 16.7613C107.188 16.8606 107.108 16.9996 107.02 17.1743C106.921 17.3742 106.819 17.6072 106.713 17.868C106.603 18.138 106.486 18.4438 106.378 18.735C106.279 19.0064 106.189 19.2685 106.126 19.475C106.069 19.6603 106.037 19.7874 106.026 19.8774C106.017 19.9542 106.021 20.0045 106.032 20.0482C106.043 20.0945 106.065 20.1369 106.1 20.1713C106.141 20.2097 106.204 20.2428 106.298 20.2679C106.5 20.3209 106.847 20.3354 107.194 20.35L106.876 20.951C106.52 20.9364 106.161 20.9218 105.932 20.8609C105.81 20.8292 105.724 20.7828 105.664 20.7246C105.597 20.6624 105.56 20.5869 105.539 20.5049C105.515 20.4175 105.507 20.3209 105.526 20.1766C105.542 20.0495 105.581 19.8827 105.653 19.6497C105.716 19.4432 105.812 19.1639 105.922 18.8634C106.03 18.5682 106.153 18.2492 106.271 17.9593C106.39 17.6668 106.504 17.406 106.615 17.1836C106.74 16.9347 106.867 16.7203 107.004 16.5429C107.301 16.159 107.571 16.0148 107.84 15.8718L107.844 15.8691C107.834 15.9141 107.74 16.4092 107.737 16.4132L107.739 16.4105Z" fill="#FEFEFE"/>
<path d="M113.398 16.6311L113.333 16.6682C113.29 16.7251 113.235 16.8456 113.157 17.0944C113.07 17.3698 112.975 17.755 112.885 18.1561C112.773 18.6538 112.673 19.1793 112.611 19.5553C112.555 19.8888 112.531 20.098 112.527 20.2343C112.525 20.3548 112.537 20.4157 112.555 20.462C112.574 20.5083 112.597 20.5428 112.633 20.5692C112.673 20.5984 112.731 20.6209 112.816 20.642C112.912 20.6672 113.026 20.6884 113.148 20.7069L113.565 20.7625L113.228 21.3608L112.807 21.3026C112.666 21.2814 112.543 21.2589 112.453 21.2364C112.351 21.2099 112.274 21.1782 112.214 21.1331C112.149 21.0855 112.105 21.0259 112.075 20.9465C112.043 20.8671 112.023 20.7678 112.028 20.5864C112.033 20.4223 112.059 20.188 112.118 19.8332C112.182 19.4494 112.285 18.9106 112.4 18.3957C112.494 17.9707 112.597 17.5617 112.69 17.2652C112.812 16.8773 112.939 16.6338 113.066 16.4643C113.234 16.2406 113.364 16.1691 113.492 16.0977L113.4 16.6324L113.398 16.6311Z" fill="#FEFEFE"/>
<path d="M76.4329 52.8457C76.6315 52.7186 76.887 52.5412 77.153 52.3559C77.6733 51.9945 78.2438 51.5974 78.8143 51.3048C79.2525 51.0798 79.6774 50.9249 80.1778 50.8336C80.6676 50.7436 81.2288 50.7145 81.945 50.7409C82.7895 50.7714 83.8525 50.8773 84.8347 50.9752C85.4648 51.0388 86.0631 51.0983 86.5582 51.1328C87.1525 51.1738 87.5536 51.1725 87.8475 51.1447C88.1202 51.1182 88.2976 51.0652 88.4551 51.0004C88.5928 50.9435 88.7185 50.872 88.9197 50.6258C89.1567 50.3372 89.485 49.8315 90.0092 48.9168C90.5029 48.0551 91.1462 46.8769 91.7883 45.6723C92.5653 44.2162 93.3595 42.69 93.9023 41.6217C94.3894 40.6607 94.6661 40.0849 94.862 39.6057C95.0566 39.1265 95.173 38.7479 95.3385 38.1787C95.508 37.5989 95.7317 36.8205 95.9408 36.0157C96.1473 35.2201 96.3393 34.4034 96.4465 33.7428C96.5511 33.0982 96.5749 32.6018 96.5325 32.1451C96.4902 31.695 96.379 31.2674 96.2148 30.7644C96.0375 30.2217 95.8018 29.6048 95.5662 28.984C95.3451 28.4055 95.1241 27.8231 94.9401 27.2777C94.7521 26.7164 94.6131 26.2187 94.5271 25.7567C94.4397 25.2842 94.4066 24.846 94.4304 24.4171C94.4543 23.9803 94.5377 23.5487 94.6793 23.141C94.8183 22.7373 95.0129 22.3574 95.2617 22.0159C95.5119 21.6704 95.8164 21.3646 96.187 21.0734C96.5458 20.7914 96.9694 20.5227 97.4711 20.242C97.8258 20.0435 98.1779 19.8608 98.5393 19.6728C99.2581 19.2995 100.009 18.909 100.586 18.5159C101.013 18.2247 101.352 17.9282 101.643 17.5959C101.936 17.2623 102.188 16.8837 102.436 16.4337C102.631 16.0829 102.828 15.6765 103.033 15.2555C103.364 14.5751 103.716 13.8537 104.141 13.1879C104.487 12.6451 104.876 12.1527 105.292 11.7265C105.713 11.2962 106.167 10.9282 106.641 10.6344C107.117 10.3392 107.614 10.1208 108.152 9.96191C108.688 9.80439 109.263 9.70776 109.898 9.65348C110.53 9.60053 111.234 9.58994 111.934 9.62039C112.619 9.65084 113.299 9.72232 113.904 9.83219C114.489 9.93941 115.008 10.085 115.462 10.2545C115.972 10.4451 116.402 10.6675 116.755 10.9031C117.103 11.1347 117.383 11.381 117.606 11.6576C117.834 11.9409 118.001 12.2533 118.117 12.612C118.23 12.9536 118.296 13.3388 118.337 13.7557C118.377 14.1542 118.394 14.5857 118.406 15.0358L118.415 15.417C118.435 16.1808 118.455 16.9804 118.546 17.6647C118.598 18.0539 118.676 18.414 118.766 18.7528C118.856 19.0904 118.961 19.4068 119.066 19.7086L119.239 20.1865C119.401 20.6326 119.552 21.0456 119.638 21.4122C119.701 21.6717 119.731 21.9126 119.743 22.1734C119.755 22.4209 119.748 22.6843 119.735 23.002C119.722 23.3184 119.703 23.6891 119.652 24.1682C119.6 24.6488 119.515 25.2405 119.372 25.9977C119.219 26.8104 118.995 27.8204 118.698 28.9655C118.448 29.9305 118.145 30.9934 117.788 32.116C117.138 34.1545 116.308 36.3784 115.447 38.687L114.938 40.0557C114.423 41.443 113.905 42.8594 113.39 44.3248C112.882 45.7743 112.379 47.2661 111.892 48.8136C111.41 50.3465 110.94 51.9442 110.535 53.3659C110.101 54.8882 109.78 56.0584 109.566 56.8381C109.105 58.5166 109.105 58.5179 108.87 59.1771C108.748 59.5146 108.565 60.0216 108.368 60.5286C108.166 61.0502 107.939 61.5876 107.731 61.9861C107.494 62.4388 107.279 62.7274 106.733 62.9921C106.25 63.2277 105.498 63.4356 104.172 63.74C102.908 64.0299 101.073 64.4178 99.1959 64.799C97.2738 65.1895 95.3187 65.5681 93.9036 65.8223C92.4912 66.0764 91.6003 66.2088 90.8365 66.2247C90.0581 66.2406 89.4294 66.1373 88.5464 65.9229C87.6794 65.7111 86.5727 65.392 85.3615 65.0108C84.1476 64.6282 82.808 64.1742 81.4803 63.6937C80.1937 63.2277 78.9348 62.7432 77.8295 62.2958C76.6593 61.8219 75.6387 61.3785 74.9212 61.0343C74.2104 60.6928 73.7987 60.4479 73.5591 60.2533C73.2467 60.0018 73.1633 59.7993 73.1355 59.5994C73.109 59.4167 73.1368 59.2737 73.1726 59.0831C73.199 58.9415 73.2335 58.7667 73.2467 58.5298C73.2586 58.3087 73.256 58.0374 73.2533 57.7501C73.2493 57.3199 73.244 56.8513 73.2837 56.4449C73.3182 56.0835 73.3883 55.7738 73.4823 55.4998C73.5776 55.2218 73.6981 54.9848 73.8318 54.7717C73.9668 54.5573 74.1177 54.364 74.2898 54.1893C74.4619 54.0145 74.6565 53.857 74.8762 53.718C75.0549 53.6042 75.2469 53.5062 75.4613 53.395C75.7366 53.2534 76.057 53.0879 76.4276 52.851L76.4329 52.8457ZM77.5568 52.9357C77.3053 53.1104 77.0643 53.2772 76.8115 53.44C76.4064 53.6982 76.0755 53.8702 75.7896 54.0172C75.5897 54.1204 75.411 54.2131 75.2561 54.3097C75.084 54.4183 74.9318 54.5414 74.7968 54.6777C74.6604 54.8154 74.5413 54.9703 74.4328 55.1423C74.3242 55.3158 74.2276 55.5064 74.1521 55.7248C74.0753 55.9472 74.0184 56.204 73.9893 56.5071C73.9536 56.8804 73.9589 57.3292 73.9615 57.7408C73.9641 58.048 73.9681 58.3365 73.9549 58.5642C73.939 58.8528 73.9006 59.0527 73.8702 59.2115C73.8463 59.3386 73.8278 59.4326 73.8371 59.4974C73.8424 59.5424 73.8728 59.5954 74.0039 59.7013C74.2077 59.8654 74.5744 60.0825 75.2283 60.3963C75.914 60.7259 76.9201 61.1614 78.0982 61.6392C79.2114 62.0906 80.4637 62.5725 81.7252 63.0292C83.0251 63.4991 84.3555 63.9492 85.5786 64.3357C86.7912 64.7183 87.8819 65.0333 88.7172 65.2372C89.5419 65.4384 90.1243 65.535 90.8286 65.5204C91.546 65.5059 92.4078 65.3761 93.7844 65.1299C95.2008 64.8758 97.1507 64.4972 99.0622 64.1093C100.903 63.736 102.728 63.3495 104.018 63.053C105.288 62.7618 105.999 62.5672 106.427 62.358C106.795 62.1793 106.945 61.9768 107.111 61.6604C107.304 61.2898 107.518 60.7762 107.714 60.2745C107.914 59.7595 108.09 59.2671 108.208 58.9401C108.446 58.2703 108.447 58.269 108.89 56.6527C109.128 55.7857 109.484 54.4818 109.859 53.1713C110.261 51.7602 110.731 50.1611 111.221 48.6031C111.707 47.0583 112.212 45.5585 112.727 44.0918C113.237 42.6423 113.758 41.2153 114.281 39.8082L114.791 38.4394C115.65 36.1375 116.476 33.9202 117.121 31.9028C117.473 30.7975 117.773 29.7465 118.021 28.7881C118.311 27.6669 118.53 26.6728 118.683 25.8679C118.822 25.1306 118.904 24.5574 118.954 24.0941C119.004 23.6282 119.023 23.2747 119.035 22.9756C119.047 22.6777 119.052 22.4328 119.043 22.2091C119.033 21.9973 119.007 21.7988 118.954 21.5777C118.873 21.2375 118.732 20.8496 118.579 20.43L118.405 19.9455C118.293 19.6265 118.184 19.2929 118.087 18.9355C117.992 18.5768 117.908 18.1876 117.851 17.7587C117.756 17.0386 117.735 16.2192 117.715 15.4356L117.706 15.057C117.694 14.6241 117.678 14.2085 117.639 13.8272C117.604 13.4619 117.546 13.127 117.449 12.8331C117.358 12.5564 117.23 12.3168 117.058 12.1024C116.882 11.8827 116.655 11.6841 116.367 11.4935C116.054 11.2843 115.671 11.0871 115.217 10.9177C114.801 10.7628 114.322 10.6291 113.778 10.5285C113.204 10.4239 112.558 10.3551 111.905 10.3273C111.243 10.2981 110.569 10.3087 109.958 10.3604C109.363 10.4107 108.835 10.4994 108.352 10.641C107.873 10.7813 107.432 10.9759 107.011 11.2367C106.588 11.4988 106.18 11.831 105.797 12.2202C105.411 12.6147 105.053 13.0687 104.734 13.5678C104.341 14.1833 103.994 14.8955 103.667 15.5666C103.461 15.9915 103.261 16.4019 103.053 16.7765C102.782 17.2676 102.503 17.6846 102.172 18.0632C101.839 18.4431 101.457 18.778 100.982 19.1023C100.363 19.5233 99.5956 19.923 98.8636 20.3029C98.4837 20.5002 98.1104 20.6934 97.8126 20.8616C97.3466 21.1223 96.9535 21.3725 96.6225 21.632C96.3035 21.8822 96.0427 22.1429 95.8323 22.4342C95.6231 22.7214 95.459 23.0404 95.3438 23.374C95.2247 23.7182 95.1545 24.0862 95.1333 24.4595C95.1122 24.8328 95.1426 25.2166 95.2194 25.6336C95.2988 26.0612 95.4285 26.5271 95.6072 27.058C95.7767 27.5623 96.0017 28.1514 96.2241 28.7378C96.465 29.3745 96.7073 30.0072 96.8846 30.5513C97.062 31.0954 97.1838 31.5666 97.2315 32.0868C97.2791 32.6031 97.254 33.1538 97.1401 33.858C97.0289 34.5477 96.833 35.3856 96.6212 36.197C96.4121 37.0005 96.1857 37.7882 96.0136 38.3786C95.8376 38.9809 95.7158 39.3806 95.5146 39.8757C95.3134 40.3681 95.0301 40.9598 94.531 41.9447C93.9962 42.9984 93.1994 44.526 92.4091 46.0099C91.7459 47.2529 91.0959 48.4442 90.6207 49.2742C90.078 50.2194 89.7285 50.7555 89.4625 51.0798C89.1606 51.4465 88.9555 51.5616 88.7212 51.6583C88.5067 51.747 88.2684 51.8171 87.9137 51.8515C87.5775 51.8846 87.138 51.886 86.5079 51.8436C86.0327 51.8105 85.4145 51.7483 84.7619 51.6834C83.7902 51.5868 82.7366 51.4809 81.9158 51.4518C81.2526 51.4279 80.7404 51.4531 80.3009 51.5338C79.8707 51.6133 79.5053 51.7456 79.1307 51.9389C78.6197 52.201 78.0611 52.5889 77.5515 52.9423L77.5568 52.9357Z" fill="#FEFEFE"/>
<path d="M75.7244 53.4154C76.3677 53.2606 77.011 53.1057 79.3263 52.9137C80.3032 52.833 81.6296 52.743 82.9983 52.6569C84.7536 52.5471 86.5419 52.4478 87.7386 52.3882C88.8108 52.334 89.4224 52.3114 89.9492 52.3631C90.4774 52.416 90.9156 52.5431 91.6423 52.7906C92.2989 53.0144 93.1514 53.3201 94.0012 53.6325C95.0867 54.031 96.2224 54.4585 96.9677 54.7458C97.6243 54.9986 97.9605 55.135 98.1021 55.2131C98.9003 55.6552 98.531 55.7823 97.746 55.9173L97.5859 55.9411C97.3291 55.9769 96.9161 56.0364 96.3892 56.2138C96.0596 56.325 95.6823 56.4839 95.2998 56.6718C94.9358 56.8519 94.5678 57.0584 94.2368 57.2755C93.9099 57.4899 93.6186 57.7136 93.3327 57.9863C93.0441 58.2603 92.7556 58.5899 92.4352 59.0109C91.9309 59.6727 91.3392 60.5702 90.8481 61.3155L90.39 62.0078C90.1068 62.4301 89.891 62.7319 89.7123 62.9569C89.5137 63.2071 89.3575 63.3713 89.204 63.5023C89.0451 63.6387 88.8942 63.7366 88.7407 63.8094C88.5977 63.8756 88.4534 63.9193 88.2946 63.9511C88.141 63.9815 87.9702 64.004 87.6248 63.9511C87.2938 63.9008 86.7974 63.7816 85.9913 63.5354C85.1997 63.2945 84.1142 62.9344 82.9599 62.536C81.7553 62.1203 80.4461 61.6504 79.2985 61.2242C78.2514 60.835 77.3751 60.4935 76.6589 60.2022C75.8356 59.8647 75.2002 59.5854 74.7435 59.367C74.308 59.1578 74.0287 59.0016 73.8301 58.8706C73.6289 58.7395 73.5098 58.6363 73.3906 58.533L73.8222 57.9757C73.9373 58.0763 74.0551 58.1769 74.2458 58.3014C74.439 58.4271 74.7117 58.5807 75.1406 58.7858C75.5999 59.0056 76.2327 59.2836 77.0481 59.6158C77.792 59.9176 78.6684 60.2605 79.6823 60.6364C80.785 61.0468 82.0942 61.5141 83.3385 61.9443C84.5021 62.3454 85.5862 62.7054 86.3632 62.9424C87.1694 63.1873 87.6539 63.3051 87.9676 63.3527C88.2681 63.3991 88.4111 63.3819 88.5381 63.3554C88.6626 63.3302 88.7711 63.2985 88.873 63.2508C88.9631 63.2084 89.0478 63.1542 89.1325 63.08C89.2252 62.9993 89.3271 62.8934 89.4621 62.7226C89.6157 62.528 89.8102 62.2554 90.0737 61.8635L90.5251 61.1831C91.0281 60.4193 91.633 59.502 92.1691 58.7991C92.5398 58.3133 92.876 57.9307 93.2149 57.6077C93.5564 57.2821 93.8966 57.0187 94.2739 56.7724C94.6326 56.5381 95.0271 56.3158 95.4176 56.1225C95.8213 55.9226 96.2251 55.7545 96.5798 55.634C96.7387 55.5811 96.8869 55.5374 97.0246 55.5017L96.5825 55.3296C95.8703 55.0556 94.7438 54.6306 93.6186 54.219C92.7304 53.8933 91.8726 53.5836 91.265 53.3771C90.5542 53.1348 90.1266 53.0104 89.617 52.9601C89.1047 52.9098 88.5024 52.9323 87.4447 52.9852C86.2348 53.0461 84.4425 53.1454 82.7084 53.2526C81.386 53.3347 80.0715 53.426 79.0417 53.5108C76.7503 53.7 76.1215 53.8523 75.4927 54.0032L75.723 53.4128L75.7244 53.4154Z" fill="#FEFEFE"/>
<path d="M97.9977 55.3238C98.1843 55.2868 98.3723 55.2497 98.6092 55.2219C98.8395 55.1954 99.1096 55.1795 99.4591 55.1848C99.79 55.1901 100.178 55.2153 100.582 55.251C101.057 55.2934 101.562 55.3503 102.031 55.4099C102.341 55.4496 102.7 55.5012 103.036 55.5489C103.503 55.615 103.92 55.6746 104.262 55.7077C104.544 55.7342 104.776 55.7421 104.978 55.7289C105.17 55.7156 105.335 55.6826 105.491 55.6256C105.606 55.5833 105.716 55.525 105.853 55.3556C106.045 55.1186 106.295 54.6977 106.662 53.9418C107.059 53.1251 107.579 51.939 108.177 50.4816C108.745 49.097 109.375 47.486 110.026 45.732C110.717 43.8735 111.443 41.8283 112.109 39.8639C112.737 38.008 113.311 36.2303 113.743 34.7622C114.186 33.2638 114.479 32.0949 114.691 31.0822C114.903 30.0683 115.033 29.1999 115.147 28.3064C115.26 27.4089 115.357 26.4862 115.421 25.5477C115.484 24.6065 115.517 23.6468 115.503 22.6778C115.488 21.7234 115.429 20.7558 115.337 19.8728C115.243 18.9621 115.116 18.1441 114.971 17.5285C114.83 16.9275 114.673 16.5198 114.495 16.218C114.321 15.9189 114.122 15.7216 113.901 15.5442C113.677 15.3655 113.426 15.2027 113.145 15.0611C112.871 14.9221 112.576 14.8069 112.262 14.7156C111.942 14.6229 111.592 14.5541 111.235 14.5051C110.879 14.4561 110.512 14.4244 110.152 14.4071C109.797 14.3899 109.445 14.386 109.096 14.3966C108.749 14.4058 108.41 14.4296 108.079 14.4667C107.735 14.5051 107.396 14.5567 107.076 14.6256C106.781 14.6878 106.499 14.7659 106.239 14.8585C105.98 14.9512 105.748 15.0571 105.542 15.1881C105.351 15.3086 105.176 15.4555 105.013 15.6369C104.679 16.0128 104.357 16.5913 103.894 17.4253L103.792 17.6079C103.286 18.516 102.625 19.7034 101.911 21.2932C101.541 22.1153 101.155 23.0498 100.767 24.1128C100.379 25.1771 99.9872 26.3724 99.6086 27.7173C99.1705 29.2701 98.7469 31.0293 98.3405 32.7157C98.044 33.9442 97.7567 35.1355 97.4695 36.2197C97.1359 37.4799 96.8156 38.5322 96.4701 39.5383C96.1246 40.5443 95.7499 41.5106 95.3052 42.5961C94.8564 43.6935 94.3415 44.9047 93.8332 46.0577C93.3328 47.1948 92.8351 48.2829 92.4141 49.1605C91.9866 50.0501 91.6331 50.7278 91.3181 51.297C90.9964 51.8781 90.7264 52.3282 90.455 52.7783L90.1016 52.6962C90.3729 52.2448 90.6443 51.7934 90.9395 51.2586C91.2413 50.7133 91.5828 50.058 92.0011 49.1857C92.4168 48.3199 92.9079 47.2437 93.4043 46.1186C93.9139 44.9629 94.4249 43.761 94.8644 42.6861C95.2986 41.6232 95.6666 40.6754 96.0081 39.6812C96.3496 38.6898 96.6633 37.6559 96.989 36.4235C97.2603 35.399 97.5529 34.1877 97.8534 32.9394C98.2611 31.2477 98.686 29.4832 99.1294 27.9093C99.5146 26.5445 99.9131 25.3266 100.31 24.2385C100.707 23.1491 101.104 22.1907 101.484 21.3462C102.224 19.7008 102.897 18.4909 103.412 17.5643L103.514 17.3816C104.022 16.4669 104.375 15.8315 104.816 15.3364C105.056 15.0664 105.311 14.8519 105.588 14.6772C105.849 14.5117 106.124 14.3846 106.421 14.2787C106.697 14.1795 106.999 14.0974 107.314 14.0299C107.648 13.9584 107.998 13.9041 108.352 13.8657C108.696 13.8273 109.043 13.8035 109.394 13.7943C109.741 13.785 110.101 13.7876 110.47 13.8062C110.834 13.8234 111.209 13.8551 111.574 13.9054C111.937 13.9558 112.295 14.0272 112.629 14.1225C112.961 14.2178 113.267 14.3383 113.544 14.4773C113.827 14.6203 114.088 14.7897 114.326 14.9816C114.56 15.1709 114.772 15.3814 114.96 15.7031C115.148 16.0234 115.315 16.4523 115.46 17.0771C115.609 17.7072 115.738 18.5385 115.834 19.4612C115.926 20.352 115.987 21.3329 116.002 22.3019C116.016 23.2894 115.985 24.261 115.92 25.2115C115.855 26.1659 115.757 27.0978 115.643 28.0019C115.528 28.9087 115.396 29.7916 115.178 30.8307C114.961 31.8699 114.662 33.0586 114.216 34.5729C113.782 36.0449 113.206 37.8346 112.569 39.7104C111.907 41.6615 111.178 43.7173 110.477 45.605C109.811 47.396 109.178 49.0162 108.617 50.3863C108.013 51.8609 107.481 53.0695 107.069 53.9154C106.652 54.7731 106.346 55.2788 106.09 55.5952C105.779 55.9804 105.547 56.1075 105.311 56.1935C105.115 56.265 104.915 56.306 104.688 56.3219C104.469 56.3365 104.225 56.3272 103.931 56.3007C103.581 56.2677 103.164 56.2081 102.694 56.1406C102.404 56.0995 102.091 56.0545 101.692 56.0029C101.218 55.942 100.715 55.8851 100.252 55.8441C99.835 55.807 99.4511 55.7818 99.1467 55.7765C98.8131 55.7712 98.5549 55.7858 98.3352 55.811C98.1234 55.8361 97.9368 55.8732 97.7514 55.9102L97.9963 55.3172L97.9977 55.3238Z" fill="#FEFEFE"/>
<path d="M87.0052 63.1586C86.9549 62.4437 86.9046 61.7289 86.9655 61.1187C86.9972 60.8076 87.0581 60.5203 87.1428 60.2609C87.2381 59.9657 87.3665 59.701 87.5188 59.4667C87.6763 59.2231 87.859 59.0153 88.0734 58.8366C88.2693 58.6737 88.4917 58.54 88.7472 58.4315C88.9855 58.3296 89.2542 58.2475 89.556 58.184C89.8525 58.1204 90.1835 58.0741 90.5462 58.0423C90.9009 58.0105 91.298 57.992 91.715 57.9814C92.1095 57.9708 92.5463 57.9655 92.9832 57.9629L92.6787 58.5625C92.2617 58.5665 91.8421 58.5705 91.4159 58.5811C91.0134 58.5903 90.6243 58.6089 90.2642 58.6406C89.9121 58.6711 89.5944 58.7161 89.3151 58.7757C89.0384 58.8339 88.7988 58.9067 88.595 58.9928C88.4096 59.0722 88.2548 59.1635 88.1277 59.2681C88.0192 59.3568 87.9278 59.4627 87.8471 59.5858C87.7544 59.7288 87.6737 59.8982 87.6088 60.0968C87.5413 60.3033 87.4923 60.5389 87.4658 60.801C87.4076 61.3728 87.4579 62.0678 87.5069 62.7628L87.0065 63.1572L87.0052 63.1586Z" fill="#FEFEFE"/>
<path d="M75.9385 28.4518C75.9372 27.9607 75.9345 27.4696 75.9517 26.9692C75.9689 26.4807 76.006 26.0108 76.0814 25.578C76.1582 25.1411 76.276 24.74 76.423 24.3839C76.5871 23.9855 76.7923 23.64 77.0239 23.3594C77.2582 23.0734 77.5098 22.8643 77.7824 22.7054C78.0287 22.5612 78.2908 22.4592 78.5727 22.3798C78.86 22.2977 79.1724 22.2355 79.502 22.2104C79.7906 22.1879 80.091 22.1932 80.3929 22.2355C80.7172 22.2819 81.0468 22.3705 81.3949 22.5214C81.7378 22.6697 82.1018 22.8802 82.4989 23.1714C82.9132 23.4745 83.3593 23.8624 83.7909 24.3072C84.1854 24.7136 84.5745 25.1742 84.9253 25.6719C85.2602 26.1472 85.5568 26.6515 85.8109 27.1426C86.114 27.7317 86.3603 28.3075 86.5416 28.8026C86.7097 29.2619 86.8249 29.6577 86.9003 30.031C86.9758 30.4056 87.0142 30.7591 87.0261 31.1363C87.038 31.5003 87.0274 31.8842 86.9996 32.2628C86.9692 32.6639 86.9189 33.061 86.8527 33.4211C86.7865 33.7825 86.7058 34.1147 86.5959 34.4205C86.4781 34.7514 86.3245 35.0546 86.1246 35.3326C85.9327 35.5973 85.7077 35.8263 85.4707 36.0183C85.2205 36.2208 84.9505 36.3863 84.695 36.5067C84.4581 36.6179 84.2317 36.6934 84.0146 36.7397C83.8015 36.7847 83.591 36.8032 83.3818 36.8032C82.9728 36.8032 82.5717 36.7331 82.1706 36.6629L82.5175 36.0672C82.9106 36.1361 83.3037 36.2049 83.689 36.2049C83.8756 36.2049 84.0636 36.1877 84.2555 36.148C84.4435 36.1083 84.6328 36.0461 84.8274 35.9534C85.0286 35.8594 85.2377 35.731 85.4297 35.5761C85.5845 35.4504 85.7275 35.3074 85.84 35.1512C85.9618 34.9818 86.0598 34.7832 86.1418 34.5542C86.2332 34.2987 86.3033 34.0088 86.3616 33.6872C86.4238 33.3456 86.4714 32.971 86.5006 32.5911C86.5284 32.2284 86.5376 31.8617 86.5257 31.5149C86.5138 31.1615 86.4781 30.8266 86.4053 30.4705C86.3325 30.1117 86.2213 29.7292 86.0571 29.2818C85.8784 28.792 85.6362 28.2241 85.3383 27.647C85.0855 27.1585 84.7943 26.6608 84.4673 26.1975C84.1271 25.7143 83.7419 25.2603 83.3488 24.8539C82.9172 24.4091 82.4791 24.0265 82.078 23.734C81.6967 23.4547 81.342 23.2495 81.0044 23.1039C80.6722 22.9596 80.3584 22.8749 80.0527 22.8312C79.7654 22.7902 79.4848 22.7862 79.2174 22.8074C78.9156 22.8312 78.6257 22.8894 78.3596 22.9649C78.12 23.0337 77.9016 23.1158 77.7083 23.2296C77.5389 23.3289 77.388 23.452 77.2556 23.6135C77.1113 23.7883 76.9763 24.0199 76.8611 24.3005C76.7393 24.5918 76.6414 24.9306 76.5752 25.3079C76.5037 25.7117 76.4693 26.1564 76.4534 26.6224C76.4375 27.0764 76.4402 27.5808 76.4415 28.0851L75.9385 28.4531V28.4518Z" fill="#FEFEFE"/>
<path d="M77.1459 28.4153V28.4073L77.396 28.2313L77.1445 28.4073C77.175 27.4436 77.2054 26.48 77.3378 25.7678C77.4093 25.3799 77.5139 25.0583 77.6489 24.7882C77.8051 24.4745 77.9997 24.2283 78.2287 24.0311C78.4391 23.8484 78.6735 23.7186 78.9289 23.6432C79.1566 23.5757 79.4081 23.5505 79.6821 23.5677C79.9495 23.585 80.2421 23.6458 80.5677 23.7729C80.8881 23.8974 81.2415 24.0893 81.636 24.3686C82.0225 24.6439 82.4474 25.004 82.8498 25.3892C83.2681 25.789 83.6639 26.2152 83.9724 26.6017C84.2623 26.9645 84.4833 27.302 84.6382 27.5985C84.8169 27.9374 84.9122 28.226 84.9334 28.4484C84.9652 28.7647 84.8659 29.0215 84.6448 29.2545C84.4741 29.4345 84.2623 29.5404 84.0002 29.6199C83.5792 29.7483 82.961 29.8396 82.3442 29.9309L82.5957 29.3366L82.6076 29.3339C83.2086 29.2452 83.8109 29.1552 84.2067 29.0348C84.3549 28.9898 84.4529 28.954 84.478 28.9262C84.5019 28.9011 84.4396 28.9302 84.433 28.8547C84.4132 28.6641 84.3284 28.4086 84.1669 28.1015C84.0187 27.8196 83.8056 27.4953 83.5183 27.1365C83.2086 26.7487 82.8194 26.3277 82.413 25.9386C82.0132 25.5547 81.5936 25.1999 81.2177 24.9312C80.8378 24.6611 80.4949 24.4758 80.1865 24.3554C79.882 24.2376 79.608 24.1806 79.3591 24.1634C79.1209 24.1475 78.9078 24.1687 78.7198 24.223C78.5543 24.272 78.414 24.3474 78.3002 24.4441C78.2075 24.5235 78.1254 24.6307 78.0539 24.7723C77.9613 24.9577 77.8871 25.1959 77.8302 25.4991C77.7058 26.1649 77.6767 27.1074 77.6462 28.0499L77.6449 28.0565L77.1445 28.4086L77.1459 28.4153Z" fill="#FEFEFE"/>
<path d="M83.8066 30.0263H83.8106C84.0806 30.0038 84.3506 29.9813 84.6379 30.0158C84.7848 30.033 84.9357 30.0661 85.0787 30.1124C85.2164 30.1574 85.3487 30.2156 85.4626 30.2845C85.583 30.356 85.6863 30.4407 85.771 30.5466C85.857 30.6538 85.9259 30.7848 85.9749 30.949C86.0225 31.1092 86.053 31.3011 86.0649 31.5248C86.0768 31.7446 86.0728 31.9961 86.0556 32.2807C86.0371 32.5851 86 32.9372 85.9418 33.2735C85.8928 33.5607 85.8266 33.8374 85.7432 34.0677C85.632 34.3708 85.4864 34.6038 85.3209 34.7905C85.1581 34.9745 84.9887 35.0976 84.8192 35.1942C84.6736 35.2776 84.5254 35.3411 84.3811 35.3914C84.2474 35.4378 84.111 35.4748 83.9813 35.5053C83.8595 35.5344 83.7404 35.5582 83.6239 35.5781L83.293 35.6337L83.5524 35.038L83.8767 34.9837C83.9826 34.9652 84.0938 34.9427 84.2143 34.9149C84.3268 34.8884 84.4459 34.8567 84.5691 34.8143C84.6816 34.7759 84.7954 34.7269 84.904 34.6647C84.9874 34.6184 85.0641 34.5641 85.125 34.4966C85.1819 34.4317 85.2389 34.3364 85.2905 34.1935C85.3554 34.0174 85.4083 33.7897 85.4493 33.5462C85.501 33.243 85.5354 32.9108 85.5539 32.6156C85.5711 32.3482 85.5738 32.1152 85.5632 31.9153C85.5526 31.7194 85.5261 31.5513 85.4851 31.4149C85.4454 31.2812 85.3884 31.174 85.317 31.084C85.2442 30.9927 85.1555 30.9199 85.0522 30.859C84.949 30.7968 84.8285 30.7438 84.7041 30.7028C84.5743 30.6604 84.4354 30.63 84.3017 30.6141C84.0396 30.5823 83.7814 30.6035 83.5246 30.626H83.518L83.8053 30.0263H83.8066Z" fill="#FEFEFE"/>
<path d="M70.0106 34.9127C69.6625 34.1463 69.313 33.3785 69.1515 32.853C69.0535 32.534 69.0204 32.2772 69.2243 31.9211C69.4083 31.6007 69.7525 31.291 70.3892 30.8912C70.8962 30.5722 71.6256 30.1658 72.3841 29.7634C73.2935 29.2829 74.2426 28.809 74.9031 28.4992C75.5266 28.208 75.9092 28.0558 76.2599 27.9803C76.6081 27.9062 76.9099 27.9101 77.3785 27.9313C77.8855 27.9525 78.6096 27.9949 79.3098 28.0505C79.8433 28.0928 80.3516 28.1418 80.7209 28.1961C81.1591 28.2596 81.4119 28.3311 81.5695 28.4105C81.7402 28.4966 81.8051 28.5932 81.8594 28.6991L81.9044 28.7931C81.9745 28.94 82.0487 29.0989 82.2631 29.2061C82.455 29.3014 82.7555 29.3649 83.0282 29.4205C83.1606 29.4483 83.2877 29.4748 83.3777 29.4973C83.5604 29.5436 83.6914 29.5966 83.7986 29.7541C83.8992 29.901 83.9734 30.1393 84.0448 30.5576C84.1163 30.9852 84.1878 31.606 84.2328 32.2295C84.2739 32.7947 84.2977 33.3692 84.2858 33.822C84.2712 34.3792 84.1971 34.7949 83.8992 35.1695C83.6173 35.5243 83.2016 35.7387 82.5225 35.8737C81.9719 35.9849 81.212 36.0617 80.443 36.1067C79.5309 36.161 78.5963 36.1716 77.9768 36.1451C76.8 36.0935 76.7259 35.9029 76.5101 35.3522L76.5048 35.3363C76.3989 35.0663 76.2573 34.7115 76.1183 34.3912C75.974 34.0576 75.8165 33.7253 75.6722 33.4804C75.5332 33.2461 75.4114 33.1045 75.2989 33.0158C75.1904 32.9298 75.0845 32.8914 74.9799 32.8649L74.7959 32.8239C74.6251 32.7894 74.465 32.7577 74.3339 32.6544C74.2307 32.5737 74.1592 32.4585 74.0877 32.346C74.04 32.2705 73.9924 32.1951 73.9368 32.1355C73.8772 32.072 73.8071 32.027 73.6707 31.9939C73.5211 31.9581 73.2935 31.9356 72.9321 31.9184C72.212 31.8853 70.9491 31.8747 69.6797 31.8641C69.6373 31.9052 69.6082 31.9396 69.591 31.9714C69.546 32.0495 69.5777 32.1871 69.6386 32.3831C69.7948 32.89 70.1416 33.6525 70.4871 34.4137L70.0093 34.9074L70.0106 34.9127ZM72.2808 30.3035C71.6388 30.6437 71.018 30.9865 70.5454 31.2724C71.6163 31.2817 72.6276 31.2936 73.2537 31.3227C73.6297 31.3399 73.8693 31.3651 74.0321 31.4048C74.2108 31.4485 74.3048 31.5081 74.3842 31.5928C74.4464 31.6603 74.5007 31.7463 74.555 31.8311C74.6185 31.9317 74.6834 32.0349 74.7615 32.0958C74.8594 32.1713 75.0011 32.2004 75.1507 32.2308L75.3466 32.2732C75.4684 32.305 75.5928 32.3513 75.7265 32.4559C75.8562 32.5578 75.9939 32.7153 76.1421 32.9668L75.9078 33.2249L76.1421 32.9681C76.2838 33.2091 76.4466 33.5519 76.5988 33.9027C76.7563 34.2654 76.8914 34.6056 76.9893 34.8558L76.9933 34.869C77.1773 35.3376 77.2408 35.5004 78.2959 35.5468C78.9021 35.5733 79.8261 35.5627 80.7329 35.5084C81.4914 35.4634 82.2353 35.3879 82.7661 35.282C83.2731 35.1801 83.5418 35.0755 83.6517 34.9365C83.7457 34.8187 83.7735 34.5619 83.7827 34.1767C83.7947 33.7386 83.7722 33.1786 83.7311 32.6266C83.6848 32.0031 83.616 31.3955 83.5471 30.9865C83.4836 30.6106 83.42 30.4001 83.3366 30.2796C83.2599 30.1684 83.1579 30.1287 83.0123 30.0917C82.9011 30.0625 82.7899 30.04 82.6735 30.0162C82.3862 29.9566 82.0685 29.8905 81.862 29.7872C81.5959 29.6535 81.5072 29.4655 81.4252 29.2908L81.3828 29.2021C81.3431 29.1253 81.2954 29.0552 81.1657 28.9903C81.0227 28.9188 80.7858 28.8526 80.3754 28.7918C80.0061 28.7375 79.5031 28.6885 78.9802 28.6475C78.3078 28.5945 77.581 28.5535 77.0555 28.531C76.6107 28.5111 76.3261 28.5072 76.0151 28.5733C75.7053 28.6395 75.3519 28.7812 74.7655 29.0552C74.1049 29.3636 73.1664 29.8322 72.2768 30.3035H72.2808Z" fill="#FEFEFE"/>
<path d="M74.4102 32.0534L81.6536 28.9453L81.929 29.5939L74.6868 32.7021L74.4102 32.0534Z" fill="#FEFEFE"/>
<path d="M75.8633 33.0466L83.533 29.998L83.7925 30.652L76.1227 33.7005L75.8633 33.0466Z" fill="#FEFEFE"/>
<path d="M83.0593 35.7675L80.2146 39.4488L75.0944 39.74L75.0547 39.0371L79.8532 38.7631L82.502 35.3359L83.0593 35.7675Z" fill="#FEFEFE"/>
<path d="M25.7022 73.0878L45.3478 73.4809L45.3345 74.1851L25.689 73.792L25.7022 73.0878ZM49.7518 73.5683L50.6506 73.5868L50.6374 74.291L49.7386 74.2725L49.7518 73.5683ZM55.4346 73.6861L63.3056 72.6284L74.8221 61.832L87.3962 66.6584C82.4031 70.6587 77.4047 74.6524 72.4208 78.6633C57.4586 80.1512 42.4964 81.6907 27.5382 83.2236L23.3711 76.4818L23.9707 76.1125L27.9049 82.4783L72.1415 77.9829L85.9984 66.8741L74.9822 62.6461L63.6233 73.2956L55.5286 74.3824L55.4346 73.6834V73.6861Z" fill="#FEFEFE"/>
<path d="M63.6479 72.6641L72.464 78.0252L72.0973 78.6275L63.2812 73.265L63.6479 72.6641Z" fill="#FEFEFE"/>
<path d="M10.3711 90.9009C26.6372 90.0749 44.9643 88.3381 61.008 88.3381L75.5836 86.6477L75.8139 82.9572C79.1935 80.6843 82.5769 78.4088 85.9657 76.1492L104.859 72.3223L104.997 73.0133L86.2424 76.8124L76.4957 83.349L76.2508 87.2831C71.8904 87.7875 64.9275 89.0477 60.8451 89.0477L10.4042 91.6078L10.3711 90.9035V90.9009Z" fill="#FEFEFE"/>
<path d="M104.763 72.3536C105.577 71.9274 106.393 71.4998 106.976 70.9822C107.252 70.7373 107.479 70.466 107.718 70.0093C107.969 69.5274 108.23 68.8444 108.56 67.7947C108.904 66.7039 109.318 65.2319 109.787 63.429C110.237 61.6975 110.744 59.6325 111.293 57.2763C111.87 54.8035 112.49 52.029 113.031 49.4834C113.534 47.1219 113.971 44.951 114.248 43.3942C114.534 41.7885 114.646 40.8513 114.671 40.2477C114.696 39.6732 114.641 39.4045 114.585 39.1384L115.276 38.9941C115.34 39.3026 115.405 39.6123 115.375 40.2782C115.348 40.9149 115.232 41.8852 114.943 43.516C114.665 45.0754 114.226 47.2556 113.721 49.629C113.177 52.1852 112.557 54.965 111.98 57.4351C111.437 59.7596 110.928 61.8326 110.467 63.605C109.993 65.4305 109.575 66.9131 109.232 68.0038C108.888 69.0985 108.611 69.8173 108.342 70.3336C108.059 70.8776 107.78 71.2073 107.441 71.5077C106.794 72.0809 105.94 72.5283 105.087 72.9758L104.762 72.351L104.763 72.3536Z" fill="#FEFEFE"/>
<path d="M23.5402 76.3699C25.5377 73.3346 27.5352 70.2993 30.0079 67.2467C31.2086 65.7655 32.5204 64.2803 33.8587 62.8639C35.2804 61.3601 36.7418 59.9252 38.1383 58.6464C39.4952 57.4035 40.7884 56.3127 42.1929 55.2815C43.6014 54.2463 45.1224 53.2668 46.9319 52.2528C48.6011 51.3169 50.5206 50.3466 52.3658 49.4743C54.4984 48.4643 56.5356 47.5827 57.9679 47.0293C59.33 46.5038 60.1653 46.2708 60.7438 46.2351C61.4083 46.1941 61.7577 46.39 62.1125 46.709C62.3984 46.9658 62.6738 47.2928 62.9531 47.6263C63.2655 47.9996 63.5858 48.3822 63.8969 48.6337C64.1683 48.8521 64.4449 48.9845 64.7216 49.0573C65.0088 49.1327 65.3054 49.15 65.6019 49.142C65.905 49.1327 66.2148 49.0944 66.5033 49.0321C66.7774 48.9726 67.0289 48.8905 67.234 48.7899C67.426 48.6972 67.5769 48.5874 67.6921 48.4576C67.8046 48.3319 67.888 48.1797 67.9475 48.0023L68.0111 47.7772C68.1329 47.3232 68.2851 46.7672 69.0621 46.0908C69.4407 45.7612 69.9768 45.4011 70.55 45.0596C71.2966 44.6135 72.1014 44.1979 72.6958 43.9146C73.1101 43.7173 73.4463 43.5744 73.7045 43.4645C74.0301 43.3268 74.2154 43.2487 74.3226 43.1534C74.3902 43.0939 74.4378 43.0065 74.4775 42.8371C74.5318 42.6041 74.5675 42.2533 74.6006 41.7106C74.6377 41.1096 74.6721 40.2995 74.692 39.5118C74.7105 38.7917 74.7198 38.0835 74.7105 37.5567C74.7012 37.0576 74.6787 36.7439 74.5609 36.5546C74.4484 36.3759 74.2062 36.2515 73.7481 36.1098C73.257 35.9576 72.5462 35.8001 71.7758 35.6558C70.8889 35.489 69.9146 35.3407 69.0939 35.2401C68.3367 35.1475 67.7198 35.0959 67.1943 35.1117C66.6873 35.1276 66.2571 35.207 65.8574 35.3738C65.3768 35.5737 64.9109 35.9126 64.4873 36.2197C64.1709 36.4487 63.877 36.6632 63.5885 36.8114C62.8538 37.19 62.3044 37.0868 61.7247 36.9782L61.7021 36.9742C61.4467 36.9253 61.1819 36.8776 60.8814 36.8458C60.5783 36.8141 60.2315 36.7969 59.8039 36.8114C59.3711 36.826 58.8521 36.8723 58.0764 36.9954C57.2901 37.1212 56.2417 37.3263 54.7552 37.6573C53.0502 38.0372 50.7694 38.5826 48.3549 39.255C46.5626 39.7541 44.6935 40.3259 42.9316 40.9521C40.8785 41.6828 38.9776 42.4863 37.172 43.3573C35.3638 44.2283 33.6442 45.1668 31.9538 46.1663C30.2647 47.163 28.6048 48.222 26.9422 49.3776C25.2756 50.5359 23.6143 51.7895 21.9305 53.1741C20.2904 54.5217 18.6265 55.9937 17.0327 57.4842C15.3251 59.0819 13.6955 60.7022 12.2619 62.2179C10.8839 63.674 9.67271 65.0493 8.58195 66.3559C7.49649 67.6545 6.53943 68.8736 5.65517 70.0345C4.77356 71.1915 3.96079 72.2968 3.25789 73.3068C2.56028 74.3102 1.98048 75.2104 1.56218 75.9583C1.15315 76.6916 0.89634 77.282 0.779852 77.8261C0.667334 78.3516 0.685866 78.844 0.822211 79.396C0.961203 79.9599 1.22066 80.59 1.57939 81.2559C1.95533 81.9561 2.43982 82.6974 3.00638 83.448C3.52528 84.135 4.11302 84.8299 4.72458 85.5037C5.43543 86.2847 6.1754 87.0326 6.8783 87.7051C7.54149 88.3378 8.17292 88.9057 8.78713 89.4392C9.37884 89.9528 9.99702 90.4704 10.6152 90.9866L10.1625 91.528C9.56946 91.033 8.97642 90.5366 8.32647 89.9726C7.70034 89.4286 7.05965 88.8541 6.39249 88.2174C5.67106 87.529 4.91785 86.7679 4.20171 85.9803C3.57558 85.2932 2.97461 84.5811 2.44114 83.8755C1.85473 83.0985 1.35038 82.3268 0.955909 81.5934C0.570701 80.8773 0.288746 80.1916 0.136516 79.5681C-0.0249797 78.9102 -0.0461595 78.3185 0.0888615 77.6831C0.221235 77.0662 0.500543 76.4149 0.945319 75.6194C1.38083 74.8397 1.97254 73.921 2.67676 72.907C3.37702 71.8997 4.19774 70.7851 5.09258 69.6096C5.9861 68.4368 6.95111 67.2084 8.03922 65.9058C9.12071 64.6112 10.3385 63.2305 11.751 61.7387C13.1978 60.2084 14.8379 58.5776 16.5508 56.9746C18.1618 55.4681 19.839 53.9842 21.4818 52.634C23.1933 51.2282 24.8692 49.9641 26.5371 48.8018C28.2103 47.6383 29.8862 46.57 31.5938 45.5626C33.2987 44.5553 35.0342 43.6075 36.8649 42.7272C38.6969 41.8443 40.6203 41.0302 42.6973 40.2915C44.4645 39.6627 46.3508 39.0869 48.167 38.5799C50.5894 37.9048 52.8847 37.3568 54.603 36.9742C56.1041 36.6406 57.1657 36.4328 57.9666 36.3044C58.7767 36.1747 59.3221 36.127 59.7814 36.1112C60.2474 36.0953 60.6246 36.1138 60.9542 36.1482C61.2852 36.1826 61.5632 36.2343 61.8332 36.2846L61.8557 36.2885C62.3124 36.3746 62.7466 36.4567 63.2655 36.1893C63.4998 36.0688 63.7764 35.8676 64.073 35.6518C64.527 35.3222 65.0274 34.9582 65.586 34.7265C66.0678 34.5266 66.5775 34.4313 67.1718 34.4115C67.749 34.3943 68.3976 34.4459 69.1786 34.5425C70.0033 34.6431 70.9921 34.794 71.9055 34.9661C72.6971 35.1144 73.4331 35.2785 73.956 35.44C74.5887 35.6359 74.9448 35.8398 75.1592 36.1853C75.3671 36.5202 75.4041 36.9266 75.416 37.5487C75.4253 38.0862 75.4174 38.805 75.3975 39.5317C75.3763 40.3471 75.3419 41.1665 75.3062 41.7556C75.2704 42.3433 75.2307 42.7285 75.1659 43.0012C75.0864 43.3374 74.9699 43.5294 74.7899 43.6882C74.6046 43.8524 74.3769 43.949 73.9811 44.1171C73.7442 44.219 73.4357 44.3488 73.0002 44.5566C72.4112 44.8372 71.6249 45.2423 70.9127 45.6685C70.3766 45.9889 69.8762 46.3238 69.5267 46.6282C68.9099 47.1644 68.7907 47.6065 68.6941 47.9665C68.6729 48.046 68.6518 48.1214 68.616 48.23C68.5273 48.4987 68.3963 48.7303 68.2163 48.9329C68.0402 49.1301 67.8178 49.2942 67.5425 49.4293C67.2857 49.5563 66.9799 49.6569 66.6516 49.7284C66.3286 49.7986 65.9765 49.8409 65.6204 49.8529C65.263 49.8634 64.9016 49.8409 64.5416 49.7456C64.1709 49.6477 63.8056 49.4756 63.4521 49.1897C63.0855 48.8905 62.7439 48.4841 62.4117 48.087C62.1456 47.7693 61.8835 47.4569 61.6426 47.2411C61.4215 47.0439 61.2044 46.9208 60.7848 46.9473C60.2791 46.9777 59.51 47.1974 58.222 47.6952C56.8096 48.2405 54.7909 49.1155 52.6663 50.1203C50.8396 50.9847 48.936 51.947 47.2761 52.8776C45.4904 53.8783 43.9932 54.842 42.6099 55.8587C41.2213 56.8793 39.9465 57.9528 38.6135 59.1733C37.2369 60.4335 35.79 61.8552 34.3723 63.355C33.0433 64.7608 31.742 66.2328 30.5546 67.6995C28.0991 70.7308 26.1135 73.7476 24.1279 76.7657L23.5402 76.3792V76.3699Z" fill="#FEFEFE"/>
<path d="M75.007 36.6961L74.9527 36.7212C73.5879 37.3354 72.2285 37.9483 71.3521 38.3627L71.1814 38.4434C70.3593 38.8339 69.8669 39.0682 68.3751 39.3555C67.8231 39.4614 67.095 39.5805 66.2478 39.7195C64.8089 39.9538 63.0166 40.2477 61.0416 40.6554C59.3737 40.9995 57.5668 41.4284 55.7082 41.9553C54.1158 42.408 52.4942 42.9322 50.8978 43.5385C49.1756 44.1924 47.4825 44.9429 45.8265 45.7848C44.1639 46.6294 42.5371 47.5653 40.9578 48.5872C39.3773 49.6091 37.8418 50.7184 36.3155 51.9018C34.7892 53.0839 33.2696 54.3454 31.7221 55.6692C30.18 56.9889 28.6074 58.3762 27.1076 59.7357C25.6237 61.0793 24.2113 62.4017 22.9709 63.6063C21.7425 64.8003 20.6928 65.8725 19.7132 66.9514C18.735 68.0289 17.8322 69.1064 16.8976 70.311C15.9631 71.5143 14.9875 72.8605 14.0503 74.1922C13.0839 75.5649 12.2036 76.8542 11.4491 77.9675C10.688 79.0887 10.0407 80.0511 9.48469 80.9194C8.94858 81.7547 8.52763 82.4603 8.21655 83.0718C7.90812 83.6781 7.70691 84.197 7.5666 84.655C7.42761 85.1091 7.34553 85.5168 7.27802 85.8993C7.14168 86.6671 7.06225 87.3276 6.98415 87.9855L6.98283 87.9961L6.28125 87.9154L6.28257 87.9035C6.362 87.2323 6.44142 86.5612 6.58174 85.7762C6.6519 85.3778 6.73926 84.9462 6.89282 84.4472C7.04505 83.9521 7.26081 83.3975 7.58778 82.7528C7.91209 82.1134 8.34495 81.388 8.89166 80.5369C9.41718 79.7175 10.0804 78.7326 10.868 77.5717C11.6609 76.4015 12.569 75.0699 13.4744 73.7845C14.409 72.4568 15.3886 71.1066 16.3416 69.8795C17.2934 68.6524 18.2081 67.5603 19.193 66.4748C20.1765 65.392 21.2368 64.3079 22.4811 63.0993C23.7096 61.9053 25.1286 60.5776 26.6337 59.2128C28.1269 57.8573 29.7048 56.4647 31.2641 55.1317C32.8142 53.8054 34.3431 52.5372 35.8853 51.3432C37.4261 50.1492 38.9775 49.028 40.5753 47.9955C42.1783 46.959 43.8264 46.0099 45.5102 45.1547C47.1887 44.3023 48.9055 43.5411 50.6516 42.8779C52.2678 42.2637 53.9093 41.7329 55.5163 41.2762C57.3788 40.7467 59.2069 40.3138 60.9012 39.9644C62.8895 39.554 64.6885 39.2601 66.1353 39.0232C66.956 38.8895 67.6616 38.7743 68.2427 38.6618C69.6472 38.3918 70.1078 38.172 70.8809 37.8054L71.0517 37.7246C71.9637 37.2931 73.3113 36.6855 74.6628 36.0779L74.7171 36.0527L75.007 36.6961Z" fill="#FEFEFE"/>
<path d="M12.1223 65.8866C11.5743 66.5022 11.1216 67.0316 10.7417 67.4897C10.3538 67.9583 10.0441 68.3448 9.78195 68.6757C9.50794 69.0212 9.28158 69.3085 9.11214 69.5388C8.93609 69.781 8.79577 69.9942 8.6859 70.2046C8.58133 70.4019 8.50323 70.5978 8.44631 70.7871C8.38674 70.9883 8.351 71.1842 8.33776 71.3709C8.32452 71.5496 8.33114 71.715 8.35364 71.8567C8.3735 71.9851 8.40659 72.0923 8.45028 72.1664C8.47543 72.2114 8.50455 72.2405 8.54029 72.2564C8.59589 72.2816 8.67663 72.2909 8.78518 72.2895C8.92947 72.2869 9.10553 72.2631 9.29217 72.2127C9.45102 72.1691 9.61781 72.1042 9.77666 72.0155C9.94874 71.9202 10.1195 71.7905 10.3763 71.5337C10.6516 71.2597 11.021 70.8453 11.5809 70.1927C11.9847 69.7215 12.5115 69.098 13.1006 68.3991C14.0881 67.2289 15.2556 65.8456 16.4231 64.502C17.3378 63.4496 18.2274 62.4515 19.1196 61.4918C20.0197 60.5242 20.9344 59.5817 21.8994 58.6418C22.8578 57.7073 23.8678 56.7753 24.8871 55.8805C25.9104 54.9817 26.9402 54.1252 27.933 53.3455C29.3944 52.1979 30.7949 51.2037 31.85 50.4558L32.8388 49.749C33.3431 49.381 33.6476 49.1374 33.8369 48.9574C33.9891 48.8117 34.0487 48.7217 34.0831 48.6357C34.1162 48.5536 34.1321 48.4715 34.1294 48.4001C34.1281 48.3484 34.1162 48.3048 34.0963 48.2756C34.0844 48.2584 34.0619 48.2452 34.0275 48.2359C33.96 48.2187 33.8607 48.2187 33.7323 48.2372C33.5774 48.2611 33.3934 48.3127 33.1499 48.4159C32.8904 48.5245 32.5608 48.6953 32.1279 48.9521C31.6805 49.2168 31.1404 49.5636 30.509 49.9912C29.8763 50.4201 29.1323 50.943 28.2812 51.5559C27.4432 52.1595 26.5007 52.8544 25.5 53.6182C24.5006 54.3794 23.4561 55.2014 22.4223 56.0539C21.4057 56.8918 20.3904 57.7655 19.4121 58.6392C18.3876 59.5552 17.3961 60.4765 16.4801 61.3621C15.658 62.1563 14.8982 62.9201 14.2112 63.6336C13.4209 64.453 12.718 65.2155 12.121 65.8853L12.1223 65.8866ZM10.1976 67.0396C10.5841 66.5736 11.0408 66.0375 11.5941 65.4167C12.1819 64.7575 12.8888 63.991 13.7042 63.1452C14.3965 62.4264 15.1629 61.656 15.9916 60.8551C16.9063 59.9708 17.9031 59.0442 18.9422 58.115C19.9297 57.232 20.953 56.3517 21.9736 55.5098C23.0286 54.6402 24.077 53.8155 25.0711 53.057C26.0626 52.2998 27.0144 51.5995 27.8695 50.9827C28.7101 50.3764 29.458 49.8509 30.1145 49.4074C30.7751 48.96 31.3271 48.6052 31.7679 48.3445C32.2219 48.0757 32.5807 47.8917 32.8759 47.7673C33.1856 47.6363 33.4239 47.5701 33.6264 47.5396C33.8488 47.5052 34.0407 47.5118 34.2036 47.5542C34.4074 47.6071 34.5636 47.7144 34.6735 47.8692C34.7728 48.0096 34.827 48.1856 34.8323 48.3736C34.839 48.5417 34.8059 48.7231 34.7357 48.8978C34.6669 49.0699 34.5636 49.234 34.3227 49.4657C34.1149 49.6642 33.7879 49.9263 33.2505 50.3168C32.9142 50.5617 32.6071 50.7788 32.2563 51.029C31.2106 51.7716 29.822 52.7578 28.3672 53.8989C27.3731 54.6785 26.3538 55.5271 25.3491 56.41C24.3431 57.2929 23.3436 58.2156 22.3892 59.1462C21.4375 60.0728 20.5307 61.0073 19.6345 61.971C18.7317 62.9413 17.8501 63.9301 16.954 64.9626C15.8341 66.252 14.644 67.6604 13.638 68.8544C13.0622 69.5362 12.5459 70.149 12.1157 70.6507C11.5438 71.3179 11.1626 71.7441 10.8727 72.034C10.563 72.3425 10.3472 72.504 10.1182 72.6311C9.90771 72.7475 9.68665 72.8336 9.47617 72.8905C9.22996 72.958 8.99301 72.9898 8.79577 72.9924C8.5853 72.9951 8.40792 72.9673 8.25304 72.8984C8.07831 72.8203 7.94461 72.6972 7.84003 72.5185C7.75399 72.3703 7.69178 72.1797 7.65736 71.9652C7.62559 71.7666 7.61632 71.5456 7.63353 71.3192C7.65074 71.0849 7.69442 70.8387 7.76988 70.5859C7.83871 70.3516 7.93534 70.112 8.0611 69.8737C8.18818 69.6315 8.34702 69.3905 8.54294 69.1218C8.74679 68.8438 8.96786 68.5645 9.22863 68.2349C9.50132 67.8908 9.81902 67.4923 10.1976 67.0369V67.0396Z" fill="#FEFEFE"/>
<path d="M18.0844 72.6549L17.6886 73.113C16.578 74.3983 16.1253 74.9199 15.8354 75.362C15.6832 75.5923 15.576 75.8015 15.4992 75.9974C15.4237 76.192 15.3774 76.3746 15.347 76.5533C15.3152 76.7373 15.2993 76.9147 15.298 77.0762C15.298 77.2377 15.3112 77.3913 15.339 77.5263C15.3628 77.6415 15.3973 77.7421 15.4515 77.8281C15.5032 77.9102 15.5773 77.9869 15.6832 78.0598C15.8076 78.1445 15.9731 78.2239 16.1584 78.2901C16.349 78.3576 16.5569 78.4106 16.7634 78.4384C16.9646 78.4662 17.1658 78.4714 17.3643 78.4423C17.5576 78.4145 17.7535 78.3523 17.9494 78.2438C18.1559 78.1312 18.3664 77.9671 18.6033 77.7196C18.8535 77.4588 19.1368 77.1027 19.4783 76.6169C19.8079 76.147 20.1759 75.5791 20.6035 74.9199C21.1065 74.1428 21.6929 73.24 22.3694 72.2525C23.0445 71.269 23.8136 70.1954 24.6383 69.1034C25.3743 68.1291 26.1632 67.127 26.9813 66.1448C27.8404 65.1123 28.718 64.1195 29.6393 63.1413C30.5646 62.159 31.5376 61.1887 32.586 60.2065C33.682 59.1793 34.8615 58.1349 36.1111 57.1103C37.2508 56.1758 38.4435 55.2611 39.6733 54.3953C40.9612 53.4886 42.3101 52.6215 43.6458 51.814C44.9775 51.0079 46.2813 50.2666 47.4926 49.6047C48.7051 48.9415 49.8316 48.3512 50.9713 47.8031C52.1137 47.2538 53.2588 46.7508 54.5017 46.2636C55.7447 45.7765 57.0976 45.2999 58.3591 44.875C59.6497 44.4408 60.7974 44.0755 61.6579 43.8028L61.7558 43.7724C63.384 43.2561 63.9572 43.0734 64.2564 42.8299C64.3728 42.7345 64.4523 42.6247 64.5039 42.5135C64.5688 42.3732 64.5926 42.2275 64.5926 42.1005C64.5926 41.9972 64.5767 41.9125 64.5462 41.8503C64.5224 41.8013 64.4854 41.7629 64.4377 41.7351C64.3781 41.702 64.2934 41.6808 64.1253 41.6861C63.9029 41.6941 63.5693 41.7484 63.0465 41.8728C62.4998 42.0025 61.7743 42.2011 60.9364 42.4513C60.0958 42.7014 59.1216 43.0072 58.0798 43.3501C57.0446 43.6903 55.9539 44.0622 54.7983 44.4991C53.6347 44.9372 52.3996 45.4429 51.0772 46.0465C49.8117 46.6237 48.4562 47.2961 47.1179 47.999C45.6671 48.7602 44.2415 49.5544 42.9773 50.2984C41.774 51.0066 40.7084 51.6751 39.6574 52.3846C38.6103 53.0915 37.5884 53.8341 36.4658 54.6932C35.3367 55.5576 34.0937 56.5504 32.8626 57.5683C31.6421 58.5783 30.4508 59.5989 29.4077 60.5322C28.35 61.48 27.4234 62.355 26.5166 63.263C25.6165 64.1645 24.7349 65.1017 23.7593 66.1766C21.9749 68.141 19.9218 70.5211 18.5014 72.1652L18.0805 72.6523L18.0844 72.6549ZM17.1552 72.6523L17.9719 71.7072C19.4082 70.0432 21.4878 67.6353 23.2404 65.704C24.216 64.6291 25.1042 63.6866 26.0189 62.7693C26.9283 61.8586 27.8642 60.9743 28.9404 60.0106C30.0166 59.0469 31.2133 58.021 32.4152 57.0269C33.641 56.0129 34.8919 55.0148 36.0409 54.1346C37.1807 53.2622 38.2145 52.5117 39.2669 51.8008C40.3126 51.0939 41.3915 50.4188 42.6252 49.6921C43.8986 48.9429 45.3335 48.142 46.7936 47.3756C48.1332 46.6713 49.4993 45.9936 50.7887 45.4058C52.1323 44.793 53.3819 44.282 54.5547 43.8399C55.7341 43.3951 56.8315 43.0191 57.8667 42.6803C58.8952 42.3427 59.8761 42.0343 60.7432 41.7775C61.6115 41.5194 62.3488 41.3168 62.8889 41.1884C63.4515 41.0547 63.8301 40.9952 64.1054 40.9859C64.4337 40.974 64.631 41.0335 64.7951 41.1288C64.9672 41.2295 65.0982 41.3684 65.183 41.5419C65.2637 41.7047 65.3034 41.8926 65.3034 42.1044C65.3034 42.3202 65.2611 42.5704 65.1485 42.8126C65.0546 43.0152 64.9116 43.2124 64.7077 43.3805C64.3053 43.7101 63.6977 43.9034 61.9729 44.4501L61.8749 44.4805C60.9841 44.7625 59.8046 45.1384 58.5868 45.5475C57.3412 45.9671 56.0015 46.4384 54.7625 46.9242C53.5235 47.41 52.3944 47.9051 51.2784 48.4412C50.1599 48.9786 49.0413 49.5637 47.8328 50.2256C46.6215 50.8888 45.323 51.6248 44.0138 52.4177C42.7086 53.2079 41.3756 54.0657 40.0836 54.9751C38.8565 55.8395 37.6784 56.741 36.5625 57.657C35.3301 58.667 34.1612 59.7009 33.0731 60.7215C32.0353 61.6944 31.0716 62.6554 30.1569 63.6257C29.2382 64.6013 28.3699 65.5835 27.5267 66.5962C26.7337 67.5493 25.9488 68.5447 25.2061 69.5296C24.3828 70.619 23.6203 71.6833 22.9558 72.651C22.2727 73.6464 21.6943 74.5373 21.1979 75.3051C20.7584 75.9841 20.3785 76.5679 20.0595 77.0246C19.7007 77.5356 19.3949 77.9181 19.1156 78.2093C18.8231 78.5138 18.5583 78.7177 18.2936 78.8633C18.0183 79.0142 17.7442 79.1015 17.4702 79.1413C17.2015 79.1796 16.9354 79.173 16.6707 79.1373C16.4139 79.1015 16.1584 79.038 15.9281 78.9559C15.6872 78.8699 15.4648 78.7613 15.29 78.6422C15.0981 78.5112 14.9591 78.3655 14.8559 78.2014C14.7552 78.0399 14.693 77.8638 14.652 77.6679C14.6149 77.4879 14.5964 77.288 14.5977 77.0749C14.599 76.8684 14.6176 76.6513 14.6546 76.4369C14.693 76.2145 14.7513 75.9868 14.8453 75.7445C14.9379 75.5063 15.0676 75.2534 15.249 74.9781C15.5561 74.5082 16.0194 73.9721 17.1592 72.6536L17.1552 72.6523Z" fill="#FEFEFE"/>
<path d="M77.7695 52.7036C77.0627 52.6837 76.3545 52.6625 75.9256 52.5487C75.4755 52.4282 75.3325 52.2509 74.9804 51.8087L74.8163 51.6049C74.578 51.3123 74.2338 50.9086 73.8738 50.5234C73.6051 50.2335 73.3284 49.9555 73.0862 49.745C72.828 49.52 72.6176 49.381 72.4389 49.3055C72.284 49.2407 72.149 49.2248 72.0206 49.238C71.8922 49.2513 71.7624 49.2936 71.6393 49.3506C71.4818 49.4234 71.3335 49.524 71.2078 49.6272C71.0939 49.7199 71.0013 49.8112 70.9417 49.8999C70.902 49.9568 70.8782 50.0071 70.8755 50.0468C70.8689 50.1448 70.9827 50.3195 71.1707 50.6055L71.1959 50.6452C71.3137 50.8252 71.458 51.0476 71.6049 51.2938C71.7452 51.5294 71.8776 51.7703 71.965 51.9782C72.141 52.3951 72.1344 52.6453 72.1238 53.0703L72.1212 53.1709C72.1159 53.38 72.1145 53.6395 72.1397 53.883C72.1609 54.0922 72.2032 54.2854 72.28 54.3993C72.3925 54.5661 72.6771 54.6045 72.873 54.6309L72.9789 54.6468C73.241 54.6879 73.4052 54.758 73.4859 54.9976C73.5402 55.1591 73.5071 55.3444 73.3919 55.629C73.3244 55.7945 73.2066 56.0473 73.0809 56.3174C72.926 56.6523 72.7566 57.0163 72.6493 57.293C72.5606 57.5207 72.5103 57.6941 72.4997 57.8397C72.4905 57.9681 72.5143 58.0859 72.5699 58.2183C72.6321 58.3639 72.7327 58.5293 72.8452 58.6882C72.9803 58.8775 73.1298 59.0535 73.2543 59.174C73.4475 59.3646 73.572 59.4043 73.6938 59.444L73.7427 59.4652L73.5839 59.7842L73.4767 60.1165C73.2768 60.0516 73.0756 59.9854 72.7618 59.6783C72.6109 59.5301 72.4322 59.3209 72.2734 59.0985C72.1344 58.904 72.0073 58.6935 71.9239 58.4962C71.822 58.2566 71.781 58.0382 71.7982 57.7933C71.8141 57.5683 71.8802 57.3314 71.9941 57.0388C72.1159 56.7264 72.2866 56.3584 72.4442 56.0235C72.5593 55.7786 72.6665 55.5509 72.7407 55.3669L72.7579 55.3299C72.4349 55.2862 71.9795 55.2147 71.6976 54.7977C71.5467 54.574 71.4739 54.2696 71.4408 53.9585C71.4116 53.6805 71.4143 53.3919 71.4196 53.1589L71.4222 53.057C71.4302 52.7261 71.4355 52.5315 71.3177 52.2548C71.2462 52.0854 71.1297 51.8736 71.0013 51.6591C70.8795 51.4553 70.7312 51.2263 70.6068 51.0357L70.5817 50.996C70.3143 50.5869 70.1514 50.3381 70.1739 50.0058C70.1859 49.8324 70.252 49.6656 70.3619 49.5081C70.4612 49.3611 70.6002 49.2208 70.7657 49.0858C70.9311 48.9508 71.127 48.8184 71.3441 48.7178C71.5334 48.6291 71.7386 48.5643 71.9491 48.5417C72.1913 48.5166 72.4389 48.5444 72.7129 48.6596C72.9631 48.7641 73.2357 48.9415 73.5534 49.2169C73.8116 49.4419 74.1068 49.7384 74.394 50.0482C74.7607 50.4413 75.1181 50.8609 75.3683 51.168L75.5351 51.3745C75.7853 51.6883 75.8859 51.814 76.1083 51.8736C76.463 51.9676 77.1288 51.9874 77.792 52.006L77.7722 52.7102L77.7695 52.7036Z" fill="#FEFEFE"/>
<path d="M81.1473 50.5139L81.1222 51.1215L80.5053 51.1017L80.5 51.2142L79.7958 51.1811C79.813 50.833 79.8342 50.4822 79.8408 50.1327L79.7865 50.1062C79.7137 50.0705 79.633 50.0295 79.5469 49.9765C79.4423 49.909 79.3431 49.8283 79.2557 49.7303C79.1763 49.6416 79.1074 49.5357 79.0558 49.4139C79.0029 49.2882 78.9711 49.1439 78.9632 48.9983C78.9552 48.858 78.9684 48.7137 79.0055 48.5747C79.0439 48.4317 79.1061 48.2954 79.1922 48.1723C79.2742 48.0518 79.3801 47.9446 79.5046 47.8585C79.6237 47.7765 79.7574 47.7129 79.8977 47.6679C80.0407 47.6216 80.1942 47.5938 80.3465 47.5832C80.5013 47.5726 80.6602 47.5779 80.8124 47.6057C80.9607 47.6322 81.105 47.6785 81.2373 47.746C81.3803 47.8201 81.5074 47.9194 81.6119 48.0399C81.7152 48.1577 81.7986 48.2967 81.8529 48.4516C81.9071 48.6051 81.9336 48.7759 81.9283 48.9427C81.923 49.1081 81.8846 49.2736 81.8105 49.4192C81.6649 49.7025 81.416 49.8613 81.2545 49.9659L81.1963 50.0003L81.1791 50.0811C81.1632 50.183 81.1513 50.3352 81.142 50.5139H81.1473ZM80.5119 49.8574C80.5397 49.7422 80.5781 49.6601 80.6297 49.5873C80.7025 49.4854 80.7767 49.4378 80.8759 49.3742L80.8839 49.3676C80.9845 49.3041 81.1341 49.2061 81.1884 49.0989C81.2135 49.0499 81.2267 48.9877 81.2281 48.9202C81.2307 48.8421 81.2175 48.7613 81.191 48.6859C81.1672 48.6184 81.1301 48.5561 81.0838 48.5032C81.0388 48.4502 80.9818 48.4052 80.9183 48.3721C80.8521 48.3377 80.7767 48.3139 80.6959 48.3007C80.5993 48.2835 80.4987 48.2808 80.3994 48.2874C80.2988 48.294 80.2035 48.3113 80.1161 48.339C80.038 48.3642 79.9679 48.3973 79.9109 48.437C79.8567 48.4754 79.8103 48.523 79.7733 48.5747C79.7349 48.6276 79.7071 48.6885 79.6899 48.7534C79.6727 48.8196 79.6661 48.8897 79.67 48.9586C79.674 49.0247 79.6872 49.0883 79.7097 49.1412C79.7283 49.1849 79.7547 49.226 79.7865 49.2617C79.8249 49.3067 79.8739 49.3464 79.9229 49.3782C79.9785 49.4126 80.042 49.4444 80.0989 49.4722C80.185 49.5145 80.2617 49.5529 80.3306 49.6072C80.4193 49.6773 80.4762 49.7528 80.5093 49.8547L80.5119 49.8574Z" fill="#FEFEFE"/>
<path d="M45.1301 89.7106L44.177 91.0211L44.222 92.3316L54.567 93.8513C57.5666 96.1704 60.5596 98.4976 63.5552 100.822L62.8562 106.935L75.7177 108.878L82.5707 99.8412C96.1866 95.5562 94.3837 95.7998 107.726 94.1756C107.313 87.7197 107.305 86.2993 107.616 79.8263L95.3844 74.902L95.6465 74.248L108.344 79.3603L107.976 87.0353L108.472 94.7977L96.4355 96.2644L82.9916 100.451L76.0234 109.642C71.3745 108.939 66.7269 108.234 62.0779 107.535L62.8086 101.137L54.2824 94.525L43.539 92.9471L43.4648 90.8027L44.5582 89.2989L45.1301 89.7133V89.7106Z" fill="#FEFEFE"/>
<path d="M43.8594 90.5596L53.6339 91.7337L53.7133 89.0254L54.4162 89.0439L54.3169 92.528L43.7773 91.2599L43.8594 90.5596Z" fill="#FEFEFE"/>
<path d="M64.1505 90.0911L63.5323 100.997L62.8281 100.959L63.4463 90.0527L64.1505 90.0911Z" fill="#FEFEFE"/>
<path d="M62.7423 104.846L75.7837 106.442L82.1046 98.9668L83.0312 99.8934L82.5308 100.394L82.1469 100.01L76.0763 107.19L62.6562 105.547L62.7423 104.846Z" fill="#FEFEFE"/>
<path d="M76.2794 106.826L76.2199 109.268L75.5156 109.251L75.5765 106.809L76.2794 106.826Z" fill="#FEFEFE"/>
<path d="M63.1523 100.626L82.0963 99.1367L82.1519 99.8409L63.2079 101.33L63.1523 100.626Z" fill="#FEFEFE"/>
<path d="M95.786 96.0087C95.7767 95.879 95.7741 95.7545 95.7728 95.638C95.7701 95.4607 95.7662 95.3031 95.7198 95.0556C95.6576 94.6029 95.6205 94.129 95.5742 93.6723L107.451 86.5625L107.812 87.1674L96.3208 94.0469L96.4148 94.9391C96.4691 95.2303 96.473 95.4183 96.477 95.6288C96.4783 95.7201 96.481 95.8194 96.4902 95.961L95.786 96.0113V96.0087Z" fill="#FEFEFE"/>
<path d="M95.9062 93.5088L107.922 92.0156L108.008 92.7172L95.991 94.2104L95.9062 93.5088Z" fill="#FEFEFE"/>
<path d="M62.0787 88.3144L63.916 89.7175C69.939 89.601 76.0745 89.3667 82.0856 89.3667L95.2541 86.2599L107.807 79.2852L108.149 79.9007L95.5043 86.9258C91.0552 87.9636 86.6088 89.0239 82.1624 90.0736C76.0494 90.0736 69.804 90.3 63.6804 90.427L61.6484 88.8743L62.076 88.3144H62.0787Z" fill="#FEFEFE"/>
<path d="M82.3861 89.7214L82.3371 99.2629L82.6522 99.2285L82.7263 99.9301L81.6289 100.049L81.6832 89.7188L82.3861 89.7214Z" fill="#FEFEFE"/>
<path d="M95.6536 86.373L95.8415 86.6087L96.2956 93.8376L95.5913 93.8813L95.1505 86.8734L95.1016 86.8112L95.1452 86.7768L95.1439 86.7622H95.1638L95.6536 86.373Z" fill="#FEFEFE"/>
<path d="M35.7186 61.3534C41.5364 65.1168 47.3542 68.8815 50.4398 70.6725C51.9582 71.5541 52.7974 71.9486 53.2779 72.1008C53.5175 72.1763 53.6115 72.1829 53.6591 72.1697C53.5678 71.9976 53.3309 71.709 52.8543 71.2073C52.3169 70.6421 51.4895 69.8293 50.5484 68.9358C49.6138 68.0489 48.572 67.0865 47.5925 66.2129C46.7082 65.4239 45.8729 64.7025 45.1277 64.075C44.1918 63.2874 43.387 62.6361 42.7992 62.1768C42.2843 61.773 41.9441 61.5229 41.6489 61.3322C41.3603 61.1469 41.1088 61.0132 40.7673 60.8425C40.4205 60.6691 39.9797 60.4573 39.4912 60.2243L37.9371 59.4896L38.2376 58.8516L39.793 59.5862C40.2815 59.8179 40.7263 60.0323 41.081 60.2097C41.4411 60.3897 41.7098 60.5314 42.0288 60.7379C42.3412 60.9404 42.696 61.2012 43.2321 61.6221C43.8172 62.0802 44.6273 62.7354 45.5791 63.5376C46.3376 64.1756 47.1795 64.9024 48.0597 65.6887C49.0565 66.5782 50.1036 67.5445 51.0315 68.4261C51.9807 69.3263 52.8159 70.1483 53.3626 70.7215C53.9305 71.3185 54.2045 71.6719 54.3144 71.9076C54.5116 72.3351 54.366 72.5125 54.1383 72.6978C53.9636 72.8395 53.7346 72.9864 53.0621 72.7733C52.5406 72.6078 51.655 72.1948 50.0837 71.2828C46.9902 69.4865 41.1604 65.7151 35.332 61.9438L35.7159 61.3534H35.7186Z" fill="#FEFEFE"/>
<path d="M38.4531 63.4947C38.9072 62.9387 39.3639 62.3827 39.7914 61.9962C40.0125 61.7963 40.2256 61.6427 40.4321 61.5223C40.6413 61.4005 40.8359 61.3105 41.0238 61.2377C41.2038 61.1675 41.3865 61.108 41.5679 61.055C41.7717 60.9954 41.9266 60.9557 42.0788 60.916L42.2536 61.6004C42.0735 61.6467 41.8962 61.6917 41.7651 61.7301C41.6102 61.7751 41.4501 61.8281 41.2819 61.8929C41.1205 61.9565 40.9576 62.0306 40.7922 62.1272C40.6254 62.2265 40.4506 62.3523 40.2653 62.5191C39.8801 62.8672 39.4406 63.4046 39.0012 63.9408L38.4545 63.4933L38.4531 63.4947Z" fill="#FEFEFE"/>
<path d="M47.4737 65.9067L47.475 65.9001C47.5518 65.3176 47.6286 64.7365 47.7424 64.4188C47.8285 64.1792 47.9463 64.0482 48.0919 63.9767C48.2454 63.9012 48.3738 63.9078 48.5128 63.9237L48.6399 63.9409C48.7273 63.9528 48.8199 63.9661 48.8914 63.9687C48.9047 63.9078 48.9179 63.8139 48.9298 63.6735C48.9536 63.3876 48.9642 62.968 48.951 62.5576C48.9391 62.2307 48.9113 61.9037 48.861 61.6522C48.812 61.4086 48.7445 61.2537 48.6717 61.1518C48.6081 61.0631 48.5287 61.0062 48.4546 60.9612L48.3805 60.9109C48.3765 60.9109 48.3712 60.9387 48.3262 61.0142C48.2269 61.1849 48.1144 61.4775 48.0005 61.774C47.8854 62.0731 47.7676 62.3802 47.6484 62.6093C47.5028 62.8872 47.3519 63.0633 47.1864 63.1798C47.0104 63.3042 46.837 63.3558 46.6464 63.3889C46.4729 63.4181 46.2757 63.4326 46.1102 63.4247C45.9143 63.4154 45.737 63.3704 45.6258 63.2791C45.3809 63.0805 45.4272 62.927 45.5238 62.6066C45.5556 62.4994 45.5993 62.3524 45.635 62.1618C45.6827 61.9103 45.7211 61.5675 45.7422 61.2273C45.7634 60.8937 45.77 60.5641 45.7528 60.3245C45.7396 60.1206 45.7118 59.9988 45.6734 59.9247C45.6496 59.8797 45.6099 59.8493 45.5622 59.8201C45.4854 59.7738 45.3915 59.7328 45.2988 59.7037C45.2286 59.6811 45.1611 59.6666 45.1082 59.6639C45.0844 59.7037 45.0566 59.7751 45.0208 59.8863L44.9202 60.2212C44.8117 60.5998 44.678 61.0605 44.4821 61.3954C44.355 61.6125 44.2054 61.7687 44.0571 61.8772C43.844 62.0334 43.6243 62.097 43.4667 62.1062C43.2139 62.1195 43.0511 62.0281 42.9571 61.823C42.8975 61.6932 42.8922 61.5357 42.9267 61.3371C42.9399 61.2551 42.9624 61.1624 42.9862 61.0578C43.0392 60.8249 43.1093 60.5178 43.1358 60.1445C43.1543 59.8784 43.1517 59.5739 43.1305 59.2867C43.1107 59.01 43.0736 58.7559 43.0233 58.5758C42.9836 58.4342 42.9412 58.3508 42.8936 58.3031C42.8565 58.2661 42.8009 58.2423 42.7387 58.2211C42.6619 58.1946 42.5825 58.1747 42.5203 58.1761C42.4951 58.1761 42.4713 58.1827 42.4581 58.1972C42.4131 58.2449 42.372 58.3442 42.3336 58.4713C42.2846 58.6328 42.2476 58.8207 42.2158 59.0087L42.1814 59.2112C42.1232 59.5647 42.0676 59.8996 41.9458 60.1709C41.7882 60.5257 41.5539 60.7123 41.3223 60.8977L41.2985 60.9175L41.0946 60.6144L40.8828 60.3483L40.9053 60.3298C41.0628 60.204 41.2164 60.0756 41.3011 59.8837C41.3858 59.6944 41.4335 59.4032 41.4838 59.0961L41.5182 58.8909C41.5553 58.6751 41.5976 58.458 41.6546 58.2687C41.7221 58.0463 41.8134 57.8517 41.9418 57.7154C42.102 57.546 42.2952 57.4798 42.4964 57.4732C42.6606 57.4679 42.8208 57.5049 42.9624 57.5526C43.1173 57.6055 43.2602 57.673 43.3953 57.8107C43.521 57.9404 43.6256 58.1191 43.6997 58.3892C43.7633 58.6182 43.8083 58.9213 43.8308 59.2377C43.8546 59.5554 43.8572 59.8956 43.8361 60.1961C43.8056 60.621 43.7288 60.9586 43.6693 61.2167L43.6507 61.2988C43.7249 61.2405 43.8017 61.1571 43.8705 61.0406C44.0174 60.7904 44.1379 60.3735 44.2372 60.0293L44.3457 59.6692C44.4225 59.4336 44.5032 59.2761 44.6025 59.1662C44.7442 59.0087 44.8964 58.9584 45.0883 58.9584C45.2141 58.9584 45.3623 58.9875 45.5106 59.0338C45.6509 59.0788 45.7965 59.1437 45.9196 59.2178C46.0692 59.3079 46.195 59.4124 46.2929 59.5991C46.3763 59.7579 46.4319 59.9697 46.4518 60.2808C46.4703 60.5508 46.4637 60.9135 46.4412 61.2749C46.4174 61.6429 46.375 62.0162 46.3234 62.2955C46.289 62.4769 46.2519 62.6159 46.2201 62.7257C46.3167 62.7244 46.424 62.7138 46.5233 62.6966C46.6199 62.6794 46.7046 62.6569 46.7734 62.6079C46.8529 62.5523 46.9323 62.4544 47.0197 62.2863C47.1242 62.0877 47.2328 61.8031 47.3387 61.5264C47.4644 61.1968 47.5889 60.8752 47.712 60.6647C47.8814 60.3735 48.0694 60.2477 48.2732 60.2159C48.4784 60.1855 48.6452 60.2583 48.8146 60.3615C48.9536 60.4436 49.1019 60.5522 49.2396 60.7441C49.368 60.9228 49.4805 61.1664 49.5506 61.5172C49.6076 61.7978 49.638 62.1658 49.6512 62.5351C49.6671 62.9852 49.6552 63.4353 49.6301 63.7344C49.6036 64.0521 49.5559 64.2467 49.4858 64.3738C49.3627 64.5975 49.2131 64.6531 49.0291 64.6716C48.8729 64.6875 48.7021 64.6637 48.5433 64.6412L48.4281 64.6253C48.4003 64.6227 48.4228 64.5975 48.4003 64.6081C48.3857 64.616 48.4149 64.6147 48.399 64.6571C48.3103 64.9033 48.2388 65.4473 48.1673 65.9927L48.166 65.9993L47.4671 65.908L47.4737 65.9067ZM46.0692 62.735L46.0798 62.7377C46.0374 62.7072 46.0123 62.6887 46.0692 62.735Z" fill="#FEFEFE"/>
<path d="M54.0199 80.1294C54.0543 79.4384 54.0874 78.7475 54.1311 78.1544C54.1761 77.5336 54.233 76.9763 54.3124 76.5487C54.462 75.7426 54.6884 75.4011 54.8883 75.1032L54.9492 75.0106C55.0392 74.8716 55.1186 74.7326 55.1768 74.6081C55.2192 74.5155 55.251 74.4347 55.2655 74.3725C55.1954 74.3063 55.0511 74.2084 54.8088 74.0522C54.515 73.8616 54.1205 73.6153 53.73 73.3744C53.3276 73.1256 52.8921 72.8621 52.5413 72.653C52.254 72.4809 52.0568 72.3671 51.9324 72.3512C51.8807 72.3445 51.8225 72.3882 51.7338 72.5047C51.5829 72.7033 51.4042 73.0355 51.2295 73.4221C51.0335 73.8549 50.8469 74.3474 50.7079 74.7935C50.5755 75.2197 50.4842 75.6049 50.4207 75.9848C50.3571 76.3661 50.3201 76.7499 50.2936 77.1682C50.2684 77.5746 50.2525 78.0009 50.2446 78.394C50.2367 78.8534 50.238 79.2822 50.2472 79.596C50.2631 80.1533 50.3055 80.332 50.3479 80.5093L50.3571 80.5504V80.5888H50.0024L49.6595 80.6682C49.6105 80.4604 49.5616 80.2512 49.543 79.6132C49.5338 79.2915 49.5324 78.852 49.5404 78.3808C49.5483 77.9585 49.5642 77.5177 49.5893 77.1219C49.6171 76.6824 49.6569 76.2774 49.7257 75.867C49.7945 75.454 49.8925 75.0397 50.0341 74.5817C50.1824 74.1078 50.3796 73.5862 50.5848 73.1295C50.7794 72.6993 50.9859 72.3181 51.1725 72.0745C51.4386 71.729 51.6875 71.6072 52.0158 71.6483C52.2712 71.68 52.5307 71.8256 52.8987 72.0441C53.2151 72.2307 53.6545 72.4981 54.098 72.7721C54.5242 73.0342 54.924 73.2857 55.1888 73.4565C55.4959 73.6537 55.6759 73.7808 55.7871 73.8973C55.9737 74.0919 56.0002 74.2441 55.9658 74.4599C55.9446 74.587 55.8903 74.7418 55.8136 74.9047C55.7408 75.0622 55.6441 75.2316 55.5382 75.3958L55.476 75.4911C55.3132 75.7333 55.1292 76.01 55.0061 76.6745C54.9333 77.0676 54.879 77.6011 54.8353 78.2021C54.7903 78.8309 54.7572 79.4967 54.7241 80.1612L54.0199 80.1281V80.1294Z" fill="#FEFEFE"/>
<path d="M44.9327 75.441C44.9154 75.2054 44.9141 74.8625 44.9247 74.48C44.9353 74.0736 44.9605 73.6354 44.9922 73.241C45.0253 72.8452 45.0677 72.4758 45.118 72.133C45.1696 71.7915 45.2318 71.4751 45.3046 71.1799C45.3774 70.886 45.4608 70.6173 45.5535 70.3724C45.6475 70.1222 45.7481 69.8985 45.85 69.7013C45.9493 69.5107 46.0565 69.3333 46.1584 69.1824C46.2723 69.0116 46.3848 68.874 46.4761 68.7866C46.8097 68.4663 46.8931 68.5152 47.7575 69.0368L47.8833 69.1122C48.5663 69.5252 49.7259 70.2242 50.3361 70.6226C50.6896 70.8529 50.8683 70.9933 50.9543 71.1177C51.1595 71.4129 51.0616 71.5519 50.8868 71.7557L50.8206 71.8312C50.6962 71.9728 50.5148 72.1793 50.3785 72.4255C50.2978 72.5725 50.2289 72.7366 50.172 72.9312C50.1124 73.1377 50.0635 73.38 50.0264 73.6699C49.9774 74.0471 49.947 74.5316 49.9218 74.9406C49.9086 75.1577 49.8953 75.351 49.8795 75.5337C49.849 75.862 49.8053 76.0486 49.5776 76.1969C49.4042 76.3094 49.1792 76.3319 48.7768 76.3412C48.4326 76.3491 47.9217 76.3491 47.412 76.3451C46.9222 76.3412 46.4364 76.3306 46.1002 76.316C45.6898 76.2988 45.4476 76.2697 45.2623 76.1505C45.024 75.997 44.9591 75.7918 44.934 75.4384L44.9327 75.441ZM45.6276 74.4998C45.6184 74.8506 45.6197 75.1683 45.6356 75.3907C45.6435 75.5072 45.6356 75.5562 45.6409 75.5602C45.6885 75.5919 45.8434 75.6025 46.128 75.6144C46.4682 75.629 46.9447 75.6396 47.416 75.6435C47.9177 75.6475 48.4207 75.6475 48.7622 75.6396C49.0283 75.6343 49.1646 75.6277 49.1938 75.6091C49.2202 75.5919 49.1699 75.576 49.1792 75.4728L49.2189 74.8983C49.2441 74.4893 49.2758 74.0048 49.3288 73.5838C49.3711 73.2542 49.4267 72.9762 49.4969 72.7366C49.571 72.4838 49.6584 72.2733 49.7603 72.088C49.9192 71.7994 50.1071 71.5757 50.2488 71.4155L49.9523 71.2157C49.3831 70.8437 48.2089 70.1355 47.5179 69.7185L47.3935 69.6431C46.9487 69.3757 47.0202 69.242 46.9633 69.2962C46.909 69.3492 46.8309 69.4471 46.7422 69.5795C46.6575 69.7039 46.5661 69.8562 46.4761 70.0283C46.3808 70.2123 46.2921 70.4095 46.2127 70.6226C46.1306 70.8424 46.0552 71.0846 45.989 71.3507C45.9228 71.6167 45.8659 71.9133 45.8156 72.2402C45.7666 72.5659 45.7269 72.9193 45.6951 73.3019C45.662 73.7082 45.6369 74.1332 45.6276 74.5012V74.4998Z" fill="#FEFEFE"/>
</svg>
