<svg width="120" height="120" viewBox="0 0 120 120" fill="none" xmlns="http://www.w3.org/2000/svg">
<path d="M43.1697 12.0194C43.791 12.0694 44.4276 12.2223 45.0642 12.4725C45.6883 12.7186 46.3152 13.0605 46.9296 13.4956C47.5412 13.9279 48.1361 14.4505 48.7157 15.069C49.2926 15.6834 49.8555 16.3965 50.406 17.2138C50.9592 18.0367 51.5013 18.968 52.0017 19.9674C52.4854 20.9334 52.9302 21.9592 53.3083 23.0059C53.6864 24.0526 54.0019 25.1229 54.2562 26.2001C54.5217 27.3232 54.7261 28.4672 54.872 29.6125C55.0152 30.7273 55.1014 31.8379 55.1361 32.9652C55.1709 34.0939 55.1528 35.2351 55.0847 36.4054C55.0124 37.6411 54.8859 38.9102 54.6913 40.1682C54.5134 41.3205 54.2785 42.4714 53.9755 43.5848C53.6586 44.7537 53.2652 45.8866 52.7509 47.0028C52.2394 48.1161 51.6083 49.2073 50.8146 50.2943C50.0321 51.3659 49.0924 52.4307 48.1014 53.3967C47.0839 54.3878 46.0066 55.2816 44.9808 55.9793C43.9592 56.6743 42.989 57.1775 42.073 57.5486C41.1556 57.9198 40.291 58.1616 39.4848 58.3326C38.6786 58.5036 37.9252 58.605 37.1941 58.6314C36.4616 58.6592 35.7568 58.6092 35.0521 58.4799C34.3502 58.3507 33.6468 58.1394 32.9449 57.8572C32.2513 57.5778 31.5521 57.2234 30.8501 56.8064C30.1482 56.3894 29.4435 55.9071 28.7568 55.2982C28.0674 54.688 27.396 53.9527 26.7677 53.0353C26.12 52.0887 25.5154 50.9448 25.015 49.6715C24.5493 48.4873 24.1712 47.1862 23.9308 45.8227C23.6945 44.4883 23.5902 43.0871 23.586 41.6735C23.5819 40.1153 23.7028 38.5433 23.9085 37.0309C24.1045 35.5867 24.3769 34.194 24.7648 32.8137C25.154 31.4307 25.6599 30.0587 26.3216 28.6618C26.9192 27.3983 27.6448 26.1153 28.4149 24.881C29.3406 23.3979 30.3414 21.9731 31.2713 20.7319C32.1192 19.599 32.9059 18.6233 33.6468 17.7754C34.3919 16.9219 35.0924 16.1949 35.7624 15.5667C36.4365 14.9342 37.0843 14.4005 37.7098 13.9487C38.3408 13.4956 38.951 13.1272 39.5473 12.8325C40.1506 12.5337 40.7441 12.3071 41.3377 12.1667C41.9409 12.0263 42.5469 11.9721 43.1683 12.0222L43.1697 12.0194ZM44.8085 13.13C44.2372 12.9048 43.6673 12.7686 43.1154 12.7241C42.5678 12.6796 42.0326 12.7269 41.5003 12.852C40.9596 12.9785 40.4175 13.187 39.8615 13.4622C39.2985 13.7416 38.7203 14.0891 38.124 14.5186C37.5235 14.9509 36.8994 15.4666 36.2475 16.0782C35.5914 16.6926 34.9061 17.4042 34.1792 18.2368C33.4467 19.075 32.671 20.0383 31.837 21.153C30.9252 22.3707 29.9397 23.7746 29.0167 25.2521C28.2578 26.4684 27.5461 27.7277 26.9623 28.9606C26.3188 30.3214 25.8253 31.6558 25.4472 33.0027C25.0678 34.3524 24.8009 35.7146 24.6105 37.1227C24.4089 38.6086 24.2908 40.1487 24.2936 41.6707C24.2963 43.0371 24.3992 44.3965 24.6299 45.6989C24.8621 47.0153 25.2262 48.2704 25.6752 49.413C26.1561 50.6376 26.7344 51.7329 27.3529 52.6364C27.9465 53.5051 28.5775 54.1974 29.2252 54.77C29.8744 55.3441 30.5444 55.8028 31.2129 56.2017C31.8774 56.5979 32.5445 56.9343 33.2104 57.2039C33.8692 57.4694 34.5267 57.6668 35.1814 57.7877C35.8347 57.9086 36.4907 57.9531 37.1704 57.9281C37.8529 57.9031 38.5674 57.8058 39.3388 57.6418C40.1089 57.4777 40.9345 57.2484 41.8089 56.894C42.6846 56.5395 43.6117 56.0586 44.5847 55.3969C45.5771 54.7214 46.6224 53.854 47.6107 52.8908C48.5781 51.947 49.4914 50.9142 50.2461 49.88C51.0092 48.8348 51.6167 47.7839 52.1101 46.7095C52.6022 45.6392 52.983 44.5397 53.293 43.3999C53.5877 42.3129 53.8184 41.1884 53.9921 40.0611C54.184 38.8157 54.3091 37.5703 54.3786 36.3679C54.4453 35.2087 54.4634 34.0869 54.43 32.9847C54.3966 31.8796 54.3105 30.7913 54.1715 29.7015C54.0297 28.5923 53.8295 27.4733 53.5668 26.36C53.3166 25.3036 53.0094 24.2611 52.6439 23.2464C52.2727 22.2192 51.8404 21.2184 51.3706 20.2815C50.8855 19.3127 50.3587 18.4078 49.8194 17.6058C49.2926 16.8232 48.7533 16.1407 48.2014 15.5528C47.6524 14.9662 47.0922 14.4741 46.5237 14.071C45.9608 13.6721 45.3839 13.358 44.8085 13.1314V13.13Z" fill="#FEFEFE"/>
<path d="M27.8164 53.6789C28.2473 53.4816 28.6796 53.2828 29.1508 53.0826C29.6137 52.8866 30.0988 52.6976 30.6256 52.5211C31.151 52.3445 31.7209 52.1819 32.3353 52.0318C32.9455 51.8831 33.6016 51.7455 34.3077 51.619C34.9985 51.4953 35.738 51.3799 36.4914 51.2798C37.2614 51.177 38.0523 51.0866 38.8265 51.0143C39.5855 50.9434 40.318 50.8892 41.0102 50.8531C41.7122 50.8169 42.3891 50.7961 43.0257 50.7933C43.6609 50.7905 44.2461 50.8044 44.7896 50.8392C45.3484 50.8739 45.8669 50.9281 46.3547 51.0032C47.3264 51.1533 48.2034 51.3924 49.0791 51.6315L48.8943 52.3112C48.0492 52.0804 47.2026 51.8497 46.2463 51.7024C45.771 51.6287 45.2733 51.5773 44.7479 51.5439C44.2072 51.5106 43.6359 51.4967 43.0285 51.498C42.4155 51.5008 41.7497 51.5203 41.0464 51.5578C40.35 51.594 39.6258 51.6468 38.8905 51.7163C38.1371 51.7872 37.3559 51.8761 36.5859 51.979C35.8436 52.0777 35.1153 52.1916 34.4328 52.314C33.7433 52.4377 33.1012 52.5725 32.5021 52.7185C31.9099 52.863 31.3595 53.0201 30.8494 53.1911C30.3392 53.3606 29.8708 53.5441 29.4246 53.7332C28.9854 53.9194 28.5475 54.1196 28.1097 54.3211L27.8164 53.6803V53.6789Z" fill="#FEFEFE"/>
<path d="M46.5745 54.7201L46.5606 54.7229C45.0984 55.0343 43.6347 55.3456 41.925 55.5778C41.0285 55.6987 40.0721 55.7974 39.095 55.8585C38.2054 55.9155 37.2894 55.9419 36.3762 55.9294C35.5185 55.9183 34.6818 55.8724 33.9089 55.8085C32.9373 55.7293 32.0422 55.6208 31.3138 55.5152C30.0072 55.3276 29.2455 55.1496 28.4866 54.9745L28.4727 54.9703L28.6381 54.2851L28.6436 54.2864C29.3887 54.4588 30.1365 54.6326 31.4125 54.816C32.1228 54.9189 33.0013 55.0245 33.9631 55.1038C34.7429 55.1677 35.5672 55.2136 36.3845 55.2247C37.2671 55.2372 38.1665 55.2094 39.0505 55.1538C40.0166 55.0926 40.9562 54.9967 41.8305 54.8786C43.4985 54.6534 44.9552 54.342 46.4133 54.0321L46.4272 54.0293L46.5732 54.7201H46.5745Z" fill="#FEFEFE"/>
<path d="M72.3782 52.2885C72.9022 53.2407 73.5041 54.0955 74.1699 54.8489C74.8551 55.6245 75.6099 56.2959 76.4189 56.863C77.2153 57.4218 78.0716 57.8805 78.932 58.2585C79.7896 58.6352 80.6528 58.9313 81.4659 59.162C82.2749 59.3928 83.0297 59.5582 83.8428 59.6513C84.6587 59.7444 85.5358 59.7653 86.5853 59.7027C87.7334 59.636 89.0914 59.4706 90.5106 59.1648C91.6963 58.9104 92.9223 58.5588 94.1024 58.0876C95.3964 57.5705 96.6447 56.9075 97.8136 56.1207C98.9868 55.3326 100.081 54.418 101.065 53.4033C102.009 52.4289 102.852 51.3614 103.585 50.2563C104.377 49.0623 105.04 47.8266 105.561 46.6229C106.063 45.465 106.439 44.3294 106.715 43.1479C106.992 41.9664 107.17 40.7404 107.278 39.3991C107.392 37.991 107.43 36.4607 107.367 34.8872C107.31 33.4416 107.17 31.9543 106.926 30.4851C106.675 28.9561 106.309 27.4396 105.813 25.9356C105.317 24.4344 104.689 22.9485 103.912 21.4807C103.14 20.024 102.22 18.5812 101.25 17.269C100.256 15.9263 99.2092 14.7198 98.2126 13.776C97.2368 12.8516 96.3125 12.1816 95.4479 11.6896C94.5903 11.2017 93.7896 10.8903 93.0599 10.6832C92.3343 10.4775 91.6838 10.3733 91.068 10.3566C90.4522 10.3413 89.8601 10.4108 89.2541 10.5512C88.648 10.6916 88.0281 10.9015 87.3414 11.2476C86.6478 11.5964 85.8792 12.0871 84.9826 12.7849C84.0319 13.5244 82.9421 14.4904 81.8246 15.6108C80.8085 16.6296 79.766 17.7805 78.7805 19.0079C77.7574 20.2825 76.7942 21.6392 75.9185 23.0264C75.0191 24.4511 74.2074 25.9092 73.5152 27.3423C72.8327 28.7531 72.2642 30.1417 71.7985 31.5581C71.3329 32.9732 70.9715 34.4146 70.7032 35.9338C70.4308 37.4726 70.2529 39.0877 70.1834 40.6751C70.1139 42.2347 70.1458 43.7692 70.289 45.1815C70.4322 46.5979 70.6907 47.8933 71.0452 49.0776C71.3982 50.2549 71.8486 51.3225 72.3795 52.2885H72.3782ZM73.6431 55.3145C72.9397 54.5194 72.3073 53.6229 71.7596 52.6277C71.205 51.6199 70.7352 50.5065 70.3668 49.2778C70.0013 48.056 69.7344 46.7174 69.5857 45.2496C69.4397 43.804 69.4063 42.2347 69.4772 40.6445C69.5495 39.0196 69.7302 37.3739 70.0068 35.8129C70.282 34.2603 70.6518 32.7869 71.1272 31.3399C71.6025 29.8957 72.1822 28.4779 72.8799 27.0365C73.5833 25.5798 74.4075 24.0994 75.3222 22.6525C76.2131 21.2416 77.1931 19.8614 78.2314 18.5673C79.2322 17.3204 80.2914 16.1515 81.3242 15.1159C82.4681 13.9678 83.5815 12.9809 84.5475 12.2289C85.4788 11.5047 86.285 10.9904 87.0217 10.6207C87.7654 10.2454 88.4381 10.0174 89.0956 9.86591C89.7545 9.71301 90.4022 9.63795 91.0833 9.65463C91.7644 9.6727 92.4733 9.7839 93.2531 10.0049C94.0273 10.2259 94.8794 10.5567 95.7954 11.078C96.7044 11.5951 97.6774 12.2998 98.6977 13.2658C99.7221 14.236 100.797 15.4745 101.814 16.8492C102.807 18.192 103.748 19.6668 104.534 21.1513C105.334 22.6594 105.977 24.1801 106.483 25.7146C106.989 27.2464 107.362 28.7976 107.621 30.3725C107.869 31.8709 108.012 33.386 108.07 34.8594C108.134 36.4704 108.097 38.0286 107.981 39.4533C107.87 40.8294 107.687 42.0901 107.402 43.3064C107.117 44.5226 106.729 45.6972 106.206 46.9009C105.666 48.1463 104.985 49.4196 104.171 50.6455C103.415 51.7853 102.545 52.8876 101.569 53.8939C100.553 54.942 99.4205 55.8872 98.2042 56.7045C96.9963 57.5177 95.7036 58.2043 94.3609 58.7395C93.1349 59.2287 91.8714 59.5915 90.6566 59.8529C89.2026 60.1656 87.8071 60.3352 86.6228 60.4047C85.5303 60.4686 84.6143 60.4478 83.7622 60.3505C82.9046 60.2532 82.1137 60.0794 81.2713 59.839C80.4346 59.6013 79.5422 59.2941 78.647 58.9021C77.7519 58.5101 76.8567 58.0278 76.0144 57.437C75.1609 56.838 74.3631 56.1291 73.6417 55.3131L73.6431 55.3145Z" fill="#FEFEFE"/>
<path d="M73.1562 54.0833C73.9124 53.6469 74.6686 53.2104 75.472 52.792C76.2879 52.3681 77.1678 51.9525 78.1727 51.5591C79.2013 51.156 80.3592 50.7751 81.6199 50.4374C82.8098 50.1177 84.0969 49.8341 85.4591 49.6034C86.7907 49.3782 88.1988 49.2017 89.6249 49.0696C91.1664 48.9278 92.726 48.8375 94.2327 48.7944C95.4768 48.7583 96.6888 48.7541 97.8008 48.7652C99.277 48.7819 100.564 48.8291 101.518 48.8764C103.211 48.9598 103.872 49.0418 104.527 49.1224L104.535 49.1238L104.453 49.8244L104.444 49.823C103.789 49.7424 103.129 49.6604 101.484 49.5797C100.528 49.5325 99.2436 49.4852 97.7953 49.4685C96.6944 49.456 95.4921 49.4616 94.2522 49.4977C92.7579 49.5408 91.2137 49.6298 89.6888 49.7702C88.2891 49.8994 86.8991 50.0732 85.5745 50.2984C84.2414 50.5249 82.9766 50.8029 81.802 51.1185C80.5663 51.4507 79.4335 51.8218 78.4299 52.2152C77.4555 52.5974 76.5979 53.0019 75.7972 53.4175C74.9855 53.8401 74.2474 54.2668 73.5093 54.6935L73.1562 54.0833Z" fill="#FEFEFE"/>
<path d="M73.9453 54.6987L73.9662 54.7028C77.2952 55.4159 80.6229 56.129 83.6433 56.4417C85.157 56.5988 86.5971 56.6558 87.9662 56.646C89.3367 56.6363 90.6406 56.5585 91.879 56.4431C93.1064 56.3291 94.2837 56.1776 95.436 56.0066C96.5967 55.8343 97.7017 55.6466 98.8068 55.459L98.9221 56.154C97.7976 56.3444 96.6731 56.5348 95.5375 56.7044C94.3935 56.874 93.2079 57.0269 91.9416 57.1437C90.6864 57.259 89.3618 57.3383 87.9676 57.3494C86.572 57.3591 85.1056 57.3007 83.5697 57.1423C80.5019 56.824 77.1604 56.1081 73.8202 55.3923L73.8008 55.3881L73.944 54.6973L73.9453 54.6987Z" fill="#FEFEFE"/>
<path d="M15.8329 60.0371L108.495 67.4249L117.04 60.9253L117.468 61.4855L108.707 68.1505L15.7773 60.7418L15.8329 60.0371Z" fill="#FEFEFE"/>
<path d="M108.955 67.7812L109.017 70.1011L108.313 70.1164L108.25 67.7965L108.955 67.7812Z" fill="#FEFEFE"/>
<path d="M16.3587 72.758L16.7131 84.2213L107.769 97.2288L108.546 82.4615L16.3573 72.758H16.3587ZM16.0181 84.5382L15.6289 71.9727C46.8482 75.2572 78.0688 78.5279 109.285 81.8319C108.996 87.2334 108.713 92.6363 108.432 98.0378C77.631 93.6343 46.8287 89.2378 16.0264 84.837L16.0167 84.5396L16.0181 84.5382Z" fill="#FEFEFE"/>
<path d="M108.653 81.9121L117.465 72.082C117.218 77.1875 116.965 82.2943 116.723 87.3998C111.843 95.0572 106.994 102.737 102.131 110.404L102.039 106.436L107.803 97.4425L108.397 97.8233L102.748 106.637L102.781 108.061L116.028 87.176L116.665 74.028L109.177 82.3805L108.651 81.9107L108.653 81.9121Z" fill="#FEFEFE"/>
<path d="M102.415 109.585C71.0544 106.097 34.2084 97.9076 2.47767 92.4783L2.39844 89.002L102.45 106.191L102.332 106.886L3.12262 89.8415L3.16988 91.8806L101.941 108.822L102.493 108.883L102.415 109.584V109.585Z" fill="#FEFEFE"/>
<path d="M2.64453 89.0906L16.2512 84.1992L16.4889 84.8622L2.88222 89.7522L2.64453 89.0906Z" fill="#FEFEFE"/>
<path d="M19.2077 62.3471L19.8027 63.8789L19.109 64.9325L19.7874 65.95L18.9561 67.4887L19.8179 68.4728L19.0673 70.2659L19.6553 71.7212L107.827 80.8979L114.386 73.4323L113.964 71.7726L114.611 70.2603L114.091 68.9746L114.602 66.834L114.26 64.9617L114.953 64.838L115.323 66.8604L114.831 68.9204L115.376 70.2673L114.707 71.8282L115.163 73.6172C112.811 76.2873 110.462 78.9617 108.117 81.6374C78.4701 78.5238 48.8146 75.4325 19.1619 72.3801L18.307 70.2617L18.9992 68.6062L18.1055 67.5846L18.9673 65.9875L18.2667 64.9367L19.0159 63.7955L18.5517 62.6001L19.2091 62.3457L19.2077 62.3471Z" fill="#FEFEFE"/>
<path d="M114.583 72.0524L108.107 78.4784C107.819 78.6702 107.534 78.8676 107.249 79.0622L18.6523 70.6166L18.7191 69.916L107.061 78.338L107.656 77.9321L114.085 71.5534L114.583 72.0538V72.0524Z" fill="#FEFEFE"/>
<path d="M19.4415 68.1914L106.541 76.3409L107.702 76.3076L114.762 70.004L115.231 70.5294L107.98 77.0054C84.7697 77.667 44.2681 71.223 19.3789 68.8934L19.4428 68.1928L19.4415 68.1914Z" fill="#FEFEFE"/>
<path d="M18.5612 67.1855L106.676 74.8347L107.651 74.8069L114.22 68.6909L114.701 69.2066L107.939 75.5033C84.0062 76.158 44.0022 70.1031 18.5 67.8903L18.5612 67.1869V67.1855Z" fill="#FEFEFE"/>
<path d="M19.406 65.6191L105.597 73.3294L107.607 73.2711L114.722 66.5907L115.204 67.1037L107.896 73.9674C83.1664 74.643 45.335 68.6438 19.3477 66.3197L19.4088 65.6191H19.406Z" fill="#FEFEFE"/>
<path d="M19.4401 63.4883L105.663 71.2611L107.546 71.2069L114.364 64.6475L114.852 65.1549L107.838 71.9033C83.2866 72.5622 45.2272 66.5199 19.3789 64.1888L19.4401 63.4883Z" fill="#FEFEFE"/>
<path d="M18.716 64.5854L106.287 72.4527L107.582 72.4152L112.81 67.5919L113.288 68.1104L107.869 73.1102C83.9081 73.7705 44.1501 67.5753 18.6562 65.2845L18.7174 64.584L18.716 64.5854Z" fill="#FEFEFE"/>
<path d="M100.591 111.718C99.7614 111.718 99.008 111.433 98.459 110.975C97.8933 110.501 97.543 109.841 97.543 109.108C97.543 108.988 97.5541 108.868 97.5736 108.744C97.593 108.622 97.6236 108.502 97.6611 108.388L97.757 108.102L102.218 108.865L102.558 108.665L103.203 107.596L103.469 108.245C103.526 108.385 103.57 108.527 103.598 108.672C103.626 108.815 103.641 108.961 103.641 109.109C103.641 109.842 103.291 110.502 102.725 110.976C102.176 111.435 101.421 111.72 100.591 111.72V111.718ZM98.9107 110.433C99.3375 110.79 99.931 111.011 100.591 111.011C101.251 111.011 101.845 110.79 102.272 110.433C102.639 110.125 102.881 109.715 102.926 109.262L102.351 109.601L98.2616 108.901C98.2533 108.965 98.2491 109.034 98.2491 109.107C98.2491 109.621 98.5021 110.089 98.9121 110.433H98.9107Z" fill="#FEFEFE"/>
<path d="M48.0483 102.252C47.2184 102.252 46.4651 101.967 45.916 101.509C45.3503 101.035 45 100.374 45 99.6419C45.0264 99.5182 45.0236 99.1957 45.032 99.0762L51.0923 100.113L50.9214 100.522C50.7059 101.039 50.3042 101.481 49.7871 101.787C49.2951 102.079 48.6946 102.251 48.0496 102.251L48.0483 102.252ZM46.3678 100.967C46.7945 101.324 47.388 101.545 48.0483 101.545C48.5639 101.545 49.0407 101.409 49.4271 101.179C49.669 101.036 49.8761 100.855 50.0359 100.648L45.7297 99.9116C45.8006 100.317 46.0328 100.686 46.3691 100.967H46.3678Z" fill="#FEFEFE"/>
<path d="M6.72794 95.1039C5.89812 95.1039 5.14335 94.8189 4.59569 94.3602C4.02997 93.8862 3.67969 93.226 3.67969 92.4934C3.70054 92.3906 3.68942 92.1181 3.6922 92L9.75813 93.0383L9.56492 93.4553C9.33557 93.9515 8.93525 94.3713 8.42652 94.6632C7.94141 94.9412 7.35622 95.1039 6.72933 95.1039H6.72794ZM5.04883 93.8195C5.47556 94.1767 6.06909 94.3977 6.72794 94.3977C7.22973 94.3977 7.69399 94.2699 8.07485 94.0502C8.3042 93.9182 8.50436 93.7542 8.66281 93.5665L4.42611 92.8409C4.51229 93.2162 4.73469 93.5554 5.05022 93.8181L5.04883 93.8195Z" fill="#FEFEFE"/>
<path d="M26.1115 52.2793C26.6633 53.1466 27.3708 54.1002 28.1117 55.0078C28.9151 55.9933 29.756 56.9246 30.483 57.6405C31.1669 58.3146 31.7437 58.79 32.3664 59.1389C32.985 59.4836 33.6675 59.7102 34.5668 59.8867C35.4731 60.0646 36.5906 60.1883 37.8777 60.2648C39.2274 60.344 40.7592 60.3718 42.4258 60.351C44.0702 60.3301 45.8605 60.262 47.6008 60.1564C49.3132 60.0535 50.9729 59.9117 52.3893 59.7463C53.8015 59.5809 54.9663 59.3905 55.9518 59.1445C56.9248 58.9026 57.7227 58.6079 58.4163 58.2312C59.1043 57.8573 59.6937 57.4 60.2386 56.8357C60.789 56.2658 61.2977 55.5805 61.819 54.7562C62.3889 53.8569 62.9713 52.7964 63.4786 51.6204C63.9082 50.6252 64.2848 49.5479 64.5559 48.4165C64.8533 47.1752 65.0285 45.8575 65.1147 44.5134C65.2008 43.1637 65.1981 41.7946 65.1425 40.4546C65.0855 39.1146 64.9743 37.8039 64.7547 36.45C64.5364 35.099 64.207 33.7034 63.7163 32.1883C63.2298 30.6857 62.5793 29.0636 61.851 27.4929C61.1129 25.9 60.2928 24.3599 59.4782 23.0505C58.672 21.7536 57.8728 20.6833 57.0749 19.7506C56.2715 18.811 55.4709 18.0104 54.6675 17.2584C53.8641 16.5064 53.0537 15.7989 52.2322 15.1692C51.4218 14.5479 50.6073 14.0072 49.7928 13.5832C48.9796 13.1621 48.1609 12.8535 47.3686 12.6283C46.5694 12.4018 45.8007 12.2572 45.0932 12.1668C44.3829 12.0751 43.7324 12.0334 43.1375 12.0431C42.5551 12.0515 42.0213 12.1099 41.5334 12.2155C41.0525 12.3197 40.6174 12.4713 40.2018 12.6589C39.7765 12.8507 39.3706 13.0787 38.9564 13.3317C38.5352 13.5874 38.1057 13.8696 37.647 14.2101C37.1911 14.5479 36.7046 14.9482 36.1681 15.4431C35.644 15.9268 35.0755 16.4995 34.4917 17.125C33.8676 17.7921 33.2338 18.5108 32.625 19.235C32.0273 19.9466 31.4407 20.6778 30.8597 21.4631C30.2856 22.2387 29.7157 23.07 29.1444 23.9901C28.5509 24.9451 27.9588 25.9903 27.4111 27.069C26.9037 28.0698 26.4312 29.1039 26.0281 30.1283C25.6111 31.1889 25.2677 32.2439 24.9828 33.292C24.6978 34.3386 24.4727 35.377 24.292 36.4042C24.1113 37.43 23.975 38.4405 23.8819 39.4191C23.7846 40.4296 23.7318 41.4151 23.7221 42.3547C23.7123 43.2763 23.7429 44.1645 23.818 45.0249C23.8916 45.8811 24.007 46.6971 24.1655 47.4755C24.3225 48.2539 24.5241 49.0058 24.8299 49.787C25.1343 50.5682 25.5416 51.3786 26.1128 52.2779L26.1115 52.2793ZM27.564 55.4526C26.8106 54.5269 26.0864 53.5525 25.5179 52.6574C24.9202 51.7163 24.4921 50.8657 24.171 50.0456C23.8513 49.2268 23.6387 48.4359 23.4732 47.6158C23.3078 46.7971 23.1883 45.9562 23.1132 45.0847C23.0396 44.2187 23.0076 43.3083 23.0173 42.3506C23.0284 41.3873 23.0827 40.3823 23.18 39.3537C23.2773 38.3418 23.4149 37.3118 23.5956 36.2832C23.7804 35.2324 24.0098 34.1732 24.3003 33.1071C24.5894 32.0424 24.9411 30.9637 25.3706 29.8726C25.7806 28.8287 26.263 27.7737 26.7814 26.752C27.3416 25.647 27.9449 24.5837 28.5453 23.6176C29.1222 22.6891 29.7032 21.8412 30.2939 21.0433C30.8777 20.2538 31.4727 19.5116 32.087 18.7818C32.7195 18.0298 33.3603 17.3029 33.976 16.644C34.5723 16.0046 35.1548 15.4194 35.6913 14.9246C36.2417 14.4159 36.7491 14.0002 37.2286 13.6444C37.7068 13.29 38.1544 12.9967 38.5894 12.7312C39.0314 12.4615 39.4623 12.2197 39.9127 12.0167C40.3714 11.8096 40.8523 11.6414 41.3847 11.5274C41.9101 11.4135 42.4911 11.3509 43.1291 11.3412C43.756 11.3315 44.4385 11.3745 45.1808 11.4705C45.9258 11.5664 46.7306 11.7165 47.5577 11.9514C48.3917 12.1877 49.2562 12.513 50.1153 12.9591C50.9715 13.4039 51.8208 13.9669 52.6603 14.6105C53.4902 15.2471 54.32 15.9726 55.147 16.7469C55.9741 17.5197 56.7942 18.3398 57.6087 19.2933C58.4302 20.2538 59.2517 21.3533 60.0759 22.6794C60.9044 24.0124 61.7384 25.5789 62.4904 27.1996C63.2284 28.7912 63.8887 30.4411 64.3863 31.9756C64.8881 33.5213 65.2231 34.953 65.4483 36.3402C65.6734 37.7233 65.786 39.0632 65.8444 40.4296C65.9014 41.7959 65.9056 43.1901 65.8166 44.5606C65.7277 45.9367 65.547 47.2948 65.2384 48.5819C64.9548 49.7634 64.567 50.8782 64.125 51.9012C63.601 53.1174 63.0005 54.2114 62.4139 55.1371C61.8704 55.9947 61.3339 56.7161 60.7445 57.3263C60.1496 57.9421 59.506 58.4425 58.7527 58.8526C58.0035 59.2598 57.15 59.5767 56.12 59.8325C55.1025 60.0855 53.9085 60.2815 52.4685 60.451C51.0452 60.6178 49.373 60.7596 47.6397 60.8639C45.905 60.9681 44.1035 61.0376 42.4314 61.0585C40.7384 61.0793 39.1899 61.0529 37.8333 60.9723C36.5086 60.8945 35.3591 60.7652 34.4278 60.5831C33.4576 60.3941 32.7125 60.1439 32.0203 59.7574C31.3323 59.3738 30.7109 58.8623 29.9854 58.1464C29.2431 57.4153 28.3827 56.4618 27.5612 55.4554L27.564 55.4526Z" fill="#FEFEFE"/>
<path d="M70.1394 31.4372C69.9003 32.2573 69.6626 33.2094 69.443 34.2478C69.2387 35.2152 69.0524 36.2577 68.8967 37.3349C68.7327 38.4678 68.6048 39.6451 68.5187 40.8141C68.4353 41.9483 68.3922 43.0687 68.3977 44.1292C68.4019 45.2107 68.4575 46.2406 68.5993 47.279C68.7397 48.3117 68.969 49.3542 69.3221 50.462C69.6738 51.5643 70.1519 52.7361 70.7051 53.88C71.2653 55.0379 71.9019 56.1638 72.5608 57.1549C73.0348 57.8665 73.5199 58.5087 74.0203 59.0814C74.5193 59.6527 75.0363 60.1559 75.5757 60.5951C75.78 60.7619 75.9871 60.9176 76.1942 61.0635C76.3985 61.2067 76.6126 61.3443 76.835 61.4764C77.6315 61.9476 78.4808 62.3006 79.3648 62.5731C80.2572 62.8483 81.1885 63.0443 82.135 63.1986C83.083 63.3528 84.0491 63.4668 85.1777 63.5405C86.3161 63.6142 87.6102 63.6489 89.2059 63.6434C90.8225 63.6378 92.7601 63.5933 94.6881 63.5183C96.5562 63.446 98.4244 63.3445 99.9839 63.225C101.542 63.1054 102.771 62.9678 103.769 62.7982C104.759 62.63 105.524 62.4285 106.164 62.1825C106.559 62.031 106.908 61.86 107.234 61.6515C107.562 61.443 107.875 61.1928 108.199 60.88C108.396 60.691 108.596 60.4783 108.806 60.2406C109.023 59.9932 109.247 59.7236 109.483 59.4275C110.192 58.5379 111.041 57.3703 111.848 56.1179C112.513 55.0838 113.15 53.9912 113.653 52.9529C114.206 51.8103 114.601 50.7275 114.881 49.5891C115.161 48.4493 115.328 47.247 115.425 45.8709C115.531 44.3933 115.556 42.717 115.455 40.9323C115.366 39.3755 115.179 37.7339 114.867 36.0645C114.526 34.2492 114.033 32.4019 113.396 30.5796C112.776 28.8032 112.019 27.0462 111.129 25.3602C110.288 23.7658 109.329 22.2313 108.32 20.7968C107.165 19.1538 105.947 17.6415 104.771 16.3169C103.669 15.0742 102.6 13.9928 101.556 13.081C100.518 12.1733 99.5044 11.4338 98.5092 10.8736C97.5195 10.3149 96.5381 9.92845 95.6069 9.66157C94.6728 9.39469 93.7929 9.24875 93.0062 9.1723C92.2208 9.09585 91.5217 9.0889 90.8684 9.14172C90.2206 9.19454 89.6188 9.30852 89.0266 9.47392C88.4289 9.64072 87.8354 9.86173 87.2224 10.155C86.608 10.4497 85.9672 10.8236 85.275 11.2962C84.5773 11.7716 83.8336 12.3429 83.0719 12.9837C82.3004 13.6356 81.5082 14.3598 80.7242 15.1326C79.9402 15.9054 79.1646 16.7269 78.3973 17.6179C77.6287 18.5089 76.8642 19.4735 76.1025 20.5313C75.4005 21.5057 74.6972 22.5635 74.0467 23.5976C73.2891 24.8 72.6011 25.9745 72.0604 26.9531C71.5628 27.8552 71.1958 28.5822 70.8983 29.2772C70.5995 29.9763 70.366 30.6477 70.1352 31.4372H70.1394ZM68.7522 34.1046C68.9732 33.0552 69.2164 32.0849 69.4625 31.2412C69.7015 30.4211 69.9448 29.7233 70.2534 29.0019C70.5647 28.2764 70.94 27.5299 71.446 26.6139C71.9881 25.6326 72.6831 24.4469 73.4545 23.2223C74.1106 22.1799 74.8209 21.1109 75.5354 20.1199C76.3096 19.0454 77.0866 18.0655 77.8692 17.1578C78.6531 16.2488 79.4412 15.4134 80.2349 14.6308C81.0328 13.8441 81.839 13.106 82.6215 12.4457C83.4097 11.7827 84.1728 11.1961 84.8817 10.7138C85.5989 10.2245 86.2703 9.83393 86.9236 9.52118C87.5769 9.20705 88.2079 8.97214 88.8431 8.79561C89.4825 8.6163 90.1261 8.49537 90.8183 8.43838C91.505 8.38278 92.2431 8.38973 93.0771 8.47174C93.9083 8.55236 94.8326 8.70387 95.8056 8.98326C96.78 9.26265 97.8114 9.66991 98.8594 10.2607C99.9019 10.8472 100.953 11.6145 102.026 12.5514C103.092 13.4827 104.182 14.5863 105.305 15.8512C106.502 17.1995 107.736 18.7327 108.904 20.3909C109.928 21.8476 110.904 23.4072 111.76 25.0321C112.665 26.7474 113.436 28.5377 114.069 30.3488C114.718 32.2073 115.22 34.0893 115.567 35.9366C115.885 37.6352 116.076 39.3087 116.166 40.8947C116.269 42.7142 116.244 44.4197 116.137 45.9223C116.037 47.336 115.863 48.5758 115.573 49.7601C115.281 50.9472 114.871 52.0744 114.295 53.2615C113.778 54.3304 113.126 55.448 112.448 56.5016C111.628 57.7762 110.765 58.9632 110.042 59.8695C109.79 60.1851 109.56 60.4644 109.343 60.7105C109.116 60.9648 108.904 61.19 108.694 61.3916C108.336 61.7349 107.988 62.0143 107.618 62.2492C107.248 62.4841 106.86 62.6745 106.424 62.8427C105.737 63.1082 104.928 63.3209 103.894 63.496C102.867 63.6712 101.619 63.8102 100.042 63.9311C98.5008 64.0492 96.6215 64.1507 94.7186 64.2244C92.7921 64.298 90.8461 64.3439 89.2115 64.3495C87.588 64.355 86.2786 64.3203 85.1402 64.2466C83.9907 64.1716 83.0024 64.0548 82.028 63.8963C81.0522 63.7365 80.0918 63.5349 79.1632 63.2486C78.2264 62.9595 77.3257 62.5856 76.4805 62.0852C76.2526 61.9503 76.0246 61.803 75.7953 61.6432C75.5701 61.4861 75.3491 61.3193 75.135 61.1441C74.5651 60.6799 74.0189 60.1475 73.4935 59.547C72.9694 58.948 72.4662 58.2808 71.977 57.5455C71.3014 56.528 70.6481 55.3743 70.0741 54.1872C69.5097 53.0182 69.0177 51.8145 68.6535 50.6747C68.2865 49.5252 68.0488 48.4452 67.9029 47.3735C67.7569 46.306 67.7014 45.2454 67.6958 44.1334C67.6902 43.0395 67.7333 41.9025 67.8167 40.7655C67.9029 39.5826 68.0349 38.3886 68.2004 37.2376C68.3574 36.1451 68.5479 35.0887 68.755 34.106L68.7522 34.1046Z" fill="#FEFEFE"/>
<path d="M16.1451 60.6919L16.1047 61.8859L108.545 69.7449L116.9 62.4266V61.537L109.02 61.0547L108.691 61.3883C108.332 61.733 107.983 62.0124 107.614 62.2473C107.244 62.4822 106.856 62.6726 106.42 62.8408C105.733 63.1063 104.924 63.319 103.89 63.4941C102.863 63.6693 101.614 63.8083 100.038 63.9292C98.4966 64.0474 96.6173 64.1488 94.7144 64.2225C92.7879 64.2962 90.8419 64.342 89.2073 64.3476C87.5838 64.3532 86.2744 64.3184 85.136 64.2447C83.9865 64.1697 82.9982 64.0529 82.0238 63.8945C81.048 63.7346 80.0875 63.5331 79.159 63.2467C78.2222 62.9576 77.3214 62.5837 76.4763 62.0833C76.2484 61.9485 76.0204 61.8011 75.7911 61.6413C75.5659 61.4842 75.3449 61.3174 75.1308 61.1423C74.7194 60.8073 74.3205 60.4375 73.934 60.0317C73.5838 59.6647 73.2418 59.2672 72.9068 58.8404L59.9604 58.0468C59.7964 58.1788 59.6227 58.3081 59.4392 58.4318C59.2196 58.5819 58.9916 58.7195 58.7567 58.8474C58.0075 59.2547 57.154 59.5716 56.124 59.8273C55.1066 60.0803 53.9126 60.2763 52.4725 60.4459C51.0492 60.6127 49.377 60.7545 47.6437 60.8587C45.909 60.963 44.1076 61.0325 42.4354 61.0533C40.7424 61.0742 39.1939 61.0477 37.8373 60.9671C36.5126 60.8893 35.3631 60.76 34.4318 60.5779C33.4783 60.3917 32.743 60.1484 32.0633 59.7759C31.4294 59.4284 30.8526 58.9725 30.2007 58.347L16.1451 60.6905V60.6919ZM15.3889 62.1987L15.4612 60.0914C20.4526 59.256 25.4441 58.4207 30.437 57.595L30.5648 57.7187C31.2251 58.3623 31.7894 58.821 32.4052 59.1587C33.0154 59.4937 33.6882 59.7147 34.5694 59.8871C35.4757 60.065 36.5933 60.1887 37.8804 60.2652C39.2301 60.3444 40.7618 60.3722 42.4284 60.3514C44.0728 60.3305 45.8631 60.2624 47.6034 60.1568C49.3159 60.0539 50.9755 59.9121 52.3919 59.7467C53.8041 59.5813 54.969 59.3909 55.9545 59.1448C56.9275 58.903 57.7253 58.6083 58.4189 58.2316C58.6385 58.1121 58.847 57.9856 59.0444 57.8522C59.2376 57.7215 59.4281 57.5769 59.6171 57.4185L59.7255 57.3281L73.2682 58.158L73.3655 58.2844C73.7158 58.7404 74.0758 59.1615 74.4442 59.5479C74.8097 59.9316 75.1878 60.2819 75.5742 60.5974C75.7786 60.7642 75.9857 60.9199 76.1928 61.0658C76.3971 61.209 76.6112 61.3466 76.8336 61.4786C77.63 61.9499 78.4793 62.3029 79.3633 62.5753C80.2557 62.8506 81.187 63.0466 82.1336 63.2008C83.0816 63.3551 84.0476 63.4691 85.1763 63.5428C86.3147 63.6165 87.6088 63.6512 89.2045 63.6456C90.8211 63.6401 92.7587 63.5956 94.6866 63.5205C96.5548 63.4483 98.4229 63.3468 99.9825 63.2273C101.541 63.1077 102.769 62.9701 103.767 62.8005C104.757 62.6323 105.523 62.4308 106.162 62.1848C106.557 62.0333 106.906 61.8623 107.233 61.6538C107.559 61.4453 107.872 61.1951 108.196 60.8837L108.402 60.678L108.727 60.3319L117.603 60.8768V62.7463C114.659 65.3206 111.717 67.8962 108.778 70.4761C77.6481 67.792 46.5095 65.1691 15.375 62.535L15.3861 62.2L15.3889 62.1987Z" fill="#FEFEFE"/>
<path d="M38.5074 51.4119C38.3656 50.3389 38.2239 49.2658 38.1182 48.1983C38.0112 47.1238 37.9389 46.0466 37.9375 44.9679C37.9361 43.8865 38.0042 42.8079 38.1613 41.6931C38.3198 40.5728 38.5658 39.4163 38.9189 38.1806C39.2803 36.9157 39.7542 35.5632 40.2908 34.2803C40.8009 33.0585 41.368 31.8992 41.9477 30.9387C42.5481 29.9407 43.1667 29.1498 43.8255 28.5118C44.49 27.8682 45.1961 27.3803 45.9675 26.9911C46.739 26.6019 47.5771 26.3114 48.4028 26.1349C49.2298 25.9584 50.0513 25.8986 50.7824 25.9723C51.5261 26.0459 52.1724 26.2572 52.766 26.5338C53.3484 26.8063 53.8794 27.1399 54.4103 27.4735L54.035 28.0698C53.5249 27.7501 53.0148 27.4276 52.4699 27.1746C51.9348 26.9258 51.3621 26.7382 50.7129 26.6742C50.0555 26.6075 49.3091 26.6645 48.5487 26.8257C47.7801 26.9884 46.9989 27.2594 46.2844 27.6208C45.5741 27.9794 44.925 28.427 44.3148 29.0177C43.7004 29.6127 43.1194 30.3577 42.5495 31.3043C41.9866 32.237 41.4361 33.3643 40.9385 34.5527C40.4131 35.8079 39.9488 37.1339 39.5944 38.3752C39.2497 39.5831 39.0092 40.709 38.8563 41.7904C38.7034 42.8774 38.6367 43.924 38.6381 44.9693C38.6395 46.0174 38.7104 47.0724 38.816 48.1315C38.9216 49.1963 39.062 50.2596 39.2024 51.323L38.5046 51.4133L38.5074 51.4119Z" fill="#FEFEFE"/>
<path d="M89.5205 49.4741L89.5191 49.4699C89.1646 47.7255 88.8102 45.9824 88.6267 43.575C88.528 42.2726 88.478 40.7686 88.5266 39.2104C88.5669 37.8969 88.6767 36.5472 88.8852 35.2531C89.1118 33.845 89.4524 32.5051 89.8805 31.2888C90.3197 30.0392 90.8535 28.9161 91.447 27.982C92.0433 27.0438 92.705 26.289 93.4208 25.6844C94.1394 25.0783 94.9123 24.6224 95.731 24.2847C96.5469 23.9483 97.4073 23.7273 98.2872 23.6258C99.1684 23.5243 100.073 23.541 100.973 23.6772C102.748 23.9469 104.499 24.6836 106.25 25.4189L106.256 25.4217L105.989 26.0736L105.982 26.0708C104.274 25.3522 102.566 24.6335 100.867 24.3764C100.027 24.2485 99.1865 24.2332 98.3664 24.3277C97.5491 24.4223 96.7512 24.6266 95.9978 24.9366C95.2459 25.2465 94.5356 25.6649 93.8753 26.2223C93.2137 26.7811 92.5993 27.483 92.0419 28.3601C91.4734 29.2553 90.9633 30.3283 90.5435 31.5223C90.1279 32.7066 89.7971 34.0049 89.5789 35.3643C89.3759 36.6264 89.2675 37.9455 89.2286 39.2299C89.1813 40.7505 89.23 42.2309 89.3287 43.5222C89.5094 45.8935 89.8582 47.6101 90.2071 49.324L90.2085 49.3282L89.5177 49.4741H89.5205Z" fill="#FEFEFE"/>
<path d="M48.054 79.2832C47.7024 79.3457 47.3799 79.5042 47.1061 79.7266C46.8142 79.9657 46.5765 80.2784 46.4194 80.6259C46.2749 80.947 46.197 81.3001 46.1692 81.6614C46.1386 82.0826 46.1762 82.5149 46.2568 82.918C46.3332 83.3002 46.4458 83.6519 46.5876 83.9535C46.7238 84.2468 46.8892 84.497 47.0727 84.6861C47.2465 84.864 47.4369 84.9877 47.644 85.0475C47.8442 85.1059 48.0707 85.1086 48.3237 85.0489C48.6045 84.9835 48.9158 84.8418 49.2161 84.6472C49.5163 84.4539 49.8013 84.2107 50.032 83.941C50.2586 83.6755 50.4337 83.3809 50.5588 83.0639C50.6867 82.7387 50.7604 82.3884 50.784 82.0173C50.8076 81.6211 50.7743 81.2041 50.6575 80.8219C50.5602 80.5008 50.4031 80.2047 50.171 79.9629C49.9194 79.7002 49.5733 79.4972 49.198 79.3763C48.8227 79.2554 48.421 79.2165 48.054 79.2818V79.2832ZM46.6613 79.1803C47.0255 78.8842 47.4577 78.6716 47.9317 78.5882C48.4113 78.5034 48.9311 78.552 49.4121 78.7077C49.8944 78.8634 50.3434 79.1289 50.677 79.4778C50.9897 79.803 51.1996 80.1978 51.3289 80.619C51.4734 81.0888 51.5151 81.592 51.4859 82.0632C51.4581 82.5093 51.3692 82.9319 51.2149 83.3253C51.062 83.7145 50.8465 84.0759 50.5672 84.4039C50.2905 84.7278 49.9528 85.0169 49.5969 85.2448C49.2314 85.4811 48.8436 85.6549 48.4836 85.7397C48.1124 85.8273 47.7663 85.8203 47.448 85.7272C47.1186 85.6313 46.8253 85.445 46.5681 85.1809C46.3305 84.9363 46.1206 84.6194 45.951 84.2552C45.7828 83.8952 45.6507 83.4893 45.5646 83.0598C45.4728 82.6011 45.4297 82.1035 45.4659 81.6142C45.4992 81.1749 45.5951 80.7399 45.7758 80.3396C45.9774 79.8948 46.2832 79.4931 46.6613 79.1831V79.1803Z" fill="#FEFEFE"/>
<path d="M73.4427 81.3398C73.9959 81.4914 74.5505 81.6415 75.0565 81.8097C75.5749 81.9792 76.0461 82.1711 76.4256 82.4004C76.7898 82.6214 77.0594 82.8744 77.254 83.1357C77.489 83.4526 77.6154 83.7848 77.6641 84.0934C77.7113 84.3923 77.6863 84.6703 77.5793 84.9455C77.4764 85.2082 77.3013 85.4598 77.0428 85.7183C76.812 85.9491 76.509 86.1895 76.2227 86.4175C75.9502 86.6343 75.6931 86.8373 75.561 86.9874L75.5013 87.0569C75.5457 87.1542 75.7 87.3099 75.9419 87.5476C76.2199 87.8186 76.5924 88.1772 77.0108 88.5748L78.3827 89.8758L77.8976 90.3859L76.5257 89.0849C76.0962 88.6762 75.7209 88.3162 75.4498 88.0521C75.1454 87.7547 74.9494 87.5531 74.8563 87.346C74.7201 87.0402 74.7771 86.8053 75.0328 86.5176C75.2038 86.3244 75.4846 86.102 75.7834 85.8643C76.0489 85.653 76.3325 85.4292 76.5424 85.2179C76.7328 85.0275 76.8565 84.8551 76.9218 84.6883C76.983 84.5341 76.9955 84.3742 76.9677 84.2005C76.9357 83.9975 76.8496 83.7737 76.6869 83.5555C76.5424 83.3609 76.338 83.1705 76.06 83.0023C75.7403 82.8091 75.315 82.6381 74.8355 82.4796C74.3448 82.3156 73.8013 82.1669 73.2578 82.0196L73.4427 81.3398Z" fill="#FEFEFE"/>
<path d="M55.0786 79.0879C55.8806 79.2172 56.6826 79.3464 57.2803 79.6592C57.5805 79.8162 57.8238 80.015 58.0156 80.2374C58.2325 80.4876 58.3854 80.7684 58.4854 81.052C58.5813 81.3258 58.6286 81.6066 58.6217 81.8832C58.6147 82.1556 58.5535 82.4253 58.434 82.6769C58.3186 82.9215 58.1504 83.1481 57.9545 83.344C57.7515 83.5484 57.511 83.7235 57.2664 83.85C57.076 83.9473 56.8869 84.014 56.7215 84.071L56.4533 84.1641C56.4296 84.2003 56.4977 84.135 56.5214 84.1808C56.5978 84.324 56.7452 84.5269 56.9495 84.7966C57.3679 85.3512 58.0045 86.1574 58.6425 86.9678L58.6661 86.9983L58.1115 87.4348L58.0879 87.4042C57.4457 86.5883 56.8049 85.7765 56.3865 85.2219C56.1669 84.93 56.0015 84.7035 55.9014 84.5116C55.7471 84.2225 55.7249 83.9932 55.8611 83.7833C55.9918 83.5804 56.2156 83.5025 56.4936 83.4066C56.6326 83.358 56.7924 83.3024 56.9439 83.2245C57.1218 83.1328 57.2998 83.0021 57.4554 82.8464C57.5986 82.7047 57.7182 82.5434 57.796 82.378C57.8724 82.214 57.9128 82.0402 57.9169 81.8637C57.9225 81.6747 57.8877 81.4787 57.8196 81.2841C57.7473 81.0797 57.6375 80.8782 57.4832 80.6989C57.3456 80.539 57.1705 80.3959 56.9551 80.2833C56.4574 80.0234 55.7124 79.9024 54.9688 79.7829L55.0786 79.0879Z" fill="#FEFEFE"/>
<path d="M66.2082 80.3828L68.093 86.7921L69.7179 80.5427L70.399 80.7192L68.1347 89.4317L65.5312 80.5816L66.2082 80.3828Z" fill="#FEFEFE"/>
<path d="M72.625 88.8422L72.9989 81.6602L73.7022 81.6963L73.3283 88.8784L72.625 88.8422Z" fill="#FEFEFE"/>
<path d="M54 86.7332L54.6741 79.4023L55.3747 79.4663L54.7006 86.7971L54 86.7332Z" fill="#FEFEFE"/>
<path d="M40.1576 85.1196C40.1576 82.7065 40.3536 80.1934 40.4579 77.7734L41.1612 77.804L40.8624 84.6706L40.8638 85.1196H40.1562H40.1576Z" fill="#FEFEFE"/>
<path d="M38.4434 76.9141L43.2306 77.288L43.1778 77.9913L38.3906 77.6174L38.4434 76.9141Z" fill="#FEFEFE"/>
</svg>
