<svg width="120" height="120" viewBox="0 0 120 120" fill="none" xmlns="http://www.w3.org/2000/svg">
<path d="M55.3528 1.20032H64.2328C65.3235 1.20032 66.3153 1.64624 67.0347 2.36455C67.753 3.08286 68.1989 4.07465 68.1989 5.1653V14.1958C68.1989 15.2864 67.753 16.2782 67.0347 16.9965C66.3164 17.7149 65.3246 18.1608 64.2328 18.1608H55.3528C54.2644 18.1608 53.2726 17.7149 52.5531 16.9965C51.8337 16.276 51.3867 15.2842 51.3867 14.1958V5.1653C51.3867 4.07575 51.8326 3.08506 52.551 2.36565C53.2715 1.64624 54.2633 1.19922 55.3517 1.19922L55.3528 1.20032ZM64.2328 1.90764H55.3528C54.4566 1.90764 53.6416 2.27449 53.0518 2.86429C52.4609 3.45519 52.094 4.27016 52.094 5.1664V14.1969C52.094 15.0942 52.4609 15.9081 53.0507 16.4979C53.6416 17.0888 54.4566 17.4556 55.3528 17.4556H64.2328C65.1291 17.4556 65.944 17.0888 66.5338 16.4979C67.1247 15.907 67.4916 15.092 67.4916 14.1969V5.1664C67.4916 4.27126 67.1247 3.45629 66.5338 2.86539C65.9429 2.27449 65.128 1.90764 64.2328 1.90764Z" fill="#FEFEFE"/>
<path d="M52.7901 21.4453H67.5407C68.3206 21.4453 69.0312 21.7649 69.5441 22.2778C70.0581 22.7919 70.3766 23.5014 70.3766 24.2812V36.3222C70.3766 37.101 70.057 37.8116 69.543 38.3256C69.0301 38.8407 68.3206 39.1592 67.5396 39.1592H52.789C52.0081 39.1592 51.2986 38.8396 50.7857 38.3267C50.2727 37.8116 49.9531 37.1021 49.9531 36.3233V24.2823C49.9531 23.5014 50.2727 22.7919 50.7857 22.2789C51.2997 21.7649 52.0092 21.4464 52.789 21.4464L52.7901 21.4453ZM67.5407 22.1526H52.7901C52.2047 22.1526 51.672 22.3921 51.2865 22.7787C50.8999 23.1653 50.6605 23.6969 50.6605 24.2823V36.3233C50.6605 36.9098 50.8999 37.4425 51.2854 37.827C51.6731 38.2136 52.2058 38.453 52.7912 38.453H67.5418C68.1272 38.453 68.6599 38.2136 69.0455 37.827C69.4321 37.4425 69.6715 36.9098 69.6715 36.3233V24.2823C69.6715 23.6969 69.4321 23.1642 69.0455 22.7787C68.6588 22.3921 68.1261 22.1526 67.5418 22.1526H67.5407Z" fill="#FEFEFE"/>
<path d="M47.6008 25.6211H50.664V36.3222C50.664 36.9076 50.9035 37.4403 51.2901 37.8258C51.6767 38.2124 52.2094 38.4518 52.7937 38.4518H67.5432C68.1286 38.4518 68.6624 38.2124 69.0479 37.8269C69.4334 37.4414 69.6729 36.9076 69.6729 36.3222V25.6211H73.45C74.3748 25.6211 75.2151 26 75.8246 26.6085C76.4353 27.2192 76.8131 28.0594 76.8131 28.9842V35.8707C76.8131 36.1442 76.7791 36.4122 76.7154 36.6714C76.6956 36.7516 76.6725 36.8307 76.6473 36.9087H76.7011L71.741 46.3455L71.3962 46.2302L48.8441 46.0786L44.6814 37.538C44.5386 37.2887 44.4266 37.0229 44.3508 36.7461C44.275 36.466 44.2344 36.1728 44.2344 35.8707V28.9842C44.2344 28.0583 44.6133 27.217 45.2218 26.6085C45.8314 25.9989 46.6727 25.6211 47.5975 25.6211H47.6008ZM49.9567 26.3284H47.6008C46.8704 26.3284 46.2059 26.6272 45.7248 27.1093C45.2437 27.5904 44.9439 28.2549 44.9439 28.9853V35.8718C44.9439 36.1113 44.9757 36.343 45.0351 36.5627C45.0977 36.7944 45.1899 37.0097 45.3042 37.2074L49.2889 45.3801L71.3753 45.5284L75.8049 37.0998C75.9026 36.9131 75.9795 36.7132 76.0311 36.5045C76.0805 36.3035 76.1069 36.0926 76.1069 35.8718V28.9853C76.1069 28.2549 75.8082 27.5904 75.3271 27.1082C74.846 26.6272 74.1815 26.3284 73.45 26.3284H70.3791V36.3222C70.3791 37.1009 70.0595 37.8104 69.5466 38.3244C69.0314 38.8395 68.3219 39.1591 67.5421 39.1591H52.7926C52.0117 39.1591 51.3021 38.8395 50.7881 38.3266C50.2741 37.8126 49.9556 37.1031 49.9556 36.3222V26.3284H49.9567Z" fill="#FEFEFE"/>
<path d="M55.7638 17.4551H64.433V22.1505H55.4102V17.4551H55.7638ZM63.7267 18.1624H56.1175V21.4442H63.7267V18.1624Z" fill="#FEFEFE"/>
<path d="M55.7638 18.6816H64.433V20.9255H55.4102V18.6816H55.7638ZM63.7267 19.389H56.1175V20.2193H63.7267V19.389Z" fill="#FEFEFE"/>
<path d="M57.0062 6.35657C57.5301 6.35657 58.0046 6.56964 58.3473 6.91232C58.6899 7.2572 58.903 7.73058 58.903 8.25339C58.903 8.77619 58.6899 9.24958 58.3473 9.59226C58.0024 9.93603 57.529 10.1491 57.0062 10.1491C56.4834 10.1491 56.01 9.93603 55.6662 9.59335C55.3225 9.25068 55.1094 8.77619 55.1094 8.25229C55.1094 7.72948 55.3225 7.2561 55.6651 6.91232C56.01 6.56855 56.4834 6.35547 57.0062 6.35547V6.35657ZM57.8475 7.41097C57.6322 7.19679 57.3346 7.0628 57.0062 7.0628C56.6778 7.0628 56.379 7.19569 56.1649 7.41097C55.9507 7.62624 55.8167 7.92389 55.8167 8.25229C55.8167 8.58069 55.9507 8.87834 56.1649 9.09361C56.379 9.30889 56.6767 9.44178 57.0062 9.44178C57.3346 9.44178 57.6322 9.30889 57.8475 9.09361C58.0617 8.87834 58.1957 8.58069 58.1957 8.25229C58.1957 7.92389 58.0628 7.62514 57.8475 7.41097Z" fill="#FEFEFE"/>
<path d="M62.7249 6.35657C63.2489 6.35657 63.7233 6.56964 64.066 6.91232C64.4087 7.2572 64.6218 7.73058 64.6218 8.25339C64.6218 8.77619 64.4087 9.24958 64.066 9.59226C63.7211 9.93603 63.2478 10.1491 62.7249 10.1491C62.201 10.1491 61.7266 9.93603 61.3839 9.59335C61.0401 9.24958 60.8281 8.77619 60.8281 8.25229C60.8281 7.72838 61.0401 7.255 61.3839 6.91123C61.7266 6.56855 62.201 6.35547 62.7249 6.35547V6.35657ZM63.5663 7.41097C63.351 7.19679 63.0534 7.0628 62.7249 7.0628C62.3965 7.0628 62.0989 7.19679 61.8836 7.41097C61.6684 7.62624 61.5355 7.92389 61.5355 8.25229C61.5355 8.58069 61.6694 8.87834 61.8836 9.09361C62.0989 9.30889 62.3965 9.44178 62.7249 9.44178C63.0534 9.44178 63.351 9.30889 63.5663 9.09361C63.7804 8.87834 63.9144 8.58069 63.9144 8.25229C63.9144 7.92389 63.7815 7.62514 63.5663 7.41097Z" fill="#FEFEFE"/>
<path d="M55.3465 12.1925C56.8424 12.9405 58.3383 13.6884 59.7914 13.6884C61.2456 13.6884 62.7415 12.9405 64.2364 12.1936L64.2836 12.1738L64.3967 12.5132L64.5516 12.8218C62.9788 13.6083 61.406 14.3947 59.7914 14.3947C58.178 14.3947 56.6041 13.6083 55.0312 12.8218L55.3465 12.1925Z" fill="#FEFEFE"/>
<path d="M50.4748 57.7752H70.1581C71.0949 57.7752 71.9472 57.3919 72.5656 56.7747C73.1829 56.1574 73.5662 55.304 73.5662 54.3671V45.6727C73.5662 45.2531 73.4904 44.8523 73.3509 44.4832C73.2696 44.2657 73.1664 44.0593 73.0445 43.8659L71.7397 46.3482L71.3948 46.2329L48.8427 46.0813L47.6884 43.7133C47.5379 43.9264 47.4105 44.1581 47.3116 44.4041C47.1535 44.7962 47.0656 45.2246 47.0656 45.6738V54.3682C47.0656 55.3051 47.4489 56.1574 48.0662 56.7758C48.6834 57.393 49.5369 57.7763 50.4737 57.7763L50.4748 57.7752ZM70.1581 58.4826H50.4748C49.3435 58.4826 48.3155 58.0191 47.5697 57.2744C46.8229 56.5275 46.3594 55.4984 46.3594 54.3671V45.6727C46.3594 45.1323 46.4659 44.6139 46.6581 44.1383C46.8569 43.6463 47.1502 43.2004 47.5137 42.8225L47.8641 42.459L49.2875 45.3784L71.3739 45.5266L72.9204 42.5853L73.2586 42.973C73.5794 43.3409 73.8375 43.7671 74.0121 44.2328C74.1812 44.682 74.2746 45.1675 74.2746 45.6705V54.3649C74.2746 55.4962 73.8111 56.5242 73.0664 57.27C72.3196 58.0169 71.2904 58.4804 70.1592 58.4804L70.1581 58.4826Z" fill="#FEFEFE"/>
<path d="M52.5473 57.7734H68.4412V67.0445L67.914 66.7446C67.2825 66.3855 66.4741 66.0713 65.6053 65.8121C64.5971 65.5101 63.5108 65.2816 62.5256 65.1367C61.6019 65.0005 60.7705 64.939 59.9555 64.9521C59.1395 64.9653 58.33 65.0532 57.4502 65.2157C56.6078 65.3717 55.7017 65.598 54.8395 65.878C54.0597 66.1318 53.3216 66.4283 52.7109 66.7545L52.1914 67.0324V57.7745H52.5451L52.5473 57.7734ZM67.7339 58.4808H52.8998V65.8747C53.4292 65.6287 54.0157 65.4036 54.622 65.207C55.5084 64.9181 56.4474 64.6852 57.3228 64.5227C58.2366 64.3535 59.0834 64.2624 59.9434 64.2481C60.8045 64.2349 61.6722 64.2986 62.6267 64.4381C63.6426 64.5875 64.7629 64.8236 65.8052 65.1356C66.4972 65.3431 67.1573 65.5848 67.7328 65.8583V58.4808H67.7339Z" fill="#FEFEFE"/>
<path d="M62.5281 65.1363C61.6044 65.0001 60.773 64.9386 59.958 64.9518C59.142 64.965 58.3325 65.0529 57.4527 65.2154C56.5257 65.3868 55.5218 65.6438 54.5872 65.9634C53.7579 66.2468 52.9858 66.5795 52.3784 66.9464C51.7568 67.322 51.3097 67.7317 50.9945 68.1655C50.6815 68.5961 50.4937 69.0519 50.3882 69.5231C50.2806 70.0063 50.2553 70.5094 50.2905 71.0728C50.3256 71.6516 50.4256 72.2931 50.5596 73.0334L50.7079 73.8198C50.9693 75.196 51.2801 76.8215 51.3493 78.5327C51.391 79.5651 51.3449 80.625 51.1505 81.7684C50.9561 82.9118 50.6134 84.1408 50.0642 85.5137C49.5348 86.8372 48.8088 88.3013 47.9796 89.7698C47.1064 91.3162 46.1201 92.8627 45.1327 94.2477C44.0662 95.7425 42.9921 97.0583 42.0288 98.239C41.2589 99.1825 40.5604 100.038 39.9969 100.827C39.3742 101.698 38.9162 102.488 38.5691 103.236C38.222 103.984 37.9848 104.69 37.8057 105.388C37.6234 106.099 37.4982 106.811 37.4411 107.51C37.3862 108.172 37.3928 108.819 37.4707 109.435C37.5476 110.053 37.6948 110.638 37.9727 111.205C38.2517 111.775 38.6668 112.336 39.2797 112.907C39.953 113.534 40.8613 114.17 42.0486 114.732C43.07 115.214 44.298 115.642 45.761 115.963C47.3634 116.313 49.2438 116.536 51.2625 116.675C53.3021 116.815 55.4713 116.871 57.6361 116.89C59.7449 116.907 61.8581 116.891 63.8571 116.846C65.967 116.799 67.9583 116.72 69.687 116.62C71.3499 116.523 72.7613 116.407 73.9705 116.234C75.1644 116.065 76.1595 115.841 77.0041 115.53C77.8378 115.224 78.5264 114.83 79.102 114.388C79.6797 113.943 80.1465 113.449 80.5331 112.939C80.9186 112.432 81.225 111.908 81.4557 111.35C81.6863 110.793 81.8412 110.199 81.9258 109.552C82.0125 108.881 82.0224 108.149 81.9477 107.383C81.8752 106.651 81.7248 105.887 81.4875 105.115C81.2426 104.319 80.9054 103.514 80.4683 102.676C80.0279 101.833 79.4853 100.954 78.8329 100.02C78.0223 98.8607 77.025 97.5932 76.0299 96.3279C75.4247 95.558 74.8185 94.788 74.255 94.0423C73.5016 93.0461 72.8184 92.085 72.2198 91.1405C71.6179 90.1904 71.0973 89.2491 70.6712 88.2914C70.2461 87.3358 69.9188 86.3704 69.6552 85.4215C69.3916 84.4714 69.1917 83.5422 69.0215 82.658C68.8512 81.7717 68.7084 80.9205 68.6228 80.0682C68.5371 79.2137 68.5096 78.3658 68.57 77.4948C68.6898 75.7792 69.1467 73.9845 69.4981 72.6017L69.5135 72.5402C69.687 71.8592 69.8331 71.2815 69.9111 70.7664C69.988 70.2656 70.0034 69.813 69.9243 69.3561C69.8463 68.9047 69.675 68.4434 69.3663 68.0052C69.0522 67.5604 68.5887 67.1331 67.9308 66.7553C67.2993 66.3928 66.4898 66.0776 65.621 65.8162C64.6084 65.512 63.5166 65.2813 62.527 65.1363H62.5281ZM59.947 64.2478C60.8081 64.2346 61.6758 64.2983 62.6303 64.4378C63.6506 64.5872 64.7775 64.8255 65.8242 65.1396C66.7435 65.4164 67.6035 65.7525 68.2834 66.1424C69.0346 66.573 69.5706 67.0727 69.943 67.5988C70.3208 68.1326 70.5284 68.6916 70.6228 69.2364C70.7162 69.7768 70.6997 70.2996 70.6118 70.8696C70.5273 71.4243 70.3779 72.0152 70.2 72.7126L70.1846 72.7741C69.8386 74.1328 69.3905 75.8956 69.2752 77.5398C69.217 78.3734 69.2433 79.1829 69.3246 79.9979C69.407 80.8139 69.5465 81.6487 69.7145 82.524C69.8825 83.4005 70.0792 84.3143 70.334 85.2325C70.5888 86.1507 70.9051 87.0832 71.3137 88.0036C71.7212 88.9207 72.2264 89.8335 72.8151 90.7615C73.406 91.694 74.0782 92.6386 74.8174 93.6161C75.3808 94.363 75.9827 95.1274 76.5835 95.8908C77.5775 97.1538 78.5726 98.4202 79.4084 99.6163C80.0784 100.575 80.6363 101.479 81.091 102.35C81.549 103.228 81.9027 104.072 82.1597 104.907C82.4112 105.725 82.5716 106.536 82.6485 107.313C82.7287 108.132 82.7177 108.917 82.6243 109.64C82.5321 110.353 82.3607 111.005 82.1081 111.618C81.8544 112.231 81.5172 112.806 81.0943 113.364C80.6715 113.921 80.1629 114.461 79.5336 114.945C78.9021 115.43 78.1508 115.86 77.248 116.191C76.3561 116.52 75.3138 116.755 74.0705 116.932C72.8426 117.106 71.4114 117.225 69.7255 117.323C68.0066 117.422 66.0076 117.5 63.8703 117.549C61.868 117.594 59.7493 117.61 57.6306 117.593C55.4384 117.574 53.2505 117.517 51.2153 117.377C49.1603 117.236 47.2448 117.01 45.6116 116.651C44.0948 116.32 42.8163 115.873 41.7477 115.369C40.4879 114.773 39.5191 114.095 38.7986 113.422C38.1199 112.79 37.6564 112.159 37.34 111.512C37.0215 110.862 36.8546 110.205 36.7689 109.519C36.6865 108.855 36.6788 108.16 36.7371 107.451C36.7975 106.723 36.9293 105.971 37.1237 105.213C37.3137 104.47 37.5641 103.725 37.9287 102.941C38.2934 102.156 38.7734 101.328 39.4225 100.418C39.9958 99.6152 40.7031 98.7486 41.483 97.7953C42.4374 96.6255 43.5028 95.3218 44.5594 93.8402C45.5402 92.4651 46.5133 90.9406 47.3678 89.426C48.1795 87.9894 48.8901 86.5538 49.4107 85.2523C49.9401 83.9299 50.2696 82.7492 50.4552 81.6542C50.642 80.5602 50.6859 79.5476 50.6463 78.5624C50.5804 76.9083 50.274 75.3058 50.0159 73.9505L49.8676 73.1619C49.727 72.3908 49.6249 71.723 49.5876 71.1157C49.5491 70.4907 49.5777 69.924 49.7018 69.3715C49.8281 68.8092 50.0521 68.2644 50.4234 67.7537C50.7924 67.2451 51.3064 66.7707 52.0138 66.3434C52.6651 65.9502 53.4844 65.5954 54.3609 65.2967C55.3241 64.9672 56.3632 64.7025 57.3253 64.5246C58.2391 64.3554 59.0859 64.2643 59.9459 64.25L59.947 64.2478Z" fill="#FEFEFE"/>
<path d="M37.4297 104.954L37.6505 104.656L37.8295 104.375C38.7817 104.985 39.7351 105.594 42.1338 106.076C43.2904 106.308 44.7841 106.512 46.4437 106.684C48.2845 106.874 50.3263 107.024 52.3374 107.129C54.2594 107.228 56.1464 107.289 58.0432 107.321C59.9499 107.353 61.8731 107.357 63.8578 107.348C65.8403 107.339 67.8887 107.315 69.7976 107.268C71.6889 107.222 73.4462 107.15 74.8664 107.047C76.2667 106.945 77.3178 106.81 78.1328 106.655C78.9346 106.502 79.5057 106.33 79.9527 106.151C80.3899 105.975 80.7117 105.792 80.9731 105.605C81.2411 105.414 81.4509 105.217 81.6596 105.022L82.1406 105.535C81.91 105.751 81.6782 105.968 81.3828 106.18C81.0807 106.395 80.7128 106.606 80.2163 106.806C79.7298 107.001 79.1158 107.187 78.2635 107.349C77.4233 107.509 76.3447 107.648 74.9169 107.752C73.5088 107.856 71.7372 107.926 69.8151 107.973C67.9095 108.019 65.8545 108.043 63.8622 108.053C61.8709 108.062 59.9422 108.058 58.0333 108.026C56.1145 107.994 54.2177 107.934 52.3033 107.834C50.2813 107.728 48.2263 107.577 46.3734 107.386C44.6974 107.212 43.1817 107.004 41.9977 106.767C39.4682 106.259 38.4599 105.613 37.4528 104.969L37.4308 104.954H37.4297Z" fill="#FEFEFE"/>
<path d="M37.5193 110.207C38.666 110.966 39.8137 111.724 41.3184 112.343C42.0686 112.652 42.9165 112.931 43.983 113.182C45.055 113.435 46.3477 113.66 47.9842 113.862C49.6746 114.071 51.7207 114.255 53.8691 114.389C55.9274 114.518 58.0768 114.603 60.0977 114.62C62.0934 114.638 63.9803 114.592 65.7432 114.496C67.6422 114.393 69.3896 114.23 70.969 114.027C72.4771 113.833 73.8368 113.6 75.0362 113.336C76.2465 113.069 77.2921 112.769 78.1565 112.444C79.0044 112.126 79.6788 111.781 80.2631 111.426C80.8485 111.071 81.3571 110.695 81.8656 110.318L82.2852 110.884C81.7678 111.266 81.2505 111.649 80.63 112.026C80.0105 112.404 79.2988 112.767 78.4048 113.103C77.5129 113.439 76.4354 113.748 75.1888 114.023C73.9719 114.291 72.5902 114.527 71.058 114.724C69.4544 114.931 67.6894 115.095 65.7794 115.199C64.0133 115.296 62.1132 115.341 60.0922 115.323C58.0428 115.304 55.8812 115.221 53.8274 115.092C51.6505 114.956 49.5889 114.772 47.8975 114.563C46.2357 114.358 44.9188 114.128 43.8215 113.869C42.7199 113.61 41.8368 113.319 41.0482 112.995C39.4754 112.347 38.3013 111.571 37.1283 110.796L37.125 110.795L37.5171 110.207H37.5193Z" fill="#FEFEFE"/>
<path d="M50.5079 72.9062C51.1241 73.8629 51.7402 74.8206 52.2982 75.7641C52.8573 76.7109 53.3581 77.6456 53.7403 78.5539C54.1236 79.4644 54.3828 80.3431 54.5509 81.1712C54.7189 81.9983 54.7958 82.7781 54.8156 83.4942C54.8353 84.2158 54.7958 84.8726 54.6102 85.7743C54.4268 86.6618 54.1006 87.7865 53.5437 89.4526C52.9407 91.2594 52.0566 93.7274 51.1647 96.0492C50.4277 97.9669 49.6875 99.7726 49.101 101.006C48.4222 102.431 47.9148 103.159 47.4721 103.504C46.9339 103.922 46.5067 103.842 46.0399 103.669C45.65 103.526 45.2249 103.306 44.8131 103.04C44.4111 102.781 44.0168 102.474 43.6785 102.149C43.3336 101.818 43.0469 101.467 42.8152 101.097C42.5834 100.724 42.4044 100.331 42.2792 99.9176C42.0332 99.1092 41.9892 98.2448 41.9464 97.3793L41.9453 97.3694L42.1617 97.3595L42.6493 97.3233V97.3365C42.69 98.1624 42.7317 98.9884 42.9514 99.7133C43.059 100.068 43.2117 100.405 43.4116 100.725C43.6148 101.047 43.8641 101.352 44.165 101.642C44.4682 101.933 44.824 102.21 45.192 102.446C45.5599 102.683 45.9389 102.879 46.2826 103.006C46.5418 103.103 46.7736 103.15 47.0372 102.946C47.3963 102.667 47.8368 102.016 48.4617 100.702C49.0526 99.4607 49.7841 97.677 50.5068 95.7977C51.3877 93.5055 52.2674 91.0452 52.8748 89.2275C53.4218 87.5888 53.7425 86.4893 53.9193 85.6326C54.0929 84.7902 54.1291 84.1795 54.1115 83.5096C54.0929 82.8319 54.0193 82.0938 53.86 81.3085C53.7008 80.5232 53.4547 79.6907 53.0912 78.8263C52.7266 77.9597 52.2389 77.0514 51.6908 76.1233C51.1406 75.1919 50.5277 74.2396 49.9148 73.2885L50.509 72.9073L50.5079 72.9062Z" fill="#FEFEFE"/>
<path d="M70.0479 73.2221L70.0447 73.2265C69.043 74.7608 68.0402 76.2963 67.346 77.6242C67.0034 78.2799 66.7332 78.8928 66.5179 79.4782C66.3059 80.0548 66.1489 80.6073 66.0291 81.1498C65.9105 81.6836 65.8292 82.213 65.7831 82.7578C65.737 83.3048 65.726 83.8594 65.7469 84.4415C65.7677 85.0237 65.8216 85.6409 66.005 86.4987C66.1895 87.3642 66.508 88.4724 67.0572 90.031C67.6151 91.6148 68.407 93.6478 69.2143 95.6006C70.0172 97.5414 70.8366 99.4085 71.4615 100.687C72.0788 101.949 72.4994 102.627 72.8179 102.975C73.0508 103.229 73.1936 103.258 73.3287 103.24C73.5044 103.214 73.6856 103.127 73.8965 102.963C74.1348 102.775 74.4061 102.488 74.7345 102.082C75.0662 101.673 75.4485 101.152 75.8065 100.633C76.1876 100.082 76.5457 99.5271 76.7895 99.1087C77.0169 98.7177 77.1399 98.4552 77.2091 98.2586C77.2739 98.0718 77.2937 97.9368 77.3134 97.8028L78.012 97.9027C77.9878 98.073 77.9625 98.2432 77.8747 98.4925C77.7912 98.7298 77.6506 99.0318 77.4002 99.4634C77.1498 99.8929 76.7818 100.464 76.3875 101.034C76.0163 101.571 75.6231 102.108 75.2848 102.526C74.9245 102.973 74.6181 103.294 74.3325 103.518C74.0195 103.765 73.7296 103.895 73.4286 103.939C73.087 103.989 72.7466 103.94 72.2995 103.451C71.9382 103.057 71.4791 102.326 70.83 100.998C70.1951 99.6996 69.3692 97.8192 68.5641 95.8697C67.7469 93.8927 66.9495 91.8476 66.3927 90.2671C65.8325 88.6778 65.5063 87.5399 65.3152 86.647C65.1219 85.7464 65.0659 85.0896 65.0428 84.4679C65.0198 83.8462 65.0308 83.2652 65.0791 82.7007C65.1274 82.135 65.2131 81.5749 65.3394 80.9994C65.4624 80.4315 65.6294 79.8505 65.8545 79.2365C66.0775 78.6314 66.3597 77.9921 66.7211 77.3002C67.4328 75.936 68.4433 74.3896 69.4527 72.8442L69.4559 72.8398L70.0468 73.2243L70.0479 73.2221Z" fill="#FEFEFE"/>
<path d="M39.7731 27.5586C41.1999 27.5586 42.4926 28.1418 43.4284 29.0853C44.3642 30.0276 44.943 31.3292 44.943 32.7658C44.943 34.2024 44.3642 35.5039 43.4295 36.4463C42.4937 37.3898 41.201 37.973 39.7742 37.973C38.3475 37.973 37.0548 37.3898 36.119 36.4463C35.1843 35.5039 34.6055 34.2024 34.6055 32.7658C34.6055 31.3292 35.1843 30.0276 36.1201 29.0853C37.0559 28.1418 38.3486 27.5586 39.7753 27.5586H39.7731ZM42.9286 29.5828C42.1214 28.769 41.0055 28.2659 39.7731 28.2659C38.5408 28.2659 37.4249 28.769 36.6176 29.5828C35.8103 30.3967 35.3106 31.5225 35.3106 32.7669C35.3106 34.0113 35.8103 35.1371 36.6176 35.951C37.4249 36.7637 38.5408 37.2679 39.7731 37.2679C41.0055 37.2679 42.1214 36.7648 42.9286 35.951C43.7359 35.1371 44.2357 34.0113 44.2357 32.7669C44.2357 31.5225 43.7359 30.3967 42.9286 29.5828Z" fill="#FEFEFE"/>
<path d="M81.368 27.5586C82.7947 27.5586 84.0874 28.1418 85.0232 29.0853C85.959 30.0276 86.5378 31.3292 86.5378 32.7658C86.5378 34.2024 85.959 35.5039 85.0243 36.4463C84.0885 37.3898 82.7958 37.973 81.3691 37.973C79.9423 37.973 78.6485 37.3898 77.7138 36.4463C76.778 35.5039 76.1992 34.2024 76.1992 32.7658C76.1992 31.3292 76.778 30.0276 77.7138 29.0853C78.6496 28.1418 79.9423 27.5586 81.3691 27.5586H81.368ZM84.5235 29.5828C83.7162 28.769 82.6003 28.2659 81.368 28.2659C80.1356 28.2659 79.0197 28.769 78.2125 29.5828C77.4052 30.3967 76.9054 31.5225 76.9054 32.7669C76.9054 34.0113 77.4052 35.1371 78.2125 35.951C79.0197 36.7648 80.1356 37.2679 81.368 37.2679C82.6003 37.2679 83.7162 36.7648 84.5235 35.951C85.3308 35.1371 85.8305 34.0113 85.8305 32.7669C85.8305 31.5225 85.3308 30.3967 84.5235 29.5828Z" fill="#FEFEFE"/>
<path d="M38.0591 48.8926C39.2903 48.8926 40.4062 49.3967 41.2135 50.2095C42.0208 51.0233 42.5205 52.1458 42.5205 53.3848C42.5205 54.6237 42.0208 55.7462 41.2135 56.56C40.4062 57.3739 39.2903 57.8769 38.0591 57.8769C36.8279 57.8769 35.7119 57.3728 34.9047 56.56C34.0974 55.7473 33.5977 54.6237 33.5977 53.3848C33.5977 52.1458 34.0974 51.0222 34.9047 50.2095C35.7119 49.3956 36.8268 48.8926 38.0591 48.8926ZM40.7127 50.707C40.0339 50.0228 39.0959 49.5999 38.0591 49.5999C37.0223 49.5999 36.0832 50.0239 35.4055 50.707C34.7256 51.3913 34.3061 52.3391 34.3061 53.3859C34.3061 54.4326 34.7267 55.3793 35.4055 56.0636C36.0843 56.7479 37.0223 57.1707 38.0591 57.1707C39.0959 57.1707 40.035 56.7468 40.7127 56.0636C41.3914 55.3793 41.8121 54.4326 41.8121 53.3859C41.8121 52.3391 41.3914 51.3924 40.7127 50.707Z" fill="#FEFEFE"/>
<path d="M81.8599 48.8926C83.0911 48.8926 84.207 49.3967 85.0143 50.2095C85.8205 51.0222 86.3202 52.1458 86.3202 53.3848C86.3202 54.6237 85.8205 55.7473 85.0143 56.56C84.207 57.3739 83.0911 57.8769 81.8599 57.8769C80.6286 57.8769 79.5127 57.3739 78.7055 56.56C77.8982 55.7473 77.3984 54.6237 77.3984 53.3848C77.3984 52.1458 77.8982 51.0222 78.7055 50.2095C79.5127 49.3956 80.6275 48.8926 81.8599 48.8926ZM84.5134 50.707C83.8347 50.0228 82.8956 49.5999 81.8599 49.5999C80.823 49.5999 79.884 50.0239 79.2063 50.707C78.5275 51.3913 78.1069 52.3391 78.1069 53.3859C78.1069 54.4326 78.5275 55.3793 79.2063 56.0636C79.8851 56.7479 80.823 57.1707 81.8599 57.1707C82.8967 57.1707 83.8347 56.7479 84.5134 56.0636C85.1922 55.3793 85.6129 54.4315 85.6129 53.3859C85.6129 52.3391 85.1922 51.3913 84.5134 50.707Z" fill="#FEFEFE"/>
<path d="M41.5135 38.1749L37.9549 37.6477C37.6298 37.5994 37.3134 37.6895 37.0674 37.8718C36.8214 38.0541 36.6446 38.3309 36.5962 38.656L35.3244 47.2482C35.276 47.5745 35.3661 47.8897 35.5484 48.1357C35.7285 48.3784 35.9998 48.5542 36.3195 48.6047C37.5067 48.7892 38.7017 48.9605 39.8912 49.133C40.2174 49.1813 40.5327 49.0912 40.7787 48.9089C41.0214 48.7288 41.1971 48.4564 41.2477 48.1357L42.5217 39.5336C42.5701 39.2084 42.48 38.891 42.2977 38.645C42.1154 38.399 41.8386 38.2221 41.5135 38.1738V38.1749ZM38.057 36.9492L41.6156 37.4764C42.1329 37.5533 42.5734 37.8344 42.8633 38.2265C43.1533 38.6175 43.2961 39.1195 43.2192 39.6368L41.9473 48.2291C41.8704 48.7464 41.5893 49.1857 41.1971 49.4757C40.8138 49.7601 40.324 49.9018 39.8187 49.8359C38.6227 49.6745 37.4233 49.479 36.2283 49.3054C35.711 49.2285 35.2716 48.9463 34.9817 48.5553C34.6972 48.1719 34.5555 47.6821 34.6214 47.1769L35.8977 38.5538C35.9746 38.0365 36.2557 37.5961 36.6479 37.3061C37.0389 37.0162 37.5408 36.8734 38.0581 36.9503L38.057 36.9492Z" fill="#FEFEFE"/>
<path d="M79.004 37.4746L82.5341 36.9518C83.0514 36.876 83.5522 37.0177 83.9443 37.3077C84.3364 37.5976 84.6176 38.0381 84.6945 38.5554L85.9664 47.1477C86.0422 47.6639 85.9005 48.1658 85.6105 48.5579C85.3206 48.95 84.8801 49.2312 84.3628 49.3081L80.7757 49.8386C80.2671 49.9045 79.7784 49.7628 79.3939 49.4783C79.0029 49.1884 78.7207 48.7479 78.6438 48.2317C78.2132 45.3596 77.7937 42.4841 77.3675 39.6109C77.3016 39.1024 77.4433 38.6136 77.7278 38.2292C78.0177 37.8371 78.4582 37.5559 78.9744 37.479L79.0029 37.4746H79.004ZM82.6362 37.6504L79.0655 38.1798C78.7459 38.2303 78.4746 38.406 78.2945 38.6488C78.1122 38.8948 78.0221 39.2111 78.0705 39.5362C78.4911 42.3952 78.8821 45.2904 79.3445 48.1394C79.395 48.4602 79.5708 48.7325 79.8135 48.9127C80.0595 49.095 80.3759 49.184 80.701 49.1367L84.2596 48.6095C84.5847 48.5612 84.8615 48.3844 85.0438 48.1384C85.2261 47.8923 85.3151 47.576 85.2678 47.2498L83.996 38.6575C83.9476 38.3324 83.7708 38.0557 83.5248 37.8733C83.2788 37.691 82.9624 37.6009 82.6362 37.6493V37.6504Z" fill="#FEFEFE"/>
<path d="M41.2038 56.1699L41.2159 56.1919C41.7101 57.0497 42.2055 57.9086 42.4054 58.9696C42.5053 59.5001 42.5295 60.0723 42.4965 60.7302C42.4647 61.3749 42.379 62.0987 42.2582 62.9477C42.1374 63.7989 41.9814 64.7787 41.7595 65.7199C41.5322 66.6799 41.2334 67.6135 40.8271 68.3603C40.413 69.1204 39.8935 69.6805 39.3597 70.1176C38.8391 70.5438 38.3064 70.8491 37.8506 71.1083C37.4036 71.3621 37.029 71.5718 36.7182 71.73C36.3887 71.897 36.1185 72.0112 35.89 72.0661C35.5254 72.154 35.2508 72.1342 35.0125 71.6388C34.8642 71.3302 34.7401 70.7602 34.6061 69.7168C34.4644 68.614 34.3074 66.9643 34.1975 65.3278C34.1042 63.9461 34.0438 62.5578 34.0514 61.4913C34.0602 60.3128 34.158 59.533 34.292 58.9838C34.4337 58.4061 34.616 58.0722 34.7873 57.7998C34.9543 57.5351 35.1102 57.3276 35.2596 57.1507C35.4068 56.9761 35.5496 56.8311 35.6912 56.6861L36.1943 57.1804C36.0636 57.3144 35.9329 57.4484 35.7978 57.6065C35.666 57.7625 35.5287 57.9437 35.3837 58.1755C35.2431 58.3995 35.0938 58.673 34.9773 59.1497C34.8543 59.6549 34.7654 60.382 34.7555 61.4979C34.7478 62.5304 34.8082 63.9033 34.9015 65.2817C35.0125 66.9226 35.1673 68.5547 35.3046 69.6289C35.4276 70.5899 35.532 71.093 35.6473 71.3324C35.6726 71.384 35.6967 71.3862 35.7275 71.3796C35.8933 71.3412 36.1163 71.2456 36.4008 71.1007C36.7028 70.9469 37.0675 70.7426 37.5035 70.4955C37.9308 70.2527 38.4305 69.9672 38.9138 69.5718C39.386 69.1874 39.8451 68.6931 40.2087 68.0242C40.5788 67.3422 40.8578 66.469 41.072 65.5607C41.2916 64.6348 41.4432 63.6803 41.5607 62.8522C41.6783 62.0196 41.7628 61.3145 41.7936 60.6984C41.8232 60.0954 41.8024 59.5748 41.7123 59.1003C41.5355 58.1612 41.0775 57.3616 40.6173 56.5631L40.6052 56.5423L40.8973 56.3742L41.2038 56.1699Z" fill="#FEFEFE"/>
<path d="M40.2005 68.9609L40.2093 68.9785C40.6805 69.9242 41.1505 70.8687 41.5053 71.6277L41.5624 71.7463C41.8403 72.3438 42.0281 72.7469 42.585 73.1236C42.9024 73.3378 43.3439 73.5564 43.7756 73.7705C44.2445 74.0023 44.7037 74.2296 45.0255 74.4592C45.3846 74.7151 45.5735 74.9754 45.6669 75.2236C45.7646 75.485 45.7537 75.7179 45.7207 75.9189C45.6867 76.1254 45.6284 76.311 45.501 76.4735C45.3703 76.6416 45.1814 76.7668 44.9024 76.8382C44.6707 76.8975 44.3621 76.9184 44.0205 76.903C43.6976 76.8876 43.3417 76.8393 42.9924 76.758C42.6618 76.6811 42.3378 76.5746 42.0413 76.4779C41.7316 76.3769 41.4504 76.2846 41.2549 76.2561C41.1352 76.2385 41.0605 76.2429 41.0253 76.2692C40.9836 76.3 40.9506 76.3824 40.9221 76.5142C40.8782 76.7185 40.8617 76.9952 40.8968 77.3346C40.9276 77.629 40.999 77.9673 41.1242 78.3407C41.3087 78.8899 41.6162 79.5269 41.8952 80.1068C42.0457 80.4187 42.1885 80.7153 42.3115 80.9976C42.4872 81.404 42.597 81.7335 42.6399 82.0146C42.6893 82.3386 42.6553 82.6077 42.541 82.8549C42.5092 82.9219 42.4707 82.9877 42.4257 83.0515C42.2961 83.2316 42.1149 83.3766 41.8754 83.437C41.6492 83.493 41.3834 83.4743 41.0803 83.3337C40.9682 83.2821 40.8474 83.2107 40.7167 83.1174C40.3652 82.8647 39.9567 82.4474 39.5283 81.941C39.0308 81.3523 38.4959 80.6318 37.9928 79.9102C37.5337 79.2534 37.101 78.5922 36.7276 77.92C36.3519 77.2435 36.0422 76.5603 35.8368 75.8695C35.4282 74.4899 35.4436 73.106 35.459 71.7232L36.163 71.7287C36.1487 73.0588 36.1345 74.3889 36.5134 75.6707C36.7023 76.3088 36.9923 76.9447 37.3437 77.5785C37.6974 78.2166 38.1202 78.8602 38.5717 79.5082C39.0593 80.2079 39.5788 80.9097 40.0665 81.4863C40.4619 81.9531 40.8287 82.332 41.1275 82.5473C41.2142 82.6099 41.2977 82.6582 41.3757 82.6945C41.5174 82.7604 41.6239 82.7747 41.6997 82.756C41.7623 82.7384 41.8139 82.6956 41.8524 82.6418C41.8689 82.6176 41.8853 82.5902 41.8985 82.5605C41.9523 82.4419 41.9666 82.3024 41.9402 82.1223C41.9062 81.8993 41.8139 81.6247 41.6646 81.2787C41.5602 81.0371 41.4141 80.734 41.2604 80.4155C40.9726 79.818 40.6552 79.1601 40.4564 78.567C40.3136 78.1408 40.2323 77.7509 40.1961 77.4082C40.1522 76.9876 40.1741 76.6328 40.2323 76.367C40.2971 76.0672 40.4125 75.8508 40.6036 75.708C40.8002 75.5608 41.0429 75.5147 41.3548 75.5597C41.6151 75.5971 41.9216 75.6981 42.261 75.809C42.5432 75.9013 42.8519 76.0024 43.1539 76.0726C43.4658 76.1451 43.7767 76.188 44.0534 76.2011C44.3247 76.2132 44.562 76.1979 44.73 76.155C44.8453 76.1254 44.9123 76.0869 44.9486 76.0419C44.9892 75.9903 45.0112 75.9079 45.0277 75.8079C45.0452 75.7025 45.0518 75.585 45.0101 75.4719C44.9618 75.3444 44.8497 75.1995 44.6202 75.0358C44.3445 74.8392 43.9107 74.6239 43.4669 74.4054C43.0111 74.1791 42.5443 73.9485 42.194 73.7123C41.4735 73.2247 41.2527 72.7513 40.9254 72.0484L40.8705 71.9297C40.5607 71.2619 40.072 70.28 39.5821 69.297L39.5733 69.2762L40.206 68.9642L40.2005 68.9609Z" fill="#FEFEFE"/>
<path d="M79.3003 56.5434C79.0653 56.9508 78.8291 57.3594 78.6325 57.7834C78.4392 58.1996 78.2811 58.6324 78.1932 59.1003C78.1031 59.5748 78.0823 60.0954 78.113 60.6984C78.1438 61.3145 78.2272 62.0207 78.3448 62.8522C78.4623 63.6803 78.6138 64.6348 78.8335 65.5607C79.0488 66.469 79.3267 67.3433 79.6979 68.0242C80.0615 68.6931 80.5206 69.1874 80.9917 69.5718C81.4761 69.9672 81.9758 70.2527 82.4042 70.4955C82.8402 70.7426 83.2049 70.9469 83.5069 71.1007C83.7914 71.2456 84.0144 71.3412 84.1802 71.3807C84.211 71.3862 84.2351 71.3829 84.2593 71.3324C84.3746 71.093 84.48 70.5899 84.6031 69.6289C84.7404 68.5536 84.8963 66.9204 85.0072 65.2784C85.0995 63.9011 85.161 62.5293 85.1522 61.4968C85.1434 60.3809 85.0545 59.6538 84.9304 59.1486C84.8139 58.6719 84.6646 58.3973 84.524 58.1744C84.379 57.9426 84.2417 57.7614 84.1099 57.6054C83.9759 57.4473 83.8441 57.3122 83.7134 57.1793L84.2164 56.685C84.3581 56.83 84.5009 56.9761 84.6492 57.1496C84.7986 57.3265 84.9556 57.5341 85.1215 57.7988C85.2928 58.0711 85.4751 58.405 85.6168 58.9828C85.7519 59.5319 85.8486 60.3117 85.8574 61.4902C85.8661 62.5556 85.8046 63.9428 85.7124 65.3234C85.6014 66.961 85.4444 68.6107 85.3027 69.7146C85.1687 70.7591 85.0435 71.3291 84.8963 71.6367C84.658 72.1331 84.3834 72.1518 84.0187 72.065C83.7903 72.009 83.519 71.8948 83.1906 71.7278C82.8787 71.5697 82.5052 71.3599 82.0582 71.1062C81.6024 70.8469 81.0697 70.5427 80.548 70.1166C80.0153 69.6794 79.4947 69.1193 79.0817 68.3592C78.6754 67.6124 78.3755 66.6788 78.1493 65.7188C77.9263 64.7776 77.7703 63.7978 77.6495 62.9466C77.5298 62.0976 77.4441 61.3727 77.4123 60.7291C77.3793 60.0712 77.4035 59.4979 77.5034 58.9685C77.6045 58.4314 77.7813 57.9448 77.9955 57.4846C78.2053 57.0343 78.4502 56.6104 78.694 56.1875L79.3047 56.5412L79.3003 56.5434Z" fill="#FEFEFE"/>
<path d="M80.3365 69.2723L80.3277 69.2909C79.8389 70.2761 79.3491 71.258 79.0383 71.9247L78.9833 72.0434C78.656 72.7474 78.4353 73.2219 77.7159 73.7084C77.3644 73.9457 76.8987 74.1763 76.4418 74.4026C75.9992 74.6211 75.5653 74.8364 75.2896 75.033C75.0601 75.1967 74.947 75.3416 74.8997 75.4691C74.8569 75.5844 74.8646 75.7008 74.8811 75.8051C74.8975 75.9051 74.9206 75.9875 74.9601 76.0391C74.9964 76.0852 75.0634 76.1237 75.1776 76.1522C75.3457 76.195 75.5829 76.2104 75.8542 76.1983C76.131 76.1852 76.4418 76.1423 76.7537 76.0698C77.0558 75.9995 77.3644 75.8985 77.6467 75.8062C77.985 75.6953 78.2914 75.5943 78.5517 75.5569C78.8636 75.5119 79.1064 75.558 79.303 75.7052C79.493 75.848 79.6083 76.0643 79.6742 76.3642C79.7324 76.6311 79.7544 76.9859 79.7093 77.4065C79.6731 77.7481 79.5918 78.138 79.449 78.5631C79.2491 79.1573 78.9317 79.8152 78.644 80.4137C78.4902 80.7323 78.3441 81.0343 78.2398 81.2748C78.0904 81.6208 77.9981 81.8954 77.9641 82.1184C77.9366 82.2985 77.9509 82.438 78.0058 82.5555C78.0179 82.583 78.0344 82.6115 78.0542 82.6379C78.0915 82.6917 78.1431 82.7345 78.2057 82.7499C78.2815 82.7708 78.388 82.7565 78.5297 82.6906C78.6077 82.6532 78.6912 82.6049 78.778 82.5423C79.0767 82.327 79.4446 81.9492 79.84 81.4813C80.3277 80.9047 80.8472 80.2029 81.336 79.5043C81.7863 78.8563 82.2091 78.2127 82.5628 77.5746C82.9143 76.9408 83.2031 76.3049 83.3921 75.6668C83.771 74.385 83.7567 73.0549 83.7424 71.7248L84.4465 71.7193C84.4618 73.1021 84.4761 74.486 84.0675 75.8655C83.8632 76.5564 83.5524 77.2396 83.1779 77.9161C82.8044 78.5894 82.3717 79.2495 81.9137 79.9063C81.4096 80.6279 80.8747 81.3484 80.3771 81.9371C79.9499 82.4435 79.5402 82.8619 79.1887 83.1134C79.0591 83.2068 78.9372 83.2782 78.8274 83.3298C78.5242 83.4704 78.2573 83.4902 78.0311 83.432C77.7917 83.3727 77.6104 83.2277 77.4808 83.0476C77.4369 82.9882 77.3984 82.9212 77.3655 82.8509C77.2502 82.6049 77.2172 82.3358 77.2656 82.0107C77.3084 81.7296 77.4171 81.4 77.5929 80.9937C77.7159 80.7114 77.8576 80.4148 78.008 80.1051C78.2881 79.5252 78.5956 78.8871 78.7801 78.3379C78.9054 77.9634 78.9768 77.6251 79.0075 77.3318C79.0438 76.9924 79.0273 76.7157 78.9822 76.5114C78.9537 76.3796 78.9207 76.2972 78.879 76.2664C78.8439 76.2401 78.7692 76.2357 78.6495 76.2533C78.4539 76.2818 78.1728 76.3741 77.863 76.4751C77.5654 76.5729 77.2414 76.6783 76.9119 76.7552C76.5626 76.8365 76.2068 76.8848 75.886 76.9002C75.5423 76.9156 75.2347 76.8936 75.003 76.8354C74.7218 76.764 74.534 76.6388 74.4033 76.4707C74.2759 76.3071 74.2166 76.1226 74.1836 75.9161C74.1507 75.714 74.1397 75.4811 74.2374 75.2197C74.3308 74.9715 74.5197 74.7123 74.8789 74.4564C75.1996 74.2279 75.6598 74.0006 76.1277 73.7677C76.5604 73.5536 77.002 73.335 77.3194 73.1208C77.8773 72.7441 78.064 72.3421 78.3419 71.7457L78.399 71.6249C78.7538 70.8648 79.2239 69.9214 79.694 68.9746L79.7028 68.957L80.3354 69.269L80.3365 69.2723Z" fill="#FEFEFE"/>
</svg>
