<svg width="50" height="50" viewBox="0 0 50 50" fill="none" xmlns="http://www.w3.org/2000/svg">
<g clip-path="url(#clip0_909_8384)">
<path d="M6.46094 45.042V36.6913C6.46094 35.7487 4.99609 35.7422 4.99609 36.6913V45.042C4.99609 45.9846 6.46094 45.9911 6.46094 45.042Z" fill="white"/>
<path d="M11.1016 45.042V36.6913C11.1016 35.7487 9.63672 35.7422 9.63672 36.6913V45.042C9.63672 45.9846 11.1016 45.9911 11.1016 45.042Z" fill="white"/>
<path d="M4.39894 26.1494C3.45633 26.1494 3.4548 27.6142 4.39894 27.6142C5.34155 27.6142 5.34307 26.1494 4.39894 26.1494Z" fill="white"/>
<path d="M8.04933 26.1494C7.10672 26.1494 7.10519 27.6142 8.04933 27.6142C8.99156 27.6142 8.99347 26.1494 8.04933 26.1494Z" fill="white"/>
<path d="M11.6986 26.1494C10.7564 26.1494 10.7545 27.6142 11.6986 27.6142C12.6412 27.6142 12.6431 26.1494 11.6986 26.1494Z" fill="white"/>
<path d="M21.7283 25.1606L23.9034 22.9855C24.5698 22.319 23.5353 21.2822 22.8673 21.9498L20.1745 24.643C19.8884 24.9291 19.8884 25.3925 20.1745 25.6786L22.9364 28.4409C23.6032 29.1073 24.64 28.0728 23.9725 27.4052L21.7283 25.1606Z" fill="white"/>
<path d="M34.0598 21.9498C33.3934 21.2833 32.3562 22.3179 33.0242 22.9854L35.2683 25.2296L33.0932 27.4052C32.4268 28.0716 33.4613 29.108 34.1289 28.4408L36.8221 25.7477C37.1082 25.4616 37.1082 24.9977 36.8221 24.712L34.0598 21.9498Z" fill="white"/>
<path d="M30.1883 21.7548C29.8255 21.5763 29.3865 21.7262 29.2083 22.0894L26.4739 27.6558C26.0581 28.5019 27.37 29.1534 27.7885 28.3016L30.5229 22.7352C30.7014 22.3721 30.5515 21.933 30.1883 21.7548Z" fill="white"/>
<path d="M40.9075 5.52252C38.9387 5.52252 37.3369 7.12393 37.3369 9.0927C37.3369 11.0615 38.9387 12.6629 40.9075 12.6629C42.8762 12.6629 44.4776 11.0615 44.4776 9.0927C44.4776 7.12393 42.8762 5.52252 40.9075 5.52252ZM40.9075 11.198C39.7467 11.198 38.8018 10.2535 38.8018 9.0927C38.8018 7.93188 39.7467 6.98737 40.9075 6.98737C42.0683 6.98737 43.0128 7.93188 43.0128 9.0927C43.0128 10.2535 42.0683 11.198 40.9075 11.198Z" fill="white"/>
<path d="M49.44 11.0703C49.7688 10.9905 50 10.6964 50 10.3584V7.827C50 6.88438 48.5352 6.8779 48.5352 7.827V9.78241L46.6217 10.2463C46.3726 10.3065 46.1731 10.4927 46.096 10.7368C46.0037 11.0287 45.8832 11.3182 45.7382 11.5974C45.62 11.8252 45.6291 12.0975 45.7626 12.3165L46.7884 13.9992L45.8134 14.9742L44.1311 13.9481C43.9121 13.8145 43.6394 13.8054 43.412 13.9236C43.1332 14.0686 42.8436 14.1891 42.5514 14.2815C42.3069 14.3589 42.1211 14.558 42.0605 14.8071L41.5966 16.7206H40.2176L39.7537 14.8071C39.6935 14.558 39.5073 14.3589 39.2632 14.2815C38.9713 14.1891 38.6818 14.0686 38.4026 13.9236C38.1752 13.8054 37.9025 13.8145 37.6835 13.9481L36.0012 14.9742L35.0262 13.9992L36.0519 12.3165C36.1855 12.0975 36.1946 11.8248 36.0764 11.5974C35.9314 11.3182 35.8109 11.0287 35.7185 10.7368C35.6415 10.4927 35.442 10.3065 35.1929 10.2463L33.2794 9.78241V8.4034L35.1929 7.93953C35.442 7.87888 35.6415 7.69272 35.7185 7.44858C35.8109 7.15675 35.9314 6.86722 36.0764 6.58798C36.1946 6.36063 36.1855 6.08788 36.0519 5.86891L35.0262 4.18663L36.0012 3.21159L37.6835 4.23737C37.9025 4.37088 38.1752 4.38004 38.4026 4.26178C38.6818 4.11682 38.9713 3.99666 39.2632 3.90396C39.5073 3.8269 39.6935 3.6274 39.7537 3.3783L40.2176 1.46484H41.5966L42.0605 3.3783C42.1211 3.6274 42.3073 3.8269 42.5514 3.90396C42.8432 3.99666 43.1328 4.11682 43.412 4.26178C43.6394 4.38004 43.9121 4.37088 44.1311 4.23737L45.8134 3.21159L46.7884 4.18663L45.7626 5.86891C45.6291 6.08788 45.62 6.36063 45.7382 6.58798C45.8832 6.86722 46.0037 7.15675 46.096 7.44858C46.3802 8.34732 47.7787 7.9113 47.4926 7.00645C47.4163 6.76575 47.3251 6.52657 47.2206 6.29158L48.3391 4.45747C48.5149 4.1687 48.4707 3.79715 48.2315 3.55797L46.442 1.76849C46.2029 1.52931 45.8313 1.48468 45.5425 1.66092L43.7084 2.77939C43.6031 2.73285 43.4975 2.6886 43.3907 2.6474L42.8844 0.559998C42.8051 0.231171 42.511 0 42.173 0H39.642C39.3036 0 39.0095 0.231171 38.9301 0.559998L38.4239 2.6474C38.3171 2.6886 38.2111 2.73247 38.1062 2.77939L36.272 1.66092C35.9833 1.48468 35.6117 1.52931 35.3725 1.76849L33.5831 3.55797C33.3439 3.79715 33.2996 4.1687 33.4755 4.45747L34.594 6.29158C34.547 6.39687 34.5028 6.50291 34.4616 6.60934L32.3746 7.11555C32.0461 7.19528 31.8146 7.4894 31.8146 7.82738V10.3584C31.8146 10.6964 32.0461 10.9905 32.3746 11.0703L34.4616 11.5761C34.5032 11.6829 34.547 11.7889 34.594 11.8938L34.304 12.3692H11.2991C8.92639 12.3692 6.99615 14.2994 6.99615 16.6721V17.849H2.75917C1.23787 17.849 0 19.0868 0 20.6081V41.6016C0 42.5442 1.46484 42.5507 1.46484 41.6016V30.7835H14.6328V47.2408C14.6328 47.9546 14.0522 48.5352 13.3385 48.5352H2.75917C2.04544 48.5352 1.46484 47.9546 1.46484 47.2408V45.5078C1.46484 44.5652 0 44.5587 0 45.5078V47.2408C0 48.7621 1.23787 50 2.75917 50H13.3385C14.8598 50 16.0976 48.7621 16.0976 47.2408V43.1213H23.6057V48.5107H18.1652C17.2226 48.5107 17.2161 49.9756 18.1652 49.9756H38.8309C39.7736 49.9756 39.78 48.5107 38.8309 48.5107H33.39V43.1213H45.697C48.0698 43.1213 50 41.1907 50 38.818V16.6721C50 15.3133 49.3782 14.0625 48.2941 13.2408C48.1915 13.163 48.0747 13.1168 47.9557 13.0997L47.2206 11.8938C47.2672 11.7886 47.3114 11.6825 47.3526 11.5761L49.44 11.0703ZM25.0706 48.5107V43.2251H31.9252V48.5107H25.0706ZM2.75917 19.3138H13.3385C14.0522 19.3138 14.6328 19.8944 14.6328 20.6081V22.9801H1.46484V20.6081C1.46484 19.8944 2.04544 19.3138 2.75917 19.3138ZM1.46484 29.3186V24.445H14.6328V29.3186H1.46484ZM48.5352 34.594H42.8711C41.9285 34.594 41.922 36.0588 42.8711 36.0588H48.5352V38.818C48.5352 40.3831 47.2618 41.6561 45.697 41.6561H16.0976V36.0588H38.6719C39.6145 36.0588 39.621 34.594 38.6719 34.594H16.0976V20.6081C16.0976 19.0865 14.8598 17.849 13.3385 17.849H8.461V16.6721C8.461 15.107 9.73396 13.834 11.2991 13.834H33.4229C33.3134 14.1029 33.3721 14.4165 33.5831 14.6275L35.3725 16.4169C35.6117 16.6561 35.9833 16.7007 36.272 16.5245L38.1062 15.406C38.2111 15.4526 38.3171 15.4968 38.4239 15.538L38.9301 17.6254C39.0095 17.9539 39.3036 18.1854 39.642 18.1854H42.173C42.511 18.1854 42.8051 17.9539 42.8848 17.6254L43.3907 15.538C43.4975 15.4968 43.6035 15.4526 43.7084 15.406L45.5429 16.5245C45.8317 16.7004 46.2032 16.6561 46.442 16.4169L47.9343 14.9246C48.3212 15.4175 48.5352 16.0259 48.5352 16.6721V34.594Z" fill="white"/>
</g>
<defs>
<clipPath id="clip0_909_8384">
<rect width="50" height="50" fill="white"/>
</clipPath>
</defs>
</svg>
