<svg width="16" height="10" viewBox="0 0 16 10" fill="none" xmlns="http://www.w3.org/2000/svg">
<path d="M12.9472 5.64344C12.7044 5.33687 12.7747 5.20094 12.9472 4.92719C12.95 4.92437 14.9525 2.15781 15.1578 1.21937L15.1587 1.21844C15.2619 0.87625 15.1588 0.625 14.6628 0.625H13.0222C12.605 0.625 12.4119 0.840625 12.3097 1.08156C12.3097 1.08156 11.4744 3.08031 10.2931 4.37594C9.91156 4.75 9.73625 4.87094 9.52719 4.87094C9.42406 4.87094 9.26563 4.75094 9.26563 4.40875V1.21844C9.26563 0.80875 9.14844 0.625 8.80344 0.625H6.22437C5.96281 0.625 5.80719 0.81625 5.80719 0.994375C5.80719 1.3825 6.39781 1.4725 6.45875 2.56656V4.94031C6.45875 5.45969 6.36406 5.55531 6.155 5.55531C5.59812 5.55531 4.24437 3.54813 3.44281 1.25219C3.28156 0.806876 3.12219 0.625938 2.70219 0.625938H1.0625C0.594688 0.625938 0.5 0.841562 0.5 1.0825C0.5 1.50906 1.05688 3.62781 3.09219 6.42812C4.44875 8.33969 6.35844 9.37563 8.09562 9.37563C9.14 9.37563 9.2675 9.14594 9.2675 8.74937C9.2675 6.92312 9.17281 6.75062 9.69594 6.75062C9.93875 6.75062 10.3559 6.87062 11.3309 7.79219C12.4447 8.88625 12.6284 9.37563 13.2519 9.37563H14.8925C15.3603 9.37563 15.5975 9.14594 15.4606 8.69219C15.1494 7.73875 13.0419 5.77469 12.9472 5.64344V5.64344Z" fill="white"/>
</svg>
